<svg width="22" height="20" viewBox="0 0 22 20" fill="none" xmlns="http://www.w3.org/2000/svg">
<path d="M15.4219 15.1016C15.0858 14.8264 14.7487 14.5465 14.4209 14.2588C14.2203 14.0842 14.0527 13.9327 13.915 13.8096H13.9141C13.8252 13.7301 13.7473 13.6634 13.6846 13.6055L13.4443 13.3828C13.3507 13.3027 13.2454 13.1797 13.127 13.0146C12.9669 13.232 12.785 13.4355 12.5811 13.625L12.3701 13.8096C12.2214 13.9322 12.063 14.0491 11.8936 14.1582C11.3921 14.481 10.8514 14.7195 10.2783 14.8672C9.70268 15.0172 9.10982 15.1015 8.50391 15.124C7.89778 15.1465 7.31276 15.0672 6.76172 14.8896C6.21074 14.712 5.71151 14.4684 5.27344 14.1582C5.19988 14.1064 5.12889 14.0512 5.06055 13.9932L4.8623 13.8096C4.60902 13.5547 4.39398 13.2522 4.21973 12.8975C3.9552 12.3644 3.82617 11.7602 3.82617 11.082C3.82623 10.4566 3.94475 9.88368 4.18164 9.36328C4.41862 8.84029 4.72178 8.40688 5.09375 8.06152C5.46573 7.71623 5.91535 7.40599 6.44434 7.13574C6.97058 6.86553 7.48913 6.65265 7.99609 6.5C8.50295 6.34742 9.05135 6.21684 9.64355 6.11426C10.2357 6.0092 10.7404 5.93881 11.1592 5.90625C11.5779 5.87373 11.9973 5.849 12.416 5.83398V4.41699C12.416 3.93191 12.3283 3.57168 12.1494 3.33398C11.8628 2.94116 11.352 2.74316 10.6162 2.74316C10.564 2.74319 10.4949 2.74546 10.4072 2.75293C10.3189 2.76302 10.1477 2.80619 9.89453 2.88867C9.64396 2.97123 9.40682 3.08122 9.18652 3.21875C8.96891 3.35639 8.72898 3.57671 8.47559 3.88184C8.22486 4.18713 8.02069 4.54275 7.86914 4.95312L4.14258 4.65527C4.14258 4.20733 4.23629 3.76411 4.4209 3.32617C4.60552 2.88826 4.88931 2.46734 5.26953 2.06445C5.64975 1.66162 6.10794 1.30919 6.63965 1.00391C7.17422 0.698619 7.81384 0.455155 8.56055 0.272461C9.30997 0.0923089 10.1123 5.18997e-05 10.9746 0C11.8176 0 12.5843 0.0922854 13.2676 0.277344C13.9536 0.462491 14.4996 0.693679 14.9102 0.963867C15.3179 1.2341 15.66 1.54438 15.9355 1.88965C16.2111 2.23499 16.3984 2.55584 16.5059 2.84863C16.6105 3.1438 16.6631 3.41628 16.6631 3.66895V10.2461C16.6631 10.4763 16.721 10.7147 16.834 10.96C16.9469 11.2052 17.0822 11.4232 17.2393 11.6084C17.3935 11.7935 17.5541 11.966 17.7139 12.1211C17.8735 12.2786 18.0144 12.3969 18.1328 12.4795L18.2979 12.6016L16.9072 13.8096H16.9082L15.4219 15.1016ZM12.4189 7.89648C11.9231 7.91152 11.4517 7.95621 11.0137 8.03125C10.5728 8.10384 10.1232 8.22915 9.66309 8.4043C9.20298 8.5795 8.83608 8.84543 8.56055 9.19824C8.28524 9.55349 8.1475 9.97883 8.14746 10.4766C8.14746 11.1147 8.4428 11.6106 9.03516 11.9609C9.59168 12.2886 10.1788 12.3711 10.7959 12.2061C11.504 12.0209 11.9867 11.5631 12.2402 10.835C12.3587 10.5021 12.4189 10.1235 12.4189 9.70801V7.89648Z" fill="white"/>
<path d="M0.270508 15.0713C0.323672 15.0739 0.375186 15.0912 0.416992 15.1211C2.03987 15.9918 3.30756 16.6072 4.21973 16.9727C7.5049 18.2816 10.8814 18.6173 14.3457 17.9766C15.9496 17.6787 17.6003 17.1755 19.2979 16.4697C19.4245 16.4272 19.5351 16.4151 19.626 16.4375C19.7167 16.4575 19.7662 16.5226 19.7637 16.6348C19.7637 16.7423 19.7007 16.8654 19.5742 17.0078C19.4668 17.1279 19.2793 17.289 19.0176 17.4941C18.7558 17.6968 18.3531 17.9517 17.8076 18.252C17.262 18.5523 16.6663 18.8304 16.0215 19.0781C15.3739 19.3284 14.5801 19.5439 13.6377 19.7266C12.6979 19.9068 11.7272 19.999 10.7295 19.999C9.72642 19.999 8.72067 19.8835 7.71484 19.6533C6.70896 19.4231 5.82703 19.1377 5.06641 18.7998C4.30857 18.4619 3.57808 18.0741 2.88086 17.6387C2.18368 17.2032 1.62379 16.8131 1.20215 16.4678C0.780541 16.1224 0.425267 15.7965 0.138672 15.4912C0.0700129 15.4238 0.028325 15.3616 0.0117188 15.3066C-0.00748542 15.2492 -0.00231126 15.2034 0.0224609 15.1709C0.0472506 15.1385 0.0809908 15.1137 0.125 15.0938C0.168958 15.0739 0.215593 15.0688 0.270508 15.0713ZM19.5908 14.9287C19.982 14.8762 20.4366 14.873 20.96 14.918C21.4834 14.963 21.8033 15.0515 21.9219 15.1865C22.0126 15.3067 22.024 15.5644 21.958 15.9619C21.8864 16.3597 21.7647 16.7402 21.5967 17.1055C21.3073 17.7236 20.9494 18.1849 20.5195 18.4902C20.3763 18.5928 20.2686 18.6273 20.1914 18.5898C20.1143 18.5523 20.1143 18.4649 20.1914 18.3223C20.3677 17.987 20.5546 17.5337 20.7529 16.9658C20.9512 16.3979 20.9791 16.0324 20.8359 15.8672C20.7946 15.8147 20.7286 15.7718 20.6406 15.7393C20.5525 15.7043 20.4392 15.6819 20.2988 15.6719C20.1583 15.6619 20.0341 15.652 19.9238 15.6445C19.8137 15.637 19.6649 15.637 19.4805 15.6445C19.2958 15.652 19.16 15.6595 19.0801 15.667C19.0001 15.6745 18.868 15.6842 18.6865 15.6992C18.5046 15.7142 18.4106 15.7217 18.4023 15.7217C18.3501 15.7292 18.2951 15.7367 18.2373 15.7393C18.1768 15.7418 18.1297 15.7465 18.0967 15.749C18.0637 15.7515 18.0278 15.7563 17.9893 15.7588C17.9509 15.7613 17.9233 15.7646 17.9014 15.7646H17.7744L17.7354 15.7588L17.7109 15.7422L17.6914 15.709C17.6424 15.5914 17.8384 15.4412 18.2871 15.2637C18.7334 15.0836 19.1693 14.9737 19.5908 14.9287Z" fill="#F98900"/>
</svg>
