<svg width="25" height="24" viewBox="0 0 25 24" fill="none" xmlns="http://www.w3.org/2000/svg">
<path d="M24.5198 6.12574C24.5198 5.38774 24.4576 4.65274 24.2813 3.93424C23.9648 2.62549 23.2186 1.62574 22.1018 0.891488C21.5273 0.516488 20.8951 0.286238 20.2231 0.164738C19.7071 0.0709883 19.1843 0.0282383 18.6608 0.0162383C18.6218 0.0124883 18.5791 0.00423828 18.5356 0.000488281H6.51231C6.36006 0.0124883 6.20781 0.0199883 6.05556 0.0274883C5.30931 0.0702383 4.56756 0.148238 3.86406 0.429488C2.52831 0.956738 1.56306 1.87849 1.00056 3.20674C0.805559 3.65599 0.707309 4.13224 0.637559 4.61674C0.579059 5.00749 0.547559 5.40199 0.536309 5.79649C0.536309 5.82799 0.528809 5.85874 0.528809 5.89024V18.113C0.536309 18.254 0.544559 18.3942 0.552059 18.5352C0.603059 19.352 0.708059 20.1605 1.05231 20.9105C1.70106 22.3287 2.79081 23.2617 4.28706 23.711C4.70481 23.84 5.14281 23.8985 5.58006 23.9375C6.13506 23.9922 6.68931 23.9997 7.24431 23.9997H18.2753C18.7988 23.9997 19.3223 23.9645 19.8458 23.8985C20.6701 23.7927 21.4433 23.5505 22.1431 23.09C22.9831 22.535 23.6161 21.8007 24.0218 20.8827C24.2093 20.4605 24.3151 20.012 24.3931 19.5582C24.5063 18.8825 24.5296 18.1985 24.5296 17.5152C24.5258 13.718 24.5296 9.92149 24.5258 6.12424L24.5198 6.12574ZM18.0976 10.1135V15.8247C18.0976 16.2425 18.0391 16.6527 17.8516 17.0315C17.5628 17.621 17.0941 17.9922 16.4648 18.1722C16.1168 18.2735 15.7576 18.3282 15.3946 18.344C14.4451 18.3912 13.6208 17.7462 13.4528 16.8087C13.3081 16.0355 13.6793 15.1835 14.4916 14.7852C14.8118 14.6292 15.1598 14.5355 15.5071 14.465C15.8858 14.3832 16.2646 14.309 16.6396 14.2227C16.9171 14.1605 17.0963 13.9925 17.1511 13.7067C17.1668 13.6445 17.1706 13.5777 17.1706 13.5155C17.1706 11.699 17.1706 9.88249 17.1706 8.07049C17.1706 8.00824 17.1586 7.94524 17.1436 7.88674C17.1046 7.73449 16.9951 7.64449 16.8391 7.65199C16.6786 7.65949 16.5226 7.68724 16.3666 7.71874C15.6046 7.86724 14.8433 8.01949 14.0851 8.17549L10.3861 8.92174C10.3703 8.92549 10.3508 8.93374 10.3351 8.93374C10.0576 9.01174 9.96006 9.13699 9.94806 9.42574C9.94431 9.46849 9.94806 9.51199 9.94806 9.55474C9.94431 12.1565 9.94806 14.7582 9.94431 17.3592C9.94431 17.7815 9.89706 18.1955 9.72981 18.5855C9.45231 19.226 8.96031 19.6287 8.29656 19.82C7.94481 19.9212 7.58556 19.9805 7.21806 19.9917C6.26106 20.027 5.46381 19.3902 5.30031 18.449C5.15931 17.6367 5.53056 16.7615 6.45231 16.3707C6.81156 16.2222 7.18281 16.1405 7.56156 16.0625C7.84656 16.004 8.13606 15.9455 8.42106 15.887C8.80356 15.8052 9.00306 15.563 9.02256 15.1722V15.0237C9.02256 12.0627 9.02256 9.10174 9.02256 6.14074C9.02256 6.01549 9.03831 5.89099 9.06531 5.76949C9.13581 5.48449 9.33906 5.32024 9.61206 5.25349C9.86631 5.18674 10.1281 5.14024 10.3853 5.08549C11.1196 4.93699 11.8501 4.78849 12.5843 4.64374L14.8538 4.18249C15.5258 4.04974 16.1933 3.91324 16.8653 3.78049C17.0843 3.73774 17.3071 3.69049 17.5291 3.67474C17.8373 3.64774 18.0526 3.84274 18.0841 4.15549C18.0916 4.22974 18.0961 4.30399 18.0961 4.37824C18.0961 6.28849 18.0961 8.19874 18.0961 10.109L18.0976 10.1135Z" fill="white" fill-opacity="0.8"/>
</svg>
