<svg width="24" height="24" viewBox="0 0 24 24" fill="none" xmlns="http://www.w3.org/2000/svg">
<path d="M23.991 6.12525C23.991 5.38725 23.9288 4.65225 23.7525 3.93375C23.436 2.625 22.6898 1.62525 21.573 0.891C20.9985 0.516 20.3663 0.28575 19.6943 0.16425C19.1782 0.0705 18.6555 0.02775 18.132 0.01575C18.093 0.012 18.0503 0.00375 18.0068 0H5.9835C5.83125 0.012 5.679 0.0195 5.52675 0.027C4.7805 0.06975 4.03875 0.14775 3.33525 0.429C1.9995 0.95625 1.03425 1.878 0.47175 3.20625C0.27675 3.6555 0.1785 4.13175 0.10875 4.61625C0.05025 5.007 0.01875 5.4015 0.0075 5.796C0.0075 5.8275 0 5.85825 0 5.88975V18.1125C0.0075 18.2535 0.01575 18.3937 0.02325 18.5347C0.07425 19.3515 0.17925 20.16 0.5235 20.91C1.17225 22.3283 2.262 23.2613 3.75825 23.7105C4.176 23.8395 4.614 23.898 5.05125 23.937C5.60625 23.9918 6.1605 23.9993 6.7155 23.9993H17.7465C18.27 23.9993 18.7935 23.964 19.317 23.898C20.1413 23.7923 20.9145 23.55 21.6143 23.0895C22.4543 22.5345 23.0872 21.8002 23.493 20.8822C23.6805 20.46 23.7863 20.0115 23.8643 19.5578C23.9775 18.882 24.0007 18.198 24.0007 17.5148C23.997 13.7175 24.0007 9.921 23.997 6.12375L23.991 6.12525ZM17.5687 10.113V15.8243C17.5687 16.242 17.5103 16.6523 17.3228 17.031C17.034 17.6205 16.5652 17.9917 15.936 18.1717C15.588 18.273 15.2287 18.3277 14.8657 18.3435C13.9162 18.3908 13.092 17.7458 12.924 16.8083C12.7793 16.035 13.1505 15.183 13.9628 14.7847C14.283 14.6287 14.631 14.535 14.9783 14.4645C15.357 14.3827 15.7358 14.3085 16.1108 14.2222C16.3883 14.16 16.5675 13.992 16.6222 13.7062C16.638 13.644 16.6418 13.5773 16.6418 13.515C16.6418 11.6985 16.6418 9.882 16.6418 8.07C16.6418 8.00775 16.6297 7.94475 16.6147 7.88625C16.5758 7.734 16.4662 7.644 16.3102 7.6515C16.1497 7.659 15.9938 7.68675 15.8378 7.71825C15.0758 7.86675 14.3145 8.019 13.5563 8.175L9.85725 8.92125C9.8415 8.925 9.822 8.93325 9.80625 8.93325C9.52875 9.01125 9.43125 9.1365 9.41925 9.42525C9.4155 9.468 9.41925 9.5115 9.41925 9.55425C9.4155 12.156 9.41925 14.7577 9.4155 17.3587C9.4155 17.781 9.36825 18.195 9.201 18.585C8.9235 19.2255 8.4315 19.6283 7.76775 19.8195C7.416 19.9207 7.05675 19.98 6.68925 19.9913C5.73225 20.0265 4.935 19.3897 4.7715 18.4485C4.6305 17.6362 5.00175 16.761 5.9235 16.3703C6.28275 16.2218 6.654 16.14 7.03275 16.062C7.31775 16.0035 7.60725 15.945 7.89225 15.8865C8.27475 15.8047 8.47425 15.5625 8.49375 15.1718V15.0233C8.49375 12.0623 8.49375 9.10125 8.49375 6.14025C8.49375 6.015 8.5095 5.8905 8.5365 5.769C8.607 5.484 8.81025 5.31975 9.08325 5.253C9.3375 5.18625 9.59925 5.13975 9.8565 5.085C10.5908 4.9365 11.3212 4.788 12.0555 4.64325L14.325 4.182C14.997 4.04925 15.6645 3.91275 16.3365 3.78C16.5555 3.73725 16.7782 3.69 17.0002 3.67425C17.3085 3.64725 17.5238 3.84225 17.5553 4.155C17.5627 4.22925 17.5672 4.3035 17.5672 4.37775C17.5672 6.288 17.5672 8.19825 17.5672 10.1085L17.5687 10.113Z" fill="url(#paint0_linear_86_295)"/>
<defs>
<linearGradient id="paint0_linear_86_295" x1="12.0004" y1="0" x2="12.0004" y2="23.9993" gradientUnits="userSpaceOnUse">
<stop offset="0.22" stop-color="#FF4E6B"/>
<stop offset="1" stop-color="#FF0436"/>
</linearGradient>
</defs>
</svg>
