<svg width="344" height="74" viewBox="0 0 344 74" fill="none" xmlns="http://www.w3.org/2000/svg">
<g clip-path="url(#clip0_102_2)">
<path d="M1.6275 22.1288C4.96456 19.683 12.489 14.3001 15.4859 13.5879C13.7376 15.2603 11.3761 18.9424 10.584 21.2314C13.8286 18.4392 20.5012 12.9876 23.9248 12.1246C23.9248 12.1246 18.9751 18.5885 19.2108 28.4972C19.2108 28.4972 23.5011 16.843 30.2408 12.8801C30.2408 12.8801 27.0351 17.6463 26.9888 23.2607C26.9888 23.2607 31.0449 15.0527 39.6225 12.692L39.1988 10.3328L41.3201 12.4083L40.9904 6.36843C40.9904 6.36843 43.6293 9.29354 43.7711 13.2564L48.2016 10.6135C48.2016 10.6135 48.2016 5.14104 47.4005 3.20589C47.4005 3.20589 45.4209 8.11245 44.9018 8.58429C44.9018 8.58429 40.6115 2.16814 38.1143 1.03482C38.1143 1.03482 39.4345 4.90363 39.3868 5.61139C39.3868 5.61139 33.4944 1.45888 28.6864 0.657051C28.6864 0.657051 32.0339 4.19586 32.3636 4.90363C32.3636 4.90363 26.4712 1.12889 18.8349 -0.00292969C18.8349 -0.00292969 23.4071 3.44181 23.7368 3.91365C23.7368 3.91365 14.0732 1.79037 7.47369 4.3855C7.47369 4.3855 14.828 5.18733 17.2313 6.41471C17.2313 6.41471 7.8511 8.30208 1.95867 15.8038C1.95867 15.8038 7.6154 13.2564 8.74615 12.9249C6.40559 14.8213 3.05064 19.0201 1.62899 22.1258" fill="white"/>
<path d="M54.3372 15.0435C54.3372 15.0435 52.6366 12.432 48.7475 10.7537L47.5139 14.2492C47.5139 14.2492 51.8922 13.8087 54.3372 15.0435Z" fill="white"/>
<path d="M49.3786 15.381C49.1459 15.2929 45.6611 16.7517 44.4155 18.0821C44.4155 18.0821 48.1404 17.4759 53.9806 21.5493C53.9806 21.5493 50.7077 15.8782 49.3801 15.3795" fill="white"/>
<path d="M4.43947 31.4298L4.88252 28.1597C4.88252 28.1597 6.76511 26.7741 6.8755 26.6083C6.98589 26.4426 6.36831 20.8984 6.36831 20.8984L3.88454 22.9501L4.43798 31.4313L4.43947 31.4298Z" fill="white"/>
<path d="M2.81644 34.1309C2.39725 34.5788 1.64093 35.2298 1.15164 35.5927C0.374435 36.2064 -0.0939757 37.2381 0.0164141 38.2386L0.839862 44.707L1.67077 44.9011L1.62751 42.9092C1.62154 42.6016 1.86768 42.3493 2.17498 42.3493C2.45692 42.3493 2.69113 42.5628 2.71947 42.842C2.81644 43.82 3.03871 46.018 3.22219 47.2827C3.14611 47.547 2.64936 47.6216 2.50168 47.4484L1.32916 46.4032C1.42165 47.1797 1.52309 48.2249 1.61408 49.0013C2.51212 50.396 4.51107 52.2788 5.82232 53.0478L3.80249 34.9685L2.81494 34.1309H2.81644Z" fill="white"/>
<path d="M49.2115 26.6306C49.3219 26.7963 51.206 28.182 51.206 28.182L51.649 31.452L52.2025 22.9708L49.7187 20.9192C49.7187 20.9192 49.1011 26.4618 49.2115 26.6291" fill="white"/>
<path d="M54.7698 35.5912C54.2805 35.2299 53.5241 34.5773 53.105 34.1294L52.1174 34.9671L50.0976 53.0464C51.4088 52.2774 53.4093 50.3945 54.3058 48.9999C54.3983 48.2234 54.4997 47.1782 54.5922 46.4018L53.4197 47.447C53.2735 47.6202 52.7753 47.5455 52.6992 47.2812C52.8827 46.015 53.105 43.8171 53.2019 42.8405C53.2288 42.5598 53.4645 42.3478 53.7464 42.3478C54.0537 42.3478 54.2999 42.6001 54.2939 42.9077L54.2506 44.8996L55.0815 44.7055L55.905 38.2371C56.0154 37.2367 55.547 36.2064 54.7698 35.5912Z" fill="white"/>
<path d="M8.64771 50.6633L10.0321 61.8606L16.014 68.9562L14.9608 57.5379L8.64771 50.6633Z" fill="white"/>
<path d="M40.076 68.9562L46.0579 61.8606L47.4423 50.6633L41.1292 57.5379L40.076 68.9562Z" fill="white"/>
<path d="M30.7436 67.8481H25.2614C23.8845 67.8481 22.7686 68.965 22.7686 70.3432V72.144C22.7686 73.1698 23.5996 74.0015 24.6244 74.0015H31.1031C32.1279 74.0015 32.9588 73.1698 32.9588 72.144V70.0655C32.9588 68.8411 31.9668 67.8481 30.7436 67.8481Z" fill="white"/>
<path d="M32.6933 61.862L31.2761 61.3528H24.6408L23.2236 61.862C21.7065 62.3592 22.6657 64.6467 24.0889 63.8957C24.2992 63.6164 31.6148 63.6105 31.8296 63.8957C33.2512 64.6467 34.2104 62.3607 32.6933 61.862Z" fill="white"/>
<path d="M32.2741 52.6672C32.1562 51.4025 30.7958 50.6633 30.7958 50.6633L30.8808 52.5806C30.0126 52.591 29.7277 52.1893 29.7277 52.1893C29.665 52.9837 27.8645 53.0046 27.8645 53.0046C27.8645 53.0046 26.0654 52.9837 26.0013 52.1893C26.0013 52.1893 25.7149 52.5925 24.8481 52.5806L24.9332 50.6633C24.9332 50.6633 23.5712 51.4025 23.4548 52.6672C23.3728 53.5451 23.9561 54.3515 24.79 54.6382L26.9411 55.3788C27.0127 55.4027 27.0604 55.4698 27.0604 55.546V56.6853C27.0604 56.7599 27.0947 56.8316 27.1559 56.8749C27.2648 56.9526 27.4811 57.0526 27.8645 57.0526C28.2479 57.0526 28.4627 56.9526 28.5731 56.8749C28.6342 56.8316 28.6685 56.7614 28.6685 56.6853V55.546C28.6685 55.4698 28.7163 55.4027 28.7879 55.3788L30.939 54.6382C31.7729 54.3515 32.3561 53.5451 32.2741 52.6672Z" fill="white"/>
<path d="M43.9008 32.7511H11.6118C8.71632 32.7511 6.3683 35.0998 6.3683 37.9996V41.074C6.3683 42.0804 6.58759 43.0331 6.97694 43.8931L14.8698 34.949C15.1458 34.637 15.5948 34.5056 15.9752 34.6758C16.6062 34.958 16.7375 35.724 16.3213 36.1958L8.04802 45.57C8.52239 46.1165 9.08031 46.5868 9.70237 46.9616L17.7743 37.8159C18.1905 37.3441 18.9662 37.3814 19.3242 37.9727C19.539 38.3296 19.4659 38.7925 19.1899 39.1045L11.5715 47.7365C12.1071 47.8709 12.6635 47.9486 13.2393 47.9486C18.0234 47.9486 22.6299 45.2922 25.7119 41.5817C25.8074 41.4667 25.9342 41.3488 26.0833 41.2308C27.2633 40.305 28.9952 40.3991 30.0499 41.4667C30.0887 41.5055 30.123 41.5444 30.1543 41.5817C31.018 42.6224 32.0071 43.5766 33.0811 44.4157L41.426 34.9595C41.7363 34.6071 42.2614 34.4906 42.6627 34.734C43.1908 35.0536 43.2788 35.7509 42.8909 36.1914L34.6594 45.5192C35.3009 45.9208 35.9677 46.2777 36.6524 46.5898L44.3424 37.8756C44.6527 37.5233 45.1778 37.4068 45.5791 37.6502C46.1057 37.9697 46.1952 38.667 45.8073 39.1075L38.5633 47.3155C39.9686 47.747 41.4275 47.9725 42.9014 47.9411C46.5323 47.8635 49.4994 44.6845 49.4994 41.0486V38.3475C49.4994 35.2536 46.9932 32.7451 43.9023 32.7451M31.9161 37.362C31.9161 37.795 31.5655 38.1459 31.1329 38.1459H24.7378C24.3052 38.1459 23.9546 37.795 23.9546 37.362V36.6214C23.9546 36.1884 24.3052 35.8375 24.7378 35.8375H31.1329C31.5655 35.8375 31.9161 36.1884 31.9161 36.6214V37.362Z" fill="white"/>
<path d="M76.7761 44.2277L77.1311 42.6957H92.4395L93.8626 36.5662H78.5558L78.9123 35.0342H100.341L101.766 28.9062H74.2133L69.2293 50.3556H92.1233L99.67 44.2277H76.7761Z" fill="white"/>
<path d="M108.962 35.0342H124.269L125.694 28.9062H104.263L101.059 42.6957H119.428L119.072 44.2277H103.765L96.2181 50.3556H123.771L126.975 36.5662H108.606L108.962 35.0342Z" fill="white"/>
<path d="M149.621 28.9062H128.191L126.768 35.0342H135.186L129.059 61.4051L136.606 55.2771L141.309 35.0342H148.197L149.621 28.9062Z" fill="white"/>
<path d="M179.986 28.9062H152.433L147.449 50.3556H153.572L155.708 41.1637L157.132 35.0342H163.255L155.708 41.1637L163.131 50.3556H172.315L164.893 41.1637L179.986 28.9062Z" fill="white"/>
<path d="M228.574 28.9062H207.143L205.72 35.0342H214.138L208.012 61.4051L215.558 55.2771L220.262 35.0342H227.149L228.574 28.9062Z" fill="white"/>
<path d="M175.852 35.0342H197.283L196.215 39.6302H183.969L184.681 36.5662H178.558L175.354 50.3556H181.476L182.544 45.7597H194.79L193.722 50.3556H199.846L204.83 28.9062H183.399L175.852 35.0342Z" fill="white"/>
<path d="M256.243 28.9062H231.751L226.768 50.3571H251.259L256.243 28.9062ZM246.56 44.2277H234.314L236.45 35.0342H248.696L246.56 44.2277Z" fill="white"/>
<path d="M286.096 28.9062L281.112 50.3556H287.236L292.22 28.9062H286.096Z" fill="white"/>
<path d="M299.965 35.0342H315.273L316.696 28.9062H295.266L290.282 50.3556H311.712L313.137 44.2277H297.829L299.965 35.0342Z" fill="white"/>
<path d="M319.508 28.9062L314.524 50.3571H339.016L344 28.9062H319.508ZM334.317 44.2277H322.071L324.207 35.0342H336.453L334.317 44.2277Z" fill="white"/>
<path d="M279.194 20.7416L274.556 40.6859L268.977 35.0342L262.923 28.9048H258.925L251.205 61.4051L258.754 55.2786L260.32 48.5325L262.799 38.5745L277.666 53.6331L286.717 14.6853L279.194 20.7416Z" fill="white"/>
</g>
<defs>
<clipPath id="clip0_102_2">
<rect width="344" height="74" fill="white"/>
</clipPath>
</defs>
</svg>
