<svg width="30" height="30" viewBox="0 0 30 30" fill="none" xmlns="http://www.w3.org/2000/svg">
<g filter="url(#filter0_d_264_1619)">
<path d="M15.0374 27.7912C13.1001 27.7912 11.1629 27.8728 9.22565 27.773C4.99309 27.5644 2.27544 24.9603 2.11018 20.7685C1.96327 16.9487 1.96327 13.1107 2.11018 9.28182C2.26626 5.2896 4.67175 2.63115 8.68396 2.36803C12.9073 2.09583 17.1674 2.13212 21.4 2.36803C25.146 2.58578 27.579 4.89945 27.8085 8.60133C28.084 12.9837 28.0381 17.4114 27.7351 21.7938C27.4964 25.2598 24.6594 27.5734 21.1154 27.7458C19.0955 27.8366 17.0573 27.764 15.0282 27.764C15.0282 27.764 15.0282 27.764 15.0282 27.773L15.0374 27.7912ZM4.47894 15.007H4.38713C4.38713 16.3136 4.37795 17.6201 4.38713 18.9267C4.38713 19.5346 4.44221 20.1425 4.47894 20.7504C4.6442 23.4542 6.16829 25.2598 8.87677 25.3686C12.9257 25.541 16.993 25.5592 21.0419 25.3868C23.879 25.2688 25.4122 23.6719 25.5224 20.8865C25.6693 17.0031 25.6693 13.1016 25.5224 9.21831C25.4214 6.33302 23.6494 4.67262 20.7206 4.60004C16.9104 4.50023 13.091 4.50931 9.28074 4.60004C6.37946 4.67262 4.60748 6.46912 4.48812 9.34533C4.40549 11.2235 4.46976 13.1107 4.46976 14.9979L4.47894 15.007Z" fill="white" fill-opacity="0.7"/>
<path d="M14.9914 21.6395C11.2363 21.5851 8.27074 18.5909 8.33501 14.9163C8.39928 11.3051 11.475 8.38357 15.1567 8.438C18.82 8.49244 21.7488 11.5048 21.7029 15.1703C21.657 18.7543 18.6088 21.7031 14.9914 21.6486V21.6395ZM10.7038 15.0161C10.7038 17.4114 12.5859 19.3077 15.0098 19.3168C17.3969 19.3349 19.3801 17.3933 19.3709 15.0524C19.3709 12.6661 17.452 10.7607 15.0465 10.7607C12.6135 10.7607 10.7038 12.6208 10.7038 15.0161Z" fill="white" fill-opacity="0.7"/>
<path d="M21.9418 6.62333C22.7498 6.60518 23.4659 7.2766 23.5118 8.09319C23.5577 8.95515 22.8691 9.69008 22.0061 9.69915C21.1798 9.7173 20.4728 9.06403 20.4269 8.23836C20.381 7.39455 21.088 6.64148 21.9418 6.61426V6.62333Z" fill="white" fill-opacity="0.7"/>
</g>
<defs>
<filter id="filter0_d_264_1619" x="0" y="0.177246" width="29.9912" height="29.6455" filterUnits="userSpaceOnUse" color-interpolation-filters="sRGB">
<feFlood flood-opacity="0" result="BackgroundImageFix"/>
<feColorMatrix in="SourceAlpha" type="matrix" values="0 0 0 0 0 0 0 0 0 0 0 0 0 0 0 0 0 0 127 0" result="hardAlpha"/>
<feOffset/>
<feGaussianBlur stdDeviation="1"/>
<feComposite in2="hardAlpha" operator="out"/>
<feColorMatrix type="matrix" values="0 0 0 0 0 0 0 0 0 0 0 0 0 0 0 0 0 0 0.4 0"/>
<feBlend mode="normal" in2="BackgroundImageFix" result="effect1_dropShadow_264_1619"/>
<feBlend mode="normal" in="SourceGraphic" in2="effect1_dropShadow_264_1619" result="shape"/>
</filter>
</defs>
</svg>
