<svg width="26" height="26" viewBox="0 0 26 26" fill="none" xmlns="http://www.w3.org/2000/svg">
<path d="M13.0374 25.6139C11.1001 25.6139 9.1629 25.6956 7.22565 25.5958C2.99309 25.3871 0.275438 22.7831 0.110175 18.5913C-0.0367251 14.7714 -0.0367251 10.9335 0.110175 7.10457C0.266257 3.11236 2.67175 0.453903 6.68396 0.19078C10.9073 -0.0814165 15.1674 -0.0451237 19.4 0.19078C23.146 0.408537 25.579 2.72221 25.8085 6.42408C26.084 10.8064 26.0381 15.2342 25.7351 19.6165C25.4964 23.0825 22.6594 25.3962 19.1154 25.5686C17.0955 25.6593 15.0573 25.5867 13.0282 25.5867C13.0282 25.5867 13.0282 25.5867 13.0282 25.5958L13.0374 25.6139ZM2.47894 12.8298H2.38713C2.38713 14.1363 2.37795 15.4429 2.38713 16.7494C2.38713 17.3573 2.44221 17.9652 2.47894 18.5731C2.6442 21.2769 4.16829 23.0825 6.87677 23.1914C10.9257 23.3638 14.993 23.3819 19.0419 23.2095C21.879 23.0916 23.4122 21.4947 23.5224 18.7092C23.6693 14.8259 23.6693 10.9244 23.5224 7.04106C23.4214 4.15578 21.6494 2.49538 18.7206 2.42279C14.9104 2.32299 11.091 2.33206 7.28074 2.42279C4.37946 2.49538 2.60748 4.29187 2.48812 7.16809C2.40549 9.04624 2.46976 10.9335 2.46976 12.8207L2.47894 12.8298Z" fill="url(#paint0_linear_481_17165)"/>
<path d="M12.9915 19.4624C9.23633 19.4079 6.27078 16.4138 6.33505 12.7391C6.39932 9.12799 9.47505 6.20641 13.1567 6.26085C16.8201 6.31529 19.7489 9.3276 19.703 12.9932C19.6571 16.5771 16.6089 19.5259 12.9915 19.4715V19.4624ZM8.70381 12.8389C8.70381 15.2343 10.586 17.1306 13.0098 17.1396C15.397 17.1578 17.3801 15.2161 17.3709 12.8752C17.3709 10.489 15.452 8.5836 13.0466 8.5836C10.6135 8.5836 8.70381 10.4436 8.70381 12.8389Z" fill="url(#paint1_linear_481_17165)"/>
<path d="M19.9417 4.44603C20.7497 4.42789 21.4658 5.09931 21.5117 5.9159C21.5576 6.77785 20.869 7.51278 20.006 7.52186C19.1797 7.54 18.4727 6.88673 18.4268 6.06107C18.3809 5.21726 19.0879 4.46418 19.9417 4.43696V4.44603Z" fill="url(#paint2_linear_481_17165)"/>
<defs>
<linearGradient id="paint0_linear_481_17165" x1="22.6784" y1="3.9956" x2="2.32159" y2="23.1489" gradientUnits="userSpaceOnUse">
<stop stop-color="#8D23E0"/>
<stop offset="0.442308" stop-color="#F30A5D"/>
<stop offset="0.75" stop-color="#F48301"/>
<stop offset="1" stop-color="#F5AF01"/>
</linearGradient>
<linearGradient id="paint1_linear_481_17165" x1="22.6784" y1="3.9956" x2="2.32159" y2="23.1489" gradientUnits="userSpaceOnUse">
<stop stop-color="#8D23E0"/>
<stop offset="0.442308" stop-color="#F30A5D"/>
<stop offset="0.75" stop-color="#F48301"/>
<stop offset="1" stop-color="#F5AF01"/>
</linearGradient>
<linearGradient id="paint2_linear_481_17165" x1="22.6784" y1="3.9956" x2="2.32159" y2="23.1489" gradientUnits="userSpaceOnUse">
<stop stop-color="#8D23E0"/>
<stop offset="0.442308" stop-color="#F30A5D"/>
<stop offset="0.75" stop-color="#F48301"/>
<stop offset="1" stop-color="#F5AF01"/>
</linearGradient>
</defs>
</svg>
