<svg width="34" height="35" viewBox="0 0 34 35" fill="none" xmlns="http://www.w3.org/2000/svg">
<g filter="url(#filter0_d_264_1558)">
<path d="M17.1816 32.016C15.0713 32.016 12.961 32.1115 10.8507 31.9948C6.23998 31.7508 3.27954 28.7057 3.09951 23.8038C2.93949 19.337 2.93949 14.8489 3.09951 10.3715C3.26954 5.70302 5.88993 2.59426 10.2606 2.28657C14.8613 1.96827 19.502 2.01071 24.1127 2.28657C28.1933 2.54121 30.8437 5.24678 31.0937 9.5757C31.3938 14.7004 31.3438 19.8781 31.0137 25.0028C30.7537 29.0558 27.6632 31.7614 23.8026 31.963C21.6023 32.0691 19.382 31.9842 17.1716 31.9842C17.1716 31.9842 17.1716 31.9842 17.1716 31.9948L17.1816 32.016ZM5.6799 17.0664H5.57988C5.57988 18.5943 5.56988 20.1221 5.57988 21.65C5.57988 22.3608 5.63989 23.0717 5.6799 23.7826C5.85992 26.9444 7.52017 29.0558 10.4706 29.1831C14.8813 29.3847 19.312 29.4059 23.7226 29.2043C26.8131 29.0664 28.4833 27.199 28.6033 23.9417C28.7634 19.4006 28.7634 14.8383 28.6033 10.2972C28.4933 6.92318 26.563 4.98153 23.3726 4.89665C19.2219 4.77994 15.0613 4.79055 10.9107 4.89665C7.75021 4.98153 5.81992 7.08233 5.6899 10.4457C5.59989 12.642 5.6699 14.8489 5.6699 17.0558L5.6799 17.0664Z" fill="white"/>
<path d="M17.1316 24.8223C13.041 24.7587 9.8105 21.2573 9.88051 16.9603C9.95052 12.7375 13.301 9.321 17.3116 9.38466C21.3022 9.44833 24.4927 12.9709 24.4427 17.2573C24.3927 21.4483 21.0722 24.8966 17.1316 24.8329V24.8223ZM12.4609 17.077C12.4609 19.878 14.5112 22.0955 17.1516 22.1062C19.752 22.1274 21.9123 19.8568 21.9023 17.1194C21.9023 14.329 19.812 12.1008 17.1916 12.1008C14.5412 12.1008 12.4609 14.2759 12.4609 17.077Z" fill="white"/>
<path d="M24.7028 7.26256C25.583 7.24134 26.3631 8.02649 26.4131 8.9814C26.4631 9.98935 25.713 10.8488 24.7729 10.8594C23.8727 10.8806 23.1026 10.1167 23.0526 9.15116C23.0026 8.16442 23.7727 7.28378 24.7028 7.25195V7.26256Z" fill="white"/>
</g>
<defs>
<filter id="filter0_d_264_1558" x="0.979492" y="0.0634766" width="32.313" height="33.9893" filterUnits="userSpaceOnUse" color-interpolation-filters="sRGB">
<feFlood flood-opacity="0" result="BackgroundImageFix"/>
<feColorMatrix in="SourceAlpha" type="matrix" values="0 0 0 0 0 0 0 0 0 0 0 0 0 0 0 0 0 0 127 0" result="hardAlpha"/>
<feOffset/>
<feGaussianBlur stdDeviation="1"/>
<feComposite in2="hardAlpha" operator="out"/>
<feColorMatrix type="matrix" values="0 0 0 0 0 0 0 0 0 0 0 0 0 0 0 0 0 0 0.4 0"/>
<feBlend mode="normal" in2="BackgroundImageFix" result="effect1_dropShadow_264_1558"/>
<feBlend mode="normal" in="SourceGraphic" in2="effect1_dropShadow_264_1558" result="shape"/>
</filter>
</defs>
</svg>
