<svg width="175" height="30" viewBox="0 0 175 30" fill="none" xmlns="http://www.w3.org/2000/svg">
<g clip-path="url(#clip0_13_20)">
<path d="M69.9023 5.28871C69.417 4.74419 69.1608 4.01929 69.1608 3.29438C69.1608 2.38911 69.4854 1.63698 70.1346 1.038C70.7839 0.439024 71.621 0.136131 72.6461 0.136131C73.6713 0.136131 74.4743 0.435621 75.1235 1.038C75.7761 1.64379 76.1008 2.40272 76.0973 3.31821C76.0939 4.04651 75.8308 4.76801 75.3422 5.30573C74.6622 6.05445 73.7669 6.42881 72.6461 6.42881C71.5254 6.42881 70.5823 6.05105 69.9023 5.29212V5.28871ZM75.5472 11.3091V24.4731C75.5472 26.0794 74.2385 27.3829 72.6256 27.3829C71.0128 27.3829 69.7041 26.0794 69.7041 24.4731V11.3091C69.7041 9.70278 71.0128 8.39932 72.6256 8.39932C74.2385 8.39932 75.5472 9.70278 75.5472 11.3091Z" fill="#232323"/>
<path d="M87.9784 8.94385C89.0035 8.39932 90.1755 8.12706 91.4945 8.12706C93.0663 8.12706 94.4878 8.52524 95.7624 9.31821C97.0369 10.1112 98.045 11.2445 98.7865 12.7181C99.5245 14.1917 99.897 15.9036 99.897 17.8537C99.897 19.8037 99.528 21.5224 98.7865 23.0062C98.045 24.4901 97.0404 25.637 95.7624 26.4402C94.4878 27.2467 93.0629 27.6483 91.4945 27.6483C90.1516 27.6483 88.9796 27.3829 87.9784 26.8486C86.9772 26.3176 86.1913 25.6064 85.6206 24.7215C85.6206 26.1849 84.4281 27.3727 82.9588 27.3727H82.4462C80.9769 27.3727 79.7843 26.1849 79.7843 24.7215V5.11855C79.7843 3.51219 81.0931 2.20873 82.7059 2.20873C84.3187 2.20873 85.6275 3.51219 85.6275 5.11855V11.0879C86.1742 10.2031 86.9601 9.48837 87.9852 8.94725L87.9784 8.94385ZM92.7417 14.4368C91.9319 13.6098 90.9375 13.1946 89.7552 13.1946C88.5729 13.1946 87.6093 13.6132 86.7995 14.4538C85.9897 15.2944 85.5865 16.4379 85.5865 17.8877C85.5865 19.3375 85.9897 20.4844 86.7995 21.3216C87.6093 22.1622 88.5934 22.5808 89.7552 22.5808C90.917 22.5808 91.9045 22.1554 92.7246 21.3046C93.5447 20.4538 93.9548 19.3035 93.9548 17.8537C93.9548 16.4039 93.5516 15.2638 92.7417 14.4368Z" fill="#232323"/>
<path d="M120.83 19.283H107.613C107.705 20.464 108.084 21.3624 108.757 21.9887C109.427 22.6115 110.254 22.9246 111.235 22.9246C112.69 22.9246 113.705 22.312 114.272 21.0868H120.488C120.17 22.3324 119.593 23.4555 118.762 24.4526C117.932 25.4498 116.89 26.2326 115.639 26.8009C114.385 27.3693 112.988 27.6517 111.44 27.6517C109.574 27.6517 107.91 27.2535 106.454 26.4606C104.999 25.6676 103.861 24.5343 103.041 23.0607C102.221 21.5871 101.811 19.865 101.811 17.8911C101.811 15.9172 102.214 14.1951 103.024 12.7215C103.833 11.2479 104.964 10.1146 106.424 9.32161C107.879 8.52864 109.554 8.13046 111.443 8.13046C113.333 8.13046 114.925 8.51503 116.36 9.28758C117.795 10.0601 118.916 11.1594 119.723 12.5854C120.529 14.0147 120.936 15.679 120.936 17.5848C120.936 18.1293 120.902 18.6977 120.833 19.2864L120.83 19.283ZM114.956 16.0533C114.956 15.0562 114.614 14.2632 113.931 13.6744C113.247 13.0856 112.393 12.7896 111.368 12.7896C110.343 12.7896 109.564 13.072 108.891 13.6404C108.217 14.2087 107.804 15.0119 107.643 16.0567H114.952L114.956 16.0533Z" fill="#232323"/>
<path d="M141.933 26.8009C140.635 26.2326 139.61 25.4566 138.858 24.4697C138.851 24.4594 138.844 24.4492 138.834 24.439C137.816 23.0879 138.858 21.1514 140.556 21.1514H141.916C142.62 21.1514 143.307 21.4816 143.669 22.0805C143.82 22.3324 144.028 22.5536 144.288 22.751C144.834 23.1594 145.504 23.3636 146.304 23.3636C147.032 23.3636 147.595 23.2241 147.995 22.9382C148.392 22.6557 148.593 22.2881 148.593 21.8321C148.593 21.2876 148.31 20.886 147.739 20.6239C147.168 20.3653 146.249 20.076 144.971 19.7561C143.604 19.4396 142.466 19.1061 141.557 18.7521C140.645 18.4016 139.863 17.8469 139.2 17.0845C138.54 16.3256 138.209 15.2978 138.209 14.0079C138.209 12.9189 138.509 11.9285 139.114 11.0335C139.716 10.1384 140.604 9.43052 141.776 8.90641C142.948 8.38571 144.342 8.12365 145.959 8.12365C148.351 8.12365 150.233 8.71242 151.61 9.89336C151.809 10.0635 151.993 10.2371 152.164 10.4243C153.647 12.0034 152.502 14.5899 150.332 14.5899H150.23C149.386 14.5899 148.644 14.1305 148.139 13.4566C148.019 13.2967 147.879 13.1537 147.715 13.0244C147.226 12.6398 146.581 12.4458 145.784 12.4458C145.101 12.4458 144.578 12.5752 144.213 12.8372C143.847 13.0993 143.666 13.4566 143.666 13.9092C143.666 14.4538 143.956 14.8622 144.537 15.1344C145.118 15.4067 146.024 15.679 147.254 15.9512C148.665 16.3154 149.816 16.6727 150.701 17.0233C151.586 17.3738 152.369 17.9421 153.042 18.7249C153.712 19.5077 154.06 20.5559 154.084 21.8695C154.084 22.979 153.77 23.9728 153.145 24.844C152.519 25.7187 151.617 26.4027 150.445 26.903C149.273 27.3999 147.913 27.6517 146.365 27.6517C144.705 27.6517 143.225 27.3693 141.927 26.8009H141.933Z" fill="#232323"/>
<path d="M174.894 19.283H161.677C161.769 20.464 162.149 21.3624 162.822 21.9887C163.491 22.6115 164.318 22.9246 165.299 22.9246C166.755 22.9246 167.77 22.312 168.337 21.0868H174.552C174.235 22.3324 173.657 23.4555 172.827 24.4526C171.996 25.4498 170.954 26.2326 169.704 26.8009C168.45 27.3693 167.052 27.6517 165.504 27.6517C163.638 27.6517 161.974 27.2535 160.519 26.4606C159.063 25.6676 157.925 24.5343 157.105 23.0607C156.285 21.5871 155.875 19.865 155.875 17.8911C155.875 15.9172 156.278 14.1951 157.088 12.7215C157.898 11.2479 159.029 10.1146 160.488 9.32161C161.944 8.52864 163.618 8.13046 165.507 8.13046C167.397 8.13046 168.989 8.51503 170.425 9.28758C171.86 10.0601 172.981 11.1594 173.787 12.5854C174.593 14.0147 175 15.679 175 17.5848C175 18.1293 174.966 18.6977 174.898 19.2864L174.894 19.283ZM169.02 16.0533C169.02 15.0562 168.679 14.2632 167.995 13.6744C167.312 13.0856 166.457 12.7896 165.432 12.7896C164.407 12.7896 163.628 13.072 162.955 13.6404C162.282 14.2087 161.868 15.0119 161.708 16.0567H169.017L169.02 16.0533Z" fill="#232323"/>
<path d="M136.975 11.4861C136.975 9.90357 135.687 8.62053 134.098 8.62053C133.702 8.62053 133.322 8.70221 132.977 8.84515C132.783 8.90641 132.591 8.98468 132.403 9.09359C131.378 9.69597 130.524 10.5162 129.84 11.5576V11.3023C129.84 9.69597 128.532 8.39251 126.919 8.39251C125.306 8.39251 123.997 9.69597 123.997 11.3023V24.4662C123.997 26.0726 125.306 27.3761 126.919 27.3761C128.532 27.3761 129.84 26.0726 129.84 24.4662V18.5649C129.84 16.9994 130.203 15.907 130.934 15.2842C131.662 14.6614 132.755 14.3483 134.211 14.3483C134.341 14.3483 134.467 14.3278 134.587 14.3006C135.94 14.0658 136.972 12.8985 136.972 11.4861H136.975Z" fill="#232323"/>
<path d="M67.1413 4.90074C67.1413 4.99603 67.1276 5.08792 67.1003 5.1764L67.0559 5.29892L66.393 7.10947L66.3759 7.14691L66.1059 7.88542L64.3838 12.5922L64.1616 13.2014L64.0626 13.4736L63.8644 14.0147L63.3347 15.4577L62.5761 17.5303L62.5249 17.6733L61.8996 19.3851L59.822 25.0516L59.7639 25.215L59.5726 25.7425C59.0498 26.8724 57.8982 27.6585 56.5622 27.6585C55.2261 27.6585 54.0541 26.8588 53.5381 25.7084L53.3741 25.266L53.3467 25.1843L52.431 22.6829L52.2533 22.1963L51.9628 21.4067L51.3956 19.848L50.7054 17.9626L50.1279 16.3868L49.2292 13.9297L49.2224 13.9058L49.0139 13.3341L48.8704 12.9393L46.0445 5.22405L45.9967 5.09132C45.9728 5.00624 45.9591 4.91775 45.9591 4.82586C45.9591 4.4447 46.1778 4.11458 46.499 3.95462C46.5947 3.92059 46.6903 3.88996 46.7894 3.86273C47.2439 3.73001 47.7257 3.66194 48.2246 3.66194C50.2919 3.66194 52.0756 4.8633 52.9162 6.59898L52.923 6.60919L53.2408 7.4532L54.1497 9.87294L54.4744 10.7408L54.6384 11.1798L55.3935 13.1911L55.9232 14.6035L56.1384 15.1787C56.1487 15.2569 56.176 15.3284 56.217 15.3897C56.3059 15.519 56.4528 15.6041 56.6203 15.6041C56.7979 15.6041 56.9517 15.5088 57.0371 15.3693C57.0645 15.3182 57.0884 15.2638 57.0952 15.2059L57.6112 13.8344L58.2809 12.0476L59.2548 9.45094L59.4666 8.88599L59.8425 7.88202L59.9894 7.48383L60.2389 6.82019C61.0556 5.02326 62.8734 3.77425 64.9817 3.77425C65.4294 3.77425 65.8667 3.8287 66.2836 3.93761C66.2836 3.93761 66.287 3.93761 66.2905 3.93761C66.3896 3.96143 66.4852 3.99206 66.5809 4.02269C66.9158 4.17924 67.1481 4.51957 67.1481 4.91435L67.1413 4.90074Z" fill="#232323"/>
<path d="M34.6487 13.8786C34.6487 14.7601 33.9311 15.4714 33.0496 15.4714C32.7147 15.4714 32.4003 15.3693 32.144 15.1889C31.7545 14.9234 31.4948 14.4878 31.4572 13.9909C31.4572 13.9535 31.4538 13.9127 31.4538 13.8752C31.4538 12.9938 32.1714 12.2825 33.053 12.2825C33.3913 12.2825 33.709 12.388 33.9653 12.5649C34.2318 12.7521 34.4403 13.0176 34.553 13.3273C34.618 13.4974 34.6521 13.6812 34.6521 13.8752L34.6487 13.8786Z" fill="#6D52A2"/>
<path d="M41.5339 5.51673C41.0521 4.31537 39.1351 3.78446 36.2819 3.87635C35.0654 3.91378 33.6815 4.06012 32.1609 4.31877L32.9981 2.04197C33.0118 2.00454 33.0255 1.9637 33.0391 1.92626C33.0767 1.81055 33.0938 1.68463 33.0938 1.55871C33.0938 1.07204 32.8102 0.650028 32.3933 0.452638C32.2669 0.411798 32.1404 0.374362 32.014 0.340329H32.0106C31.4912 0.204197 30.9445 0.136132 30.3841 0.136132C27.7461 0.136132 25.4772 1.69824 24.4555 3.94441L24.1446 4.77141L23.9601 5.26489L23.4885 6.52411C21.9098 7.04141 20.2833 7.62677 18.6329 8.28701C18.1648 8.47079 17.7035 8.66137 17.249 8.85196L16.8424 7.76631L15.7079 4.73738L15.3115 3.68236L15.3047 3.66875C14.2557 1.50085 12.0209 0 9.43766 0C8.81918 0 8.22462 0.0850822 7.65739 0.24844C7.52412 0.285876 7.39086 0.326716 7.26101 0.374362C6.86805 0.578559 6.59811 0.990357 6.59811 1.46001C6.59811 1.57572 6.61519 1.68803 6.64595 1.79353L6.70403 1.95689L10.2372 11.6018L10.4184 12.0953C9.89896 12.3778 9.39666 12.6568 8.90802 12.9393C8.60049 13.1129 8.30321 13.2898 8.01276 13.4668C2.54209 16.7646 -0.669925 20.0352 0.115993 21.9989C0.806233 23.7209 4.43854 24.0579 9.55384 23.1832C9.61193 23.1764 9.67002 23.1628 9.72811 23.156C11.0163 22.9314 12.3968 22.6319 13.8491 22.2541C13.8969 22.2405 13.9447 22.2303 13.9926 22.2167C14.0336 22.2065 14.078 22.1963 14.119 22.1826C14.16 22.1724 14.2044 22.1622 14.2454 22.152C14.3172 22.1316 14.3924 22.1146 14.4641 22.0908C14.4641 22.0908 14.4675 22.0908 14.471 22.0908C15.6191 21.7674 16.8629 21.325 18.1511 20.7669C18.9404 20.4265 19.7434 20.042 20.5533 19.6166C20.7549 19.5111 20.9599 19.4022 21.1547 19.2932C23.2117 18.1634 25.0057 16.9246 26.3964 15.7164C27.5206 14.7431 28.3817 13.7901 28.9045 12.9325C29.048 12.7011 29.1608 12.4765 29.253 12.2586L29.3556 11.9864C29.3556 11.9864 29.3624 11.9694 29.3624 11.9592L29.6528 11.173L31.809 5.29212C34.1941 5.05048 35.9846 5.23086 36.8491 5.88429C36.8764 5.90811 36.9038 5.92853 36.9311 5.95235C37.348 6.27907 37.6624 6.61259 37.8845 7.04481C37.9186 7.11288 37.9494 7.18094 37.9802 7.25241C38.2945 8.03176 38.2774 8.90981 37.9802 9.83891C37.9665 9.88656 37.9528 9.9274 37.9357 9.97504C37.9323 10.0023 37.9289 10.0295 37.9289 10.0601C37.9289 10.3358 38.1544 10.557 38.4278 10.557C38.5098 10.557 38.5884 10.5366 38.6567 10.5026C38.7182 10.4481 38.7832 10.3936 38.8412 10.3392C40.9871 8.43675 42.0191 6.73171 41.5373 5.52694L41.5339 5.51673ZM9.90238 20.8077C9.19505 20.8826 8.53898 20.9166 7.94784 20.9166C6.61519 20.9132 5.58325 20.7158 4.94768 20.321C4.64698 20.1339 4.43512 19.899 4.32236 19.6166C4.03875 18.9121 4.4112 17.9966 5.30989 16.9586C6.38967 15.7096 8.23145 14.287 10.6131 12.8542C10.637 12.8406 10.661 12.827 10.6883 12.81L10.6985 12.8372L11.8228 15.907L12.5472 17.8741L13.4083 20.2292C12.144 20.5014 10.9685 20.6954 9.90921 20.8043L9.90238 20.8077ZM22.0055 10.4787L21.1683 12.7079L20.4952 14.5014C20.4952 14.5014 20.4952 14.5082 20.4952 14.515C20.4884 14.5423 20.4781 14.5695 20.4644 14.5933C20.3688 14.7907 20.1672 14.9268 19.9348 14.9268C19.7024 14.9268 19.4803 14.7805 19.3915 14.5695C19.3846 14.5525 19.3778 14.532 19.371 14.515L19.0566 13.671L18.3971 11.9081L17.454 9.39308C17.9905 9.16166 18.5372 8.93704 19.0908 8.71583C20.4986 8.15769 21.8859 7.6574 23.2254 7.22859L22.0089 10.4753L22.0055 10.4787Z" fill="#6D52A2"/>
<path d="M27.3294 17.5201L26.5469 19.6608L23.9534 26.7396L23.8748 26.9575C23.8748 26.9575 23.8714 26.9711 23.868 26.9779L23.639 27.5939C23.639 27.5939 23.639 27.6041 23.6356 27.6075C22.9761 29.0199 21.541 29.9966 19.8769 29.9966C18.2128 29.9966 16.7435 28.9994 16.0942 27.5632C16.0942 27.5632 16.0942 27.5598 16.0942 27.5564L15.896 27.0153C15.896 27.0153 15.896 27.0119 15.8926 27.0051L15.855 26.903L14.7103 23.7788C15.3288 23.6427 15.9883 23.4657 16.6751 23.2479C16.8801 23.1866 17.0886 23.1151 17.3004 23.0403C17.9428 22.8225 18.6023 22.5672 19.2755 22.2847C19.6548 22.1248 20.0307 21.9546 20.4168 21.7742C20.8849 21.5564 21.3565 21.325 21.8314 21.0766C21.8758 21.0562 21.9203 21.0323 21.9647 21.0085C24.0388 19.9195 25.8738 18.7079 27.3294 17.5133V17.5201Z" fill="#6D52A2"/>
</g>
<defs>
<clipPath id="clip0_13_20">
<rect width="175" height="30" fill="white"/>
</clipPath>
</defs>
</svg>
