<svg width="911" height="422" viewBox="0 0 911 422" fill="none" xmlns="http://www.w3.org/2000/svg">
<g clip-path="url(#clip0_256_543)" filter="url(#filter0_i_256_543)">
<path d="M0.856201 0.934448H712.075L749.455 41.7381H910.144V421.065H200.785L159.57 376.083H0.856201V0.934448Z" stroke="#43E8FF" stroke-width="2.08" stroke-miterlimit="10"/>
<path d="M741.075 0.934448L761.514 23.2457H910.144V0.934448H741.075Z" fill="#43E8FF"/>
<path d="M169.917 421.3L149.478 398.988H0.855957V421.3H169.917Z" fill="#43E8FF"/>
<path d="M156.351 23.2462H672.283" stroke="#43E8FF" stroke-width="2.08" stroke-miterlimit="10"/>
<path d="M58.8478 27.0646C60.7799 27.0646 62.3462 25.3549 62.3462 23.2458C62.3462 21.1367 60.7799 19.4269 58.8478 19.4269C56.9157 19.4269 55.3494 21.1367 55.3494 23.2458C55.3494 25.3549 56.9157 27.0646 58.8478 27.0646Z" fill="#43E8FF"/>
<path d="M76.1178 27.0646C78.0499 27.0646 79.6162 25.3549 79.6162 23.2458C79.6162 21.1367 78.0499 19.4269 76.1178 19.4269C74.1857 19.4269 72.6194 21.1367 72.6194 23.2458C72.6194 25.3549 74.1857 27.0646 76.1178 27.0646Z" fill="#43E8FF"/>
<path d="M93.3876 27.0646C95.3197 27.0646 96.886 25.3549 96.886 23.2458C96.886 21.1367 95.3197 19.4269 93.3876 19.4269C91.4555 19.4269 89.8892 21.1367 89.8892 23.2458C89.8892 25.3549 91.4555 27.0646 93.3876 27.0646Z" fill="#43E8FF"/>
<path d="M109.563 27.0646C111.495 27.0646 113.061 25.3549 113.061 23.2458C113.061 21.1367 111.495 19.4269 109.563 19.4269C107.631 19.4269 106.064 21.1367 106.064 23.2458C106.064 25.3549 107.631 27.0646 109.563 27.0646Z" fill="#43E8FF"/>
<path d="M126.833 27.0646C128.765 27.0646 130.331 25.3549 130.331 23.2458C130.331 21.1367 128.765 19.4269 126.833 19.4269C124.901 19.4269 123.334 21.1367 123.334 23.2458C123.334 25.3549 124.901 27.0646 126.833 27.0646Z" fill="#43E8FF"/>
<path d="M750.549 395.169H234.609" stroke="#43E8FF" stroke-width="2.08" stroke-miterlimit="10"/>
<path d="M848.053 398.987C849.985 398.987 851.551 397.278 851.551 395.168C851.551 393.059 849.985 391.35 848.053 391.35C846.121 391.35 844.554 393.059 844.554 395.168C844.554 397.278 846.121 398.987 848.053 398.987Z" fill="#43E8FF"/>
<path d="M830.783 398.987C832.715 398.987 834.281 397.278 834.281 395.168C834.281 393.059 832.715 391.35 830.783 391.35C828.851 391.35 827.284 393.059 827.284 395.168C827.284 397.278 828.851 398.987 830.783 398.987Z" fill="#43E8FF"/>
<path d="M813.513 398.987C815.445 398.987 817.012 397.278 817.012 395.168C817.012 393.059 815.445 391.35 813.513 391.35C811.581 391.35 810.015 393.059 810.015 395.168C810.015 397.278 811.581 398.987 813.513 398.987Z" fill="#43E8FF"/>
<path d="M797.338 398.987C799.27 398.987 800.836 397.278 800.836 395.168C800.836 393.059 799.27 391.35 797.338 391.35C795.406 391.35 793.839 393.059 793.839 395.168C793.839 397.278 795.406 398.987 797.338 398.987Z" fill="#43E8FF"/>
<path d="M780.06 398.987C781.992 398.987 783.558 397.278 783.558 395.168C783.558 393.059 781.992 391.35 780.06 391.35C778.128 391.35 776.561 393.059 776.561 395.168C776.561 397.278 778.128 398.987 780.06 398.987Z" fill="#43E8FF"/>
</g>
<defs>
<filter id="filter0_i_256_543" x="0" y="0" width="911" height="422" filterUnits="userSpaceOnUse" color-interpolation-filters="sRGB">
<feFlood flood-opacity="0" result="BackgroundImageFix"/>
<feBlend mode="normal" in="SourceGraphic" in2="BackgroundImageFix" result="shape"/>
<feColorMatrix in="SourceAlpha" type="matrix" values="0 0 0 0 0 0 0 0 0 0 0 0 0 0 0 0 0 0 127 0" result="hardAlpha"/>
<feOffset/>
<feGaussianBlur stdDeviation="5"/>
<feComposite in2="hardAlpha" operator="arithmetic" k2="-1" k3="1"/>
<feColorMatrix type="matrix" values="0 0 0 0 0 0 0 0 0 0 0 0 0 0 0 0 0 0 0.25 0"/>
<feBlend mode="normal" in2="shape" result="effect1_innerShadow_256_543"/>
</filter>
<clipPath id="clip0_256_543">
<rect width="911" height="422" fill="white"/>
</clipPath>
</defs>
</svg>
