<svg width="36" height="36" viewBox="0 0 36 36" fill="none" xmlns="http://www.w3.org/2000/svg">
<path d="M18.1965 18.0002C15.7673 18.0002 13.6878 17.1352 11.9579 15.4054C10.228 13.6755 9.36312 11.596 9.36312 9.16683C9.36312 6.73766 10.228 4.65815 11.9579 2.92829C13.6878 1.19843 15.7673 0.333496 18.1965 0.333496C20.6256 0.333496 22.7051 1.19843 24.435 2.92829C26.1649 4.65815 27.0298 6.73766 27.0298 9.16683C27.0298 11.596 26.1649 13.6755 24.435 15.4054C22.7051 17.1352 20.6256 18.0002 18.1965 18.0002ZM0.529785 35.6668V29.4835C0.529785 28.2321 0.851834 27.0819 1.49593 26.033C2.14003 24.984 2.99576 24.1835 4.06312 23.6314C6.34506 22.4904 8.66381 21.6347 11.0194 21.0642C13.3749 20.4937 15.7673 20.2085 18.1965 20.2085C20.6256 20.2085 23.018 20.4937 25.3735 21.0642C27.7291 21.6347 30.0478 22.4904 32.3298 23.6314C33.3971 24.1835 34.2529 24.984 34.897 26.033C35.5411 27.0819 35.8631 28.2321 35.8631 29.4835V35.6668H0.529785ZM4.94645 31.2502H31.4465V29.4835C31.4465 29.0786 31.3452 28.7106 31.1428 28.3793C30.9404 28.0481 30.6735 27.7904 30.3423 27.6064C28.3548 26.6127 26.3489 25.8674 24.3246 25.3705C22.3003 24.8736 20.2576 24.6252 18.1965 24.6252C16.1353 24.6252 14.0926 24.8736 12.0683 25.3705C10.044 25.8674 8.03812 26.6127 6.05062 27.6064C5.71937 27.7904 5.45253 28.0481 5.2501 28.3793C5.04767 28.7106 4.94645 29.0786 4.94645 29.4835V31.2502ZM18.1965 13.5835C19.411 13.5835 20.4508 13.151 21.3157 12.2861C22.1807 11.4212 22.6131 10.3814 22.6131 9.16683C22.6131 7.95225 22.1807 6.91249 21.3157 6.04756C20.4508 5.18263 19.411 4.75016 18.1965 4.75016C16.9819 4.75016 15.9421 5.18263 15.0772 6.04756C14.2123 6.91249 13.7798 7.95225 13.7798 9.16683C13.7798 10.3814 14.2123 11.4212 15.0772 12.2861C15.9421 13.151 16.9819 13.5835 18.1965 13.5835Z" fill="#6D52A2"/>
</svg>
