<svg width="33" height="31" viewBox="0 0 33 31" fill="none" xmlns="http://www.w3.org/2000/svg">
<g filter="url(#filter0_d_264_1557)">
<path d="M14.3802 18.4449C11.7009 21.3093 9.11399 24.092 6.52708 26.8646C6.24992 27.1704 5.90089 27.4253 5.69558 27.7718C4.85381 29.1989 3.53982 29.046 2 28.8931C5.78796 24.8158 9.46301 20.8709 13.1894 16.865C9.49381 11.9518 5.8393 7.09978 2.09239 2.11525C2.50301 2.06428 2.74938 2.01331 3.00602 2.01331C5.31576 2.01331 7.61522 1.97254 9.92496 2.0337C10.3561 2.04389 10.9104 2.31911 11.1773 2.65549C13.4666 5.60136 15.6942 8.5982 18.0244 11.6766C19.0304 10.6063 19.9851 9.59714 20.9296 8.57781C22.6131 6.77359 24.389 5.04073 25.9391 3.13458C26.9349 1.91138 28.0743 1.91138 29.5731 2.09486C28.3412 3.43018 27.2326 4.66358 26.0931 5.87658C24.0092 8.10892 21.9459 10.3514 19.8312 12.5532C19.3282 13.0731 19.2973 13.4196 19.7388 14.0108C23.1264 18.4551 26.4729 22.9198 29.8297 27.3845C30.1788 27.8432 30.5073 28.3019 31 28.9746C30.3943 28.9746 30.0043 28.9746 29.6142 28.9746C27.6843 28.9746 25.7543 28.9135 23.8347 28.995C22.726 29.046 22.028 28.7096 21.371 27.7922C19.1331 24.6833 16.7823 21.6456 14.3699 18.4449H14.3802ZM27.0478 27.0787C26.8733 26.7627 26.8014 26.6098 26.709 26.4773C21.1657 19.1177 15.6326 11.7581 10.0789 4.39855C9.92496 4.19468 9.66832 3.96024 9.45275 3.95004C8.34407 3.90927 7.22514 3.92966 5.88036 3.92966C7.33806 5.87658 8.65204 7.61964 9.96602 9.3525C14.2262 15.02 18.4864 20.6875 22.7671 26.3346C23.0032 26.6506 23.4138 27.0073 23.7731 27.0379C24.7894 27.1296 25.8262 27.0685 27.0478 27.0685V27.0787Z" fill="white"/>
</g>
<defs>
<filter id="filter0_d_264_1557" x="0" y="0" width="33" height="31" filterUnits="userSpaceOnUse" color-interpolation-filters="sRGB">
<feFlood flood-opacity="0" result="BackgroundImageFix"/>
<feColorMatrix in="SourceAlpha" type="matrix" values="0 0 0 0 0 0 0 0 0 0 0 0 0 0 0 0 0 0 127 0" result="hardAlpha"/>
<feOffset/>
<feGaussianBlur stdDeviation="1"/>
<feComposite in2="hardAlpha" operator="out"/>
<feColorMatrix type="matrix" values="0 0 0 0 0 0 0 0 0 0 0 0 0 0 0 0 0 0 0.4 0"/>
<feBlend mode="normal" in2="BackgroundImageFix" result="effect1_dropShadow_264_1557"/>
<feBlend mode="normal" in="SourceGraphic" in2="effect1_dropShadow_264_1557" result="shape"/>
</filter>
</defs>
</svg>
