<svg width="33" height="27" viewBox="0 0 33 27" fill="none" xmlns="http://www.w3.org/2000/svg">
<path d="M24.3251 18.0435C24.2371 17.6751 24.3649 17.2886 24.655 17.0451L30.2295 12.3688C30.4318 12.1991 30.6932 12.1163 30.9564 12.1385L32.0291 12.2292C32.9166 12.3041 33.2707 13.4144 32.5905 13.9893L27.7719 18.0624C27.485 18.3049 27.3582 18.6877 27.4436 19.0536L28.878 25.1947C29.0783 26.0526 28.1518 26.7316 27.394 26.2822L26.4742 25.7366C26.2415 25.5986 26.0746 25.372 26.0117 25.1088L24.3251 18.0435ZM21.045 6.22463C20.6819 6.1914 20.3656 5.96313 20.2197 5.62892L18.8583 2.51083C18.7484 2.25908 18.7469 1.97319 18.8541 1.72029L19.2658 0.749536C19.609 -0.059858 20.7546 -0.0642549 21.104 0.742479L22.9091 4.90957C23.2109 5.60636 22.6565 6.37207 21.9003 6.30289L21.045 6.22463ZM9.40173 19.4616C9.1991 20.3187 10.1233 21.0002 10.8823 20.5534L13.8643 18.7975C14.1792 18.6121 14.5701 18.6132 14.884 18.8005L17.8628 20.5775C18.6209 21.0298 19.5504 20.3496 19.3487 19.4902L18.5839 16.2324C18.4979 15.8661 18.6248 15.4825 18.9123 15.2397L21.4617 13.0874C22.1415 12.5134 21.7896 11.4041 20.9032 11.327L17.5044 11.0316C17.1396 10.9999 16.8212 10.7713 16.6746 10.4357L15.288 7.26164C14.9392 6.46328 13.8073 6.46174 13.4563 7.25916L12.0761 10.3953C11.929 10.7296 11.6113 10.9571 11.2474 10.9887L7.82959 11.2858C6.94567 11.3626 6.59218 12.467 7.26719 13.0428L9.84154 15.2389C10.1268 15.4823 10.252 15.8648 10.1657 16.2298L9.40173 19.4616ZM6.90521 25.9088C6.14566 26.3562 5.22087 25.6733 5.42488 24.8157L7.2463 17.1596C7.33355 16.7929 7.20713 16.4082 6.91931 16.1647L0.852048 11.032C0.172345 10.457 0.526379 9.34727 1.4135 9.27212L9.46862 8.58979C9.83523 8.55873 10.1552 8.32887 10.3016 7.99133L13.4576 0.716302C13.8058 -0.0863963 14.9442 -0.0863984 15.2924 0.7163L18.4484 7.99133C18.5948 8.32887 18.9147 8.55873 19.2814 8.58979L27.3365 9.27212C28.2236 9.34727 28.5776 10.457 27.8979 11.032L21.8307 16.1647C21.5428 16.4082 21.4164 16.7929 21.5037 17.1596L23.3251 24.8157C23.5291 25.6733 22.6043 26.3562 21.8448 25.9088L14.8825 21.8083C14.5693 21.6239 14.1807 21.6239 13.8675 21.8083L6.90521 25.9088Z" fill="#6D52A2"/>
</svg>
