<svg width="16" height="16" viewBox="0 0 16 16" fill="none" xmlns="http://www.w3.org/2000/svg">
<g clip-path="url(#clip0_568_638)">
<path d="M9.35381 13.6254C9.29858 13.3813 9.24123 13.1375 9.18142 12.8784C9.14237 12.8973 9.12794 12.8994 9.12266 12.9075C9.09381 12.9514 9.06602 12.996 9.03963 13.0417C8.73671 13.572 8.3884 14.0693 7.97958 14.5248C7.89163 14.6225 7.8276 14.6253 7.73964 14.5259C6.79815 13.4624 6.17402 12.23 5.78455 10.8723C5.75218 10.7599 5.78912 10.7072 5.90487 10.697C6.14411 10.6759 6.38265 10.6482 6.62189 10.6271C7.22422 10.5744 7.82795 10.58 8.43133 10.5867C8.65263 10.5892 8.66353 10.5751 8.61568 10.3542C8.57874 10.1825 8.53969 10.0114 8.50099 9.8404C8.41937 9.47971 8.41937 9.4755 8.04151 9.47585C7.26151 9.47655 6.48327 9.51589 5.70925 9.61388C5.56923 9.63144 5.50696 9.59315 5.48796 9.44775C5.37221 8.55042 5.34758 7.65273 5.44996 6.75223C5.46861 6.58857 5.53334 6.55099 5.69026 6.57171C6.19583 6.63844 6.70387 6.67988 7.21366 6.69569C8.15831 6.72519 9.1005 6.69955 10.0385 6.58225C10.1996 6.56223 10.2591 6.61596 10.2728 6.77295C10.3139 7.24533 10.3505 7.7177 10.3322 8.19218C10.328 8.30598 10.3636 8.37727 10.467 8.4296C10.702 8.54901 10.9318 8.67826 11.1647 8.80223C11.3814 8.91743 11.3958 8.91321 11.412 8.67264C11.4591 7.97654 11.4465 7.2808 11.3592 6.58822C11.3399 6.43404 11.3867 6.37047 11.5408 6.33991C12.4101 6.16747 13.2612 5.92654 14.0918 5.61783C14.2467 5.56023 14.311 5.59816 14.3596 5.74883C14.5608 6.37117 14.6787 7.00756 14.6998 7.66046C14.729 8.55393 14.5897 9.42176 14.272 10.2583C14.2234 10.3858 14.2361 10.4606 14.3663 10.5239C14.5823 10.6285 14.7951 10.7413 15.001 10.8642C15.1508 10.9537 15.2114 10.9046 15.268 10.7574C15.8123 9.3452 15.9509 7.89331 15.6656 6.41016C14.8581 2.20514 10.8691 -0.576076 6.63456 0.101405C2.49779 0.763432 -0.450505 4.6341 0.0564754 8.77554C0.365026 11.2934 1.61436 13.2489 3.76507 14.5954C5.53686 15.7049 7.4726 16.0175 9.52375 15.6111C9.78902 15.5584 9.78761 15.5549 9.7271 15.2862C9.60255 14.7327 9.47871 14.1789 9.35381 13.6254ZM9.4087 1.30078C9.4467 1.24985 9.52973 1.29938 9.59024 1.31553C11.3722 1.78861 12.7422 2.81659 13.7203 4.37315C13.7854 4.47675 13.8213 4.55086 13.6626 4.60705C12.8939 4.87924 12.1121 5.10331 11.3124 5.26487C11.2896 5.26943 11.2663 5.27329 11.2808 5.27084C11.1485 5.29121 11.1228 5.22623 11.1027 5.15459C11.0542 4.98004 11.0092 4.80408 10.9567 4.63058C10.6179 3.50847 10.1243 2.45871 9.48047 1.47849C9.44529 1.42405 9.35979 1.3661 9.4087 1.30078ZM7.71642 1.33414C7.85328 1.15995 7.86946 1.1603 8.01054 1.33906C8.93585 2.5128 9.5913 3.82245 9.98464 5.26311C10.0385 5.46049 10.0237 5.47875 9.81295 5.50263C9.1779 5.57533 8.5411 5.61643 7.90183 5.60729C7.23864 5.61818 6.57897 5.56936 5.9207 5.49491C5.70644 5.47067 5.6885 5.44609 5.74514 5.24098C6.14059 3.807 6.79815 2.50472 7.71642 1.33414ZM2.1129 4.34259C3.06845 2.82713 4.40891 1.82338 6.13567 1.3359C6.1909 1.32045 6.2479 1.31202 6.32073 1.29692C6.31756 1.39385 6.2669 1.43916 6.23277 1.49149C5.51258 2.59217 4.98098 3.77645 4.64709 5.04852C4.58552 5.28348 4.58482 5.28383 4.3498 5.23326C3.62786 5.07732 2.91787 4.87959 2.22266 4.62953C1.99503 4.5477 1.9894 4.53857 2.1129 4.34259ZM1.58199 10.3855C1.2664 9.58051 1.11406 8.74604 1.10421 7.84133C1.11441 7.16596 1.21715 6.46284 1.44407 5.77974C1.51831 5.55602 1.5264 5.55145 1.7382 5.62801C2.53262 5.9146 3.34112 6.15237 4.16967 6.31673C4.34382 6.35115 4.38217 6.42596 4.36247 6.59103C4.2432 7.58881 4.25938 8.58659 4.3973 9.58156C4.42122 9.75506 4.38006 9.82917 4.19852 9.86534C3.4048 10.0234 2.62656 10.2408 1.86662 10.5196C1.70618 10.579 1.64145 10.5368 1.58199 10.3855ZM6.1895 14.4135C6.14587 14.4749 6.06847 14.4223 6.01077 14.4051C4.47188 13.946 3.24366 13.0564 2.3166 11.7489C2.24096 11.6425 2.19909 11.5634 2.37113 11.5058C3.06106 11.2754 3.75909 11.0756 4.47259 10.9316C4.49546 10.927 4.51868 10.9232 4.51973 10.9232C4.64885 10.9056 4.66469 10.986 4.68755 11.0594C4.77094 11.3278 4.84693 11.5986 4.93876 11.8634C5.23218 12.7077 5.62693 13.5028 6.12441 14.2467C6.15783 14.2972 6.23242 14.3531 6.1895 14.4135Z" fill="white"/>
<path d="M9.34777 9.12507L10.8349 15.7355C10.8539 15.8194 10.9641 15.8405 11.0126 15.7692L12.676 13.3164C12.6887 13.2978 12.7073 13.2837 12.7292 13.2774L15.5093 12.4426C15.5934 12.4173 15.605 12.3035 15.5276 12.2617L9.49025 9.01689C9.41637 8.97721 9.32912 9.04288 9.34777 9.12507Z" fill="white"/>
</g>
<defs>
<clipPath id="clip0_568_638">
<rect width="15.8124" height="15.8124" fill="white"/>
</clipPath>
</defs>
</svg>
