<svg width="24" height="22" viewBox="0 0 24 22" fill="none" xmlns="http://www.w3.org/2000/svg">
<g filter="url(#filter0_d_264_1635)">
<path d="M10.5381 12.9633C8.69027 14.8728 6.9062 16.728 5.12213 18.5764C4.93098 18.7803 4.69027 18.9502 4.54868 19.1812C3.96815 20.1326 3.06195 20.0307 2 19.9287C4.61239 17.2105 7.1469 14.5806 9.71682 11.91C7.16814 8.63453 4.64779 5.39985 2.06372 2.07683C2.34691 2.04285 2.51682 2.00888 2.69381 2.00888C4.28673 2.00888 5.87257 1.98169 7.46549 2.02247C7.76283 2.02926 8.14513 2.21274 8.32921 2.437C9.90797 4.40091 11.4442 6.3988 13.0513 8.45105C13.7451 7.73752 14.4035 7.06476 15.0549 6.38521C16.2159 5.18239 17.4407 4.02715 18.5097 2.75639C19.1965 1.94092 19.9823 1.94092 21.0159 2.06324C20.1664 2.95346 19.4018 3.77572 18.6159 4.58439C17.1788 6.07261 15.7558 7.56763 14.2974 9.03547C13.9504 9.38204 13.9292 9.61309 14.2336 10.0072C16.5699 12.9701 18.8779 15.9465 21.1929 18.923C21.4336 19.2288 21.6602 19.5346 22 19.9831C21.5823 19.9831 21.3133 19.9831 21.0443 19.9831C19.7133 19.9831 18.3823 19.9423 17.0584 19.9967C16.2938 20.0307 15.8124 19.8064 15.3593 19.1948C13.8159 17.1222 12.1947 15.0971 10.531 12.9633H10.5381ZM19.2743 18.7191C19.154 18.5085 19.1044 18.4065 19.0407 18.3182C15.2177 13.4118 11.4018 8.50542 7.57168 3.59903C7.46549 3.46312 7.2885 3.30682 7.13982 3.30003C6.37522 3.27285 5.60354 3.28644 4.67611 3.28644C5.68142 4.58439 6.58761 5.74643 7.49381 6.90167C10.4319 10.68 13.3699 14.4583 16.3221 18.223C16.485 18.4337 16.7681 18.6716 17.0159 18.6919C17.7168 18.7531 18.4319 18.7123 19.2743 18.7123V18.7191Z" fill="white" fill-opacity="0.7" shape-rendering="crispEdges"/>
</g>
<defs>
<filter id="filter0_d_264_1635" x="0" y="0" width="24" height="22" filterUnits="userSpaceOnUse" color-interpolation-filters="sRGB">
<feFlood flood-opacity="0" result="BackgroundImageFix"/>
<feColorMatrix in="SourceAlpha" type="matrix" values="0 0 0 0 0 0 0 0 0 0 0 0 0 0 0 0 0 0 127 0" result="hardAlpha"/>
<feOffset/>
<feGaussianBlur stdDeviation="1"/>
<feComposite in2="hardAlpha" operator="out"/>
<feColorMatrix type="matrix" values="0 0 0 0 0 0 0 0 0 0 0 0 0 0 0 0 0 0 0.4 0"/>
<feBlend mode="normal" in2="BackgroundImageFix" result="effect1_dropShadow_264_1635"/>
<feBlend mode="normal" in="SourceGraphic" in2="effect1_dropShadow_264_1635" result="shape"/>
</filter>
</defs>
</svg>
