<svg width="23" height="17" viewBox="0 0 23 17" fill="none" xmlns="http://www.w3.org/2000/svg">
<path d="M22.456 2.50708C22.1922 1.52036 21.415 0.743104 20.4282 0.479348C18.6398 -1.21516e-07 11.4677 0 11.4677 0C11.4677 0 4.29553 -1.21516e-07 2.50708 0.479348C1.52036 0.743104 0.743104 1.52036 0.479348 2.50708C0 4.29553 0 8.02736 0 8.02736C0 8.02736 0 11.7592 0.479348 13.5476C0.743104 14.5344 1.52036 15.3116 2.50708 15.5754C4.29553 16.0547 11.4677 16.0547 11.4677 16.0547C11.4677 16.0547 18.6398 16.0547 20.4282 15.5754C21.415 15.3116 22.1922 14.5344 22.456 13.5476C22.9353 11.7592 22.9353 8.02736 22.9353 8.02736C22.9353 8.02736 22.9353 4.29553 22.456 2.50708ZM9.17412 11.4677V4.58706L15.1327 8.02736L9.17412 11.4677Z" fill="#FF0436"/>
</svg>
