<svg width="23" height="18" viewBox="0 0 23 18" fill="none" xmlns="http://www.w3.org/2000/svg">
<path d="M22.456 3.47974C22.1922 2.49301 21.415 1.71576 20.4282 1.452C18.6398 0.972656 11.4677 0.972656 11.4677 0.972656C11.4677 0.972656 4.29553 0.972656 2.50708 1.452C1.52036 1.71576 0.743104 2.49301 0.479348 3.47974C0 5.26818 0 9.00001 0 9.00001C0 9.00001 0 12.7318 0.479348 14.5203C0.743104 15.507 1.52036 16.2843 2.50708 16.548C4.29553 17.0274 11.4677 17.0274 11.4677 17.0274C11.4677 17.0274 18.6398 17.0274 20.4282 16.548C21.415 16.2843 22.1922 15.507 22.456 14.5203C22.9353 12.7318 22.9353 9.00001 22.9353 9.00001C22.9353 9.00001 22.9353 5.26818 22.456 3.47974ZM9.17412 12.4403V5.55972L15.1327 9.00001L9.17412 12.4403Z" fill="white" fill-opacity="0.7"/>
</svg>
