<svg width="26" height="26" viewBox="0 0 26 26" fill="none" xmlns="http://www.w3.org/2000/svg">
<path d="M13 0C5.824 0 0 5.824 0 13C0 20.176 5.824 26 13 26C20.176 26 26 20.176 26 13C26 5.824 20.176 0 13 0ZM13 20.696C8.749 20.696 5.304 17.251 5.304 13C5.304 8.749 8.749 5.304 13 5.304C17.251 5.304 20.696 8.749 20.696 13C20.696 17.251 17.251 20.696 13 20.696ZM13 6.253C9.282 6.253 6.253 9.282 6.253 13C6.253 16.718 9.282 19.747 13 19.747C16.718 19.747 19.747 16.718 19.747 13C19.747 9.282 16.718 6.253 13 6.253ZM10.491 16.835V9.165L17.134 13L10.491 16.835Z" fill="white" fill-opacity="0.8"/>
</svg>
