<svg width="220" height="228" viewBox="0 0 220 228" fill="none" xmlns="http://www.w3.org/2000/svg">
<g clip-path="url(#clip0_472_22627)">
<path d="M192.768 114.386H202.875C202.875 114.351 202.875 114.316 202.875 114.245C202.875 109.757 202.559 105.304 201.998 100.99H214.07C211.719 81.2132 204.174 63.0138 192.838 47.8302L184.276 56.3863C179.678 50.0043 174.344 44.1833 168.414 39.0637L179.082 28.4036L176.485 26.2996C156.096 9.36266 130.197 0.0350661 103.631 0H100.578V15.0784C47.0959 16.6213 4.21191 60.454 4.21191 114.281C4.21191 114.316 4.21191 114.351 4.21191 114.421H14.3188C14.3539 142.228 27.1278 167.055 47.1661 183.361L39.972 190.549C56.7817 204.576 78.329 213.097 101.877 213.483V203.384C102.438 203.384 103 203.419 103.561 203.419C152.762 203.419 192.698 163.584 192.768 114.386ZM103.631 3.05075C130.583 3.08582 155.289 12.6939 174.555 28.649L166.027 37.1701C148.972 23.354 127.284 15.0784 103.631 15.0434V3.05075ZM103.526 201.876C55.0972 201.876 15.8629 162.672 15.8629 114.281C15.8629 65.8893 55.1323 26.6853 103.526 26.6853C151.955 26.6853 191.189 65.8893 191.189 114.281C191.189 162.672 151.955 201.876 103.526 201.876Z" fill="white" fill-opacity="0.2"/>
<path d="M89.2423 11.3265V4.8042C72.3273 6.9783 56.6406 13.0097 43.0244 21.9165L47.7269 26.6153C60.0447 18.7605 74.1171 13.3954 89.2423 11.3265Z" fill="white" fill-opacity="0.2"/>
<path d="M155.394 67.958C151.323 72.0257 147.217 76.1284 143.146 80.1961C151.042 89.3484 155.815 101.236 155.815 114.28C155.815 127.36 151.007 139.283 143.041 148.47L155.289 160.708C166.343 148.4 173.116 132.164 173.116 114.315C173.116 96.4668 166.413 80.2312 155.394 67.958Z" fill="white" fill-opacity="0.2"/>
<path d="M79.1356 182.975V177.926C69.8008 174.349 61.4486 168.773 54.5703 161.69L65.8703 150.399C56.8514 141.001 51.2715 128.272 51.2715 114.211C51.2715 101.131 56.0793 89.2084 64.0455 80.0211L52.7454 68.7298C59.9045 60.7347 68.9586 54.4228 79.1356 50.5305V45.481C50.8504 55.5099 30.6016 82.4757 30.6016 114.211C30.6016 145.945 50.8153 172.946 79.1356 182.975Z" fill="white" fill-opacity="0.2"/>
<path d="M7.01926 128.763C6.98417 126.834 5.36988 125.292 3.40465 125.362C1.47452 125.397 -0.0344935 127.01 0.00059984 128.938C0.0356932 130.867 1.64999 132.41 3.61521 132.34C5.54534 132.305 7.08945 130.692 7.01926 128.763Z" fill="white" fill-opacity="0.2"/>
<path d="M9.05417 140.124C9.01907 138.196 7.40478 136.653 5.43956 136.723C3.50942 136.758 1.96532 138.371 2.0355 140.335C2.0706 142.263 3.68489 143.806 5.65012 143.736C7.54516 143.701 9.08926 142.088 9.05417 140.124Z" fill="white" fill-opacity="0.2"/>
<path d="M11.8969 151.205C11.8618 149.276 10.2476 147.733 8.28233 147.804C6.3522 147.839 4.80809 149.452 4.87828 151.415C4.91337 153.344 6.52766 154.887 8.49289 154.817C10.423 154.747 11.9671 153.134 11.8969 151.205Z" fill="white" fill-opacity="0.2"/>
<path d="M16.7397 161.655C16.7046 159.726 15.0903 158.183 13.1251 158.253C11.195 158.288 9.65086 159.901 9.72105 161.865C9.75614 163.794 11.3704 165.337 13.3357 165.267C15.2658 165.196 16.8099 163.583 16.7397 161.655Z" fill="white" fill-opacity="0.2"/>
<path d="M18.8458 167.791C16.9157 167.826 15.3716 169.439 15.4418 171.403C15.4768 173.332 17.0911 174.875 19.0564 174.805C20.9865 174.77 22.5306 173.156 22.4604 171.193C22.3902 169.264 20.7759 167.721 18.8458 167.791Z" fill="white" fill-opacity="0.2"/>
<path d="M25.6534 177.049C23.7233 177.084 22.1792 178.697 22.2494 180.66C22.2845 182.589 23.8988 184.132 25.864 184.062C27.7941 184.027 29.3382 182.414 29.268 180.45C29.1978 178.521 27.5836 176.979 25.6534 177.049Z" fill="white" fill-opacity="0.2"/>
<path d="M25.3734 114.28C25.3734 114.07 25.3734 113.895 25.3734 113.719H20.1094C20.1094 113.895 20.1094 114.105 20.1094 114.28C20.1094 159.165 55.5887 195.739 100.087 197.562V192.302C58.5015 190.479 25.3734 156.254 25.3734 114.28Z" fill="white" fill-opacity="0.2"/>
<path d="M103.526 30.8931C83.0311 30.8931 64.2562 38.292 49.7275 50.5652L53.4825 54.3172C67.0285 42.9909 84.505 36.1881 103.526 36.1881C146.69 36.1881 181.678 71.149 181.678 114.28C181.678 133.321 174.87 150.749 163.535 164.285L167.29 168.037C179.573 153.519 186.978 134.759 186.978 114.28C186.978 68.2034 149.638 30.8931 103.526 30.8931Z" fill="white" fill-opacity="0.2"/>
<path d="M214.947 118.418C214.526 130.166 212.245 141.422 208.42 151.977C204.665 150.714 200.945 149.417 197.225 148.049C199.717 141.176 201.471 133.988 202.384 126.519H196.523C191.084 168.107 158.342 201.139 116.861 206.996V212.852C125.915 211.659 134.548 209.205 142.655 205.768C144.304 209.38 145.883 213.027 147.428 216.674C141.427 219.234 135.18 221.338 128.688 222.81V228C179.678 216.814 218.141 172.245 220.036 118.418H214.947ZM151.884 214.254C150.832 211.8 149.779 209.345 148.656 206.82C171.116 195.88 188.978 176.979 198.629 153.94C201.401 154.957 203.928 155.834 206.314 156.641C195.891 181.783 176.415 202.402 151.884 214.254Z" fill="white" fill-opacity="0.2"/>
<path d="M149.498 57.1927C136.935 47.0586 120.967 40.9922 103.561 40.9922C102.017 40.9922 100.508 41.0623 98.9639 41.1675C99.1042 41.7636 99.2095 42.3948 99.3499 42.991C100.754 42.9208 102.157 42.8507 103.561 42.8507C120.511 42.8507 136.022 48.7769 148.27 58.5954C148.656 58.1395 149.077 57.6837 149.498 57.1927Z" fill="white" fill-opacity="0.2"/>
</g>
<defs>
<clipPath id="clip0_472_22627">
<rect width="220" height="228" fill="white"/>
</clipPath>
</defs>
</svg>
