<svg width="269" height="284" viewBox="0 0 269 284" fill="none" xmlns="http://www.w3.org/2000/svg">
<path opacity="0.5" d="M234.424 142.269H246.989C246.989 142.226 246.989 142.182 246.989 142.095C246.989 136.512 246.597 130.973 245.899 125.609H260.907C257.984 101.01 248.604 78.3745 234.511 59.4896L223.865 70.1315C218.15 62.1937 211.518 54.9538 204.145 48.5861L217.408 35.3274L214.18 32.7106C188.831 11.645 156.632 0.0436141 123.604 0H119.808V18.7541C53.3158 20.6731 0 75.1907 0 142.138C0 142.182 0 142.226 0 142.313H12.5654C12.6091 176.899 28.4904 207.778 53.4031 228.058L44.459 236.999C65.3577 254.445 92.1465 265.043 121.422 265.523V252.962C122.12 252.962 122.818 253.005 123.516 253.005C184.686 253.005 234.337 203.46 234.424 142.269ZM123.604 3.79443C157.112 3.83804 187.827 15.7883 211.78 35.6327L201.178 46.2309C179.974 29.047 153.01 18.7541 123.604 18.7104V3.79443ZM123.473 251.086C63.2635 251.086 14.4852 202.326 14.4852 142.138C14.4852 81.9509 63.3071 33.1903 123.473 33.1903C183.682 33.1903 232.461 81.9509 232.461 142.138C232.461 202.326 183.682 251.086 123.473 251.086Z" fill="white" fill-opacity="0.3"/>
<path opacity="0.5" d="M105.715 14.0868V5.97461C84.6849 8.67868 65.1823 16.1803 48.2539 27.2583L54.1003 33.1026C69.4144 23.333 86.9101 16.6601 105.715 14.0868Z" fill="white" fill-opacity="0.3"/>
<path opacity="0.5" d="M187.956 84.5234C182.895 89.5827 177.791 94.6855 172.73 99.7448C182.546 111.128 188.48 125.913 188.48 142.138C188.48 158.406 182.503 173.234 172.599 184.661L187.826 199.883C201.569 184.574 209.99 164.381 209.99 142.181C209.99 119.982 201.656 99.7884 187.956 84.5234Z" fill="white" fill-opacity="0.3"/>
<path opacity="0.5" d="M93.1498 227.578V221.298C81.5442 216.849 71.1603 209.915 62.6088 201.104L76.6577 187.061C65.4448 175.372 58.5076 159.54 58.5076 142.051C58.5076 125.783 64.4849 110.954 74.3889 99.5273L60.3401 85.4835C69.2406 75.5395 80.4971 67.689 93.1498 62.8478V56.5674C57.9841 69.041 32.8096 102.58 32.8096 142.051C32.8096 181.522 57.9404 215.105 93.1498 227.578Z" fill="white" fill-opacity="0.3"/>
<path opacity="0.5" d="M26.3043 142.139C26.3043 141.877 26.3043 141.659 26.3043 141.441H19.7598C19.7598 141.659 19.7598 141.921 19.7598 142.139C19.7598 197.965 63.8697 243.454 119.192 245.722V239.18C67.491 236.912 26.3043 194.345 26.3043 142.139Z" fill="white" fill-opacity="0.3"/>
<path opacity="0.5" d="M123.472 38.4238C97.9918 38.4238 74.6497 47.6264 56.5869 62.8913L61.2553 67.558C78.0965 53.4707 99.8242 45.0096 123.472 45.0096C177.137 45.0096 220.636 88.4928 220.636 142.138C220.636 165.821 212.171 187.497 198.079 204.332L202.747 208.999C218.018 190.942 227.224 167.609 227.224 142.138C227.224 84.8292 180.801 38.4238 123.472 38.4238Z" fill="white" fill-opacity="0.3"/>
<path opacity="0.5" d="M261.999 147.285C261.475 161.896 258.639 175.896 253.883 189.024C249.215 187.454 244.59 185.84 239.965 184.139C243.063 175.591 245.245 166.65 246.379 157.36H239.093C232.33 209.086 191.623 250.171 140.053 257.454V264.738C151.309 263.255 162.042 260.202 172.121 255.928C174.171 260.42 176.135 264.956 178.054 269.492C170.594 272.676 162.828 275.293 154.756 277.124V283.579C218.15 269.666 265.969 214.233 268.325 147.285H261.999ZM183.595 266.482C182.287 263.429 180.978 260.376 179.581 257.236C207.505 243.629 229.712 220.121 241.711 191.466C245.157 192.731 248.299 193.821 251.266 194.825C238.307 226.096 214.093 251.741 183.595 266.482Z" fill="white" fill-opacity="0.3"/>
<path opacity="0.5" d="M180.625 71.1341C165.005 58.5296 145.154 50.9844 123.513 50.9844C121.594 50.9844 119.718 51.0716 117.798 51.2024C117.972 51.9439 118.103 52.7289 118.278 53.4704C120.023 53.3832 121.768 53.2959 123.513 53.2959C144.587 53.2959 163.871 60.6667 179.098 72.8786C179.578 72.3117 180.101 71.7447 180.625 71.1341Z" fill="white" fill-opacity="0.3"/>
</svg>
