<svg width="328" height="327" viewBox="0 0 328 327" fill="none" xmlns="http://www.w3.org/2000/svg">
<g opacity="0.5">
<path d="M224.256 125.427C207.724 92.0985 168.677 76.8462 134.173 89.7043L136.926 96.1293C167.95 84.5956 202.817 98.4803 217.831 128.18L224.256 125.427ZM127.257 92.6953C94.0773 109.034 78.6762 148.274 91.7278 182.927L97.9593 180.026C86.5743 148.808 100.459 113.941 130.01 99.1203L127.257 92.6953ZM94.6741 189.501C111.012 222.681 150.104 238.275 184.757 225.224L182.004 218.799C150.787 230.184 115.771 216.492 101.099 186.748L94.6741 189.501ZM191.524 222.426C224.66 205.746 240.105 166.847 227.054 132.194L220.629 134.947C232.163 165.971 218.471 200.987 188.771 216.001L191.524 222.426Z" fill="white" fill-opacity="0.45"/>
<path d="M191.862 129.14L188.412 132.026C188.799 132.323 189.071 132.636 189.23 132.963L192.68 130.077L191.862 129.14ZM186.582 130.004L189.645 126.82L188.827 125.883L185.615 129.26C186.002 129.558 186.324 129.805 186.582 130.004ZM183.636 127.431L186.462 123.757L185.495 123.013L182.669 126.688C182.798 126.787 182.992 126.936 183.25 127.134C183.378 127.233 183.507 127.332 183.636 127.431ZM180.929 125.349L183.219 121.571L182.252 120.827L179.813 124.799C180.071 124.998 180.443 125.181 180.929 125.349ZM177.537 123.357L179.44 119.281L178.325 118.731L176.422 122.807C176.68 123.005 177.051 123.189 177.537 123.357ZM173.848 121.751L175.558 117.527L174.293 117.17L172.584 121.395C173.07 121.563 173.491 121.682 173.848 121.751ZM170.204 120.488L171.378 116.16L170.114 115.803L168.94 120.131C169.426 120.3 169.847 120.419 170.204 120.488ZM166.798 119.715L167.436 115.283L166.172 114.926L165.385 119.552C165.841 119.492 166.312 119.547 166.798 119.715ZM162.901 119.181L163.197 114.793L161.933 114.436L161.681 119.166C162.137 119.106 162.544 119.111 162.901 119.181ZM159.048 118.988L158.809 114.496L157.59 114.481L157.68 119.167C158.136 119.107 158.592 119.048 159.048 118.988ZM155.092 119.331L154.511 114.884L153.291 114.869L153.872 119.316C154.229 119.386 154.636 119.391 155.092 119.331ZM151.522 119.971L150.406 115.42L149.231 115.747L150.154 120.15C150.61 120.09 151.066 120.031 151.522 119.971ZM147.804 120.805L146.39 116.641L145.215 116.968L146.629 121.132C147.085 121.073 147.477 120.964 147.804 120.805ZM143.982 122.174L142.226 118.054L141.096 118.724L143 122.65C143.327 122.492 143.655 122.333 143.982 122.174ZM140.546 123.841L138.299 119.959L137.169 120.629L139.416 124.51C139.842 124.223 140.219 123.999 140.546 123.841ZM137.498 125.805L134.909 121.968L133.972 122.786L136.561 126.623C136.858 126.236 137.17 125.963 137.498 125.805ZM134.493 128.111L131.459 124.854L130.67 125.479L133.557 128.929C133.755 128.671 134.067 128.398 134.493 128.111ZM131.534 130.759L128.35 127.696L127.414 128.514L130.791 131.726C130.989 131.468 131.237 131.146 131.534 130.759ZM128.962 133.704L125.481 131.028L124.737 131.995L128.218 134.671C128.317 134.542 128.466 134.349 128.664 134.091C128.763 133.962 128.863 133.833 128.962 133.704ZM126.925 136.754L123.102 134.122L122.551 135.238L126.181 137.721C126.479 137.334 126.726 137.012 126.925 136.754ZM125.081 139.952L120.812 137.901L120.262 139.016L124.531 141.068C124.6 140.711 124.784 140.339 125.081 139.952ZM123.282 143.493L119.102 142.125L118.701 143.047L122.925 144.757C122.995 144.4 123.114 143.978 123.282 143.493ZM122.018 147.137L117.69 145.963L117.333 147.227L121.662 148.401C121.731 148.044 121.85 147.623 122.018 147.137ZM121.097 150.737L116.813 149.905L116.456 151.169L121.082 151.956C121.152 151.599 121.157 151.193 121.097 150.737ZM120.711 154.44L116.174 154.337L116.16 155.557L120.548 155.853C120.716 155.367 120.771 154.896 120.711 154.44ZM120.563 158.635L116.027 158.532L116.205 159.9L120.697 159.661C120.638 159.205 120.593 158.863 120.563 158.635ZM120.861 162.249L116.265 163.023L116.593 164.198L121.04 163.617C120.981 163.161 120.921 162.705 120.861 162.249ZM121.353 166.012L116.951 166.935L117.278 168.11L121.68 167.187C121.621 166.731 121.512 166.339 121.353 166.012ZM122.335 169.537L118.022 171.144L118.499 172.126L122.856 170.86C122.698 170.533 122.524 170.092 122.335 169.537ZM123.705 173.359L119.585 175.115L120.106 176.439L124.374 174.489C124.087 174.063 123.863 173.686 123.705 173.359ZM125.371 176.795L121.49 179.041L122.159 180.172L126.041 177.925C125.882 177.598 125.659 177.221 125.371 176.795ZM127.335 179.843L123.692 182.581L124.316 183.369L128.005 180.973C127.846 180.646 127.623 180.27 127.335 179.843ZM129.641 182.847L126.385 185.882L127.203 186.819L130.459 183.784C130.202 183.586 129.929 183.274 129.641 182.847ZM132.289 185.807L129.419 189.139L130.238 190.076L133.256 186.55C132.999 186.352 132.676 186.104 132.289 185.807ZM135.235 188.379L132.558 191.86L133.525 192.604L136.202 189.123C136.073 189.024 135.944 188.925 135.815 188.825C135.557 188.627 135.364 188.478 135.235 188.379ZM138.285 190.416L135.846 194.388L136.813 195.132L139.252 191.16C138.865 190.862 138.542 190.614 138.285 190.416ZM141.676 192.409L139.431 196.529L140.547 197.079L142.643 193.152C142.256 192.855 141.934 192.607 141.676 192.409ZM145.023 194.059L143.507 198.432L144.771 198.789L146.287 194.416C145.93 194.346 145.509 194.227 145.023 194.059ZM148.667 195.322L147.687 199.8L148.758 200.008L149.932 195.679C149.575 195.61 149.153 195.491 148.667 195.322ZM152.267 196.244L151.628 200.676L152.699 200.884L153.487 196.259C153.031 196.318 152.624 196.313 152.267 196.244ZM156.164 196.779L155.867 201.166L156.939 201.374L157.384 196.793C157.027 196.724 156.62 196.719 156.164 196.779ZM160.165 196.778L160.255 201.463L161.282 201.329L161.385 196.792C160.929 196.852 160.522 196.847 160.165 196.778ZM163.973 196.628L164.554 201.075L165.58 200.941L165.148 196.301C164.821 196.459 164.429 196.569 163.973 196.628ZM167.542 195.988L168.465 200.39L169.64 200.063L168.717 195.66C168.261 195.72 167.87 195.829 167.542 195.988ZM171.261 195.154L172.675 199.319L173.85 198.991L172.242 194.678C171.915 194.837 171.588 194.995 171.261 195.154ZM174.89 193.636L176.646 197.756L177.969 197.235L175.871 193.16C175.544 193.319 175.217 193.477 174.89 193.636ZM178.325 191.97L180.572 195.851L181.702 195.182L179.455 191.3C179.029 191.588 178.652 191.811 178.325 191.97ZM181.374 190.006L183.963 193.843L185.093 193.173L182.504 189.336C182.078 189.624 181.701 189.847 181.374 190.006ZM184.571 187.848L187.606 191.105L188.394 190.48L185.315 186.881C185.116 187.139 184.869 187.462 184.571 187.848ZM187.337 185.051L190.714 188.264L191.458 187.297L188.274 184.233C187.947 184.392 187.635 184.665 187.337 185.051ZM189.91 182.106L193.584 184.931L194.328 183.964L190.653 181.139C190.554 181.268 190.455 181.397 190.356 181.526C190.157 181.784 190.009 181.977 189.91 182.106ZM192.14 179.205L195.77 181.688L196.513 180.721L192.69 178.089C192.522 178.575 192.338 178.947 192.14 179.205ZM194.133 175.813L198.06 177.91L198.61 176.794L194.534 174.891C194.336 175.149 194.202 175.456 194.133 175.813ZM195.589 172.318L199.963 173.834L200.171 172.763L196.14 171.202C195.941 171.46 195.758 171.832 195.589 172.318ZM196.853 168.673L201.181 169.848L201.538 168.583L197.21 167.409C197.14 167.766 197.021 168.188 196.853 168.673ZM197.774 165.074L202.058 165.906L202.415 164.642L197.982 164.003C197.913 164.36 197.844 164.717 197.774 165.074ZM198.16 161.37L202.89 161.622L202.905 160.402L198.324 159.957C198.383 160.413 198.329 160.884 198.16 161.37ZM198.502 157.324L202.845 157.279L202.859 156.059L198.368 156.298C198.397 156.526 198.442 156.868 198.502 157.324ZM198.159 153.368L202.606 152.787L202.472 151.761L198.025 152.342C198.084 152.798 198.129 153.14 198.159 153.368ZM197.712 149.947L201.921 148.875L201.787 147.849L197.384 148.772C197.444 149.228 197.553 149.62 197.712 149.947ZM196.536 146.274L200.849 144.666L200.521 143.491L196.208 145.099C196.367 145.426 196.476 145.818 196.536 146.274ZM195.167 142.451L199.286 140.695L198.959 139.52L194.691 141.47C194.849 141.797 195.008 142.124 195.167 142.451ZM193.5 139.016L197.382 136.769L196.905 135.788L192.831 137.886C193.118 138.312 193.341 138.689 193.5 139.016ZM191.536 135.967L195.373 133.378L194.555 132.441L191.06 134.986C191.219 135.313 191.378 135.64 191.536 135.967Z" fill="white" fill-opacity="0.45"/>
<path d="M141.515 205.824C128.158 200.785 118.175 190.955 112.952 178.938C107.387 166.966 106.625 153.149 111.665 139.791C116.556 126.626 126.578 116.793 138.551 111.227C140.415 110.404 142.294 109.695 144.187 109.099L145.453 113.457C143.688 114.152 142.037 114.831 140.5 115.496C129.658 120.392 120.572 129.407 115.889 141.5C111.549 153.549 112.325 166.147 117.221 176.989C121.968 188.024 131.132 196.917 143.032 201.451C154.932 205.985 167.872 205.164 178.714 200.269C189.556 195.373 198.299 186.402 202.982 174.309C207.516 162.409 206.889 149.617 201.993 138.775C197.097 127.933 187.933 119.041 176.033 114.507C167.242 111.132 158.318 110.732 149.855 112.534L148.738 107.983C158.034 105.899 168.029 106.506 177.549 110.134C190.907 115.173 200.89 125.003 206.261 136.826C211.485 148.843 212.44 162.809 207.4 176.167C202.316 189.183 192.486 199.165 180.514 204.73C168.497 209.953 154.531 210.908 141.515 205.824Z" fill="white" fill-opacity="0.45"/>
<path fill-rule="evenodd" clip-rule="evenodd" d="M92.3558 199.723L93.2186 201.002C103.277 216.737 118.272 227.651 134.991 233.121C154.239 239.305 175.865 238.393 195.259 228.379C210.77 220.611 222.384 208.308 229.774 194.295L230.428 192.644L229.163 192.288L206.97 183.532L206.717 184.26C201.826 193.424 193.974 201.234 184.009 206.189C170.803 212.96 155.959 213.855 142.691 209.5C131.951 205.858 122.371 199.107 115.363 189.411L114.887 188.43L114.694 188.281L113.415 189.144L93.6795 199.202L92.3558 199.723ZM228.465 193.597C221.224 207.416 209.565 219.377 194.738 227.055C175.493 236.876 154.209 237.743 135.496 231.663C118.97 226.342 104.362 215.725 94.3489 200.333L114.426 190.229C121.285 200.119 131.252 207.167 142.141 210.616C155.751 214.926 170.982 214.328 184.679 207.319C194.643 202.364 202.495 194.554 207.729 185.346L228.465 193.597ZM111.901 132.282L112.406 130.824C117.536 122.151 125.09 114.728 134.861 109.624C148.068 102.854 163.105 102.107 176.18 106.313C187.113 110.104 197.08 117.152 203.939 127.042L204.177 127.533L226.515 116.09L225.652 114.811C215.445 99.2699 200.599 88.1623 183.879 82.6923C164.631 76.5088 142.856 77.614 123.612 87.4347C109.572 94.4878 93.6755 109.96 88.4427 123.169L111.901 132.282ZM111.29 130.274L90.5546 122.023C97.6019 108.055 109.112 96.2875 124.281 88.5649C143.377 78.9375 164.468 77.9218 183.523 83.9566C199.706 89.3227 214.508 100.088 224.328 115.332L204.593 125.39C197.392 115.546 187.618 108.646 176.536 105.049C163.075 100.545 147.889 101.485 134.34 108.3C124.227 113.449 116.375 121.259 111.29 130.274Z" fill="white" fill-opacity="0.45"/>
<path fill-rule="evenodd" clip-rule="evenodd" d="M141.331 180.449C147.713 185.356 155.597 187.11 162.929 185.978C170.306 185.188 177.281 181.319 181.995 174.789C186.902 168.407 188.849 160.672 187.866 153.146C186.734 145.814 182.865 138.839 176.483 133.932C170.101 129.025 162.218 127.271 154.885 128.403C147.701 129.342 140.533 133.062 135.819 139.592C130.912 145.974 128.965 153.709 129.949 161.235C131.081 168.567 134.949 175.542 141.331 180.449ZM162.84 185.294C155.656 186.232 147.966 184.628 141.777 179.869C135.589 175.111 131.914 168.285 130.782 160.952C129.843 153.768 131.641 146.227 136.4 140.038C141.158 133.85 147.791 130.026 154.975 129.087C162.159 128.149 169.849 129.753 176.037 134.512C182.226 139.27 185.901 146.096 187.033 153.429C187.971 160.613 186.173 168.154 181.415 174.343C176.85 180.68 170.024 184.355 162.84 185.294Z" fill="white" fill-opacity="0.45"/>
<path fill-rule="evenodd" clip-rule="evenodd" d="M82.0957 78.592L81.3075 79.2169L89.5047 87.366C89.7029 87.1081 89.9012 86.8502 90.0995 86.5923L82.0957 78.592ZM95.0254 241.472C94.8667 241.145 94.6583 240.882 94.4005 240.684L89.0173 246.084L89.8356 247.021L95.0254 241.472ZM97.5842 243.747C97.4255 243.42 97.2171 243.157 96.9593 242.959L91.8141 248.85L92.5876 249.445L97.5842 243.747ZM100.485 245.978C100.227 245.779 99.9693 245.581 99.7115 245.383L94.5663 251.274L95.5332 252.018L100.485 245.978ZM103.386 248.208C103.128 248.01 102.87 247.812 102.612 247.613L95.5342 256.018L96.3077 256.613L103.386 248.208ZM106.242 250.096C105.984 249.898 105.726 249.7 105.468 249.502L100.71 255.69L101.484 256.285L106.242 250.096ZM109.098 251.985C108.84 251.787 108.582 251.588 108.325 251.39L103.953 257.876L104.875 258.277L109.098 251.985ZM111.761 253.725C111.503 253.526 111.245 253.328 110.987 253.13L106.616 259.616L107.731 260.166L111.761 253.725ZM114.766 255.419C114.409 255.35 114.101 255.217 113.843 255.018L109.814 261.459L110.588 262.054L114.766 255.419ZM117.384 256.817C117.126 256.619 116.868 256.421 116.61 256.222L110.589 266.055L111.511 266.457L117.384 256.817ZM120.389 258.512C120.131 258.314 119.873 258.116 119.615 257.917L115.824 264.849L116.746 265.251L120.389 258.512ZM123.542 260.014C123.284 259.815 122.913 259.632 122.427 259.464L119.319 266.306L120.242 266.708L123.542 260.014ZM126.503 261.367C126.146 261.297 125.838 261.164 125.58 260.965L122.518 268.15L123.44 268.551L126.503 261.367ZM129.611 262.526C129.353 262.328 129.046 262.194 128.689 262.125L125.969 269.265L126.891 269.666L129.611 262.526ZM132.869 263.492C132.512 263.423 132.155 263.354 131.798 263.284L127.769 273.727L128.691 274.128L132.869 263.492ZM136.126 264.458C135.769 264.389 135.412 264.32 135.055 264.25L132.528 271.539L133.599 271.747L136.126 264.458ZM139.384 265.425C139.027 265.355 138.784 265.271 138.655 265.172L136.321 272.609L137.393 272.817L139.384 265.425ZM142.448 266.242C142.091 266.173 141.734 266.103 141.377 266.034L139.579 273.575L140.65 273.783L142.448 266.242ZM145.855 267.015C145.498 266.945 145.14 266.876 144.783 266.807L143.134 274.155L144.205 274.363L145.855 267.015ZM149.067 267.639C148.839 267.668 148.547 267.649 148.19 267.579L145.619 278.527L146.69 278.735L149.067 267.639ZM152.429 268.069C152.201 268.099 151.908 268.079 151.551 268.01L150.095 275.507L151.166 275.715L152.429 268.069ZM155.791 268.5C155.434 268.431 155.076 268.361 154.719 268.292L153.799 275.893L154.87 276.101L155.791 268.5ZM158.959 268.782C158.602 268.713 158.309 268.693 158.081 268.722L157.16 276.323L158.231 276.531L158.959 268.782ZM162.618 268.826C162.161 268.885 161.755 268.881 161.398 268.811L161.013 276.516L161.89 276.575L162.618 268.826ZM166.277 268.87C166.049 268.899 165.756 268.88 165.399 268.81L164.673 280.561L165.699 280.427L166.277 268.87ZM169.593 268.958C169.236 268.889 168.944 268.869 168.716 268.899L168.524 276.752L169.55 276.618L169.593 268.958ZM173.059 268.853C172.702 268.784 172.36 268.829 172.033 268.987L172.332 276.603L173.358 276.469L173.059 268.853ZM176.331 268.6C175.875 268.659 175.533 268.704 175.305 268.734L175.797 276.498L176.824 276.364L176.331 268.6ZM179.752 268.153C179.425 268.312 179.083 268.356 178.726 268.287L179.56 276.006L180.587 275.872L179.752 268.153ZM183.173 267.706C182.717 267.765 182.375 267.81 182.147 267.84L183.086 279.025L184.112 278.891L183.173 267.706ZM115.901 67.0427C116.229 66.884 116.556 66.7254 116.883 66.5667L112.27 56.5574L111.437 56.8403L115.901 67.0427ZM112.808 68.6647C113.135 68.506 113.413 68.4116 113.641 68.3818L110.308 61.511L109.326 61.987L112.808 68.6647ZM109.908 70.4354C110.235 70.2766 110.562 70.1179 110.89 69.9592L107.066 63.3261L106.084 63.8023L109.908 70.4354ZM107.201 72.3545C107.4 72.0966 107.662 71.8883 107.99 71.7296L104.017 65.2901L103.229 65.915L107.201 72.3545ZM104.301 74.1252C104.629 73.9665 104.906 73.8721 105.134 73.8423L100.82 67.4475L100.031 68.0724L104.301 74.1252ZM101.743 75.851C102.071 75.6923 102.333 75.4839 102.532 75.2261L96.1488 66.3182L95.3606 66.9431L101.743 75.851ZM98.8881 77.9637C99.3144 77.6761 99.6267 77.4033 99.825 77.1455L95.0641 71.3309L94.276 71.9556L98.8881 77.9637ZM96.3748 80.0318C96.702 79.8731 96.9647 79.6647 97.163 79.4069L92.2534 73.7857L91.4654 74.4103L96.3748 80.0318ZM93.8617 82.0996C94.1888 81.9409 94.4516 81.7326 94.6499 81.4747L89.5916 76.0468L88.8034 76.6718L93.8617 82.0996ZM91.3931 84.5097C91.5913 84.2519 91.7896 83.994 91.9879 83.7361L86.781 78.5016L85.9928 79.1265L91.3931 84.5097ZM90.9194 238.007L82.7704 246.204L83.544 246.799L91.5444 238.795C91.2865 238.597 91.0782 238.335 90.9194 238.007ZM82.7394 240.642L83.3643 241.43L88.7474 236.03C88.5887 235.702 88.3804 235.44 88.1225 235.242L82.7394 240.642ZM80.2847 237.831L80.9096 238.619L86.4861 233.368C86.2283 233.169 85.9704 232.971 85.7126 232.773L80.2847 237.831ZM77.7853 234.678L78.6034 235.615L84.0313 230.557C83.8725 230.23 83.6644 229.967 83.4065 229.769L77.7853 234.678ZM72.9659 233.742L73.5908 234.53L81.8739 227.36C81.616 227.161 81.4079 226.899 81.2492 226.571L72.9659 233.742ZM73.1283 228.328L73.7532 229.116L79.5679 224.356C79.31 224.157 79.1017 223.895 78.943 223.568L73.1283 228.328ZM71.1643 225.28L71.6406 226.261L77.6486 221.649C77.4899 221.322 77.3311 220.995 77.1724 220.667L71.1643 225.28ZM69.2003 222.231L69.6766 223.212L76.0714 218.898C75.8136 218.699 75.6052 218.437 75.4465 218.11L69.2003 222.231ZM67.3852 218.989L67.8613 219.97L74.1074 215.849C74.0776 215.621 73.9833 215.343 73.8246 215.016L67.3852 218.989ZM62.804 218.543L63.4287 219.332L72.7236 213.246C72.6938 213.018 72.5995 212.741 72.4408 212.414L62.804 218.543ZM64.1861 213.144L64.4688 213.977L71.2951 210.302C71.1364 209.974 70.9281 209.712 70.6702 209.514L64.1861 213.144ZM62.5194 209.709L62.9957 210.69L69.822 207.015C69.6633 206.688 69.5045 206.36 69.3458 206.033L62.5194 209.709ZM60.8975 206.615L61.3738 207.597L68.2448 204.263C68.0861 203.936 67.9918 203.659 67.962 203.431L60.8975 206.615ZM59.3797 202.986L59.8559 203.968L66.7716 200.977C66.6128 200.649 66.5185 200.372 66.4887 200.144L59.3797 202.986ZM54.6197 201.173L55.0958 202.154L65.2983 197.69C65.2685 197.462 65.1743 197.184 65.0156 196.857L54.6197 201.173ZM56.7307 196.026L57.2069 197.007L64.1673 194.358C64.1375 194.13 64.0431 193.853 63.8844 193.526L56.7307 196.026ZM55.5549 192.352L56.0311 193.334L63.2296 191.175C63.17 190.719 63.0608 190.328 62.902 190.001L55.5549 192.352ZM54.7659 188.976L54.8999 190.002L62.2918 187.993C62.1331 187.666 62.024 187.274 61.9644 186.818L54.7659 188.976ZM53.977 185.6L54.2596 186.433L61.5028 184.617C61.473 184.389 61.3787 184.111 61.22 183.784L53.977 185.6ZM50.005 183.161L50.1392 184.188L60.9072 181.389C60.8774 181.161 60.8326 180.819 60.773 180.363L50.005 183.161ZM52.8897 178.609L53.0237 179.636L60.6537 178.117C60.495 177.79 60.4006 177.512 60.3708 177.284L52.8897 178.609ZM52.398 174.846L52.532 175.873L60.0134 174.547C59.8546 174.22 59.8098 173.878 59.8792 173.521L52.398 174.846ZM51.9511 171.425L52.0851 172.452L59.6112 171.468C59.4524 171.141 59.4076 170.799 59.477 170.442L51.9511 171.425ZM51.6529 167.811L51.7869 168.838L59.1642 168.048C59.1344 167.82 59.1541 167.527 59.2234 167.17L51.6529 167.811ZM47.5469 164.347L47.5323 165.566L59.0594 164.582C58.9998 164.126 58.955 163.784 58.9252 163.556L47.5469 164.347ZM51.3538 160.196L51.4878 161.222L59.1031 160.923C58.9444 160.596 58.8998 160.254 58.9691 159.897L51.3538 160.196ZM51.3976 156.537L51.5318 157.563L58.8496 157.651C58.9189 157.294 58.9883 156.937 59.0576 156.58L51.3976 156.537ZM51.4416 152.878L51.4269 154.098L58.9381 154.334C59.0075 153.977 59.0768 153.62 59.1462 153.263L51.4416 152.878ZM51.6787 149.368L51.6194 150.245L59.1755 150.824C59.1457 150.596 59.1009 150.254 59.0413 149.798L51.6787 149.368ZM48.5992 145.769L48.7332 146.795L59.606 147.462C59.5762 147.234 59.5961 146.942 59.6654 146.585L48.5992 145.769ZM52.644 142.109L52.4359 143.18L60.0368 144.101C60.1061 143.744 60.1753 143.387 60.2446 143.03L52.644 142.109ZM53.2234 138.554L53.164 139.432L60.4673 140.739C60.5367 140.382 60.6061 140.025 60.6754 139.668L53.2234 138.554ZM53.8026 134.999L53.7434 135.877L61.0913 137.526C61.1606 137.169 61.23 136.812 61.2993 136.455L53.8026 134.999ZM54.7241 131.4L54.516 132.471L61.8641 134.12C61.9334 133.763 62.0028 133.406 62.0721 133.049L54.7241 131.4ZM52.2393 127.027L51.9865 127.756L62.7856 130.52C62.8549 130.163 62.9243 129.806 62.9936 129.449L52.2393 127.027ZM56.9538 124.498L56.5523 125.42L63.7963 127.605C63.8656 127.248 63.935 126.891 64.0043 126.534L56.9538 124.498ZM58.4107 121.002L58.0092 121.924L64.9559 124.496C65.1541 124.238 65.288 123.931 65.3573 123.574L58.4107 121.002ZM59.7189 117.7L59.3175 118.622L66.4575 121.342C66.5268 120.985 66.596 120.629 66.6654 120.272L59.7189 117.7ZM61.3692 114.353L60.9678 115.275L67.8103 118.382C67.8796 118.025 68.0135 117.718 68.2117 117.46L61.3692 114.353ZM59.6725 109.356L59.271 110.278L69.4159 114.693C69.6141 114.436 69.7975 114.064 69.9659 113.578L59.6725 109.356ZM64.4764 107.51L64.075 108.432L70.9175 111.54C71.1157 111.282 71.314 111.024 71.5123 110.766L64.4764 107.51ZM66.1267 104.163L65.7253 105.086L72.2704 108.579C72.4687 108.322 72.667 108.064 72.8653 107.806L66.1267 104.163ZM67.9704 100.965L67.4203 102.081L73.8166 105.768C74.0149 105.51 74.2132 105.252 74.4115 104.995L67.9704 100.965ZM69.814 97.7667L69.4126 98.689L75.6603 102.57C75.8586 102.312 76.0569 102.054 76.2551 101.796L69.814 97.7667ZM68.8461 93.0223L68.4447 93.9446L77.4001 99.907C77.5983 99.6492 77.7966 99.3913 77.9949 99.1334L68.8461 93.0223ZM73.9327 92.0099L73.3381 92.7833L79.4819 97.1995C79.6801 96.9417 79.8784 96.6838 80.0767 96.4259L73.9327 92.0099ZM76.1632 89.109L75.5686 89.8824L81.4148 94.6856C81.6131 94.4277 81.8114 94.1698 82.0096 93.912L76.1632 89.109ZM78.5871 86.3569L77.799 86.9815L83.4966 91.9781C83.6949 91.7202 83.8932 91.4623 84.0914 91.2045L78.5871 86.3569ZM81.2043 83.7534L80.4163 84.3781L85.9652 89.568C86.1635 89.3101 86.3618 89.0522 86.56 88.7944L81.2043 83.7534Z" fill="white" fill-opacity="0.45"/>
<path d="M262.761 100.567C255.727 105.314 248.886 110.208 242.194 114.91C242.412 115.693 242.695 116.526 243.042 117.409C250.076 112.663 257.304 108.065 264.487 103.125L262.761 100.567ZM239.382 109.363C245.494 104.215 251.65 99.4096 257.911 94.0686L255.888 91.8975C249.924 96.8518 243.961 101.806 238.042 107.102C238.489 107.856 238.935 108.609 239.382 109.363ZM234.888 101.599C240.123 96.3925 245.208 91.379 250.592 85.9787L248.226 83.8523C243.14 88.8658 238.099 94.2215 233.207 99.3837C233.782 100.236 234.343 100.975 234.888 101.599ZM229.993 94.7585C234.201 89.6857 238.558 84.4196 242.915 79.1534L240.55 77.0269C236.193 82.2932 232.178 87.5146 228.163 92.7362C228.709 93.3607 229.319 94.0348 229.993 94.7585ZM223.685 87.7544C227.194 82.6569 230.639 77.5099 234.019 72.3133L231.356 70.5735C228.075 75.6412 224.908 80.6941 221.855 85.732C222.53 86.4557 223.14 87.1298 223.685 87.7544ZM216.738 81.1816C219.236 76.3322 221.783 71.4184 224.38 66.4401L221.762 65.0425C219.264 69.8918 216.816 74.6767 214.417 79.3972C215.191 79.992 215.964 80.5868 216.738 81.1816ZM209.002 75.2337C210.846 70.7017 212.689 66.1699 214.532 61.638L211.617 60.627C209.972 64.9011 208.277 69.2396 206.533 73.6426C207.306 74.2374 208.129 74.7678 209.002 75.2337ZM201.252 70.5055C202.441 66.291 203.645 62.1905 204.864 58.204L201.948 57.1933C200.729 61.1797 199.625 65.1511 198.634 69.1078C199.507 69.5736 200.379 70.0396 201.252 70.5055ZM192.133 65.9561C192.827 62.3862 193.52 58.8164 194.213 55.2465L191.194 54.7711C190.471 58.1129 189.812 61.5042 189.218 64.9451C190.19 65.282 191.161 65.6192 192.133 65.9561ZM182.465 62.5221C182.662 59.5969 182.91 56.6073 183.206 53.5531L180.038 53.2711C179.712 56.0972 179.499 58.9084 179.4 61.7047C180.372 62.0416 181.394 62.3141 182.465 62.5221ZM172.246 60.204C172.275 57.7647 172.24 55.2758 172.14 52.7374L169.017 52.7976C169.086 55.108 169.156 57.4183 169.226 59.7287C170.168 59.8375 171.175 59.996 172.246 60.204ZM162.503 58.8674C162.364 56.914 162.175 55.025 161.937 53.2005L158.858 53.6028C159.067 55.1992 159.29 56.9096 159.528 58.7341C160.57 58.714 161.561 58.7586 162.503 58.8674ZM151.868 58.6911C151.69 57.3228 151.397 55.9694 150.99 54.6308L148.105 55.1818C148.382 56.4212 148.596 57.6111 148.745 58.7514C149.786 58.7313 150.827 58.7112 151.868 58.6911ZM141.026 59.5858C140.807 58.8025 140.589 58.0193 140.371 57.2359L137.188 58.1736C137.505 58.828 137.758 59.4329 137.947 59.9881C138.988 59.9681 140.014 59.8339 141.026 59.5858ZM130.362 61.8489L129.885 60.8672L127.089 62.1025L127.521 62.7419C128.403 62.3947 129.35 62.097 130.362 61.8489ZM196.245 239.904C199.252 249.601 202.109 259.492 205.309 269.337L208.299 268.251C205.099 258.405 201.75 248.753 198.357 238.758C197.702 239.076 196.998 239.458 196.245 239.904ZM203.413 236.184C207.491 246.089 211.375 255.846 215.795 265.706L218.591 264.471C214.32 254.417 209.603 244.944 205.332 234.89C204.578 235.336 203.939 235.768 203.413 236.184ZM209.511 232.256C214.615 242.027 219.525 251.65 224.971 261.376L227.573 259.992C222.276 250.072 216.682 240.539 211.236 230.813C210.611 231.359 210.036 231.84 209.511 232.256ZM215.519 227.644C221.798 237.088 227.883 246.382 234.355 255.975L236.913 254.249C230.441 244.657 223.865 235.6 217.244 226.201C216.619 226.746 216.044 227.228 215.519 227.644ZM221.289 222.541C228.549 231.509 235.809 240.476 243.412 249.399L245.583 247.375C237.981 238.453 230.423 229.872 222.821 220.949C222.196 221.495 221.685 222.026 221.289 222.541ZM226.33 217.186C234.72 225.483 242.769 233.826 251.502 242.079L253.479 239.907C245.089 231.609 236.401 223.698 228.01 215.4C227.386 215.946 226.826 216.541 226.33 217.186ZM230.687 211.919C240.014 219.399 248.851 227.116 258.178 234.596L260.305 232.231C250.784 224.603 241.501 217.465 232.174 209.985C231.678 210.63 231.183 211.275 230.687 211.919ZM235.103 205.776C245.025 212.482 254.606 219.232 264.87 225.893L266.461 223.424C256.345 216.57 246.319 210.399 236.248 203.886C235.98 204.501 235.599 205.131 235.103 205.776ZM238.791 199.379C249.605 204.925 259.78 210.902 270.594 216.447L271.798 213.681C261.326 208.09 250.556 202.887 240.084 197.296C239.717 198.04 239.286 198.734 238.791 199.379ZM242.091 192.685C253.113 197.16 264.032 202.17 275.203 206.451L276.214 203.536C265.191 199.061 254.065 195.122 243.043 190.647C242.775 191.262 242.458 191.941 242.091 192.685ZM244.752 186.423C256.131 189.633 267.064 193.424 278.488 196.976L279.499 194.061C268.075 190.508 256.889 187.447 245.51 184.236C245.243 184.851 244.99 185.58 244.752 186.423ZM246.937 179.179C258.375 181.512 269.665 184.038 281.104 186.37L281.728 183.158C270.334 181.167 258.94 179.176 247.502 176.843C247.363 177.557 247.175 178.336 246.937 179.179ZM248.735 171.637C260.188 172.75 271.344 174.25 282.797 175.363L283.079 172.195C271.626 171.082 260.411 170.46 249.151 169.495C249.013 170.209 248.874 170.923 248.735 171.637ZM249.849 164.185C260.826 164.317 272.145 164.404 283.271 164.342L283.211 161.218C272.085 161.28 261.197 161.833 250.072 161.895C249.933 162.609 249.859 163.372 249.849 164.185ZM250.279 156.823C261.122 155.928 271.965 155.033 282.807 154.139L282.405 151.06C271.756 152.103 261.151 153.489 250.502 154.532C250.492 155.345 250.418 156.109 250.279 156.823ZM250.322 149.163C253.698 148.374 257.268 147.733 261.031 147.242C267.783 145.664 274.432 144.621 281.035 143.236L280.484 140.351C270.311 142.376 260.331 144.55 250.158 146.575C250.148 147.388 250.203 148.251 250.322 149.163ZM249.591 140.908C259.14 138.095 268.688 135.282 278.385 132.275L277.492 129.434C267.944 132.247 258.634 135.551 249.279 138.513C249.269 139.326 249.373 140.125 249.591 140.908ZM248.028 132.936C256.952 129.334 265.875 125.733 274.605 121.983L273.37 119.187C264.64 122.937 256.252 126.643 247.522 130.393C247.74 131.176 247.909 132.024 248.028 132.936ZM246.167 125.351C254.124 121.006 262.125 117.003 270.275 112.807L268.698 110.056C260.89 114.207 253.127 118.701 245.17 123.045C245.488 123.7 245.82 124.468 246.167 125.351Z" fill="white" fill-opacity="0.45"/>
<path fill-rule="evenodd" clip-rule="evenodd" d="M178.654 185.14L178.684 182.701C178.684 182.701 178.733 182.637 178.832 182.508C178.832 182.508 178.882 182.443 178.981 182.314L181.361 183.221C182.809 181.872 184.192 180.474 185.51 179.026L184.662 176.527C184.662 176.527 184.711 176.463 184.81 176.334L187.25 176.363C188.439 174.816 189.386 173.185 190.09 171.469L188.751 169.208C188.751 169.208 188.8 169.144 188.899 169.015L191.249 168.36C191.953 166.645 192.463 164.78 192.78 162.767L190.801 160.938C190.801 160.938 190.851 160.874 190.95 160.745L193.062 159.599C193.151 157.616 193.125 155.648 192.986 153.694L190.755 152.594L190.71 152.252L192.584 150.615C192.217 148.692 191.671 146.734 190.947 144.741L188.463 144.369L189.712 141.945C188.918 140.309 187.896 138.703 186.646 137.126L184.401 137.246L185.159 135.059C183.939 133.711 182.605 132.377 181.157 131.059L178.658 131.907C178.529 131.808 178.4 131.709 178.271 131.61L178.449 128.977C176.803 127.916 175.172 126.97 173.555 126.137L171.488 127.625C171.359 127.526 171.23 127.427 171.101 127.328L170.446 124.978C168.731 124.274 166.866 123.764 164.853 123.447L163.173 125.232C162.945 125.262 162.831 125.277 162.831 125.277L162.638 125.128L161.492 123.016C159.608 122.798 157.754 122.809 155.929 123.047L154.636 125.13C154.536 125.259 154.373 125.338 154.145 125.368L152.508 123.494C150.585 123.861 148.74 124.392 146.976 125.087L146.411 127.422C146.312 127.551 146.213 127.68 146.113 127.809L143.838 126.367C142.202 127.16 140.595 128.182 139.019 129.431L139.138 131.677C139.039 131.806 138.99 131.871 138.99 131.871L136.803 131.113C135.227 132.363 133.844 133.761 132.654 135.308L133.309 137.658C133.21 137.787 133.16 137.851 133.16 137.851L130.721 137.822C129.532 139.369 128.535 141.065 127.733 142.91L129.221 144.977C129.121 145.106 129.022 145.235 128.923 145.364L126.573 146.018C125.87 147.734 125.409 149.534 125.191 151.418L126.976 153.098C126.877 153.227 126.892 153.341 127.021 153.44C127.021 153.44 126.971 153.505 126.872 153.634L124.76 154.779C124.672 156.763 124.697 158.731 124.836 160.684L127.067 161.784C126.968 161.913 126.983 162.028 127.112 162.127L125.432 163.912C125.67 165.736 126.136 167.531 126.831 169.296L129.359 170.009C129.488 170.108 129.503 170.222 129.404 170.351L128.304 172.583C129.098 174.219 130.055 175.775 131.176 177.252L133.422 177.133L132.663 179.32C134.012 180.767 135.411 182.15 136.859 183.469L139.357 182.62L139.179 185.253C140.955 186.413 142.715 187.458 144.46 188.39L146.527 186.902L146.721 187.051L147.376 189.401C149.091 190.105 150.956 190.615 152.969 190.932L154.649 189.146C154.748 189.017 154.862 189.003 154.991 189.102L156.137 191.214C158.15 191.531 160.133 191.619 162.086 191.48L163.187 189.249C163.286 189.12 163.335 189.055 163.335 189.055L165.314 190.884C167.138 190.646 168.983 190.115 170.847 189.292L171.218 186.808C171.347 186.907 171.461 186.892 171.56 186.763L173.836 188.205C175.571 187.283 177.177 186.261 178.654 185.14ZM140.24 133.447C153.297 122.869 172.395 125.245 182.824 138.495C193.06 151.597 190.684 170.696 177.776 181.08C164.526 191.509 145.427 189.134 134.998 175.883C124.762 162.782 127.138 143.683 140.24 133.447Z" fill="white" fill-opacity="0.45"/>
</g>
</svg>
