<svg width="436" height="71" viewBox="0 0 436 71" fill="none" xmlns="http://www.w3.org/2000/svg">
<g opacity="0.5" clip-path="url(#clip0_1719_22163)">
<path d="M410.433 16.5492L420.914 33.0983H436.041L425.559 16.5492L436 0H420.873L410.433 16.5492Z" fill="white" fill-opacity="0.5"/>
<path d="M392.593 16.5492L403.075 33.0983H418.201L407.719 16.5492L418.16 0H403.033L392.593 16.5492Z" fill="white" fill-opacity="0.5"/>
<path d="M374.754 16.5492L385.236 33.0983H400.362L389.881 16.5492L400.321 0H385.195L374.754 16.5492Z" fill="white" fill-opacity="0.5"/>
<path d="M356.914 16.5492L367.396 33.0983H382.522L372.041 16.5492L382.481 0H367.355L356.914 16.5492Z" fill="white" fill-opacity="0.5"/>
<path d="M339.074 16.5492L349.556 33.0983H364.683L354.201 16.5492L364.641 0H349.515L339.074 16.5492Z" fill="white" fill-opacity="0.5"/>
<path d="M321.235 16.5492L331.717 33.0983H346.844L336.362 16.5492L346.803 0H331.717L321.235 16.5492Z" fill="white" fill-opacity="0.5"/>
<path d="M303.396 16.5492L313.877 33.0983H329.004L318.522 16.5492L328.963 0H313.836L303.396 16.5492Z" fill="white" fill-opacity="0.5"/>
<path d="M285.556 16.5492L296.037 33.0983H311.164L300.682 16.5492L311.123 0H295.996L285.556 16.5492Z" fill="white" fill-opacity="0.5"/>
<path d="M267.717 16.5492L278.199 33.0983H293.325L282.843 16.5492L293.325 0H278.199L267.717 16.5492ZM270.06 16.5492L279.349 1.83879H289.79L280.5 16.5492L289.79 31.2595H279.349L270.06 16.5492Z" fill="white" fill-opacity="0.5"/>
<path d="M249.877 16.5492L260.359 33.0983H275.485L265.004 16.5492L275.485 0H260.359L249.877 16.5492ZM252.22 16.5492L261.51 1.83879H271.95L262.661 16.5492L271.95 31.2595H261.51L252.22 16.5492Z" fill="white" fill-opacity="0.5"/>
<path d="M232.078 16.5492L242.519 33.0983H257.645L247.164 16.5492L257.645 0H242.519L232.078 16.5492ZM234.38 16.5492L243.67 1.83879H254.11L244.821 16.5492L254.11 31.2595H243.67L234.38 16.5492Z" fill="white" fill-opacity="0.5"/>
<path d="M214.239 16.5492L224.721 33.0983H239.848L229.366 16.5492L239.807 0H224.68L214.239 16.5492ZM216.582 16.5492L225.872 1.83879H236.313L227.023 16.5492L236.313 31.2595H225.872L216.582 16.5492Z" fill="white" fill-opacity="0.5"/>
<path d="M196.399 16.5492L206.881 33.0983H221.967L211.485 16.5492L221.967 0H206.84L196.399 16.5492ZM198.742 16.5492L208.032 1.83879H218.473L209.183 16.5492L218.473 31.2595H208.032L198.742 16.5492Z" fill="white" fill-opacity="0.5"/>
<path d="M178.354 16.5492L188.836 33.0983H203.963L193.481 16.5492L203.922 0H188.795L178.354 16.5492ZM180.697 16.5492L189.987 1.83879H200.428L191.138 16.5492L200.428 31.2595H189.987L180.697 16.5492Z" fill="white" fill-opacity="0.5"/>
<path d="M160.515 16.5492L170.996 33.0983H186.123L175.641 16.5492L186.082 0H170.996L160.515 16.5492ZM162.858 16.5492L172.147 1.83879H182.588L173.298 16.5492L182.588 31.2595H172.147L162.858 16.5492Z" fill="white" fill-opacity="0.5"/>
<path d="M142.675 16.5492L153.157 33.0983H168.283L157.801 16.5492L168.242 0H153.115L142.675 16.5492ZM145.018 16.5492L154.308 1.83879H164.748L155.458 16.5492L164.748 31.2595H154.308L145.018 16.5492Z" fill="white" fill-opacity="0.5"/>
<path d="M124.836 16.5492L135.318 33.0983H150.444L139.963 16.5492L150.444 0H135.318L124.836 16.5492ZM127.179 16.5492L136.469 1.83879H146.909L137.62 16.5492L146.909 31.2595H136.469L127.179 16.5492Z" fill="white" fill-opacity="0.5"/>
<path d="M106.996 16.5492L117.478 33.0983H132.604L122.123 16.5492L132.604 0H117.478L106.996 16.5492ZM109.339 16.5492L118.629 1.83879H129.069L119.78 16.5492L129.069 31.2595H118.629L109.339 16.5492Z" fill="white" fill-opacity="0.5"/>
<path d="M89.1973 16.5492L99.679 33.0983H114.806L104.324 16.5492L114.765 0H99.6379L89.1973 16.5492ZM91.4991 16.5492L100.789 1.83879H111.23L101.94 16.5492L111.23 31.2595H100.789L91.4991 16.5492Z" fill="white" fill-opacity="0.5"/>
<path d="M71.3584 16.5492L81.8402 33.0983H96.9668L86.485 16.5492L96.9257 0H81.799L71.3584 16.5492ZM73.6603 16.5492L82.95 1.83879H93.3906L84.1009 16.5492L93.3906 31.2595H82.95L73.6603 16.5492Z" fill="white" fill-opacity="0.5"/>
<path d="M53.5186 16.5492L64.0003 33.0983H79.1269L68.6452 16.5492L79.0858 0H63.9592L53.5186 16.5492ZM55.8615 16.5492L65.1512 1.83879H75.5919L66.3022 16.5492L75.5919 31.2595H65.1512L55.8615 16.5492Z" fill="white" fill-opacity="0.5"/>
<path d="M35.6787 16.5492L46.1605 33.0983H61.2871L50.8053 16.5492L61.246 0H46.1194L35.6787 16.5492ZM38.0217 16.5492L47.3114 1.83879H57.7521L48.4623 16.5492L57.7521 31.2595H47.3114L38.0217 16.5492Z" fill="white" fill-opacity="0.5"/>
<path d="M17.8398 16.5492L28.3216 33.0983H43.4482L32.9665 16.5492L43.4071 0H28.2805L17.8398 16.5492ZM20.1828 16.5492L29.4725 1.83879H39.9132L30.6235 16.5492L39.9132 31.2595H29.4725L20.1828 16.5492Z" fill="white" fill-opacity="0.5"/>
<path d="M0 16.5492L10.4818 33.0983H25.6084L15.1266 16.5492L25.5673 0H10.4818L0 16.5492ZM2.34298 16.5492L11.6327 1.83879H22.0733L12.7836 16.5492L22.0733 31.2595H11.6327L2.34298 16.5492Z" fill="white" fill-opacity="0.5"/>
<path d="M409.24 58.9542C409.24 65.5964 415.159 71.0002 422.435 71.0002C429.71 71.0002 435.63 65.5964 435.63 58.9542C435.63 52.312 429.71 46.9082 422.435 46.9082C415.159 46.9457 409.24 52.312 409.24 58.9542ZM413.186 58.9917C413.186 54.3384 417.338 50.5858 422.394 50.5858C427.491 50.5858 431.601 54.376 431.601 58.9917C431.601 63.6075 427.45 67.3976 422.394 67.3976C417.338 67.3976 413.186 63.6075 413.186 58.9917Z" fill="white" fill-opacity="0.5"/>
<path d="M422.436 65.596C426.423 65.596 429.67 62.6314 429.67 58.9914C429.67 55.3513 426.423 52.3867 422.436 52.3867C418.448 52.3867 415.201 55.3513 415.201 58.9914C415.201 62.6314 418.448 65.596 422.436 65.596Z" fill="white" fill-opacity="0.5"/>
<path d="M380.015 58.9542C380.015 65.5964 385.934 71.0002 393.209 71.0002C400.485 71.0002 406.404 65.5964 406.404 58.9542C406.404 52.312 400.485 46.9082 393.209 46.9082C385.934 46.9457 380.015 52.312 380.015 58.9542ZM383.961 58.9917C383.961 54.3384 388.112 50.5858 393.168 50.5858C398.265 50.5858 402.376 54.376 402.376 58.9917C402.376 63.6075 398.224 67.3976 393.168 67.3976C388.112 67.3976 383.961 63.6075 383.961 58.9917Z" fill="white" fill-opacity="0.5"/>
<path d="M393.21 65.596C397.197 65.596 400.445 62.6314 400.445 58.9914C400.445 55.3513 397.197 52.3867 393.21 52.3867C389.223 52.3867 385.976 55.3513 385.976 58.9914C385.976 62.6314 389.223 65.596 393.21 65.596Z" fill="white" fill-opacity="0.5"/>
<path d="M350.789 58.9542C350.789 65.5964 356.708 71.0002 363.984 71.0002C371.259 71.0002 377.178 65.5964 377.178 58.9542C377.178 52.312 371.259 46.9082 363.984 46.9082C356.708 46.9457 350.789 52.312 350.789 58.9542ZM354.776 58.9917C354.776 54.3384 358.928 50.5858 363.984 50.5858C369.081 50.5858 373.191 54.376 373.191 58.9917C373.191 63.6075 369.04 67.3976 363.984 67.3976C358.887 67.3976 354.776 63.6075 354.776 58.9917Z" fill="white" fill-opacity="0.5"/>
<path d="M363.984 65.596C367.972 65.596 371.219 62.6314 371.219 58.9914C371.219 55.3513 367.972 52.3867 363.984 52.3867C359.997 52.3867 356.75 55.3513 356.75 58.9914C356.75 62.6314 359.997 65.596 363.984 65.596Z" fill="white" fill-opacity="0.5"/>
<path d="M321.563 58.9542C321.563 65.5964 327.483 71.0002 334.758 71.0002C342.034 71.0002 347.953 65.5964 347.953 58.9542C347.953 52.312 342.034 46.9082 334.758 46.9082C327.483 46.9457 321.563 52.312 321.563 58.9542ZM325.551 58.9917C325.551 54.3384 329.702 50.5858 334.758 50.5858C339.855 50.5858 343.966 54.376 343.966 58.9917C343.966 63.6075 339.814 67.3976 334.758 67.3976C329.661 67.3976 325.551 63.6075 325.551 58.9917Z" fill="white" fill-opacity="0.5"/>
<path d="M334.759 65.596C338.746 65.596 341.993 62.6314 341.993 58.9914C341.993 55.3513 338.746 52.3867 334.759 52.3867C330.772 52.3867 327.524 55.3513 327.524 58.9914C327.524 62.6314 330.772 65.596 334.759 65.596Z" fill="white" fill-opacity="0.5"/>
<path d="M292.338 58.9542C292.338 65.5964 298.257 71.0002 305.533 71.0002C312.808 71.0002 318.727 65.5964 318.727 58.9542C318.727 52.312 312.808 46.9082 305.533 46.9082C298.257 46.9457 292.338 52.312 292.338 58.9542ZM296.325 58.9917C296.325 54.3384 300.477 50.5858 305.533 50.5858C310.63 50.5858 314.74 54.376 314.74 58.9917C314.74 63.6075 310.588 67.3976 305.533 67.3976C300.436 67.3976 296.325 63.6075 296.325 58.9917Z" fill="white" fill-opacity="0.5"/>
<path d="M305.533 65.596C309.52 65.596 312.768 62.6314 312.768 58.9914C312.768 55.3513 309.52 52.3867 305.533 52.3867C301.546 52.3867 298.299 55.3513 298.299 58.9914C298.299 62.6314 301.546 65.596 305.533 65.596Z" fill="white" fill-opacity="0.5"/>
<path d="M263.112 58.9542C263.112 65.5964 269.031 71.0002 276.307 71.0002C283.583 71.0002 289.502 65.5964 289.502 58.9542C289.502 52.312 283.583 46.9082 276.307 46.9082C269.031 46.9082 263.112 52.312 263.112 58.9542ZM267.099 58.9917C267.099 54.3384 271.251 50.5858 276.307 50.5858C281.404 50.5858 285.514 54.376 285.514 58.9917C285.514 63.6075 281.363 67.3976 276.307 67.3976C271.21 67.3976 267.099 63.6075 267.099 58.9917Z" fill="white" fill-opacity="0.5"/>
<path d="M233.928 58.9542C233.928 65.5964 239.847 71.0002 247.122 71.0002C254.398 71.0002 260.317 65.5964 260.317 58.9542C260.317 52.312 254.398 46.9082 247.122 46.9082C239.806 46.9457 233.928 52.312 233.928 58.9542ZM237.874 58.9917C237.874 54.3384 242.025 50.5858 247.081 50.5858C252.178 50.5858 256.289 54.376 256.289 58.9917C256.289 63.6075 252.137 67.3976 247.081 67.3976C242.025 67.3976 237.874 63.6075 237.874 58.9917Z" fill="white" fill-opacity="0.5"/>
<path d="M204.702 58.9542C204.702 65.5964 210.621 71.0002 217.897 71.0002C225.172 71.0002 231.092 65.5964 231.092 58.9542C231.092 52.312 225.172 46.9082 217.897 46.9082C210.58 46.9457 204.702 52.312 204.702 58.9542ZM208.648 58.9917C208.648 54.3384 212.8 50.5858 217.856 50.5858C222.953 50.5858 227.063 54.376 227.063 58.9917C227.063 63.6075 222.912 67.3976 217.856 67.3976C212.8 67.3976 208.648 63.6075 208.648 58.9917Z" fill="white" fill-opacity="0.5"/>
<path d="M175.477 58.9542C175.477 65.5964 181.396 71.0002 188.671 71.0002C195.947 71.0002 201.866 65.5964 201.866 58.9542C201.866 52.312 195.947 46.9082 188.671 46.9082C181.355 46.9457 175.477 52.312 175.477 58.9542ZM179.423 58.9917C179.423 54.3384 183.574 50.5858 188.63 50.5858C193.727 50.5858 197.838 54.376 197.838 58.9917C197.838 63.6075 193.686 67.3976 188.63 67.3976C183.574 67.3976 179.423 63.6075 179.423 58.9917Z" fill="white" fill-opacity="0.5"/>
<path d="M146.251 58.9542C146.251 65.5964 152.17 71.0002 159.446 71.0002C166.721 71.0002 172.64 65.5964 172.64 58.9542C172.64 52.312 166.721 46.9082 159.446 46.9082C152.129 46.9457 146.251 52.312 146.251 58.9542ZM150.197 58.9917C150.197 54.3384 154.349 50.5858 159.405 50.5858C164.502 50.5858 168.612 54.376 168.612 58.9917C168.612 63.6075 164.46 67.3976 159.405 67.3976C154.349 67.3976 150.197 63.6075 150.197 58.9917Z" fill="white" fill-opacity="0.5"/>
<path d="M117.025 58.9542C117.025 65.5964 122.945 71.0002 130.22 71.0002C137.496 71.0002 143.415 65.5964 143.415 58.9542C143.415 52.312 137.496 46.9082 130.22 46.9082C122.945 46.9082 117.025 52.312 117.025 58.9542ZM120.971 58.9917C120.971 54.3384 125.123 50.5858 130.179 50.5858C135.276 50.5858 139.386 54.376 139.386 58.9917C139.386 63.6075 135.235 67.3976 130.179 67.3976C125.123 67.3976 120.971 63.6075 120.971 58.9917Z" fill="white" fill-opacity="0.5"/>
<path d="M87.7998 58.9542C87.7998 65.5964 93.7189 71.0002 100.994 71.0002C108.27 71.0002 114.189 65.5964 114.189 58.9542C114.189 52.312 108.27 46.9082 100.994 46.9082C93.7189 46.9457 87.7998 52.312 87.7998 58.9542ZM91.7459 58.9917C91.7459 54.3384 95.8975 50.5858 100.953 50.5858C106.05 50.5858 110.161 54.376 110.161 58.9917C110.161 63.6075 106.009 67.3976 100.953 67.3976C95.8975 67.3976 91.7459 63.6075 91.7459 58.9917Z" fill="white" fill-opacity="0.5"/>
<path d="M58.5742 58.9542C58.5742 65.5964 64.4933 71.0002 71.7689 71.0002C79.0445 71.0002 84.9636 65.5964 84.9636 58.9542C84.9636 52.312 79.0445 46.9082 71.7689 46.9082C64.4933 46.9457 58.5742 52.312 58.5742 58.9542ZM62.5614 58.9917C62.5614 54.3384 66.713 50.5858 71.7689 50.5858C76.8659 50.5858 80.9764 54.376 80.9764 58.9917C80.9764 63.6075 76.8248 67.3976 71.7689 67.3976C66.6719 67.3976 62.5614 63.6075 62.5614 58.9917Z" fill="white" fill-opacity="0.5"/>
<path d="M29.3486 58.9542C29.3486 65.5964 35.2677 71.0002 42.5433 71.0002C49.8189 71.0002 55.738 65.5964 55.738 58.9542C55.738 52.312 49.8189 46.9082 42.5433 46.9082C35.2677 46.9457 29.3486 52.312 29.3486 58.9542ZM33.3358 58.9917C33.3358 54.3384 37.4874 50.5858 42.5433 50.5858C47.6403 50.5858 51.7508 54.376 51.7508 58.9917C51.7508 63.6075 47.5992 67.3976 42.5433 67.3976C37.4463 67.3976 33.3358 63.6075 33.3358 58.9917Z" fill="white" fill-opacity="0.5"/>
<path d="M0.123047 58.9542C0.123047 65.5964 6.04216 71.0002 13.3177 71.0002C20.5933 71.0002 26.5124 65.5964 26.5124 58.9542C26.5124 52.312 20.5933 46.9082 13.3177 46.9082C6.04216 46.9457 0.123047 52.312 0.123047 58.9542ZM4.11023 58.9917C4.11023 54.3384 8.26182 50.5858 13.3177 50.5858C18.4147 50.5858 22.5252 54.376 22.5252 58.9917C22.5252 63.6075 18.3736 67.3976 13.3177 67.3976C8.22072 67.3976 4.11023 63.6075 4.11023 58.9917Z" fill="white" fill-opacity="0.5"/>
</g>
<defs>
<clipPath id="clip0_1719_22163">
<rect width="436" height="71" fill="white"/>
</clipPath>
</defs>
</svg>
