<svg width="1046" height="1064" viewBox="0 0 1046 1064" fill="none" xmlns="http://www.w3.org/2000/svg">
<ellipse cx="500.359" cy="533.288" rx="324.5" ry="324" fill="url(#paint0_linear_1720_22159)"/>
<ellipse cx="500.359" cy="533.288" rx="324.5" ry="324" fill="url(#paint1_radial_1720_22159)"/>
<g opacity="0.4" clip-path="url(#clip0_1720_22159)">
<path d="M812.577 432.559L847.898 420.277C847.855 420.154 847.813 420.032 847.728 419.787C842.277 404.112 835.765 388.943 828.566 374.563L870.755 359.893C838.521 293.683 790.053 239.294 732.002 200.044L712.467 240.329C688.651 223.628 662.941 209.782 635.997 199.11L660.336 148.917L648.705 144.726C556.883 110.354 455.046 109.252 362.163 141.412L351.493 145.122L369.803 197.78C184.77 268.159 88.1279 473.347 153.491 661.324C153.534 661.446 153.576 661.569 153.661 661.814L188.982 649.532C222.872 746.6 297.662 817.779 387.492 850.373L371.079 884.22C446.858 912.777 532.508 916.35 615.269 889.083L603.006 853.814C604.968 853.132 606.973 852.572 608.935 851.889C780.88 792.101 872.074 604.456 812.577 432.559ZM365.868 152.066C460.1 119.437 558.107 122.969 644.813 155.276L625.358 195.397C548.977 167.873 463.134 165.327 380.431 193.947L365.868 152.066ZM606.939 846.544C437.692 905.394 252.971 816.161 194.208 647.166C135.445 478.17 225.076 293.54 394.2 234.732C563.446 175.882 748.167 265.115 806.93 434.11C865.693 603.106 776.185 787.693 606.939 846.544Z" fill="white" fill-opacity="0.2"/>
<path d="M325.634 198.451L317.714 175.673C261.24 203.821 213.743 243.946 176.973 291.598L199.113 302.293C232.623 259.893 275.287 224.056 325.634 198.451Z" fill="white" fill-opacity="0.2"/>
<path d="M625.584 315.838C616.297 334.99 606.93 354.308 597.643 373.46C636.352 395.827 667.466 431.541 683.307 477.096C699.19 522.774 696.865 570.253 680.182 612.018L737.845 639.874C761.532 583.457 765.486 518.527 743.812 456.195C722.138 393.862 678.998 345.309 625.584 315.838Z" fill="white" fill-opacity="0.2"/>
<path d="M498.751 810.176L492.619 792.542C455.653 791.394 419.693 782.073 387.054 765.694L412.833 712.53C369.902 690.671 334.945 652.998 317.87 603.892C301.987 558.214 304.311 510.735 320.994 468.97L267.792 443.269C283.102 406.649 307.079 373.603 337.919 347.643L331.787 330.009C245.116 399.405 207.097 518.183 245.633 629.01C284.17 739.836 387.6 809.567 498.751 810.176Z" fill="white" fill-opacity="0.2"/>
<path d="M180.889 708.488C178.425 701.796 170.91 698.369 164.127 701.002C157.424 703.47 154.109 710.937 156.574 717.63C159.038 724.322 166.554 727.749 173.336 725.116C180.039 722.648 183.477 715.138 180.889 708.488Z" fill="white" fill-opacity="0.2"/>
<path d="M201.799 745.692C199.334 739 191.819 735.573 185.036 738.206C178.333 740.674 174.896 748.184 177.526 754.956C179.99 761.649 187.505 765.075 194.288 762.442C200.868 760.017 204.306 752.507 201.799 745.692Z" fill="white" fill-opacity="0.2"/>
<path d="M225.188 780.935C222.724 774.243 215.209 770.816 208.426 773.449C201.723 775.917 198.285 783.427 200.915 790.199C203.38 796.892 210.895 800.318 217.678 797.685C224.338 795.095 227.776 787.585 225.188 780.935Z" fill="white" fill-opacity="0.2"/>
<path d="M254.803 811.543C252.338 804.851 244.823 801.424 238.04 804.057C231.337 806.525 227.9 814.035 230.53 820.807C232.994 827.5 240.509 830.926 247.292 828.293C253.952 825.703 257.39 818.193 254.803 811.543Z" fill="white" fill-opacity="0.2"/>
<path d="M269.613 830.415C262.91 832.883 259.473 840.393 262.103 847.165C264.567 853.858 272.083 857.284 278.865 854.651C285.568 852.183 289.006 844.674 286.376 837.901C283.789 831.251 276.273 827.825 269.613 830.415Z" fill="white" fill-opacity="0.2"/>
<path d="M304.647 854.472C297.945 856.94 294.507 864.449 297.137 871.222C299.602 877.914 307.117 881.341 313.9 878.708C320.602 876.24 324.04 868.73 321.41 861.958C318.823 855.308 311.308 851.881 304.647 854.472Z" fill="white" fill-opacity="0.2"/>
<path d="M227.445 635.609C227.189 634.874 226.976 634.262 226.764 633.65L208.367 640.046C208.58 640.659 208.836 641.393 209.048 642.006C263.553 798.755 431.958 883.367 589.683 835.661L583.295 817.292C435.75 861.458 278.415 782.194 227.445 635.609Z" fill="white" fill-opacity="0.2"/>
<path d="M399.31 249.427C327.687 274.332 271.058 322.986 235.187 383.502L252.866 392.043C286.452 336.027 339.267 291.032 405.74 267.919C556.59 215.465 721.319 295.041 773.694 445.667C796.816 512.163 794.187 581.299 771.01 642.343L788.689 650.883C813.985 585.259 817.081 510.744 792.213 439.228C736.261 278.315 560.462 193.391 399.31 249.427Z" fill="white" fill-opacity="0.2"/>
<path d="M894.984 419.69C907.777 461.226 913.474 503.308 912.923 544.817C898.268 544.971 883.692 544.96 869.031 544.705C869.393 517.675 866.796 490.438 860.914 463.245L840.433 470.367C871.926 622.215 797.612 777.361 659.76 848.218L666.871 868.669C697.065 853.503 724.255 834.44 748.412 812.588C758.562 823.197 768.509 834.014 778.334 844.873C760.471 861.105 741.195 876.044 720.295 889.076L726.597 907.2C891.213 806.172 971.508 603.786 912.767 413.506L894.984 419.69ZM790.972 831.007C784.312 823.715 777.652 816.422 770.661 808.969C835.867 743.469 875.34 655.756 881.091 563.572C892.014 563.755 901.909 563.746 911.228 563.662C905.335 664.132 862.306 759.807 790.972 831.007Z" fill="white" fill-opacity="0.2"/>
<path d="M591.908 285.407C535.696 265.283 472.527 263.501 411.696 284.653C406.3 286.53 401.111 288.608 395.843 290.852C397.057 292.763 398.192 294.84 399.406 296.751C404.227 294.8 409.047 292.849 413.953 291.144C473.189 270.546 534.594 272.393 589.319 291.798C590.114 289.737 591.032 287.634 591.908 285.407Z" fill="white" fill-opacity="0.2"/>
</g>
<defs>
<linearGradient id="paint0_linear_1720_22159" x1="500.359" y1="209.288" x2="500.359" y2="857.288" gradientUnits="userSpaceOnUse">
<stop stop-color="#222325"/>
<stop offset="0.298077" stop-color="#264346"/>
<stop offset="0.567308" stop-color="#295C60"/>
<stop offset="0.975962" stop-color="#3BF3FF"/>
</linearGradient>
<radialGradient id="paint1_radial_1720_22159" cx="0" cy="0" r="1" gradientUnits="userSpaceOnUse" gradientTransform="translate(500.359 533.288) rotate(90) scale(324 324.5)">
<stop stop-color="#717171" stop-opacity="0.04"/>
<stop offset="1" stop-color="#0B0B0B"/>
</radialGradient>
<clipPath id="clip0_1720_22159">
<rect width="814" height="843" fill="white" transform="translate(0 267.343) rotate(-19.1736)"/>
</clipPath>
</defs>
</svg>
