<svg width="412" height="581" viewBox="0 0 412 581" fill="none" xmlns="http://www.w3.org/2000/svg">
<ellipse cx="205.5" cy="310.21" rx="191.5" ry="185.5" fill="black"/>
<ellipse cx="206" cy="291.21" rx="177" ry="176.5" fill="url(#paint0_linear_6_215)"/>
<ellipse cx="206" cy="291.21" rx="177" ry="176.5" fill="url(#paint1_radial_6_215)"/>
<path d="M376.647 236.189L395.931 229.483C395.908 229.416 395.885 229.349 395.838 229.216C392.863 220.658 389.307 212.376 385.376 204.525L408.41 196.515C390.812 160.366 364.35 130.672 332.655 109.242L321.99 131.237C308.987 122.118 294.95 114.558 280.239 108.732L293.527 81.3281L287.177 79.0395C237.045 60.2735 181.444 59.6717 130.733 77.2302L124.907 79.2559L134.904 108.006C33.8807 146.431 -18.8832 258.458 16.8034 361.089C16.8266 361.155 16.8499 361.222 16.8964 361.356L36.1807 354.65C54.6838 407.647 95.5171 446.509 144.562 464.304L135.601 482.784C176.974 498.375 223.737 500.326 268.922 485.439L262.227 466.183C263.298 465.811 264.392 465.505 265.464 465.132C359.341 432.489 409.131 330.04 376.647 236.189ZM132.755 83.047C184.204 65.2324 237.713 67.1608 285.052 84.7997L274.43 106.704C232.728 91.6772 185.86 90.2872 140.706 105.913L132.755 83.047ZM264.374 462.214C171.97 494.345 71.117 445.626 39.034 353.359C6.95092 261.092 55.8868 160.288 148.224 128.181C240.628 96.0499 341.481 144.769 373.564 237.036C405.647 329.303 356.778 430.083 264.374 462.214Z" fill="white" fill-opacity="0.2"/>
<path d="M110.789 108.372L106.464 95.9359C75.6314 111.304 49.6992 133.211 29.624 159.228L41.7119 165.067C60.007 141.918 83.3008 122.352 110.789 108.372Z" fill="white" fill-opacity="0.2"/>
<path d="M274.554 172.463C269.483 182.919 264.369 193.466 259.299 203.923C280.433 216.134 297.42 235.633 306.069 260.505C314.741 285.444 313.472 311.366 304.363 334.169L335.846 349.377C348.778 318.575 350.937 283.125 339.103 249.094C327.27 215.062 303.716 188.553 274.554 172.463Z" fill="white" fill-opacity="0.2"/>
<path d="M205.306 442.358L201.958 432.73C181.776 432.104 162.143 427.015 144.323 418.072L158.397 389.046C134.958 377.111 115.872 356.543 106.55 329.732C97.878 304.793 99.147 278.871 108.256 256.069L79.2086 242.037C87.5677 222.043 100.659 204.001 117.496 189.827L114.148 180.2C66.8281 218.088 46.0706 282.938 67.1106 343.446C88.1505 403.954 144.621 442.026 205.306 442.358Z" fill="white" fill-opacity="0.2"/>
<path d="M31.7619 386.839C30.4163 383.185 26.3132 381.315 22.6099 382.752C18.9504 384.1 17.1406 388.176 18.4862 391.83C19.8318 395.484 23.9349 397.355 27.6382 395.918C31.2977 394.57 33.1745 390.47 31.7619 386.839Z" fill="white" fill-opacity="0.2"/>
<path d="M43.178 407.151C41.8323 403.497 37.7293 401.627 34.026 403.064C30.3665 404.412 28.4897 408.512 29.9255 412.209C31.2712 415.863 35.3743 417.734 39.0775 416.297C42.6701 414.972 44.5468 410.872 43.178 407.151Z" fill="white" fill-opacity="0.2"/>
<path d="M55.9484 426.393C54.6027 422.739 50.4996 420.869 46.7964 422.306C43.1369 423.654 41.2601 427.754 42.6959 431.451C44.0416 435.105 48.1446 436.976 51.8479 435.538C55.4842 434.124 57.3609 430.024 55.9484 426.393Z" fill="white" fill-opacity="0.2"/>
<path d="M72.1168 443.105C70.7712 439.451 66.6681 437.58 62.9649 439.017C59.3053 440.365 57.4285 444.465 58.8644 448.162C60.21 451.816 64.3131 453.687 68.0163 452.25C71.6526 450.835 73.5294 446.735 72.1168 443.105Z" fill="white" fill-opacity="0.2"/>
<path d="M80.2029 453.408C76.5434 454.756 74.6666 458.856 76.1024 462.553C77.4481 466.207 81.5511 468.078 85.2544 466.641C88.9139 465.293 90.7907 461.193 89.3549 457.495C87.9423 453.865 83.8392 451.994 80.2029 453.408Z" fill="white" fill-opacity="0.2"/>
<path d="M99.3307 466.543C95.6712 467.89 93.7944 471.99 95.2302 475.688C96.5759 479.342 100.679 481.213 104.382 479.775C108.042 478.428 109.918 474.328 108.483 470.63C107.07 466.999 102.967 465.128 99.3307 466.543Z" fill="white" fill-opacity="0.2"/>
<path d="M57.18 347.049C57.0405 346.648 56.9242 346.313 56.808 345.979L46.764 349.471C46.8803 349.806 47.0198 350.207 47.136 350.541C76.8942 436.122 168.839 482.318 254.952 456.272L251.465 446.243C170.909 470.356 85.0085 427.08 57.18 347.049Z" fill="white" fill-opacity="0.2"/>
<path d="M151.014 136.204C111.91 149.801 80.9916 176.365 61.4073 209.406L71.0596 214.068C89.3967 183.485 118.232 158.919 154.524 146.3C236.885 117.661 326.822 161.108 355.418 243.346C368.042 279.651 366.606 317.397 353.952 350.726L363.605 355.388C377.416 319.559 379.106 278.876 365.529 239.83C334.98 151.976 238.999 105.61 151.014 136.204Z" fill="white" fill-opacity="0.2"/>
<path d="M421.639 229.163C428.624 251.841 431.734 274.816 431.434 297.479C423.432 297.563 415.474 297.558 407.47 297.418C407.667 282.66 406.249 267.79 403.038 252.943L391.856 256.832C409.05 339.737 368.477 424.442 293.213 463.128L297.095 474.294C313.581 466.014 328.425 455.606 341.615 443.675C347.156 449.467 352.587 455.373 357.951 461.302C348.198 470.164 337.675 478.32 326.263 485.436L329.704 495.331C419.58 440.172 463.419 329.675 431.348 225.787L421.639 229.163ZM364.851 453.732C361.215 449.75 357.579 445.768 353.762 441.7C389.363 405.938 410.914 358.049 414.054 307.719C420.018 307.819 425.42 307.814 430.508 307.768C427.29 362.622 403.798 414.858 364.851 453.732Z" fill="white" fill-opacity="0.2"/>
<path d="M256.167 155.848C225.477 144.861 190.988 143.888 157.776 155.437C154.83 156.461 151.997 157.596 149.121 158.821C149.784 159.865 150.403 160.998 151.066 162.042C153.698 160.977 156.33 159.912 159.009 158.98C191.35 147.735 224.875 148.743 254.754 159.338C255.188 158.212 255.689 157.064 256.167 155.848Z" fill="white" fill-opacity="0.2"/>
<defs>
<linearGradient id="paint0_linear_6_215" x1="206" y1="114.71" x2="206" y2="467.71" gradientUnits="userSpaceOnUse">
<stop stop-color="#222325"/>
<stop offset="0.298077" stop-color="#264346"/>
<stop offset="0.567308" stop-color="#295C60"/>
<stop offset="0.975962" stop-color="#3BF3FF"/>
</linearGradient>
<radialGradient id="paint1_radial_6_215" cx="0" cy="0" r="1" gradientUnits="userSpaceOnUse" gradientTransform="translate(206 291.21) rotate(90) scale(176.5 177)">
<stop stop-color="#717171" stop-opacity="0.04"/>
<stop offset="1" stop-color="#0B0B0B"/>
</radialGradient>
</defs>
</svg>
