<svg width="252" height="297" viewBox="0 0 252 297" fill="none" xmlns="http://www.w3.org/2000/svg">
<g clip-path="url(#clip0_1505_22763)">
<g style="mix-blend-mode:luminosity" opacity="0.3">
<path d="M89.1181 -54.5815L33.6396 -250.61L-144.976 -200.059L-89.4974 -4.031L89.1181 -54.5815Z" fill="#7C7C7D" fill-opacity="0.4"/>
<path d="M83.1096 -37.9414L80.2167 -48.163L74.8042 -46.6312L77.697 -36.4096L83.1096 -37.9414Z" fill="#3BF3FF"/>
<path d="M92.8816 -40.707L89.9887 -50.9286L84.5761 -49.3968L87.469 -39.1752L92.8816 -40.707Z" fill="#3BF3FF"/>
<path d="M67.8483 -33.6223L64.9555 -43.8439L59.5429 -42.312L62.4357 -32.0904L67.8483 -33.6223Z" fill="#3BF3FF"/>
<path d="M74.914 -35.6219L72.0212 -45.8435L66.6086 -44.3117L69.5014 -34.0901L74.914 -35.6219Z" fill="#3BF3FF"/>
<path d="M49.2809 -28.3674L46.388 -38.589L40.9754 -37.0572L43.8683 -26.8356L49.2809 -28.3674Z" fill="#3BF3FF"/>
<path d="M59.0529 -31.133L56.16 -41.3546L50.7474 -39.8228L53.6403 -29.6012L59.0529 -31.133Z" fill="#3BF3FF"/>
<path d="M32.7409 -23.6864L29.8481 -33.908L24.4355 -32.3762L27.3283 -22.1546L32.7409 -23.6864Z" fill="#3BF3FF"/>
<path d="M41.0109 -26.0269L38.1181 -36.2485L32.7055 -34.7167L35.5983 -24.4951L41.0109 -26.0269Z" fill="#3BF3FF"/>
<path d="M14.6989 -18.5803L11.8061 -28.8019L6.3935 -27.2701L9.28635 -17.0484L14.6989 -18.5803Z" fill="#3BF3FF"/>
<path d="M24.4732 -21.3465L21.5803 -31.5681L16.1677 -30.0363L19.0606 -19.8147L24.4732 -21.3465Z" fill="#3BF3FF"/>
<path d="M-3.70613 -13.3714L-6.59898 -23.593L-12.0116 -22.0612L-9.11872 -11.8396L-3.70613 -13.3714Z" fill="#3BF3FF"/>
<path d="M6.06585 -16.137L3.173 -26.3586L-2.23959 -24.8268L0.653258 -14.6052L6.06585 -16.137Z" fill="#3BF3FF"/>
<path d="M-23.2523 -7.83958L-26.1452 -18.0612L-31.5578 -16.5293L-28.665 -6.30774L-23.2523 -7.83958Z" fill="#3BF3FF"/>
<path d="M-13.4804 -10.6052L-16.3732 -20.8268L-21.7858 -19.2949L-18.893 -9.07334L-13.4804 -10.6052Z" fill="#3BF3FF"/>
<path d="M-40.1554 -3.05579L-43.0483 -13.2774L-48.4609 -11.7456L-45.568 -1.52395L-40.1554 -3.05579Z" fill="#3BF3FF"/>
<path d="M-31.8854 -5.3963L-34.7783 -15.6179L-40.1909 -14.0861L-37.298 -3.86447L-31.8854 -5.3963Z" fill="#3BF3FF"/>
<path d="M-58.1974 2.05033L-61.0903 -8.17127L-66.5028 -6.63945L-63.61 3.58216L-58.1974 2.05033Z" fill="#3BF3FF"/>
<path d="M-48.4254 -0.715265L-51.3183 -10.9369L-56.7309 -9.40504L-53.838 0.816569L-48.4254 -0.715265Z" fill="#3BF3FF"/>
<path d="M-76.713 7.29048L-79.6058 -2.93113L-85.0184 -1.39929L-82.1256 8.82231L-76.713 7.29048Z" fill="#3BF3FF"/>
<path d="M-66.941 4.52488L-69.8338 -5.69673L-75.2464 -4.16489L-72.3536 6.05671L-66.941 4.52488Z" fill="#3BF3FF"/>
<path d="M52.9775 -234.488L42.7545 -231.595L44.2861 -226.183L54.5092 -229.076L52.9775 -234.488Z" fill="#3BF3FF"/>
<path d="M50.2128 -244.259L39.9898 -241.366L41.5214 -235.954L51.7445 -238.848L50.2128 -244.259Z" fill="#3BF3FF"/>
<path d="M57.2966 -219.23L47.0736 -216.336L48.6052 -210.925L58.8282 -213.818L57.2966 -219.23Z" fill="#3BF3FF"/>
<path d="M55.2978 -226.295L45.0747 -223.402L46.6063 -217.99L56.8294 -220.884L55.2978 -226.295Z" fill="#3BF3FF"/>
<path d="M62.5502 -200.664L52.3271 -197.771L53.8587 -192.359L64.0818 -195.252L62.5502 -200.664Z" fill="#3BF3FF"/>
<path d="M59.7855 -210.435L49.5625 -207.542L51.0941 -202.13L61.3171 -205.024L59.7855 -210.435Z" fill="#3BF3FF"/>
<path d="M67.2316 -184.128L57.0086 -181.235L58.5402 -175.823L68.7633 -178.716L67.2316 -184.128Z" fill="#3BF3FF"/>
<path d="M64.8909 -192.396L54.6679 -189.503L56.1995 -184.091L66.4225 -186.984L64.8909 -192.396Z" fill="#3BF3FF"/>
<path d="M72.337 -166.089L62.114 -163.195L63.6456 -157.784L73.8687 -160.677L72.337 -166.089Z" fill="#3BF3FF"/>
<path d="M69.5701 -175.86L59.347 -172.966L60.8787 -167.555L71.1017 -170.448L69.5701 -175.86Z" fill="#3BF3FF"/>
<path d="M77.5442 -147.684L67.3211 -144.791L68.8528 -139.379L79.0758 -142.273L77.5442 -147.684Z" fill="#3BF3FF"/>
<path d="M74.7795 -157.456L64.5565 -154.563L66.0881 -149.151L76.3111 -152.044L74.7795 -157.456Z" fill="#3BF3FF"/>
<path d="M83.0758 -128.142L72.8527 -125.249L74.3843 -119.837L84.6074 -122.73L83.0758 -128.142Z" fill="#3BF3FF"/>
<path d="M80.3111 -137.913L70.0881 -135.02L71.6197 -129.608L81.8427 -132.502L80.3111 -137.913Z" fill="#3BF3FF"/>
<path d="M87.859 -111.241L77.636 -108.348L79.1676 -102.936L89.3906 -105.829L87.859 -111.241Z" fill="#3BF3FF"/>
<path d="M85.5183 -119.509L75.2952 -116.616L76.8268 -111.204L87.0499 -114.097L85.5183 -119.509Z" fill="#3BF3FF"/>
<path d="M92.9644 -93.2018L82.7414 -90.3085L84.273 -84.8967L94.496 -87.79L92.9644 -93.2018Z" fill="#3BF3FF"/>
<path d="M90.1974 -102.973L79.9744 -100.079L81.506 -94.6676L91.7291 -97.5609L90.1974 -102.973Z" fill="#3BF3FF"/>
<path d="M98.2036 -74.6885L87.9806 -71.7952L89.5122 -66.3834L99.7353 -69.2766L98.2036 -74.6885Z" fill="#3BF3FF"/>
<path d="M95.439 -84.4601L85.2159 -81.5668L86.7476 -76.155L96.9706 -79.0483L95.439 -84.4601Z" fill="#3BF3FF"/>
<path d="M-142.949 -217.031L-140.056 -206.81L-134.643 -208.341L-137.536 -218.563L-142.949 -217.031Z" fill="#3BF3FF"/>
<path d="M-152.72 -214.266L-149.827 -204.044L-144.414 -205.576L-147.307 -215.798L-152.72 -214.266Z" fill="#3BF3FF"/>
<path d="M-127.687 -221.351L-124.794 -211.129L-119.381 -212.661L-122.274 -222.882L-127.687 -221.351Z" fill="#3BF3FF"/>
<path d="M-134.754 -219.35L-131.861 -209.129L-126.448 -210.661L-129.341 -220.882L-134.754 -219.35Z" fill="#3BF3FF"/>
<path d="M-109.12 -226.605L-106.227 -216.384L-100.814 -217.915L-103.707 -228.137L-109.12 -226.605Z" fill="#3BF3FF"/>
<path d="M-118.891 -223.84L-115.998 -213.618L-110.586 -215.15L-113.478 -225.372L-118.891 -223.84Z" fill="#3BF3FF"/>
<path d="M-92.5806 -231.286L-89.6877 -221.064L-84.2751 -222.596L-87.168 -232.818L-92.5806 -231.286Z" fill="#3BF3FF"/>
<path d="M-100.849 -228.946L-97.9562 -218.724L-92.5436 -220.256L-95.4365 -230.478L-100.849 -228.946Z" fill="#3BF3FF"/>
<path d="M-74.5386 -236.392L-71.6458 -226.17L-66.2332 -227.702L-69.126 -237.924L-74.5386 -236.392Z" fill="#3BF3FF"/>
<path d="M-84.3121 -233.626L-81.4192 -223.404L-76.0067 -224.936L-78.8995 -235.158L-84.3121 -233.626Z" fill="#3BF3FF"/>
<path d="M-56.133 -241.601L-53.2401 -231.379L-47.8275 -232.911L-50.7204 -243.133L-56.133 -241.601Z" fill="#3BF3FF"/>
<path d="M-65.9042 -238.836L-63.0114 -228.614L-57.5988 -230.146L-60.4917 -240.368L-65.9042 -238.836Z" fill="#3BF3FF"/>
<path d="M-36.586 -247.133L-33.6932 -236.911L-28.2806 -238.443L-31.1734 -248.665L-36.586 -247.133Z" fill="#3BF3FF"/>
<path d="M-46.3595 -244.367L-43.4667 -234.145L-38.0541 -235.677L-40.9469 -245.899L-46.3595 -244.367Z" fill="#3BF3FF"/>
<path d="M-19.6832 -251.917L-16.7903 -241.695L-11.3777 -243.227L-14.2706 -253.449L-19.6832 -251.917Z" fill="#3BF3FF"/>
<path d="M-27.9539 -249.576L-25.0611 -239.354L-19.6485 -240.886L-22.5413 -251.108L-27.9539 -249.576Z" fill="#3BF3FF"/>
<path d="M-1.64118 -257.023L1.25166 -246.801L6.66426 -248.333L3.77141 -258.555L-1.64118 -257.023Z" fill="#3BF3FF"/>
<path d="M-11.4147 -254.257L-8.52187 -244.035L-3.10928 -245.567L-6.00213 -255.789L-11.4147 -254.257Z" fill="#3BF3FF"/>
<path d="M16.8748 -262.263L19.7677 -252.042L25.1803 -253.573L22.2874 -263.795L16.8748 -262.263Z" fill="#3BF3FF"/>
<path d="M7.10132 -259.497L9.99417 -249.276L15.4068 -250.807L12.5139 -261.029L7.10132 -259.497Z" fill="#3BF3FF"/>
<path d="M-144.169 -172.533L-154.392 -169.64L-152.861 -164.228L-142.638 -167.122L-144.169 -172.533Z" fill="#3BF3FF"/>
<path d="M-146.936 -182.304L-157.159 -179.411L-155.628 -173.999L-145.405 -176.892L-146.936 -182.304Z" fill="#3BF3FF"/>
<path d="M-139.853 -157.275L-150.076 -154.381L-148.544 -148.969L-138.321 -151.863L-139.853 -157.275Z" fill="#3BF3FF"/>
<path d="M-141.851 -164.34L-152.074 -161.447L-150.543 -156.035L-140.32 -158.928L-141.851 -164.34Z" fill="#3BF3FF"/>
<path d="M-134.597 -138.709L-144.82 -135.816L-143.288 -130.404L-133.065 -133.298L-134.597 -138.709Z" fill="#3BF3FF"/>
<path d="M-137.364 -148.48L-147.587 -145.587L-146.055 -140.175L-135.832 -143.068L-137.364 -148.48Z" fill="#3BF3FF"/>
<path d="M-129.917 -122.173L-140.141 -119.28L-138.609 -113.868L-128.386 -116.761L-129.917 -122.173Z" fill="#3BF3FF"/>
<path d="M-132.258 -130.441L-142.481 -127.548L-140.95 -122.136L-130.727 -125.029L-132.258 -130.441Z" fill="#3BF3FF"/>
<path d="M-124.812 -104.134L-135.035 -101.24L-133.503 -95.8284L-123.28 -98.7217L-124.812 -104.134Z" fill="#3BF3FF"/>
<path d="M-127.577 -113.905L-137.8 -111.012L-136.268 -105.6L-126.045 -108.493L-127.577 -113.905Z" fill="#3BF3FF"/>
<path d="M-119.605 -85.7293L-129.828 -82.836L-128.296 -77.4241L-118.073 -80.3174L-119.605 -85.7293Z" fill="#3BF3FF"/>
<path d="M-122.37 -95.5008L-132.593 -92.6075L-131.061 -87.1957L-120.838 -90.089L-122.37 -95.5008Z" fill="#3BF3FF"/>
<path d="M-114.073 -66.1867L-124.296 -63.2934L-122.765 -57.8816L-112.542 -60.7748L-114.073 -66.1867Z" fill="#3BF3FF"/>
<path d="M-116.838 -75.9583L-127.061 -73.065L-125.529 -67.6532L-115.306 -70.5464L-116.838 -75.9583Z" fill="#3BF3FF"/>
<path d="M-109.29 -49.2861L-119.513 -46.3929L-117.982 -40.981L-107.759 -43.8743L-109.29 -49.2861Z" fill="#3BF3FF"/>
<path d="M-111.631 -57.554L-121.854 -54.6608L-120.322 -49.2489L-110.099 -52.1422L-111.631 -57.554Z" fill="#3BF3FF"/>
<path d="M-104.185 -31.2466L-114.408 -28.3534L-112.876 -22.9416L-102.653 -25.8348L-104.185 -31.2466Z" fill="#3BF3FF"/>
<path d="M-106.949 -41.0182L-117.172 -38.125L-115.641 -32.7131L-105.418 -35.6064L-106.949 -41.0182Z" fill="#3BF3FF"/>
<path d="M-101.71 -22.5049L-111.933 -19.6117L-110.402 -14.1999L-100.179 -17.0931L-101.71 -22.5049Z" fill="#3BF3FF"/>
<path d="M160.348 106.153L157.185 107.027L143.234 56.5816C138.643 39.9834 134.053 23.385 129.462 6.78676C120.42 1.61085 111.378 -3.56511 102.336 -8.74118C93.0989 -14.0291 83.8617 -19.317 74.624 -24.6047L74.0273 -24.9462L73.8525 -25.6112C73.1503 -28.2817 72.4488 -30.9518 71.7474 -33.6217C71.046 -36.2917 70.3446 -38.9616 69.6425 -41.6317L72.8161 -42.4661C73.5183 -39.7956 74.2197 -37.1256 74.9211 -34.4557C75.5643 -32.0074 76.2077 -29.5592 76.8514 -27.1107C85.8902 -21.9368 94.9284 -16.7625 103.967 -11.5885C113.204 -6.3006 122.441 -1.0129 131.679 4.27481L132.265 4.61029L160.348 106.153Z" fill="#3BF3FF"/>
<path d="M208.098 267.996L204.935 268.87L191.749 221.13C187.418 205.449 183.087 189.768 178.756 174.086C161.203 165.147 149.794 159.279 142.744 155.594C139.178 153.73 136.719 152.421 135.142 151.554C134.357 151.122 133.774 150.792 133.379 150.554C133.185 150.437 133.01 150.327 132.871 150.229C132.806 150.183 132.714 150.115 132.622 150.034C132.578 149.995 132.503 149.925 132.425 149.831C132.376 149.772 132.193 149.551 132.095 149.208L132.095 149.208C132.092 149.196 132.089 149.186 132.089 149.185C132.088 149.182 132.087 149.179 132.087 149.178L132.087 149.177C132.087 149.177 132.086 149.176 132.086 149.176C132.086 149.174 132.085 149.172 132.085 149.171C132.084 149.169 132.084 149.166 132.083 149.164C132.082 149.16 132.08 149.152 132.078 149.145C132.074 149.13 132.069 149.108 132.061 149.08C132.047 149.023 132.025 148.941 131.998 148.839C131.944 148.634 131.867 148.349 131.775 148.027C131.535 147.178 123.798 118.529 111.907 74.4649C96.76 66.5821 81.6116 58.7019 66.462 50.8194L65.8305 50.4911L65.6391 49.8055C61.7036 35.7105 57.7687 21.6152 53.8338 7.52008C49.8989 -6.57498 45.964 -20.67 42.0286 -34.7649L45.189 -35.6475C49.1245 -21.5525 53.0595 -7.45716 56.9944 6.63796C60.8655 20.5046 64.7368 34.3712 68.6085 48.2376C83.7601 56.1211 98.9114 64.0026 114.061 71.8869L114.7 72.2193L114.887 72.9148C126.892 117.396 134.698 146.305 134.933 147.134C134.999 147.367 135.058 147.582 135.107 147.763C135.446 147.967 135.973 148.267 136.723 148.679C138.269 149.529 140.703 150.825 144.264 152.687C151.384 156.408 162.973 162.369 180.889 171.492L181.534 171.82L208.098 267.996Z" fill="#3BF3FF"/>
<path d="M141.4 256.675L89.4616 78.8734L50.8294 58.3022L25.4522 -31.3658L28.6096 -32.2593L53.6061 56.0636L92.2237 76.6273L144.55 255.755L141.4 256.675Z" fill="#3BF3FF"/>
<path d="M64.739 62.1175L61.5816 63.011L34.1732 -33.8339L37.3306 -34.7275L64.739 62.1175Z" fill="#3BF3FF"/>
<path d="M88.6111 146.468L85.4538 147.361L66.1273 79.0728L46.1329 68.0967L18.8777 -28.207L22.0351 -29.1006L48.9162 65.8815L68.9107 76.8577L88.6111 146.468Z" fill="#3BF3FF"/>
<path d="M56.2578 130.08L53.1004 130.974L8.51303 -26.5718L11.6704 -27.4653L56.2578 130.08Z" fill="#3BF3FF"/>
<path d="M40.6914 107.207L37.534 108.101L0.0941995 -24.1891L3.25155 -25.0827L40.6914 107.207Z" fill="#3BF3FF"/>
<path d="M9.98857 73.6973L-19.7526 132.34L-5.63202 182.234L-8.78938 183.128L-23.2591 132L6.4821 73.3573L-18.9559 -16.5254L-15.7985 -17.4189L9.98857 73.6973Z" fill="#3BF3FF"/>
<path d="M16.4566 214.372L31.6973 268.224L28.54 269.118L12.9211 213.93L61.2701 130.467L64.1095 132.112L16.4566 214.372Z" fill="#3BF3FF"/>
<path d="M-3.31794 66.47L-42.1232 134.39L-11.1109 243.969L-14.2682 244.863L-45.6555 133.959L-6.85034 66.0383L-29.3819 -13.5747L-26.2245 -14.4682L-3.31794 66.47Z" fill="#3BF3FF"/>
<path d="M19.511 266.478L16.3536 267.372L4.61062 225.879L-24.4645 207.314L-22.6982 204.549L7.42832 223.785L19.511 266.478Z" fill="#3BF3FF"/>
<path d="M-22.0864 61.7363L-60.0214 125.08L-40.6758 193.436L-51.3694 200.071C-58.1849 210.279 -61.1249 215.221 -62.3571 217.588C-63.0036 218.83 -63.0979 219.214 -63.0979 219.214C-63.0948 219.196 -63.0756 219.084 -63.093 218.917C-63.1103 218.753 -63.1754 218.429 -63.4373 218.113C-63.7258 217.765 -64.1091 217.6 -64.4442 217.554C-64.5977 217.533 -64.7315 217.538 -64.8351 217.549C-64.8878 217.555 -64.936 217.563 -64.979 217.572C-65.0005 217.576 -65.0212 217.581 -65.0408 217.585C-65.0505 217.588 -65.06 217.59 -65.0693 217.593C-65.074 217.594 -65.081 217.596 -65.0833 217.596C-65.0883 217.598 -65.0927 217.602 -64.9072 218.266L-64.3928 220.092C-64.2072 220.756 -64.2116 220.759 -64.2167 220.761C-64.219 220.762 -64.226 220.763 -64.2306 220.765C-64.2401 220.767 -64.25 220.77 -64.2599 220.772C-64.2799 220.777 -64.3011 220.782 -64.3234 220.786C-64.368 220.795 -64.4187 220.804 -64.4744 220.81C-64.584 220.822 -64.7261 220.827 -64.8895 220.805C-65.2442 220.756 -65.6526 220.582 -65.9632 220.207C-66.2473 219.864 -66.3317 219.496 -66.3564 219.26C-66.3814 219.021 -66.3581 218.809 -66.3308 218.652C-66.2339 218.095 -65.9083 217.304 -65.2676 216.074C-63.9342 213.512 -60.8623 208.37 -53.9008 197.953L-53.7034 197.658L-44.5061 191.952L-63.5646 124.61L-25.6296 61.2663L-45.7734 -9.90989L-42.6161 -10.8035L-22.0864 61.7363Z" fill="#3BF3FF"/>
<path d="M-53.2482 188.321L-68.3832 192.604L-69.2767 189.447L-54.1416 185.164L-53.2482 188.321Z" fill="#3BF3FF"/>
<path d="M-83.9851 218.287L-65.6401 283.107L-68.7975 284.001L-87.5509 217.737L-69.1993 189.841L-66.4578 191.644L-83.9851 218.287Z" fill="#3BF3FF"/>
<path d="M-45.9574 45.8674L-90.8095 120.911L-78.8629 163.123L-82.0202 164.017L-94.3522 120.443L-49.5001 45.3992L-63.7162 -4.83185L-60.5588 -5.72542L-45.9574 45.8674Z" fill="#3BF3FF"/>
<path d="M-88.0409 47.4898L-115.656 55.3053L-129.562 87.1558L-126.829 96.8126L-129.986 97.7062L-133.039 86.9197L-118.043 52.571L-90.3325 44.7286L-74.7573 13.3946L-82.3768 -0.465388L-79.5014 -2.04596L-71.055 13.3181L-88.0409 47.4898Z" fill="#3BF3FF"/>
<path d="M149.957 201.415L146.799 202.309L140.786 181.063L143.944 180.169L149.957 201.415Z" fill="#3BF3FF"/>
<path d="M156.388 232.935L153.23 233.829L147.785 214.587L150.942 213.694L156.388 232.935Z" fill="#3BF3FF"/>
<path d="M128.428 -29.7679C128.495 -29.5318 128.601 -29.378 128.637 -29.3272C128.682 -29.2631 128.718 -29.226 128.725 -29.2194C128.737 -29.2071 128.717 -29.2287 128.639 -29.2901C128.489 -29.409 128.241 -29.5838 127.886 -29.8156C127.183 -30.2741 126.173 -30.8808 124.943 -31.5917C122.489 -33.0099 119.238 -34.7955 115.983 -36.5508C112.732 -38.3043 109.489 -40.0211 107.059 -41.2999C105.925 -41.897 104.968 -42.3984 104.27 -42.7632L99.185 -35.7411L96.5271 -37.6651L103.273 -46.9812L104.529 -46.3288L103.772 -44.8731C104.504 -46.2801 104.528 -46.3269 104.529 -46.3284L104.53 -46.3279C104.531 -46.3275 104.532 -46.3269 104.534 -46.3261C104.537 -46.3244 104.542 -46.3219 104.548 -46.3187C104.561 -46.3122 104.58 -46.3024 104.604 -46.2896C104.653 -46.264 104.726 -46.2261 104.821 -46.1765C105.012 -46.0774 105.291 -45.9319 105.646 -45.7464C106.356 -45.3755 107.37 -44.8443 108.588 -44.2033C111.024 -42.9215 114.276 -41.1991 117.541 -39.4383C120.803 -37.6792 124.089 -35.8753 126.585 -34.4324C127.83 -33.7128 128.9 -33.0711 129.678 -32.5637C130.063 -32.3125 130.407 -32.0749 130.674 -31.8647C130.804 -31.7616 130.949 -31.6394 131.079 -31.5056C131.147 -31.435 131.453 -31.1298 131.586 -30.6615L128.428 -29.7679Z" fill="#3BF3FF"/>
<path d="M184.836 119.235L181.678 120.128L137.772 -35.011L140.929 -35.9046L184.836 119.235Z" fill="#3BF3FF"/>
<path d="M142.199 -42.1209L93.8507 -70.6557L95.5189 -73.4811L143.867 -44.9465L142.199 -42.1209Z" fill="#3BF3FF"/>
<path d="M120.496 -115.85L83.9609 -105.511L83.0674 -108.667L119.602 -119.007L120.496 -115.85Z" fill="#3BF3FF"/>
<path d="M231.661 48.2894L228.504 49.183L182.86 -112.094L123.417 -145.485L76.4125 -132.182L75.5191 -135.339L123.835 -149.013L185.649 -114.291L231.661 48.2894Z" fill="#3BF3FF"/>
<path d="M166.531 -147.131L158.061 -144.734L109.133 -171.874L69.6045 -160.687L68.711 -163.844L109.542 -175.4L158.47 -148.259L165.637 -150.288L166.531 -147.131Z" fill="#3BF3FF"/>
<path d="M156.035 -162.7L108.211 -191.098L63.3331 -178.397L62.4397 -181.554L108.674 -194.639L150.638 -169.721L137.97 -214.482L59.0554 -193.422L58.2095 -196.592L140.247 -218.486L156.035 -162.7Z" fill="#3BF3FF"/>
<path d="M105.206 -221.691L97.1895 -222.358L98.0413 -213.71L70.9365 -206.039L70.043 -209.196L94.5069 -216.119L93.5381 -225.954L105.478 -224.961L105.206 -221.691Z" fill="#3BF3FF"/>
<path d="M51.4214 -220.571L50.4836 -223.714L130.3 -247.521L131.238 -244.377L51.4214 -220.571Z" fill="#3BF3FF"/>
<path d="M83.0196 -300.721C83.0155 -300.714 83.0092 -300.703 83.001 -300.688C82.9846 -300.658 82.9601 -300.614 82.9278 -300.555C82.8632 -300.438 82.7673 -300.264 82.6422 -300.037C82.392 -299.583 82.025 -298.917 81.5573 -298.069C80.6221 -296.373 79.2847 -293.949 77.6763 -291.038C74.4594 -285.215 70.1576 -277.442 65.8188 -269.636C61.4804 -261.832 57.1032 -253.993 53.7357 -248.043C52.0525 -245.068 50.6183 -242.56 49.5662 -240.762C49.0411 -239.864 48.6055 -239.134 48.2795 -238.608C48.1176 -238.347 47.9745 -238.123 47.8564 -237.949C47.7981 -237.863 47.7359 -237.775 47.6745 -237.695C47.6395 -237.649 47.5166 -237.487 47.3438 -237.343L45.2439 -239.864C45.1081 -239.751 45.038 -239.649 45.0717 -239.693C45.0788 -239.702 45.1011 -239.732 45.142 -239.792C45.2224 -239.911 45.3379 -240.09 45.4908 -240.337C45.7944 -240.826 46.2131 -241.528 46.7338 -242.418C47.7737 -244.196 49.1985 -246.688 50.8797 -249.658C54.2408 -255.598 58.6135 -263.427 62.9509 -271.23C67.2879 -279.032 71.5882 -286.803 74.8043 -292.624C76.4123 -295.535 77.7492 -297.958 78.6841 -299.653C79.1515 -300.5 79.5185 -301.166 79.7685 -301.62C79.8935 -301.847 79.9894 -302.021 80.0539 -302.138C80.0862 -302.196 80.1106 -302.241 80.127 -302.271C80.1352 -302.285 80.1414 -302.297 80.1455 -302.304C80.1476 -302.308 80.149 -302.311 80.1501 -302.313C80.1506 -302.313 80.1511 -302.314 80.1514 -302.315C80.1542 -302.314 80.2134 -302.281 81.5888 -301.524C82.9877 -300.754 83.0249 -300.733 83.0256 -300.732L83.0196 -300.721Z" fill="#3BF3FF"/>
<path d="M46.3338 -314.204L19.621 -268.336L22.5983 -258.387L19.4548 -257.447L16.0695 -268.758L42.7971 -314.651L28.1811 -366.295L31.3384 -367.188L46.3338 -314.204Z" fill="#3BF3FF"/>
<path d="M29.6851 -322.817L4.79521 -279.077L12.4367 -252.076L9.27933 -251.183L1.26381 -279.505L26.1536 -323.246L6.77044 -391.734L9.92779 -392.628L29.6851 -322.817Z" fill="#3BF3FF"/>
<path d="M-5.35752 -248.806L-8.51617 -247.917C-15.351 -272.205 -22.2152 -296.588 -29.0495 -320.874L-25.8908 -321.763C-19.0382 -297.412 -12.2108 -273.159 -5.35752 -248.806Z" fill="#3BF3FF"/>
<path d="M-14.676 -250.575L-17.8334 -249.681L-35.1062 -310.713L-31.9489 -311.607L-14.676 -250.575Z" fill="#3BF3FF"/>
<path d="M-23.9791 -247.916L-27.1497 -247.071L-44.8241 -313.404L-53.435 -310.967L-59.3952 -332.027L-144.792 -378.799L-143.216 -381.677L-56.6124 -334.244L-51.1711 -315.017L-42.5113 -317.468L-23.9791 -247.916Z" fill="#3BF3FF"/>
<path d="M-47.9602 -336.628L-51.1176 -335.735L-61.3216 -371.79L-112.822 -402.838L-111.128 -405.647L-58.5172 -373.93L-47.9602 -336.628Z" fill="#3BF3FF"/>
<path d="M-36.5476 -372.655L-39.705 -371.762L-43.1909 -384.079L-88.3357 -412.055L-86.607 -414.844L-40.3802 -386.197L-36.5476 -372.655Z" fill="#3BF3FF"/>
<path d="M-51.1231 -240.26L-54.2804 -239.366L-76.2138 -316.866L-122.005 -341.398L-120.455 -344.29L-73.4358 -319.1L-51.1231 -240.26Z" fill="#3BF3FF"/>
<path d="M-63.3309 -234.043L-77.8063 -285.174L-134.255 -310.906L-132.893 -313.891L-75.0631 -287.529L-60.1736 -234.936L-63.3309 -234.043Z" fill="#3BF3FF"/>
<path d="M-78.5787 -229.728L-81.736 -228.834L-94.4213 -273.656L-144.786 -301.849L-143.183 -304.712L-91.6336 -275.856L-78.5787 -229.728Z" fill="#3BF3FF"/>
<path d="M-87.5724 -229.944L-90.7297 -229.051L-100.998 -265.332L-164.298 -296.776L-168.24 -310.705L-165.082 -311.599L-161.536 -299.068L-98.2363 -267.624L-87.5724 -229.944Z" fill="#3BF3FF"/>
<path d="M-95.1186 -225.047L-98.276 -224.153L-105.211 -248.657L-102.054 -249.551L-95.1186 -225.047Z" fill="#3BF3FF"/>
<path d="M-112.033 -220.26L-115.19 -219.366L-118.428 -230.806L-148.694 -241.642L-154.434 -261.923L-179.066 -270.366L-199.299 -336.628L-196.161 -337.586L-176.417 -272.926L-151.744 -264.47L-145.997 -244.162L-115.731 -233.326L-112.033 -220.26Z" fill="#3BF3FF"/>
<path d="M-162.688 -369.654L-185.66 -332.625L-183.56 -325.203L-186.717 -324.31L-189.212 -333.124L-166.24 -370.153L-170.552 -385.39L-167.394 -386.283L-162.688 -369.654Z" fill="#3BF3FF"/>
<path d="M-137.939 -215.69L-141.096 -214.796L-144.839 -228.021L-189.551 -256.284L-211.503 -333.848L-200.278 -357.638L-197.31 -356.238L-208.011 -333.559L-186.736 -258.386L-142.024 -230.124L-137.939 -215.69Z" fill="#3BF3FF"/>
<path d="M-146.971 -213.134L-150.128 -212.24L-151.312 -216.421L-194.656 -242.22L-222.432 -335.777L-242.661 -344.193L-228.206 -384.61L-218.014 -345.949L-221.187 -345.112L-228.681 -373.539L-238.521 -346.025L-219.731 -338.206L-191.875 -244.383L-148.51 -218.572L-146.971 -213.134Z" fill="#3BF3FF"/>
<path d="M-201.299 -236.4L-204.457 -235.507L-232.791 -335.626L-229.634 -336.519L-201.299 -236.4Z" fill="#3BF3FF"/>
<path d="M-148.306 -157.885L-182.111 -148.318L-203.178 -162.357L-201.359 -165.087L-181.549 -151.887L-149.199 -161.042L-148.306 -157.885Z" fill="#3BF3FF"/>
<path d="M-151.822 -180.922L-154.979 -180.028L-162.121 -205.262L-203.756 -222.68L-202.49 -225.707L-159.394 -207.678L-151.822 -180.922Z" fill="#3BF3FF"/>
<path d="M-142.616 -142.367L-184.412 -130.538L-185.305 -133.695L-143.509 -145.523L-142.616 -142.367Z" fill="#3BF3FF"/>
<path d="M-137.51 -124.327L-182.915 -111.477L-183.808 -114.634L-138.404 -127.484L-137.51 -124.327Z" fill="#3BF3FF"/>
<path d="M-132.83 -107.792L-160.765 -99.8858L-176.194 -73.8805L-213.09 -65.2L-213.841 -68.3937L-178.304 -76.7548L-162.919 -102.686L-133.724 -110.949L-132.83 -107.792Z" fill="#3BF3FF"/>
<path d="M-164.686 -77.1699L-165.717 -80.2844L-129.786 -92.1825L-128.755 -89.0679L-164.686 -77.1699Z" fill="#3BF3FF"/>
<path d="M-110.639 -24.7924L-141.446 -16.0735L-147.227 -2.07204L-172.385 5.04797L-184.498 22.5487L-187.196 20.6818L-174.413 2.21199L-149.653 -4.79539L-143.872 -18.7968L-111.532 -27.9493L-110.639 -24.7924Z" fill="#3BF3FF"/>
<path d="M-126.058 -79.2761L-166.114 -67.94L-175.978 -54.5951L-192.078 -50.0384L-190.078 -42.9715L-203.084 -39.2906L-203.978 -42.4475L-194.129 -45.2348L-196.129 -52.3017L-177.95 -57.4467L-168.086 -70.7916L-126.952 -82.433L-126.058 -79.2761Z" fill="#3BF3FF"/>
<path d="M-123.293 -69.5055L-163.335 -58.1733L-175.439 -41.2693L-184.713 -38.6447L-185.606 -41.8016L-177.438 -44.1134L-165.334 -61.0172L-124.187 -72.6624L-123.293 -69.5055Z" fill="#3BF3FF"/>
<path d="M-210.329 -23.6573L-211.265 -26.8021L-117.797 -54.5917L-116.862 -51.4471L-210.329 -23.6573Z" fill="#3BF3FF"/>
<path d="M-110.85 -35.2884L-149.305 -24.4052L-159.068 -12.8133L-185.672 -6.45184L-198.328 14.6974L-201.143 13.013L-187.779 -9.32133L-160.882 -15.7531L-151.166 -27.2881L-111.743 -38.4454L-110.85 -35.2884Z" fill="#3BF3FF"/>
<path d="M-200.961 -15.781L-215.751 -17.4513L-222.356 -15.5822L-223.249 -18.7391L-216.024 -20.7838L-201.288 -19.1198L-116.687 -45.9738L-115.695 -42.8468L-200.961 -15.781Z" fill="#3BF3FF"/>
<path d="M135.863 -244.398C137.317 -244.809 138.162 -246.321 137.75 -247.774C137.339 -249.227 135.827 -250.072 134.374 -249.661C132.92 -249.249 132.075 -247.738 132.487 -246.284C132.898 -244.831 134.41 -243.986 135.863 -244.398ZM136.757 -241.241C133.559 -240.336 130.234 -242.194 129.329 -245.391C128.425 -248.588 130.283 -251.913 133.48 -252.818C136.678 -253.723 140.003 -251.865 140.908 -248.668C141.812 -245.471 139.954 -242.146 136.757 -241.241Z" fill="#3BF3FF"/>
<path d="M113.028 -219.761C115.403 -220.433 116.784 -222.903 116.112 -225.278C115.439 -227.653 112.969 -229.034 110.594 -228.361C108.219 -227.689 106.838 -225.219 107.51 -222.844C108.182 -220.469 110.653 -219.089 113.028 -219.761ZM113.921 -216.604C109.802 -215.438 105.518 -217.832 104.353 -221.95C103.187 -226.069 105.581 -230.352 109.7 -231.518C113.819 -232.684 118.103 -230.29 119.269 -226.172C120.434 -222.053 118.04 -217.77 113.921 -216.604Z" fill="#3BF3FF"/>
<path d="M172.157 -147.488C174.095 -148.037 175.221 -150.052 174.673 -151.99C174.124 -153.928 172.109 -155.054 170.171 -154.506C168.233 -153.957 167.106 -151.941 167.654 -150.004C168.203 -148.066 170.219 -146.94 172.157 -147.488ZM173.05 -144.331C169.368 -143.289 165.539 -145.429 164.497 -149.11C163.455 -152.791 165.595 -156.62 169.277 -157.662C172.959 -158.704 176.788 -156.565 177.83 -152.883C178.872 -149.202 176.732 -145.373 173.05 -144.331Z" fill="#3BF3FF"/>
<path d="M126.191 -114.593C128.53 -115.255 129.89 -117.688 129.228 -120.027C128.566 -122.365 126.133 -123.725 123.794 -123.063C121.455 -122.401 120.096 -119.968 120.757 -117.629C121.419 -115.291 123.852 -113.931 126.191 -114.593ZM127.085 -111.436C123.002 -110.281 118.755 -112.653 117.6 -116.736C116.445 -120.818 118.818 -125.064 122.901 -126.22C126.984 -127.375 131.23 -125.002 132.385 -120.92C133.541 -116.838 131.167 -112.592 127.085 -111.436Z" fill="#3BF3FF"/>
<path d="M85.8504 -302.019C87.8617 -302.588 88.8094 -304.414 88.3974 -305.87C87.9852 -307.326 86.2215 -308.383 84.2103 -307.814C82.1991 -307.245 81.2511 -305.42 81.6631 -303.964C82.0752 -302.508 83.8391 -301.45 85.8504 -302.019ZM86.7439 -298.862C83.2922 -297.885 79.4929 -299.582 78.5058 -303.07C77.5187 -306.558 79.8652 -309.994 83.3169 -310.971C86.7685 -311.948 90.5675 -310.251 91.5547 -306.763C92.5419 -303.275 90.1955 -299.839 86.7439 -298.862Z" fill="#3BF3FF"/>
<path d="M233.132 57.6957C235.209 57.108 236.415 54.9487 235.828 52.8727C235.24 50.7967 233.081 49.5901 231.005 50.1777C228.928 50.7653 227.721 52.9247 228.309 55.0007C228.896 57.0767 231.056 58.2833 233.132 57.6957ZM234.026 60.8526C230.206 61.9337 226.233 59.7138 225.152 55.8942C224.071 52.0747 226.291 48.1019 230.111 47.0208C233.931 45.9397 237.904 48.1596 238.985 51.9791C240.066 55.7987 237.846 59.7714 234.026 60.8526Z" fill="#3BF3FF"/>
<path d="M184.957 126.264C186.603 125.798 187.56 124.085 187.094 122.439C186.628 120.792 184.916 119.836 183.269 120.302C181.623 120.768 180.666 122.48 181.131 124.126C181.597 125.773 183.31 126.73 184.957 126.264ZM185.85 129.421C182.46 130.38 178.934 128.41 177.974 125.02C177.015 121.63 178.986 118.104 182.376 117.145C185.766 116.185 189.292 118.155 190.252 121.545C191.211 124.935 189.241 128.461 185.85 129.421Z" fill="#3BF3FF"/>
<path d="M161.354 114.974C163.25 114.438 164.351 112.466 163.815 110.571C163.278 108.675 161.307 107.574 159.411 108.11C157.516 108.647 156.413 110.618 156.95 112.514C157.486 114.409 159.458 115.511 161.354 114.974ZM162.247 118.131C158.608 119.161 154.822 117.046 153.793 113.407C152.763 109.768 154.878 105.983 158.518 104.953C162.157 103.923 165.942 106.038 166.972 109.677C168.002 113.316 165.887 117.101 162.247 118.131Z" fill="#3BF3FF"/>
<path d="M150.928 -38.5589C151.698 -38.7771 152.147 -39.5788 151.929 -40.3497C151.71 -41.1205 150.908 -41.5687 150.137 -41.3505C149.367 -41.1322 148.919 -40.3304 149.137 -39.5595C149.355 -38.7887 150.157 -38.3408 150.928 -38.5589ZM151.821 -35.402C149.306 -34.6903 146.691 -36.1516 145.979 -38.6659C145.268 -41.1803 146.729 -43.7956 149.244 -44.5074C151.759 -45.2191 154.374 -43.7576 155.086 -41.2432C155.798 -38.7289 154.336 -36.1137 151.821 -35.402Z" fill="#3BF3FF"/>
<path d="M210.424 279.943C213.214 279.154 214.836 276.252 214.047 273.463C213.257 270.673 210.355 269.052 207.565 269.841C204.775 270.631 203.154 273.532 203.943 276.322C204.733 279.112 207.634 280.733 210.424 279.943ZM211.318 283.1C206.784 284.383 202.069 281.749 200.786 277.216C199.503 272.682 202.138 267.967 206.672 266.684C211.206 265.401 215.921 268.036 217.204 272.569C218.487 277.102 215.852 281.817 211.318 283.1Z" fill="#3BF3FF"/>
<path d="M146.552 265.272C148.69 264.666 149.933 262.442 149.328 260.304C148.723 258.166 146.499 256.923 144.36 257.528C142.222 258.134 140.979 260.358 141.584 262.496C142.189 264.634 144.413 265.877 146.552 265.272ZM147.445 268.429C143.563 269.527 139.525 267.271 138.426 263.389C137.328 259.508 139.584 255.47 143.467 254.371C147.349 253.273 151.387 255.529 152.486 259.41C153.584 263.292 151.327 267.33 147.445 268.429Z" fill="#3BF3FF"/>
<path d="M89.7345 156.462C91.9354 155.839 93.2147 153.55 92.5919 151.35C91.9691 149.149 89.68 147.87 87.4792 148.493C85.2784 149.116 83.9991 151.405 84.6219 153.605C85.2446 155.806 87.5336 157.085 89.7345 156.462ZM90.628 159.619C86.6834 160.735 82.5807 158.443 81.4645 154.499C80.3483 150.555 82.6412 146.452 86.5858 145.336C90.5304 144.22 94.633 146.512 95.7492 150.456C96.8654 154.4 94.5726 158.502 90.628 159.619Z" fill="#3BF3FF"/>
<path d="M41.2187 115.096C43.3361 114.496 44.5669 112.294 43.9677 110.177C43.3685 108.06 41.1663 106.83 39.0489 107.429C36.9315 108.028 35.7007 110.23 36.2999 112.347C36.8991 114.464 39.1013 115.695 41.2187 115.096ZM42.1121 118.252C38.251 119.345 34.2351 117.101 33.1425 113.241C32.0499 109.38 34.2943 105.365 38.1554 104.272C42.0166 103.179 46.0324 105.423 47.1251 109.284C48.2177 113.144 45.9733 117.16 42.1121 118.252Z" fill="#3BF3FF"/>
<path d="M33.0842 279.683C35.6787 278.949 37.1868 276.251 36.4526 273.656C35.7184 271.062 33.02 269.555 30.4256 270.289C27.8311 271.023 26.323 273.721 27.0572 276.315C27.7913 278.909 30.4898 280.417 33.0842 279.683ZM33.9777 282.84C29.6395 284.068 25.1275 281.547 23.8999 277.209C22.6723 272.871 25.1939 268.36 29.5321 267.132C33.8704 265.904 38.3823 268.425 39.6099 272.763C40.8375 277.1 38.3159 281.612 33.9777 282.84Z" fill="#3BF3FF"/>
<path d="M66.8072 131.396C67.9693 131.067 68.6448 129.858 68.316 128.696C67.9871 127.534 66.7785 126.859 65.6164 127.188C64.4543 127.517 63.7788 128.725 64.1076 129.887C64.4365 131.049 65.6452 131.725 66.8072 131.396ZM67.7006 134.553C64.7948 135.375 61.7726 133.686 60.9503 130.781C60.128 127.875 61.8171 124.853 64.7229 124.031C67.6287 123.209 70.651 124.897 71.4733 127.803C72.2955 130.708 70.6065 133.73 67.7006 134.553Z" fill="#3BF3FF"/>
<path d="M-4.51154 191.744C-2.35177 191.133 -1.09639 188.887 -1.70755 186.727C-2.31873 184.568 -4.56498 183.313 -6.72472 183.924C-8.88443 184.535 -10.1398 186.782 -9.52868 188.941C-8.91753 191.1 -6.67131 192.355 -4.51154 191.744ZM-3.6181 194.901C-7.52161 196.006 -11.5814 193.738 -12.686 189.835C-13.7906 185.932 -11.5217 181.872 -7.61816 180.767C-3.71465 179.663 0.34518 181.931 1.44979 185.834C2.55438 189.737 0.285406 193.796 -3.6181 194.901Z" fill="#3BF3FF"/>
<path d="M17.8883 272.7C18.9258 272.406 19.529 271.327 19.2353 270.29C18.9418 269.252 17.8626 268.649 16.8251 268.943C15.7876 269.237 15.1845 270.316 15.4781 271.353C15.7717 272.39 16.8508 272.993 17.8883 272.7ZM18.7818 275.857C16.0005 276.644 13.1078 275.027 12.3207 272.247C11.5337 269.466 13.1504 266.573 15.9317 265.786C18.713 264.999 21.6057 266.615 22.3927 269.396C23.1797 272.177 21.5631 275.069 18.7818 275.857Z" fill="#3BF3FF"/>
<path d="M-11.8285 250.179C-10.7287 249.867 -10.0894 248.723 -10.4006 247.624C-10.7118 246.524 -11.8557 245.885 -12.9556 246.196C-14.0553 246.508 -14.6947 247.651 -14.3835 248.751C-14.0722 249.851 -12.9283 250.49 -11.8285 250.179ZM-10.9351 253.335C-13.7786 254.14 -16.7361 252.488 -17.5408 249.645C-18.3454 246.801 -16.6925 243.844 -13.849 243.039C-11.0054 242.235 -8.04793 243.887 -7.2433 246.73C-6.43865 249.573 -8.09148 252.531 -10.9351 253.335Z" fill="#3BF3FF"/>
<path d="M-32.3667 232.625C-30.9306 232.218 -30.0958 230.725 -30.5022 229.289C-30.9086 227.853 -32.4023 227.018 -33.8384 227.425C-35.2744 227.831 -36.1093 229.325 -35.7029 230.761C-35.2965 232.196 -33.8028 233.031 -32.3667 232.625ZM-31.4733 235.781C-34.6531 236.681 -37.9604 234.833 -38.8602 231.654C-39.7601 228.475 -37.9117 225.168 -34.7318 224.268C-31.552 223.368 -28.2446 225.216 -27.3448 228.395C-26.445 231.575 -28.2934 234.882 -31.4733 235.781Z" fill="#3BF3FF"/>
<path d="M-63.2968 229.322C-61.4559 228.801 -60.3858 226.887 -60.9067 225.046C-61.4276 223.205 -63.3424 222.136 -65.1833 222.657C-67.0241 223.178 -68.0943 225.092 -67.5733 226.933C-67.0524 228.773 -65.1377 229.843 -63.2968 229.322ZM-62.4033 232.479C-65.988 233.494 -69.7163 231.41 -70.7307 227.826C-71.7451 224.242 -69.6614 220.514 -66.0767 219.5C-62.492 218.485 -58.7637 220.568 -57.7494 224.152C-56.735 227.737 -58.8187 231.465 -62.4033 232.479Z" fill="#3BF3FF"/>
<path d="M-63.7895 292.082C-61.6933 291.489 -60.4748 289.309 -61.0679 287.213C-61.6611 285.117 -63.8413 283.899 -65.9376 284.492C-68.0338 285.085 -69.2523 287.265 -68.6591 289.361C-68.0659 291.457 -65.8857 292.675 -63.7895 292.082ZM-62.896 295.239C-66.736 296.326 -70.7298 294.094 -71.8165 290.255C-72.9031 286.415 -70.671 282.422 -66.831 281.335C-62.9911 280.248 -58.9972 282.48 -57.9106 286.319C-56.824 290.158 -59.0561 294.152 -62.896 295.239Z" fill="#3BF3FF"/>
<path d="M-80.1381 175.745C-77.4391 174.981 -75.8702 172.174 -76.6339 169.475C-77.3977 166.777 -80.2049 165.208 -82.904 165.972C-85.6031 166.736 -87.1719 169.543 -86.4082 172.242C-85.6444 174.94 -82.8372 176.509 -80.1381 175.745ZM-79.2447 178.902C-83.6875 180.159 -88.3083 177.577 -89.5655 173.135C-90.8227 168.693 -88.2402 164.073 -83.7974 162.815C-79.3546 161.558 -74.7338 164.14 -73.4766 168.582C-72.2194 173.024 -74.8019 177.644 -79.2447 178.902Z" fill="#3BF3FF"/>
<path d="M-124.886 109.7C-121.887 108.851 -120.144 105.732 -120.993 102.733C-121.841 99.7341 -124.961 97.9912 -127.96 98.8401C-130.959 99.6889 -132.703 102.808 -131.854 105.807C-131.005 108.806 -127.886 110.549 -124.886 109.7ZM-123.993 112.857C-128.736 114.199 -133.669 111.443 -135.011 106.7C-136.353 101.958 -133.596 97.0255 -128.853 95.6831C-124.11 94.3408 -119.177 97.0971 -117.835 101.839C-116.493 106.582 -119.25 111.514 -123.993 112.857Z" fill="#3BF3FF"/>
<path d="M-201.148 21.8026C-199.213 21.2552 -198.089 19.2434 -198.636 17.3094C-199.183 15.3754 -201.195 14.2512 -203.13 14.7987C-205.064 15.3461 -206.188 17.3578 -205.641 19.2918C-205.093 21.2258 -203.082 22.35 -201.148 21.8026ZM-200.254 24.9595C-203.932 26.0004 -207.757 23.8629 -208.798 20.1854C-209.839 16.5078 -207.701 12.6827 -204.023 11.6417C-200.345 10.6008 -196.52 12.7383 -195.479 16.4158C-194.438 20.0934 -196.576 23.9186 -200.254 24.9595Z" fill="#3BF3FF"/>
<path d="M-227.29 -11.7501C-225.473 -12.2644 -224.417 -14.1543 -224.931 -15.9713C-225.445 -17.7882 -227.335 -18.8442 -229.152 -18.33C-230.97 -17.8157 -232.026 -15.9258 -231.512 -14.1088C-230.997 -12.2918 -229.107 -11.2358 -227.29 -11.7501ZM-226.397 -8.59323C-229.958 -7.58542 -233.661 -9.65477 -234.669 -13.2153C-235.677 -16.7758 -233.607 -20.4791 -230.046 -21.4869C-226.485 -22.4947 -222.781 -20.4253 -221.773 -16.8648C-220.766 -13.3043 -222.836 -9.60106 -226.397 -8.59323Z" fill="#3BF3FF"/>
<path d="M-206.241 -39.6442C-204.609 -40.1063 -203.659 -41.8044 -204.121 -43.437C-204.583 -45.0697 -206.282 -46.0187 -207.915 -45.5565C-209.548 -45.0944 -210.497 -43.3962 -210.034 -41.7635C-209.572 -40.1309 -207.874 -39.1821 -206.241 -39.6442ZM-205.348 -36.4872C-208.725 -35.5317 -212.236 -37.4938 -213.192 -40.8699C-214.147 -44.2461 -212.185 -47.7578 -208.808 -48.7134C-205.431 -49.6691 -201.919 -47.7068 -200.964 -44.3306C-200.008 -40.9544 -201.971 -37.4429 -205.348 -36.4872Z" fill="#3BF3FF"/>
<path d="M-207.803 -159.464C-205.229 -160.193 -203.732 -162.87 -204.461 -165.445C-205.189 -168.019 -207.867 -169.515 -210.442 -168.786C-213.016 -168.058 -214.513 -165.38 -213.784 -162.806C-213.056 -160.232 -210.378 -158.736 -207.803 -159.464ZM-206.91 -156.307C-211.228 -155.085 -215.72 -157.595 -216.941 -161.912C-218.163 -166.23 -215.653 -170.721 -211.335 -171.943C-207.017 -173.165 -202.526 -170.656 -201.304 -166.338C-200.082 -162.021 -202.592 -157.53 -206.91 -156.307Z" fill="#3BF3FF"/>
<path d="M-206.913 -219.794C-204.381 -220.511 -202.909 -223.144 -203.625 -225.676C-204.342 -228.208 -206.976 -229.679 -209.508 -228.963C-212.04 -228.246 -213.512 -225.612 -212.795 -223.081C-212.079 -220.549 -209.445 -219.077 -206.913 -219.794ZM-206.019 -216.637C-210.295 -215.427 -214.743 -217.912 -215.953 -222.187C-217.163 -226.462 -214.677 -230.909 -210.401 -232.119C-206.125 -233.33 -201.678 -230.845 -200.468 -226.569C-199.258 -222.294 -201.744 -217.847 -206.019 -216.637Z" fill="#3BF3FF"/>
<path d="M-186.664 -108.587C-184.857 -109.098 -183.807 -110.978 -184.318 -112.785C-184.829 -114.592 -186.709 -115.642 -188.516 -115.131C-190.324 -114.619 -191.374 -112.74 -190.863 -110.933C-190.351 -109.126 -188.472 -108.075 -186.664 -108.587ZM-185.771 -105.43C-189.322 -104.425 -193.015 -106.488 -194.02 -110.039C-195.025 -113.59 -192.961 -117.283 -189.41 -118.287C-185.859 -119.292 -182.166 -117.229 -181.161 -113.678C-180.156 -110.128 -182.22 -106.435 -185.771 -105.43Z" fill="#3BF3FF"/>
<path d="M-227.255 -385.012C-224.75 -385.721 -223.294 -388.326 -224.003 -390.83C-224.711 -393.335 -227.317 -394.79 -229.821 -394.082C-232.326 -393.373 -233.782 -390.768 -233.073 -388.263C-232.364 -385.759 -229.759 -384.303 -227.255 -385.012ZM-226.361 -381.855C-230.61 -380.653 -235.028 -383.122 -236.231 -387.37C-237.433 -391.618 -234.963 -396.036 -230.715 -397.238C-226.466 -398.441 -222.048 -395.972 -220.845 -391.724C-219.643 -387.476 -222.113 -383.058 -226.361 -381.855Z" fill="#3BF3FF"/>
<path d="M-195.866 -359.311C-193.32 -360.032 -191.84 -362.679 -192.56 -365.225C-193.281 -367.77 -195.929 -369.25 -198.475 -368.529C-201.02 -367.809 -202.5 -365.161 -201.78 -362.615C-201.059 -360.07 -198.412 -358.591 -195.866 -359.311ZM-194.972 -356.154C-199.262 -354.94 -203.723 -357.433 -204.937 -361.722C-206.151 -366.011 -203.658 -370.472 -199.368 -371.686C-195.078 -372.9 -190.617 -370.407 -189.403 -366.118C-188.189 -361.829 -190.683 -357.368 -194.972 -356.154Z" fill="#3BF3FF"/>
<path d="M-231.044 -343.196C-229.801 -343.547 -229.078 -344.84 -229.43 -346.083C-229.782 -347.326 -231.075 -348.048 -232.318 -347.696C-233.561 -347.345 -234.283 -346.052 -233.931 -344.809C-233.58 -343.566 -232.287 -342.844 -231.044 -343.196ZM-230.15 -340.039C-233.137 -339.194 -236.243 -340.929 -237.089 -343.915C-237.934 -346.902 -236.198 -350.008 -233.211 -350.853C-230.224 -351.699 -227.118 -349.963 -226.273 -346.977C-225.427 -343.99 -227.164 -340.884 -230.15 -340.039Z" fill="#3BF3FF"/>
<path d="M-165.891 -385.601C-164.022 -386.129 -162.936 -388.072 -163.465 -389.94C-163.994 -391.808 -165.937 -392.894 -167.805 -392.365C-169.674 -391.837 -170.76 -389.894 -170.231 -388.026C-169.702 -386.158 -167.759 -385.072 -165.891 -385.601ZM-164.997 -382.444C-168.609 -381.421 -172.366 -383.52 -173.388 -387.132C-174.41 -390.744 -172.311 -394.5 -168.699 -395.522C-165.087 -396.545 -161.33 -394.446 -160.308 -390.834C-159.286 -387.222 -161.385 -383.466 -164.997 -382.444Z" fill="#3BF3FF"/>
<path d="M-179.661 -380.325C-178.81 -380.566 -178.316 -381.45 -178.556 -382.301C-178.797 -383.152 -179.682 -383.646 -180.533 -383.405C-181.383 -383.164 -181.878 -382.28 -181.637 -381.429C-181.396 -380.579 -180.512 -380.084 -179.661 -380.325ZM-178.767 -377.168C-181.362 -376.434 -184.06 -377.941 -184.795 -380.536C-185.529 -383.13 -184.021 -385.828 -181.426 -386.562C-178.832 -387.296 -176.133 -385.789 -175.399 -383.195C-174.665 -380.6 -176.173 -377.902 -178.767 -377.168Z" fill="#3BF3FF"/>
<path d="M-180.624 -318.891C-178.956 -319.363 -177.987 -321.098 -178.459 -322.765C-178.931 -324.433 -180.665 -325.402 -182.333 -324.93C-184.001 -324.458 -184.97 -322.723 -184.498 -321.056C-184.026 -319.388 -182.291 -318.419 -180.624 -318.891ZM-179.73 -315.734C-183.142 -314.769 -186.69 -316.751 -187.656 -320.162C-188.621 -323.573 -186.638 -327.121 -183.226 -328.087C-179.815 -329.052 -176.267 -327.07 -175.301 -323.659C-174.336 -320.248 -176.319 -316.7 -179.73 -315.734Z" fill="#3BF3FF"/>
<path d="M-151.727 -313.133C-150.067 -313.603 -149.102 -315.33 -149.571 -316.99C-150.041 -318.65 -151.768 -319.615 -153.428 -319.145C-155.089 -318.675 -156.054 -316.948 -155.584 -315.288C-155.114 -313.628 -153.387 -312.663 -151.727 -313.133ZM-150.833 -309.976C-154.238 -309.013 -157.778 -310.991 -158.741 -314.394C-159.704 -317.798 -157.726 -321.338 -154.322 -322.302C-150.918 -323.265 -147.377 -321.287 -146.414 -317.883C-145.451 -314.48 -147.429 -310.939 -150.833 -309.976Z" fill="#3BF3FF"/>
<path d="M-124.227 -340.997C-122.331 -341.533 -121.229 -343.505 -121.766 -345.401C-122.302 -347.296 -124.274 -348.397 -126.169 -347.861C-128.065 -347.325 -129.167 -345.353 -128.631 -343.458C-128.094 -341.562 -126.122 -340.46 -124.227 -340.997ZM-123.333 -337.84C-126.973 -336.81 -130.758 -338.925 -131.788 -342.564C-132.818 -346.203 -130.702 -349.988 -127.063 -351.018C-123.423 -352.048 -119.638 -349.933 -118.608 -346.294C-117.578 -342.655 -119.694 -338.87 -123.333 -337.84Z" fill="#3BF3FF"/>
<path d="M-146.333 -378.851C-144.921 -379.25 -144.101 -380.718 -144.5 -382.129C-144.9 -383.54 -146.367 -384.36 -147.779 -383.961C-149.19 -383.561 -150.01 -382.094 -149.611 -380.683C-149.211 -379.272 -147.744 -378.452 -146.333 -378.851ZM-145.439 -375.694C-148.594 -374.801 -151.875 -376.635 -152.768 -379.789C-153.661 -382.944 -151.827 -386.225 -148.672 -387.118C-145.517 -388.01 -142.236 -386.177 -141.343 -383.022C-140.45 -379.868 -142.284 -376.587 -145.439 -375.694Z" fill="#3BF3FF"/>
<path d="M-128.941 -396.058C-127.072 -396.587 -125.986 -398.53 -126.515 -400.398C-127.044 -402.266 -128.987 -403.351 -130.855 -402.823C-132.724 -402.294 -133.81 -400.351 -133.281 -398.483C-132.752 -396.615 -130.809 -395.529 -128.941 -396.058ZM-128.047 -392.901C-131.659 -391.879 -135.416 -393.978 -136.438 -397.589C-137.46 -401.201 -135.361 -404.957 -131.749 -405.98C-128.137 -407.002 -124.38 -404.903 -123.358 -401.291C-122.336 -397.68 -124.435 -393.923 -128.047 -392.901Z" fill="#3BF3FF"/>
<path d="M-106.498 -405.222C-103.799 -405.986 -102.23 -408.793 -102.994 -411.492C-103.758 -414.191 -106.565 -415.759 -109.264 -414.995C-111.963 -414.231 -113.532 -411.424 -112.768 -408.726C-112.005 -406.027 -109.198 -404.459 -106.498 -405.222ZM-105.605 -402.066C-110.048 -400.808 -114.669 -403.39 -115.926 -407.832C-117.183 -412.274 -114.601 -416.895 -110.158 -418.152C-105.715 -419.41 -101.094 -416.828 -99.8369 -412.386C-98.5797 -407.943 -101.162 -403.323 -105.605 -402.066Z" fill="#3BF3FF"/>
<path d="M-87.589 -412.523C-85.8864 -413.004 -84.8967 -414.775 -85.3785 -416.477C-85.8603 -418.18 -87.6312 -419.169 -89.3338 -418.687C-91.0365 -418.206 -92.0261 -416.435 -91.5443 -414.732C-91.0625 -413.03 -89.2917 -412.041 -87.589 -412.523ZM-86.6956 -409.366C-90.142 -408.39 -93.7264 -410.393 -94.7017 -413.839C-95.6769 -417.285 -93.6736 -420.869 -90.2273 -421.844C-86.7809 -422.82 -83.1964 -420.817 -82.2212 -417.371C-81.2459 -413.925 -83.2492 -410.341 -86.6956 -409.366Z" fill="#3BF3FF"/>
<path d="M-35.0063 -364.034C-32.8092 -364.655 -31.5322 -366.94 -32.1539 -369.137C-32.7757 -371.334 -35.0607 -372.611 -37.2578 -371.989C-39.4549 -371.367 -40.7322 -369.082 -40.1105 -366.885C-39.4888 -364.689 -37.2034 -363.412 -35.0063 -364.034ZM-34.1129 -360.877C-38.0538 -359.761 -42.1527 -362.052 -43.2678 -365.992C-44.383 -369.932 -42.0921 -374.031 -38.1513 -375.146C-34.2104 -376.261 -30.1118 -373.971 -28.9966 -370.031C-27.8814 -366.091 -30.172 -361.992 -34.1129 -360.877Z" fill="#3BF3FF"/>
<path d="M-48.2666 -347.368C-46.8418 -347.771 -46.0134 -349.253 -46.4166 -350.677C-46.8198 -352.102 -48.3019 -352.93 -49.7268 -352.527C-51.1516 -352.123 -51.9798 -350.642 -51.5766 -349.217C-51.1733 -347.792 -49.6915 -346.964 -48.2666 -347.368ZM-47.3732 -344.211C-50.5418 -343.314 -53.8372 -345.155 -54.7339 -348.323C-55.6305 -351.492 -53.7888 -354.787 -50.6202 -355.684C-47.4516 -356.58 -44.1559 -354.739 -43.2592 -351.571C-42.3626 -348.403 -44.2046 -345.107 -47.3732 -344.211Z" fill="#3BF3FF"/>
<path d="M-29.8025 -322.906C-26.5229 -323.834 -24.6167 -327.245 -25.5447 -330.524C-26.4727 -333.803 -29.8836 -335.709 -33.1631 -334.781C-36.4426 -333.853 -38.3489 -330.442 -37.4209 -327.163C-36.4928 -323.884 -33.082 -321.978 -29.8025 -322.906ZM-28.909 -319.749C-33.9323 -318.328 -39.1568 -321.247 -40.5782 -326.269C-41.9996 -331.292 -39.0798 -336.516 -34.0565 -337.938C-29.0333 -339.359 -23.8088 -336.44 -22.3873 -331.418C-20.9659 -326.395 -23.8858 -321.171 -28.909 -319.749Z" fill="#3BF3FF"/>
<path d="M8.23168 -392.596C10.1722 -393.145 11.3002 -395.163 10.7511 -397.104C10.202 -399.044 8.18366 -400.172 6.24312 -399.622C4.30258 -399.073 3.17459 -397.055 3.72371 -395.115C4.27284 -393.174 6.29114 -392.047 8.23168 -392.596ZM9.12512 -389.439C5.44083 -388.396 1.60893 -390.537 0.566362 -394.221C-0.476196 -397.905 1.66538 -401.737 5.34967 -402.779C9.03397 -403.822 12.8659 -401.681 13.9084 -397.997C14.951 -394.313 12.8094 -390.482 9.12512 -389.439Z" fill="#3BF3FF"/>
<path d="M127.713 -10.7777C128.686 -11.053 129.251 -12.0648 128.976 -13.0374C128.701 -14.0099 127.689 -14.5752 126.716 -14.2999C125.744 -14.0246 125.178 -13.013 125.453 -12.0404C125.729 -11.0678 126.74 -10.5024 127.713 -10.7777ZM128.607 -7.62079C125.89 -6.85198 123.065 -8.4307 122.296 -11.1468C121.527 -13.8629 123.106 -16.688 125.823 -17.4568C128.539 -18.2256 131.365 -16.647 132.133 -13.9309C132.902 -11.2148 131.323 -8.38965 128.607 -7.62079Z" fill="#3BF3FF"/>
<path d="M-23.4042 -210.407C-21.7303 -210.881 -20.7571 -212.622 -21.2307 -214.296C-21.7044 -215.969 -23.4456 -216.942 -25.1196 -216.468C-26.7936 -215.995 -27.7665 -214.254 -27.2928 -212.58C-26.8191 -210.906 -25.0782 -209.933 -23.4042 -210.407ZM-22.5108 -207.25C-25.9285 -206.283 -29.483 -208.269 -30.4502 -211.686C-31.4173 -215.104 -29.4308 -218.658 -26.0131 -219.625C-22.5953 -220.593 -19.0405 -218.606 -18.0734 -215.189C-17.1063 -211.772 -19.0931 -208.218 -22.5108 -207.25Z" fill="#3BF3FF"/>
<path d="M-19.11 -194.846C-17.436 -195.32 -16.4629 -197.061 -16.9365 -198.735C-17.4102 -200.409 -19.1514 -201.381 -20.8254 -200.908C-22.4993 -200.434 -23.4723 -198.693 -22.9986 -197.019C-22.5248 -195.346 -20.7839 -194.373 -19.11 -194.846ZM-18.2165 -191.69C-21.6342 -190.722 -25.1887 -192.708 -26.1559 -196.126C-27.123 -199.543 -25.1365 -203.097 -21.7188 -204.065C-18.3011 -205.032 -14.7463 -203.046 -13.7791 -199.628C-12.8121 -196.211 -14.7988 -192.657 -18.2165 -191.69Z" fill="#3BF3FF"/>
<path d="M-14.7984 -179.612C-13.1245 -180.086 -12.1514 -181.827 -12.625 -183.5C-13.0987 -185.174 -14.8399 -186.147 -16.5139 -185.673C-18.1878 -185.2 -19.1607 -183.459 -18.687 -181.785C-18.2133 -180.111 -16.4724 -179.138 -14.7984 -179.612ZM-13.905 -176.455C-17.3227 -175.488 -20.8772 -177.474 -21.8444 -180.891C-22.8115 -184.309 -20.825 -187.863 -17.4073 -188.83C-13.9895 -189.798 -10.4348 -187.811 -9.46763 -184.394C-8.50056 -180.977 -10.4873 -177.422 -13.905 -176.455Z" fill="#3BF3FF"/>
<path d="M34.1271 -58.2859L30.9697 -57.3924L21.2931 -91.5839L24.4504 -92.4775L34.1271 -58.2859Z" fill="#3BF3FF"/>
<path d="M26.811 -56.2154L23.6537 -55.3218L13.977 -89.5134L17.1344 -90.407L26.811 -56.2154Z" fill="#3BF3FF"/>
<path d="M19.4928 -54.1442L16.3354 -53.2507L6.65877 -87.4422L9.81611 -88.3358L19.4928 -54.1442Z" fill="#3BF3FF"/>
<path d="M12.1768 -52.0737L9.01941 -51.1801L-0.657245 -85.3717L2.5001 -86.2653L12.1768 -52.0737Z" fill="#3BF3FF"/>
<path d="M4.85848 -50.0025L1.70113 -49.109L-7.97552 -83.3005L-4.81817 -84.1941L4.85848 -50.0025Z" fill="#3BF3FF"/>
<path d="M-2.45755 -47.932L-5.6149 -47.0384L-15.2915 -81.23L-12.1342 -82.1236L-2.45755 -47.932Z" fill="#3BF3FF"/>
<path d="M-38.9539 -212.556L-61.1883 -206.263L-51.4476 -171.845L-57.2639 -180.632C-58.8532 -183.033 -60.4424 -185.433 -62.0316 -187.834C-62.1732 -188.048 -62.3147 -188.262 -62.4563 -188.475C-62.204 -187.036 -61.9519 -185.597 -61.6996 -184.158C-60.9944 -180.137 -60.2893 -176.115 -59.5844 -172.092L-57.8565 -162.232L-62.6414 -171.025C-64.5852 -174.596 -66.5297 -178.168 -68.4742 -181.74C-68.7224 -182.196 -68.9705 -182.652 -69.2187 -183.109C-69.1227 -182.616 -69.0267 -182.123 -68.9306 -181.63C-68.1559 -177.655 -67.3813 -173.681 -66.606 -169.706L-64.4141 -158.47L-69.6736 -168.638C-72.6002 -174.297 -75.526 -179.955 -78.4518 -185.614C-78.3713 -182.08 -78.2903 -178.545 -78.2111 -175.011L-81.4917 -174.937C-81.6239 -180.835 -81.7588 -186.734 -81.8932 -192.632L-82.0551 -199.729L-78.7955 -193.423C-76.5369 -189.053 -74.2768 -184.684 -72.0171 -180.315C-72.0618 -180.544 -72.1066 -180.773 -72.1513 -181.002C-72.9261 -184.977 -73.7009 -188.952 -74.4762 -192.926L-76.5151 -203.378L-71.4248 -194.024C-69.481 -190.452 -67.5365 -186.881 -65.5921 -183.309C-65.243 -182.668 -64.8939 -182.026 -64.5448 -181.385C-64.6738 -182.121 -64.8028 -182.856 -64.9318 -183.591C-65.637 -187.613 -66.3423 -191.635 -67.0472 -195.658L-68.4048 -203.406L-64.0628 -196.847C-62.823 -194.974 -61.5832 -193.101 -60.3435 -191.228L-65.2391 -208.526L-39.8473 -215.713L-38.9539 -212.556Z" fill="#3BF3FF"/>
<path d="M-23.9734 -74.7761L-39.2032 -70.4659L-52.9737 -119.123L-37.744 -123.433L-23.9734 -74.7761ZM-48.9229 -116.86L-36.9393 -74.5164L-28.0242 -77.0395L-40.0079 -119.383L-48.9229 -116.86Z" fill="#3BF3FF"/>
<path d="M-25.9068 -119.693L-32.6117 -117.796L-45.531 -163.445L-38.826 -165.342L-25.9068 -119.693ZM-41.4802 -161.181L-30.3478 -121.846L-29.9576 -121.957L-41.0899 -161.292L-41.4802 -161.181Z" fill="#3BF3FF"/>
<path d="M11.5843 -92.4163L-2.69818 -88.3742L-14.0858 -128.611L0.196691 -132.653L11.5843 -92.4163ZM-10.035 -126.348L-0.434281 -92.4247L7.53353 -94.6797L-2.06721 -128.603L-10.035 -126.348Z" fill="#3BF3FF"/>
</g>
</g>
<defs>
<clipPath id="clip0_1505_22763">
<rect width="262" height="297" fill="white" transform="translate(-10)"/>
</clipPath>
</defs>
</svg>
