<svg width="187" height="494" viewBox="0 0 187 494" fill="none" xmlns="http://www.w3.org/2000/svg">
<path d="M227.999 252.553L189.874 117.842L67.1294 152.581L105.254 287.292L227.999 252.553Z" fill="#7C7C7D" fill-opacity="0.4"/>
<path d="M223.87 263.989L221.882 256.964L218.163 258.017L220.151 265.041L223.87 263.989Z" fill="#3BF3FF"/>
<path d="M230.586 262.088L228.598 255.064L224.878 256.116L226.866 263.141L230.586 262.088Z" fill="#3BF3FF"/>
<path d="M213.383 266.957L211.395 259.932L207.675 260.985L209.663 268.009L213.383 266.957Z" fill="#3BF3FF"/>
<path d="M218.238 265.582L216.25 258.558L212.531 259.611L214.519 266.635L218.238 265.582Z" fill="#3BF3FF"/>
<path d="M200.623 270.568L198.635 263.544L194.916 264.596L196.904 271.62L200.623 270.568Z" fill="#3BF3FF"/>
<path d="M207.339 268.667L205.351 261.643L201.631 262.696L203.619 269.72L207.339 268.667Z" fill="#3BF3FF"/>
<path d="M189.257 273.785L187.269 266.76L183.549 267.813L185.537 274.837L189.257 273.785Z" fill="#3BF3FF"/>
<path d="M194.94 272.176L192.952 265.152L189.233 266.205L191.221 273.229L194.94 272.176Z" fill="#3BF3FF"/>
<path d="M176.858 277.294L174.87 270.269L171.151 271.322L173.139 278.346L176.858 277.294Z" fill="#3BF3FF"/>
<path d="M183.575 275.393L181.587 268.368L177.868 269.421L179.856 276.445L183.575 275.393Z" fill="#3BF3FF"/>
<path d="M164.21 280.873L162.222 273.849L158.503 274.901L160.491 281.926L164.21 280.873Z" fill="#3BF3FF"/>
<path d="M170.926 278.973L168.938 271.948L165.218 273.001L167.206 280.025L170.926 278.973Z" fill="#3BF3FF"/>
<path d="M150.778 284.675L148.79 277.65L145.071 278.703L147.059 285.727L150.778 284.675Z" fill="#3BF3FF"/>
<path d="M157.493 282.774L155.506 275.75L151.786 276.802L153.774 283.827L157.493 282.774Z" fill="#3BF3FF"/>
<path d="M139.162 287.962L137.174 280.938L133.455 281.99L135.443 289.015L139.162 287.962Z" fill="#3BF3FF"/>
<path d="M144.845 286.354L142.858 279.329L139.138 280.382L141.126 287.406L144.845 286.354Z" fill="#3BF3FF"/>
<path d="M126.764 291.471L124.776 284.447L121.056 285.499L123.044 292.524L126.764 291.471Z" fill="#3BF3FF"/>
<path d="M133.479 289.57L131.491 282.546L127.772 283.599L129.76 290.623L133.479 289.57Z" fill="#3BF3FF"/>
<path d="M114.04 295.072L112.052 288.048L108.332 289.1L110.32 296.125L114.04 295.072Z" fill="#3BF3FF"/>
<path d="M120.755 293.172L118.767 286.147L115.048 287.2L117.036 294.224L120.755 293.172Z" fill="#3BF3FF"/>
<path d="M203.164 128.921L196.138 130.91L197.191 134.629L204.216 132.64L203.164 128.921Z" fill="#3BF3FF"/>
<path d="M201.264 122.206L194.238 124.194L195.291 127.913L202.316 125.925L201.264 122.206Z" fill="#3BF3FF"/>
<path d="M206.132 139.407L199.106 141.395L200.159 145.114L207.184 143.126L206.132 139.407Z" fill="#3BF3FF"/>
<path d="M204.758 134.551L197.733 136.539L198.785 140.258L205.811 138.27L204.758 134.551Z" fill="#3BF3FF"/>
<path d="M209.742 152.165L202.717 154.153L203.769 157.873L210.794 155.884L209.742 152.165Z" fill="#3BF3FF"/>
<path d="M207.842 145.45L200.817 147.438L201.869 151.157L208.895 149.169L207.842 145.45Z" fill="#3BF3FF"/>
<path d="M212.959 163.529L205.934 165.517L206.986 169.236L214.012 167.248L212.959 163.529Z" fill="#3BF3FF"/>
<path d="M211.35 157.847L204.325 159.835L205.378 163.554L212.403 161.566L211.35 157.847Z" fill="#3BF3FF"/>
<path d="M216.467 175.925L209.442 177.914L210.495 181.633L217.52 179.644L216.467 175.925Z" fill="#3BF3FF"/>
<path d="M214.566 169.211L207.541 171.199L208.593 174.918L215.619 172.93L214.566 169.211Z" fill="#3BF3FF"/>
<path d="M220.046 188.573L213.021 190.561L214.073 194.28L221.098 192.292L220.046 188.573Z" fill="#3BF3FF"/>
<path d="M218.146 181.858L211.121 183.846L212.173 187.565L219.198 185.577L218.146 181.858Z" fill="#3BF3FF"/>
<path d="M223.847 202.003L216.822 203.991L217.874 207.71L224.9 205.722L223.847 202.003Z" fill="#3BF3FF"/>
<path d="M221.947 195.288L214.922 197.276L215.975 200.995L223 199.007L221.947 195.288Z" fill="#3BF3FF"/>
<path d="M227.134 213.617L220.109 215.605L221.161 219.324L228.187 217.336L227.134 213.617Z" fill="#3BF3FF"/>
<path d="M225.526 207.935L218.5 209.923L219.553 213.642L226.578 211.654L225.526 207.935Z" fill="#3BF3FF"/>
<path d="M230.643 226.013L223.617 228.002L224.67 231.721L231.695 229.732L230.643 226.013Z" fill="#3BF3FF"/>
<path d="M228.741 219.299L221.716 221.287L222.768 225.006L229.794 223.018L228.741 219.299Z" fill="#3BF3FF"/>
<path d="M234.243 238.736L227.218 240.724L228.27 244.443L235.296 242.455L234.243 238.736Z" fill="#3BF3FF"/>
<path d="M232.343 232.021L225.318 234.009L226.37 237.728L233.396 235.74L232.343 232.021Z" fill="#3BF3FF"/>
<path d="M68.5226 140.918L70.5106 147.942L74.2301 146.889L72.2422 139.865L68.5226 140.918Z" fill="#3BF3FF"/>
<path d="M61.8078 142.818L63.7957 149.842L67.5153 148.79L65.5273 141.765L61.8078 142.818Z" fill="#3BF3FF"/>
<path d="M79.0107 137.949L80.9987 144.974L84.7182 143.921L82.7302 136.897L79.0107 137.949Z" fill="#3BF3FF"/>
<path d="M74.1541 139.324L76.1421 146.348L79.8617 145.295L77.8737 138.271L74.1541 139.324Z" fill="#3BF3FF"/>
<path d="M91.7698 134.338L93.7578 141.363L97.4773 140.31L95.4893 133.286L91.7698 134.338Z" fill="#3BF3FF"/>
<path d="M85.055 136.239L87.0429 143.263L90.7625 142.21L88.7745 135.186L85.055 136.239Z" fill="#3BF3FF"/>
<path d="M103.136 131.122L105.124 138.146L108.843 137.093L106.855 130.069L103.136 131.122Z" fill="#3BF3FF"/>
<path d="M97.4535 132.73L99.4414 139.754L103.161 138.701L101.173 131.677L97.4535 132.73Z" fill="#3BF3FF"/>
<path d="M115.534 127.613L117.522 134.637L121.242 133.584L119.254 126.56L115.534 127.613Z" fill="#3BF3FF"/>
<path d="M108.818 129.514L110.806 136.538L114.525 135.485L112.537 128.461L108.818 129.514Z" fill="#3BF3FF"/>
<path d="M128.182 124.033L130.17 131.057L133.89 130.005L131.902 122.98L128.182 124.033Z" fill="#3BF3FF"/>
<path d="M121.468 125.933L123.456 132.958L127.175 131.905L125.187 124.881L121.468 125.933Z" fill="#3BF3FF"/>
<path d="M141.615 120.231L143.603 127.256L147.323 126.203L145.335 119.179L141.615 120.231Z" fill="#3BF3FF"/>
<path d="M134.899 122.132L136.887 129.157L140.606 128.104L138.618 121.08L134.899 122.132Z" fill="#3BF3FF"/>
<path d="M153.231 116.944L155.219 123.968L158.938 122.916L156.95 115.891L153.231 116.944Z" fill="#3BF3FF"/>
<path d="M147.547 118.553L149.535 125.577L153.255 124.524L151.267 117.5L147.547 118.553Z" fill="#3BF3FF"/>
<path d="M165.629 113.435L167.617 120.459L171.337 119.407L169.349 112.382L165.629 113.435Z" fill="#3BF3FF"/>
<path d="M158.913 115.336L160.901 122.36L164.621 121.308L162.633 114.283L158.913 115.336Z" fill="#3BF3FF"/>
<path d="M178.354 109.834L180.342 116.858L184.061 115.806L182.073 108.781L178.354 109.834Z" fill="#3BF3FF"/>
<path d="M171.637 111.735L173.625 118.759L177.345 117.706L175.357 110.682L171.637 111.735Z" fill="#3BF3FF"/>
<path d="M67.6836 171.497L60.6584 173.485L61.7109 177.204L68.7362 175.216L67.6836 171.497Z" fill="#3BF3FF"/>
<path d="M65.7822 164.782L58.7569 166.77L59.8094 170.489L66.8347 168.501L65.7822 164.782Z" fill="#3BF3FF"/>
<path d="M70.6502 181.982L63.6249 183.971L64.6774 187.69L71.7027 185.701L70.6502 181.982Z" fill="#3BF3FF"/>
<path d="M69.2766 177.127L62.2513 179.115L63.3038 182.834L70.3291 180.846L69.2766 177.127Z" fill="#3BF3FF"/>
<path d="M74.262 194.741L67.2367 196.729L68.2892 200.448L75.3145 198.46L74.262 194.741Z" fill="#3BF3FF"/>
<path d="M72.3605 188.026L65.3352 190.014L66.3878 193.733L73.4131 191.745L72.3605 188.026Z" fill="#3BF3FF"/>
<path d="M77.4776 206.104L70.4523 208.093L71.5048 211.812L78.5301 209.823L77.4776 206.104Z" fill="#3BF3FF"/>
<path d="M75.869 200.423L68.8437 202.411L69.8962 206.13L76.9215 204.142L75.869 200.423Z" fill="#3BF3FF"/>
<path d="M80.986 218.501L73.9607 220.489L75.0132 224.208L82.0386 222.22L80.986 218.501Z" fill="#3BF3FF"/>
<path d="M79.0861 211.786L72.0608 213.774L73.1133 217.493L80.1386 215.505L79.0861 211.786Z" fill="#3BF3FF"/>
<path d="M84.5644 231.149L77.5391 233.137L78.5916 236.856L85.6169 234.868L84.5644 231.149Z" fill="#3BF3FF"/>
<path d="M82.6645 224.434L75.6392 226.422L76.6917 230.141L83.717 228.153L82.6645 224.434Z" fill="#3BF3FF"/>
<path d="M88.3657 244.578L81.3404 246.567L82.3929 250.286L89.4182 248.297L88.3657 244.578Z" fill="#3BF3FF"/>
<path d="M86.4658 237.863L79.4405 239.852L80.493 243.571L87.5183 241.582L86.4658 237.863Z" fill="#3BF3FF"/>
<path d="M91.6527 256.192L84.6274 258.181L85.68 261.9L92.7053 259.911L91.6527 256.192Z" fill="#3BF3FF"/>
<path d="M90.0442 250.511L83.0189 252.499L84.0714 256.218L91.0967 254.23L90.0442 250.511Z" fill="#3BF3FF"/>
<path d="M95.1612 268.589L88.1359 270.577L89.1884 274.297L96.2137 272.308L95.1612 268.589Z" fill="#3BF3FF"/>
<path d="M93.2613 261.874L86.236 263.862L87.2885 267.581L94.3138 265.593L93.2613 261.874Z" fill="#3BF3FF"/>
<path d="M96.8618 274.597L89.8364 276.585L90.889 280.304L97.9143 278.316L96.8618 274.597Z" fill="#3BF3FF"/>
<path d="M276.949 363.01L274.775 363.612L265.188 328.945C262.033 317.539 258.879 306.132 255.724 294.726C249.51 291.169 243.296 287.612 237.083 284.055C230.735 280.421 224.387 276.787 218.039 273.154L217.629 272.919L217.509 272.462C217.026 270.627 216.544 268.792 216.062 266.957C215.58 265.122 215.098 263.287 214.616 261.453L216.797 260.879C217.279 262.714 217.761 264.549 218.243 266.384C218.685 268.066 219.127 269.749 219.57 271.431C225.781 274.987 231.992 278.543 238.203 282.098C244.551 285.732 250.899 289.366 257.247 293L257.65 293.23L276.949 363.01Z" fill="#3BF3FF"/>
<path d="M309.763 474.23L307.589 474.83L298.528 442.023C295.552 431.247 292.575 420.471 289.599 409.695C277.537 403.552 269.696 399.519 264.851 396.987C262.401 395.706 260.711 394.806 259.627 394.211C259.087 393.914 258.687 393.687 258.415 393.523C258.282 393.443 258.162 393.367 258.067 393.3C258.022 393.268 257.958 393.222 257.896 393.166C257.865 393.139 257.814 393.091 257.76 393.026C257.727 392.986 257.6 392.834 257.534 392.598L257.533 392.598C257.531 392.59 257.529 392.583 257.529 392.582C257.528 392.58 257.528 392.578 257.528 392.577L257.528 392.577C257.528 392.577 257.527 392.576 257.527 392.576C257.527 392.575 257.527 392.574 257.527 392.573C257.526 392.571 257.526 392.569 257.525 392.568C257.525 392.565 257.523 392.559 257.522 392.555C257.519 392.545 257.515 392.53 257.51 392.51C257.5 392.471 257.485 392.415 257.467 392.344C257.429 392.204 257.376 392.008 257.314 391.787C257.148 391.203 251.832 371.515 243.66 341.234C233.251 335.817 222.841 330.402 212.43 324.985L211.996 324.76L211.865 324.289C209.16 314.602 206.456 304.916 203.752 295.23C201.048 285.544 198.344 275.857 195.639 266.171L197.811 265.565C200.516 275.251 203.22 284.937 205.924 294.624C208.584 304.153 211.245 313.682 213.905 323.211C224.317 328.629 234.729 334.045 245.14 339.463L245.579 339.691L245.708 340.169C253.957 370.737 259.322 390.603 259.483 391.173C259.529 391.333 259.569 391.48 259.603 391.605C259.836 391.745 260.198 391.951 260.714 392.235C261.776 392.819 263.449 393.71 265.896 394.989C270.789 397.546 278.753 401.642 291.065 407.912L291.508 408.137L309.763 474.23Z" fill="#3BF3FF"/>
<path d="M263.928 466.45L228.235 344.264L201.687 330.127L184.248 268.507L186.418 267.893L203.596 328.589L230.134 342.72L266.093 465.818L263.928 466.45Z" fill="#3BF3FF"/>
<path d="M211.246 332.749L209.076 333.363L190.241 266.811L192.411 266.197L211.246 332.749Z" fill="#3BF3FF"/>
<path d="M227.651 390.715L225.481 391.329L212.2 344.401L198.46 336.858L179.73 270.678L181.9 270.064L200.373 335.336L214.113 342.879L227.651 390.715Z" fill="#3BF3FF"/>
<path d="M205.418 379.453L203.248 380.067L172.607 271.802L174.777 271.188L205.418 379.453Z" fill="#3BF3FF"/>
<path d="M194.72 363.735L192.551 364.349L166.822 273.439L168.992 272.825L194.72 363.735Z" fill="#3BF3FF"/>
<path d="M173.621 340.707L153.183 381.007L162.887 415.294L160.717 415.908L150.773 380.773L171.212 340.473L153.731 278.706L155.9 278.092L173.621 340.707Z" fill="#3BF3FF"/>
<path d="M178.066 437.379L188.54 474.386L186.37 475L175.637 437.075L208.862 379.72L210.813 380.85L178.066 437.379Z" fill="#3BF3FF"/>
<path d="M164.477 335.74L137.81 382.415L159.122 457.718L156.952 458.332L135.383 382.119L162.05 335.444L146.566 280.733L148.736 280.119L164.477 335.74Z" fill="#3BF3FF"/>
<path d="M180.165 473.186L177.995 473.8L169.926 445.287L149.945 432.529L151.159 430.628L171.862 443.848L180.165 473.186Z" fill="#3BF3FF"/>
<path d="M151.579 332.487L125.51 376.017L138.805 422.992L131.456 427.551C126.772 434.567 124.752 437.963 123.905 439.589C123.461 440.443 123.396 440.707 123.396 440.707C123.398 440.694 123.411 440.617 123.4 440.503C123.388 440.39 123.343 440.167 123.163 439.95C122.965 439.711 122.701 439.597 122.471 439.566C122.365 439.551 122.274 439.554 122.202 439.562C122.166 439.566 122.133 439.572 122.104 439.578C122.089 439.581 122.074 439.584 122.061 439.587C122.054 439.589 122.048 439.591 122.041 439.592C122.038 439.593 122.033 439.594 122.032 439.595C122.028 439.596 122.025 439.599 122.153 440.055L122.506 441.31C122.634 441.766 122.631 441.769 122.627 441.77C122.626 441.77 122.621 441.771 122.618 441.772C122.611 441.774 122.604 441.775 122.598 441.777C122.584 441.78 122.569 441.784 122.554 441.787C122.523 441.793 122.489 441.799 122.45 441.803C122.375 441.812 122.277 441.815 122.165 441.8C121.921 441.766 121.641 441.646 121.427 441.389C121.232 441.153 121.174 440.9 121.157 440.738C121.14 440.574 121.156 440.428 121.175 440.32C121.241 439.938 121.465 439.394 121.905 438.548C122.821 436.788 124.933 433.254 129.716 426.096L129.852 425.893L136.173 421.972L123.075 375.694L149.144 332.164L135.302 283.252L137.471 282.638L151.579 332.487Z" fill="#3BF3FF"/>
<path d="M130.165 419.476L119.764 422.42L119.15 420.251L129.551 417.307L130.165 419.476Z" fill="#3BF3FF"/>
<path d="M109.042 440.069L121.649 484.614L119.479 485.228L106.592 439.692L119.203 420.521L121.087 421.76L109.042 440.069Z" fill="#3BF3FF"/>
<path d="M135.175 321.582L104.353 373.152L112.562 402.161L110.393 402.775L101.918 372.831L132.741 321.26L122.971 286.742L125.141 286.127L135.175 321.582Z" fill="#3BF3FF"/>
<path d="M106.255 322.697L87.2779 328.068L77.7222 349.956L79.6003 356.592L77.4305 357.206L75.3327 349.793L85.6378 326.189L104.681 320.8L115.384 299.267L110.148 289.742L112.124 288.656L117.928 299.214L106.255 322.697Z" fill="#3BF3FF"/>
<path d="M269.808 428.475L267.638 429.089L263.506 414.489L265.676 413.875L269.808 428.475Z" fill="#3BF3FF"/>
<path d="M274.227 450.136L272.058 450.75L268.315 437.527L270.485 436.913L274.227 450.136Z" fill="#3BF3FF"/>
<path d="M255.014 269.605C255.059 269.768 255.132 269.873 255.157 269.908C255.188 269.952 255.213 269.978 255.217 269.982C255.226 269.991 255.212 269.976 255.158 269.934C255.055 269.852 254.885 269.732 254.641 269.573C254.158 269.258 253.464 268.841 252.619 268.352C250.932 267.377 248.698 266.15 246.461 264.944C244.227 263.739 241.999 262.559 240.329 261.681C239.549 261.27 238.891 260.926 238.412 260.675L234.917 265.501L233.091 264.178L237.727 257.776L238.59 258.225L238.07 259.225C238.573 258.258 238.589 258.226 238.59 258.225L238.591 258.225C238.591 258.226 238.592 258.226 238.593 258.227C238.595 258.228 238.599 258.229 238.603 258.232C238.612 258.236 238.625 258.243 238.642 258.252C238.675 258.269 238.726 258.295 238.791 258.329C238.922 258.397 239.113 258.497 239.357 258.625C239.845 258.88 240.542 259.245 241.379 259.685C243.053 260.566 245.288 261.75 247.532 262.96C249.773 264.169 252.031 265.408 253.747 266.4C254.603 266.894 255.338 267.335 255.873 267.684C256.137 267.857 256.374 268.02 256.556 268.164C256.646 268.235 256.746 268.319 256.835 268.411C256.882 268.46 257.092 268.67 257.183 268.991L255.014 269.605Z" fill="#3BF3FF"/>
<path d="M293.777 372.001L291.607 372.615L261.435 266.002L263.604 265.388L293.777 372.001Z" fill="#3BF3FF"/>
<path d="M264.477 261.116L231.252 241.507L232.398 239.566L265.623 259.175L264.477 261.116Z" fill="#3BF3FF"/>
<path d="M249.562 210.449L224.455 217.555L223.841 215.385L248.948 208.28L249.562 210.449Z" fill="#3BF3FF"/>
<path d="M325.956 323.247L323.786 323.861L292.419 213.031L251.57 190.085L219.268 199.226L218.654 197.057L251.857 187.66L294.336 211.521L325.956 323.247Z" fill="#3BF3FF"/>
<path d="M281.198 188.953L275.377 190.601L241.754 171.949L214.59 179.637L213.976 177.468L242.035 169.527L275.658 188.178L280.584 186.784L281.198 188.953Z" fill="#3BF3FF"/>
<path d="M273.985 178.254L241.12 158.739L210.28 167.467L209.666 165.298L241.438 156.306L270.276 173.429L261.57 142.669L207.34 157.142L206.759 154.964L263.135 139.918L273.985 178.254Z" fill="#3BF3FF"/>
<path d="M239.055 137.715L233.546 137.257L234.131 143.2L215.505 148.471L214.891 146.302L231.703 141.544L231.037 134.786L239.242 135.468L239.055 137.715Z" fill="#3BF3FF"/>
<path d="M202.094 138.485L201.45 136.325L256.3 119.965L256.944 122.125L202.094 138.485Z" fill="#3BF3FF"/>
<path d="M223.809 83.4053C223.806 83.4105 223.801 83.4182 223.796 83.4284C223.785 83.4489 223.768 83.4795 223.745 83.5198C223.701 83.6004 223.635 83.7199 223.549 83.8759C223.377 84.1879 223.125 84.6456 222.804 85.2283C222.161 86.3936 221.242 88.0591 220.137 90.0598C217.926 94.0611 214.97 99.4034 211.988 104.767C209.007 110.13 205.999 115.517 203.685 119.606C202.528 121.65 201.542 123.374 200.819 124.61C200.458 125.227 200.159 125.729 199.935 126.09C199.824 126.269 199.725 126.423 199.644 126.543C199.604 126.602 199.562 126.662 199.519 126.717C199.495 126.749 199.411 126.86 199.292 126.959L197.849 125.227C197.756 125.305 197.708 125.375 197.731 125.344C197.736 125.338 197.751 125.317 197.779 125.276C197.834 125.195 197.914 125.071 198.019 124.902C198.227 124.565 198.515 124.083 198.873 123.472C199.587 122.25 200.567 120.538 201.722 118.496C204.032 114.415 207.037 109.034 210.017 103.672C212.998 98.3105 215.953 92.97 218.163 88.9697C219.268 86.9696 220.187 85.3046 220.829 84.1397C221.15 83.5572 221.403 83.0997 221.574 82.7879C221.66 82.632 221.726 82.5125 221.771 82.432C221.793 82.3917 221.809 82.3612 221.821 82.3408C221.826 82.3306 221.831 82.3229 221.834 82.3177C221.835 82.3152 221.836 82.3132 221.837 82.3119C221.837 82.3113 221.837 82.3109 221.838 82.3105C221.839 82.3112 221.88 82.3334 222.825 82.8538C223.787 83.3831 223.812 83.3973 223.813 83.398L223.809 83.4053Z" fill="#3BF3FF"/>
<path d="M198.598 74.1403L180.241 105.661L182.287 112.497L180.127 113.144L177.8 105.371L196.168 73.8333L186.123 38.3431L188.293 37.729L198.598 74.1403Z" fill="#3BF3FF"/>
<path d="M187.157 68.2211L170.053 98.2797L175.304 116.834L173.134 117.449L167.626 97.9855L184.73 67.9267L171.41 20.8611L173.58 20.247L187.157 68.2211Z" fill="#3BF3FF"/>
<path d="M163.076 119.082L160.905 119.693C156.208 103.002 151.491 86.2458 146.794 69.5565L148.965 68.9458C153.674 85.6798 158.366 102.346 163.076 119.082Z" fill="#3BF3FF"/>
<path d="M156.672 117.866L154.502 118.48L142.632 76.539L144.802 75.9249L156.672 117.866Z" fill="#3BF3FF"/>
<path d="M150.279 119.694L148.1 120.274L135.954 74.69L130.037 76.3647L125.941 61.8921L67.2555 29.75L68.3389 27.7726L127.853 60.3686L131.592 73.5812L137.543 71.8969L150.279 119.694Z" fill="#3BF3FF"/>
<path d="M133.799 58.7301L131.629 59.3442L124.617 34.567L89.2257 13.2309L90.3901 11.2999L126.544 33.0959L133.799 58.7301Z" fill="#3BF3FF"/>
<path d="M141.642 33.9723L139.472 34.5863L137.076 26.1218L106.053 6.89645L107.241 4.98002L139.008 24.6661L141.642 33.9723Z" fill="#3BF3FF"/>
<path d="M131.625 124.955L129.456 125.569L114.383 72.3111L82.9154 55.4524L83.9805 53.4651L116.292 70.7759L131.625 124.955Z" fill="#3BF3FF"/>
<path d="M123.236 129.227L113.288 94.0894L74.4971 76.4067L75.4326 74.3551L115.174 92.4709L125.406 128.613L123.236 129.227Z" fill="#3BF3FF"/>
<path d="M112.758 132.193L110.588 132.807L101.871 102.005L67.2602 82.6305L68.3618 80.663L103.786 100.493L112.758 132.193Z" fill="#3BF3FF"/>
<path d="M106.577 132.044L104.408 132.658L97.3512 107.725L53.8514 86.1164L51.1425 76.5445L53.3122 75.9304L55.7492 84.5414L99.249 106.15L106.577 132.044Z" fill="#3BF3FF"/>
<path d="M101.391 135.409L99.2217 136.023L94.4559 119.184L96.6256 118.57L101.391 135.409Z" fill="#3BF3FF"/>
<path d="M89.7678 138.699L87.5981 139.313L85.3731 131.451L64.5743 124.005L60.63 110.068L43.7022 104.266L29.7985 58.7302L31.9552 58.0718L45.5228 102.506L62.4782 108.318L66.4279 122.273L87.2267 129.72L89.7678 138.699Z" fill="#3BF3FF"/>
<path d="M54.9576 36.035L39.1708 61.4812L40.6142 66.5813L38.4445 67.1953L36.7303 61.1383L52.517 35.692L49.5536 25.2211L51.7233 24.6071L54.9576 36.035Z" fill="#3BF3FF"/>
<path d="M71.9653 141.839L69.7956 142.453L67.2235 133.365L36.497 113.943L21.4119 60.641L29.1256 44.2922L31.165 45.2541L23.8116 60.8393L38.4317 112.498L69.1581 131.92L71.9653 141.839Z" fill="#3BF3FF"/>
<path d="M65.7583 143.596L63.5886 144.21L62.7754 141.337L32.9893 123.608L13.9012 59.3153L0.000116859 53.5313L9.93334 25.757L16.9373 52.3249L14.7568 52.8998L9.60702 33.3652L2.84499 52.2726L15.7578 57.6457L34.9003 122.121L64.7006 139.859L65.7583 143.596Z" fill="#3BF3FF"/>
<path d="M28.4239 127.607L26.2541 128.221L6.78226 59.419L8.952 58.8049L28.4239 127.607Z" fill="#3BF3FF"/>
<path d="M64.841 181.563L41.6099 188.137L27.1326 178.49L28.3831 176.614L41.996 185.685L64.227 179.393L64.841 181.563Z" fill="#3BF3FF"/>
<path d="M62.4247 165.732L60.255 166.346L55.3473 149.005L26.7352 137.036L27.6057 134.956L57.221 147.345L62.4247 165.732Z" fill="#3BF3FF"/>
<path d="M68.7514 192.227L40.0287 200.356L39.4148 198.187L68.1374 190.058L68.7514 192.227Z" fill="#3BF3FF"/>
<path d="M72.2599 204.624L41.0575 213.455L40.4435 211.285L71.6459 202.455L72.2599 204.624Z" fill="#3BF3FF"/>
<path d="M75.4758 215.987L56.279 221.42L45.6763 239.291L20.3214 245.256L19.805 243.062L44.2265 237.316L54.7989 219.496L74.8618 213.818L75.4758 215.987Z" fill="#3BF3FF"/>
<path d="M53.5848 237.031L52.8761 234.89L77.5679 226.714L78.2766 228.854L53.5848 237.031Z" fill="#3BF3FF"/>
<path d="M90.7259 273.025L69.5549 279.016L65.5822 288.638L48.2937 293.531L39.9697 305.558L38.1155 304.275L46.9004 291.582L63.9155 286.767L67.8881 277.145L90.1119 270.855L90.7259 273.025Z" fill="#3BF3FF"/>
<path d="M80.1295 235.583L52.6035 243.373L45.8248 252.544L34.7605 255.675L36.1349 260.532L27.1972 263.061L26.5832 260.892L33.3512 258.976L31.9768 254.12L44.4697 250.584L51.2483 241.414L79.5155 233.414L80.1295 235.583Z" fill="#3BF3FF"/>
<path d="M82.0298 242.298L54.5132 250.085L46.1951 261.702L39.8221 263.505L39.2081 261.336L44.8214 259.747L53.1393 248.131L81.4158 240.128L82.0298 242.298Z" fill="#3BF3FF"/>
<path d="M22.2182 273.805L21.5755 271.644L85.807 252.546L86.4496 254.707L22.2182 273.805Z" fill="#3BF3FF"/>
<path d="M90.5811 265.812L64.1547 273.291L57.4451 281.257L39.1627 285.628L30.4658 300.162L28.531 299.005L37.7151 283.656L56.1987 279.236L62.8754 271.31L89.9671 263.642L90.5811 265.812Z" fill="#3BF3FF"/>
<path d="M28.656 279.217L18.4925 278.069L13.9538 279.354L13.3398 277.184L18.3049 275.779L28.4318 276.923L86.5694 258.469L87.2515 260.618L28.656 279.217Z" fill="#3BF3FF"/>
<path d="M260.123 122.111C261.122 121.828 261.702 120.79 261.42 119.791C261.137 118.792 260.098 118.212 259.099 118.494C258.1 118.777 257.52 119.816 257.802 120.815C258.085 121.813 259.124 122.394 260.123 122.111ZM260.737 124.281C258.54 124.902 256.254 123.626 255.633 121.429C255.011 119.232 256.288 116.947 258.485 116.325C260.682 115.703 262.968 116.98 263.589 119.177C264.211 121.374 262.934 123.659 260.737 124.281Z" fill="#3BF3FF"/>
<path d="M244.43 139.042C246.063 138.58 247.011 136.882 246.549 135.25C246.088 133.618 244.39 132.67 242.758 133.131C241.125 133.593 240.177 135.291 240.639 136.923C241.1 138.555 242.798 139.503 244.43 139.042ZM245.044 141.211C242.214 142.012 239.27 140.367 238.469 137.537C237.668 134.707 239.313 131.763 242.144 130.962C244.974 130.161 247.918 131.806 248.719 134.636C249.52 137.466 247.875 140.41 245.044 141.211Z" fill="#3BF3FF"/>
<path d="M285.064 188.708C286.396 188.331 287.17 186.946 286.793 185.614C286.416 184.282 285.031 183.508 283.699 183.885C282.367 184.262 281.593 185.647 281.97 186.979C282.347 188.311 283.732 189.085 285.064 188.708ZM285.678 190.877C283.148 191.593 280.516 190.123 279.8 187.593C279.084 185.063 280.555 182.432 283.085 181.716C285.615 181 288.247 182.47 288.963 185C289.678 187.53 288.208 190.161 285.678 190.877Z" fill="#3BF3FF"/>
<path d="M253.476 211.313C255.084 210.858 256.018 209.187 255.563 207.579C255.108 205.972 253.436 205.038 251.829 205.493C250.221 205.948 249.287 207.62 249.742 209.227C250.197 210.834 251.869 211.768 253.476 211.313ZM254.09 213.483C251.284 214.277 248.366 212.646 247.572 209.841C246.778 207.036 248.409 204.118 251.215 203.324C254.021 202.529 256.939 204.16 257.733 206.965C258.527 209.771 256.896 212.689 254.09 213.483Z" fill="#3BF3FF"/>
<path d="M225.754 82.5137C227.136 82.1225 227.787 80.8681 227.504 79.8675C227.221 78.867 226.009 78.1401 224.627 78.5312C223.245 78.9224 222.593 80.1767 222.876 81.1773C223.16 82.1778 224.372 82.9049 225.754 82.5137ZM226.368 84.6831C223.996 85.3544 221.385 84.1884 220.707 81.7913C220.028 79.3943 221.641 77.0331 224.013 76.3618C226.385 75.6905 228.995 76.8565 229.674 79.2535C230.352 81.6505 228.74 84.0118 226.368 84.6831Z" fill="#3BF3FF"/>
<path d="M326.966 329.711C328.393 329.307 329.223 327.823 328.819 326.396C328.415 324.97 326.931 324.14 325.504 324.544C324.077 324.948 323.248 326.432 323.652 327.859C324.056 329.285 325.54 330.114 326.966 329.711ZM327.58 331.88C324.955 332.623 322.225 331.097 321.482 328.473C320.739 325.848 322.265 323.118 324.89 322.375C327.515 321.632 330.246 323.157 330.989 325.782C331.731 328.407 330.206 331.137 327.58 331.88Z" fill="#3BF3FF"/>
<path d="M293.86 376.831C294.992 376.511 295.649 375.334 295.329 374.202C295.009 373.071 293.832 372.413 292.701 372.734C291.569 373.054 290.911 374.231 291.231 375.362C291.552 376.493 292.729 377.151 293.86 376.831ZM294.474 379C292.144 379.66 289.721 378.306 289.062 375.976C288.402 373.647 289.757 371.224 292.087 370.564C294.416 369.905 296.84 371.259 297.499 373.588C298.158 375.918 296.804 378.341 294.474 379Z" fill="#3BF3FF"/>
<path d="M277.64 369.073C278.943 368.704 279.7 367.349 279.331 366.046C278.963 364.744 277.608 363.987 276.305 364.356C275.002 364.724 274.245 366.079 274.614 367.382C274.982 368.684 276.337 369.441 277.64 369.073ZM278.254 371.242C275.753 371.95 273.152 370.496 272.444 367.996C271.736 365.495 273.19 362.894 275.691 362.186C278.192 361.478 280.793 362.932 281.501 365.432C282.209 367.933 280.755 370.534 278.254 371.242Z" fill="#3BF3FF"/>
<path d="M270.475 263.564C271.005 263.414 271.313 262.863 271.163 262.334C271.013 261.804 270.462 261.496 269.932 261.646C269.402 261.796 269.094 262.347 269.244 262.877C269.394 263.406 269.945 263.714 270.475 263.564ZM271.089 265.734C269.361 266.223 267.564 265.218 267.075 263.491C266.586 261.763 267.59 259.966 269.318 259.476C271.046 258.987 272.844 259.992 273.333 261.72C273.822 263.447 272.817 265.245 271.089 265.734Z" fill="#3BF3FF"/>
<path d="M311.361 482.44C313.279 481.897 314.393 479.903 313.851 477.986C313.308 476.069 311.314 474.955 309.397 475.498C307.479 476.04 306.365 478.034 306.908 479.951C307.45 481.868 309.444 482.982 311.361 482.44ZM311.975 484.609C308.86 485.491 305.62 483.68 304.738 480.565C303.856 477.45 305.667 474.21 308.783 473.328C311.898 472.446 315.139 474.257 316.021 477.372C316.902 480.487 315.091 483.727 311.975 484.609Z" fill="#3BF3FF"/>
<path d="M267.468 472.357C268.938 471.942 269.792 470.413 269.376 468.944C268.96 467.474 267.432 466.62 265.962 467.036C264.492 467.452 263.638 468.98 264.054 470.45C264.47 471.919 265.998 472.773 267.468 472.357ZM268.082 474.527C265.414 475.282 262.639 473.732 261.884 471.064C261.129 468.396 262.68 465.622 265.348 464.867C268.016 464.112 270.791 465.662 271.546 468.33C272.301 470.997 270.75 473.772 268.082 474.527Z" fill="#3BF3FF"/>
<path d="M228.423 397.583C229.936 397.155 230.815 395.582 230.387 394.07C229.959 392.558 228.386 391.679 226.873 392.107C225.361 392.535 224.482 394.108 224.91 395.62C225.338 397.132 226.911 398.011 228.423 397.583ZM229.037 399.752C226.326 400.52 223.507 398.944 222.74 396.234C221.973 393.524 223.548 390.704 226.259 389.937C228.97 389.17 231.789 390.745 232.556 393.456C233.323 396.166 231.748 398.985 229.037 399.752Z" fill="#3BF3FF"/>
<path d="M195.083 369.156C196.538 368.744 197.384 367.231 196.972 365.776C196.56 364.321 195.047 363.476 193.592 363.887C192.137 364.299 191.291 365.812 191.703 367.267C192.114 368.722 193.628 369.568 195.083 369.156ZM195.697 371.325C193.043 372.076 190.284 370.534 189.533 367.881C188.782 365.228 190.324 362.469 192.978 361.718C195.631 360.967 198.391 362.509 199.142 365.162C199.893 367.815 198.35 370.574 195.697 371.325Z" fill="#3BF3FF"/>
<path d="M189.493 482.261C191.276 481.756 192.312 479.902 191.808 478.119C191.303 476.337 189.449 475.301 187.666 475.805C185.883 476.31 184.847 478.164 185.351 479.947C185.856 481.729 187.71 482.766 189.493 482.261ZM190.107 484.43C187.126 485.274 184.025 483.542 183.181 480.561C182.338 477.58 184.071 474.48 187.052 473.636C190.033 472.792 193.134 474.525 193.977 477.505C194.821 480.486 193.088 483.587 190.107 484.43Z" fill="#3BF3FF"/>
<path d="M212.667 380.358C213.466 380.131 213.93 379.301 213.704 378.502C213.478 377.704 212.648 377.24 211.849 377.466C211.05 377.692 210.586 378.522 210.812 379.321C211.038 380.119 211.869 380.583 212.667 380.358ZM213.281 382.527C211.284 383.092 209.208 381.932 208.642 379.935C208.077 377.938 209.238 375.862 211.235 375.296C213.232 374.731 215.309 375.892 215.874 377.888C216.439 379.885 215.278 381.962 213.281 382.527Z" fill="#3BF3FF"/>
<path d="M163.657 421.829C165.141 421.409 166.004 419.866 165.584 418.382C165.164 416.898 163.62 416.035 162.136 416.455C160.652 416.875 159.789 418.419 160.209 419.903C160.629 421.387 162.173 422.249 163.657 421.829ZM164.271 423.999C161.588 424.758 158.798 423.199 158.039 420.517C157.28 417.835 158.84 415.045 161.522 414.286C164.205 413.527 166.994 415.086 167.754 417.768C168.513 420.45 166.953 423.239 164.271 423.999Z" fill="#3BF3FF"/>
<path d="M179.05 477.462C179.763 477.26 180.178 476.519 179.976 475.806C179.774 475.093 179.032 474.679 178.32 474.88C177.607 475.082 177.192 475.824 177.394 476.537C177.596 477.249 178.337 477.664 179.05 477.462ZM179.664 479.631C177.753 480.172 175.765 479.062 175.224 477.151C174.683 475.24 175.794 473.252 177.706 472.711C179.617 472.17 181.605 473.281 182.146 475.192C182.686 477.103 181.575 479.091 179.664 479.631Z" fill="#3BF3FF"/>
<path d="M158.629 461.985C159.384 461.771 159.824 460.985 159.61 460.23C159.396 459.474 158.61 459.035 157.854 459.249C157.098 459.463 156.659 460.249 156.873 461.004C157.087 461.76 157.873 462.199 158.629 461.985ZM159.243 464.155C157.289 464.708 155.256 463.572 154.703 461.618C154.15 459.665 155.286 457.632 157.24 457.079C159.194 456.526 161.227 457.662 161.78 459.616C162.333 461.57 161.197 463.602 159.243 464.155Z" fill="#3BF3FF"/>
<path d="M144.515 449.922C145.502 449.643 146.075 448.617 145.796 447.63C145.517 446.643 144.49 446.07 143.503 446.349C142.517 446.628 141.943 447.655 142.222 448.641C142.501 449.628 143.528 450.202 144.515 449.922ZM145.129 452.092C142.944 452.71 140.671 451.44 140.052 449.255C139.434 447.07 140.704 444.798 142.889 444.179C145.075 443.561 147.347 444.831 147.966 447.016C148.584 449.201 147.314 451.473 145.129 452.092Z" fill="#3BF3FF"/>
<path d="M123.26 447.653C124.525 447.295 125.26 445.979 124.902 444.714C124.544 443.449 123.228 442.714 121.963 443.072C120.698 443.43 119.963 444.746 120.321 446.011C120.679 447.276 121.994 448.011 123.26 447.653ZM123.873 449.822C121.41 450.52 118.848 449.088 118.151 446.625C117.454 444.162 118.886 441.6 121.349 440.903C123.813 440.206 126.375 441.637 127.072 444.1C127.769 446.563 126.337 449.125 123.873 449.822Z" fill="#3BF3FF"/>
<path d="M122.921 490.782C124.361 490.374 125.199 488.876 124.791 487.435C124.384 485.995 122.885 485.158 121.445 485.566C120.004 485.973 119.167 487.471 119.574 488.912C119.982 490.352 121.48 491.189 122.921 490.782ZM123.535 492.951C120.896 493.698 118.151 492.164 117.405 489.526C116.658 486.887 118.192 484.143 120.831 483.396C123.47 482.649 126.214 484.183 126.961 486.821C127.708 489.46 126.174 492.204 123.535 492.951Z" fill="#3BF3FF"/>
<path d="M111.686 410.834C113.541 410.309 114.619 408.381 114.094 406.526C113.569 404.671 111.64 403.594 109.785 404.118C107.931 404.643 106.852 406.572 107.377 408.427C107.902 410.281 109.831 411.359 111.686 410.834ZM112.3 413.004C109.247 413.868 106.072 412.094 105.208 409.041C104.344 405.988 106.118 402.813 109.171 401.949C112.225 401.085 115.4 402.859 116.264 405.912C117.128 408.965 115.353 412.14 112.3 413.004Z" fill="#3BF3FF"/>
<path d="M80.9349 365.448C82.996 364.865 84.1941 362.721 83.6108 360.66C83.0276 358.6 80.8839 357.402 78.8228 357.985C76.7617 358.569 75.5637 360.712 76.1469 362.773C76.7301 364.834 78.8738 366.031 80.9349 365.448ZM81.5489 367.617C78.2895 368.54 74.8995 366.646 73.9772 363.387C73.0549 360.128 74.9494 356.738 78.2088 355.816C81.4683 354.893 84.8582 356.787 85.7806 360.046C86.7029 363.305 84.8083 366.695 81.5489 367.617Z" fill="#3BF3FF"/>
<path d="M28.5281 305.045C29.8573 304.669 30.63 303.286 30.2539 301.957C29.8778 300.628 28.4952 299.855 27.1659 300.232C25.8367 300.608 25.0641 301.99 25.4403 303.319C25.8164 304.648 27.1988 305.421 28.5281 305.045ZM29.142 307.214C26.6145 307.93 23.9858 306.461 23.2705 303.933C22.5553 301.406 24.0244 298.778 26.5519 298.062C29.0795 297.347 31.7084 298.816 32.4236 301.343C33.1388 303.87 31.6696 306.499 29.142 307.214Z" fill="#3BF3FF"/>
<path d="M10.5628 281.987C11.8116 281.634 12.5375 280.335 12.1841 279.087C11.8307 277.838 10.5319 277.112 9.28313 277.466C8.03433 277.819 7.30844 279.118 7.66182 280.366C8.0152 281.615 9.31399 282.341 10.5628 281.987ZM11.1768 284.157C8.72967 284.849 6.18456 283.427 5.49209 280.98C4.79962 278.534 6.22203 275.989 8.66916 275.296C11.1163 274.604 13.6614 276.026 14.3539 278.472C15.0463 280.919 13.6239 283.464 11.1768 284.157Z" fill="#3BF3FF"/>
<path d="M25.0275 262.818C26.1497 262.501 26.802 261.334 26.4845 260.212C26.1669 259.09 24.9998 258.438 23.8777 258.755C22.7556 259.073 22.1034 260.24 22.4209 261.362C22.7385 262.484 23.9054 263.136 25.0275 262.818ZM25.6415 264.988C23.3211 265.645 20.9078 264.296 20.2512 261.976C19.5946 259.656 20.9433 257.243 23.2637 256.586C25.5841 255.929 27.9976 257.278 28.6542 259.598C29.3108 261.918 27.962 264.331 25.6415 264.988Z" fill="#3BF3FF"/>
<path d="M23.9541 180.478C25.7233 179.977 26.7517 178.137 26.2511 176.368C25.7504 174.599 23.9103 173.571 22.1411 174.072C20.3719 174.572 19.3435 176.412 19.8441 178.181C20.3448 179.95 22.1849 180.978 23.9541 180.478ZM24.5681 182.647C21.6005 183.487 18.5142 181.762 17.6744 178.795C16.8347 175.828 18.5596 172.742 21.5271 171.902C24.4947 171.062 27.5811 172.787 28.4208 175.754C29.2605 178.721 27.5356 181.807 24.5681 182.647Z" fill="#3BF3FF"/>
<path d="M24.5661 139.019C26.3062 138.526 27.3177 136.717 26.8253 134.977C26.3329 133.237 24.523 132.226 22.7829 132.718C21.0428 133.211 20.0313 135.02 20.5237 136.76C21.0161 138.5 22.826 139.511 24.5661 139.019ZM25.1801 141.188C22.2417 142.02 19.1855 140.312 18.354 137.374C17.5225 134.436 19.2305 131.38 22.1689 130.549C25.1074 129.717 28.1635 131.425 28.995 134.363C29.8265 137.301 28.1185 140.357 25.1801 141.188Z" fill="#3BF3FF"/>
<path d="M38.481 215.441C39.723 215.089 40.4448 213.798 40.0934 212.556C39.7419 211.314 38.4502 210.592 37.2083 210.944C35.9664 211.295 35.2443 212.587 35.5957 213.829C35.9472 215.071 37.2391 215.792 38.481 215.441ZM39.095 217.61C36.6547 218.301 34.1165 216.883 33.426 214.443C32.7355 212.003 34.1541 209.465 36.5943 208.774C39.0346 208.084 41.5726 209.502 42.2631 211.942C42.9536 214.382 41.5352 216.92 39.095 217.61Z" fill="#3BF3FF"/>
<path d="M10.5871 25.4804C12.3084 24.9933 13.309 23.2033 12.8219 21.4822C12.3349 19.7612 10.5445 18.7609 8.82326 19.248C7.10201 19.7352 6.10156 21.5253 6.58864 23.2463C7.07573 24.9673 8.86587 25.9675 10.5871 25.4804ZM11.2011 27.6499C8.28153 28.4761 5.24509 26.7795 4.4189 23.8604C3.59273 20.9412 5.28972 17.9049 8.20928 17.0786C11.1289 16.2523 14.1655 17.949 14.9917 20.8682C15.8178 23.7873 14.1207 26.8236 11.2011 27.6499Z" fill="#3BF3FF"/>
<path d="M32.1577 43.1424C33.9073 42.6473 34.9243 40.8279 34.4293 39.0786C33.9342 37.3293 32.1145 36.3126 30.3649 36.8077C28.6154 37.3029 27.5986 39.1224 28.0936 40.8716C28.5887 42.6209 30.4083 43.6375 32.1577 43.1424ZM32.7717 45.3119C29.8239 46.1461 26.7581 44.4331 25.9239 41.4857C25.0897 38.5383 26.8032 35.4726 29.751 34.6383C32.6988 33.804 35.7648 35.5171 36.599 38.4645C37.4331 41.4119 35.7196 44.4776 32.7717 45.3119Z" fill="#3BF3FF"/>
<path d="M7.98322 54.217C8.83742 53.9752 9.33402 53.0869 9.09235 52.2328C8.85063 51.3787 7.9621 50.8822 7.10786 51.124C6.25368 51.3658 5.75721 52.2542 5.99893 53.1083C6.24068 53.9623 7.12904 54.4587 7.98322 54.217ZM8.59719 56.3864C6.54471 56.9672 4.41003 55.7745 3.82919 53.7223C3.24839 51.6701 4.44139 49.5355 6.49388 48.9545C8.54643 48.3736 10.6813 49.5665 11.2621 51.6187C11.8428 53.671 10.6497 55.8055 8.59719 56.3864Z" fill="#3BF3FF"/>
<path d="M52.7567 25.0762C54.0406 24.7128 54.7869 23.3776 54.4235 22.0938C54.0602 20.8101 52.7249 20.064 51.441 20.4274C50.1571 20.7907 49.4108 22.126 49.7741 23.4097C50.1374 24.6934 51.4727 25.4395 52.7567 25.0762ZM53.3706 27.2456C50.8884 27.9481 48.3068 26.5056 47.6044 24.0238C46.902 21.5419 48.3448 18.9604 50.827 18.2579C53.3092 17.5554 55.8909 18.9979 56.5933 21.4798C57.2957 23.9617 55.8528 26.5431 53.3706 27.2456Z" fill="#3BF3FF"/>
<path d="M43.2937 28.7016C43.8783 28.5362 44.2182 27.9282 44.0527 27.3437C43.8873 26.7592 43.2793 26.4194 42.6947 26.5849C42.1101 26.7503 41.7702 27.3583 41.9357 27.9428C42.1011 28.5274 42.7091 28.8671 43.2937 28.7016ZM43.9077 30.8711C42.1248 31.3757 40.2704 30.3396 39.7659 28.5569C39.2614 26.7742 40.2978 24.92 42.0807 24.4154C43.8636 23.9108 45.7179 24.947 46.2225 26.7296C46.727 28.5123 45.6906 30.3665 43.9077 30.8711Z" fill="#3BF3FF"/>
<path d="M42.6321 70.9192C43.7782 70.5948 44.4443 69.4028 44.12 68.2569C43.7957 67.111 42.6037 66.445 41.4576 66.7693C40.3116 67.0937 39.6453 68.2856 39.9696 69.4315C40.2939 70.5775 41.486 71.2436 42.6321 70.9192ZM43.2461 73.0886C40.9017 73.7521 38.4632 72.3897 37.7998 70.0456C37.1364 67.7015 38.4993 65.2634 40.8437 64.5999C43.188 63.9365 45.6263 65.2988 46.2897 67.6428C46.9531 69.9869 45.5905 72.4251 43.2461 73.0886Z" fill="#3BF3FF"/>
<path d="M62.4901 74.8761C63.631 74.5532 64.2942 73.3666 63.9714 72.2258C63.6485 71.085 62.4618 70.422 61.3209 70.7449C60.1799 71.0678 59.5167 72.2544 59.8395 73.3952C60.1624 74.536 61.3491 75.199 62.4901 74.8761ZM63.104 77.0456C60.7648 77.7076 58.3318 76.3482 57.6698 74.0093C57.0078 71.6703 58.3676 69.2375 60.7069 68.5754C63.0462 67.9134 65.4791 69.2728 66.1411 71.6118C66.803 73.9507 65.4433 76.3835 63.104 77.0456Z" fill="#3BF3FF"/>
<path d="M81.3883 55.7279C82.691 55.3592 83.4482 54.0043 83.0796 52.7018C82.7109 51.3993 81.3561 50.6423 80.0533 51.0109C78.7506 51.3796 77.9933 52.7344 78.3619 54.037C78.7305 55.3395 80.0856 56.0966 81.3883 55.7279ZM82.0023 57.8974C79.5013 58.6052 76.8999 57.1517 76.1922 54.651C75.4845 52.1503 76.9383 49.5493 79.4394 48.8415C81.9404 48.1337 84.5416 49.5871 85.2493 52.0877C85.9571 54.5884 84.5033 57.1895 82.0023 57.8974Z" fill="#3BF3FF"/>
<path d="M66.1971 29.7146C67.1669 29.4401 67.7306 28.4316 67.4562 27.4619C67.1818 26.4923 66.1731 25.9287 65.2033 26.2032C64.2336 26.4776 63.6699 27.4862 63.9443 28.4558C64.2187 29.4255 65.2274 29.989 66.1971 29.7146ZM66.8111 31.884C64.643 32.4976 62.3881 31.2377 61.7745 29.0699C61.161 26.9021 62.4213 24.6473 64.5894 24.0337C66.7574 23.4201 69.0124 24.6801 69.6259 26.8479C70.2394 29.0156 68.9792 31.2704 66.8111 31.884Z" fill="#3BF3FF"/>
<path d="M78.1488 17.8899C79.4327 17.5265 80.179 16.1913 79.8157 14.9075C79.4523 13.6238 78.117 12.8777 76.8331 13.2411C75.5492 13.6044 74.8029 14.9397 75.1662 16.2234C75.5295 17.5071 76.8649 18.2532 78.1488 17.8899ZM78.7627 20.0593C76.2805 20.7618 73.6989 19.3193 72.9965 16.8375C72.2941 14.3556 73.7369 11.7741 76.2191 11.0716C78.7013 10.3691 81.283 11.8116 81.9854 14.2935C82.6878 16.7754 81.245 19.3568 78.7627 20.0593Z" fill="#3BF3FF"/>
<path d="M93.5712 11.592C95.426 11.067 96.5042 9.13807 95.9793 7.28351C95.4544 5.42896 93.5253 4.3511 91.6705 4.87603C89.8157 5.40096 88.7376 7.32991 89.2624 9.18447C89.7873 11.039 91.7164 12.1169 93.5712 11.592ZM94.1852 13.7614C91.1321 14.6255 87.9566 12.8512 87.0927 9.79853C86.2288 6.74583 88.0034 3.57066 91.0565 2.70659C94.1097 1.84252 97.2851 3.61675 98.149 6.66944C99.013 9.72215 97.2383 12.8973 94.1852 13.7614Z" fill="#3BF3FF"/>
<path d="M106.566 6.57534C107.736 6.2442 108.416 5.02737 108.085 3.85747C107.754 2.68758 106.537 2.00764 105.367 2.33877C104.197 2.66992 103.517 3.88674 103.848 5.05665C104.179 6.22655 105.396 6.90649 106.566 6.57534ZM107.18 8.74478C104.811 9.41506 102.348 8.03876 101.678 5.67071C101.008 3.30266 102.384 0.839617 104.753 0.169336C107.121 -0.500939 109.584 0.875371 110.255 3.24341C110.925 5.61145 109.548 8.07449 107.18 8.74478Z" fill="#3BF3FF"/>
<path d="M142.701 39.8971C144.211 39.4698 145.088 37.8995 144.661 36.3898C144.234 34.8802 142.663 34.0028 141.154 34.4301C139.644 34.8574 138.766 36.4276 139.193 37.9373C139.62 39.4469 141.191 40.3244 142.701 39.8971ZM143.315 42.0665C140.607 42.833 137.79 41.2591 137.023 38.5513C136.257 35.8435 137.831 33.0271 140.54 32.2606C143.248 31.4942 146.064 33.068 146.831 35.7757C147.597 38.4835 146.023 41.3001 143.315 42.0665Z" fill="#3BF3FF"/>
<path d="M133.588 51.35C134.567 51.0729 135.137 50.0546 134.86 49.0756C134.583 48.0965 133.564 47.5274 132.585 47.8046C131.606 48.0817 131.037 49.1001 131.314 50.0791C131.591 51.0581 132.609 51.6271 133.588 51.35ZM134.202 53.5195C132.025 54.1357 129.76 52.8703 129.144 50.6932C128.528 48.516 129.793 46.2514 131.971 45.6351C134.148 45.0189 136.413 46.2843 137.029 48.4615C137.646 50.6387 136.38 52.9032 134.202 53.5195Z" fill="#3BF3FF"/>
<path d="M146.277 68.1599C148.531 67.5221 149.841 65.1783 149.203 62.9249C148.565 60.6716 146.221 59.3619 143.967 59.9997C141.714 60.6375 140.404 62.9813 141.042 65.2347C141.679 67.4881 144.023 68.7977 146.277 68.1599ZM146.891 70.3294C143.439 71.3063 139.849 69.3003 138.872 65.8488C137.895 62.3973 139.901 58.8072 143.353 57.8303C146.805 56.8533 150.396 58.8594 151.373 62.3109C152.349 65.7624 150.343 69.3524 146.891 70.3294Z" fill="#3BF3FF"/>
<path d="M172.414 20.2689C173.748 19.8915 174.523 18.5046 174.145 17.1713C173.768 15.8379 172.381 15.063 171.048 15.4404C169.714 15.8178 168.939 17.2047 169.316 18.538C169.694 19.8714 171.081 20.6463 172.414 20.2689ZM173.028 22.4384C170.496 23.1549 167.863 21.6836 167.146 19.1521C166.43 16.6206 167.902 13.9875 170.434 13.2709C172.965 12.5544 175.599 14.0257 176.315 16.5572C177.032 19.0887 175.56 21.7218 173.028 22.4384Z" fill="#3BF3FF"/>
<path d="M254.522 282.656C255.191 282.466 255.579 281.771 255.39 281.103C255.201 280.434 254.506 280.046 253.837 280.235C253.169 280.424 252.78 281.119 252.969 281.788C253.158 282.456 253.854 282.845 254.522 282.656ZM255.136 284.825C253.269 285.353 251.328 284.268 250.799 282.402C250.271 280.535 251.356 278.594 253.223 278.066C255.09 277.537 257.031 278.622 257.56 280.489C258.088 282.355 257.003 284.297 255.136 284.825Z" fill="#3BF3FF"/>
<path d="M150.674 145.47C151.824 145.144 152.493 143.948 152.167 142.797C151.842 141.647 150.645 140.979 149.495 141.304C148.345 141.63 147.676 142.826 148.002 143.976C148.327 145.127 149.523 145.795 150.674 145.47ZM151.288 147.639C148.939 148.304 146.496 146.939 145.832 144.591C145.167 142.242 146.532 139.8 148.881 139.135C151.23 138.47 153.673 139.835 154.337 142.183C155.002 144.532 153.636 146.974 151.288 147.639Z" fill="#3BF3FF"/>
<path d="M153.625 156.163C154.775 155.837 155.444 154.641 155.118 153.491C154.793 152.341 153.596 151.672 152.446 151.998C151.296 152.323 150.627 153.52 150.953 154.67C151.278 155.82 152.474 156.488 153.625 156.163ZM154.239 158.332C151.89 158.997 149.447 157.632 148.783 155.284C148.118 152.936 149.483 150.493 151.832 149.828C154.181 149.163 156.624 150.528 157.288 152.877C157.953 155.225 156.587 157.668 154.239 158.332Z" fill="#3BF3FF"/>
<path d="M156.588 166.632C157.738 166.306 158.407 165.11 158.081 163.96C157.756 162.81 156.559 162.141 155.409 162.467C154.259 162.792 153.59 163.989 153.915 165.139C154.241 166.289 155.437 166.958 156.588 166.632ZM157.202 168.801C154.853 169.466 152.41 168.101 151.746 165.753C151.081 163.405 152.446 160.962 154.795 160.297C157.144 159.633 159.586 160.997 160.251 163.346C160.916 165.694 159.55 168.137 157.202 168.801Z" fill="#3BF3FF"/>
<path d="M190.209 250.008L188.04 250.622L181.39 227.125L183.56 226.511L190.209 250.008Z" fill="#3BF3FF"/>
<path d="M185.182 251.431L183.012 252.045L176.362 228.548L178.532 227.934L185.182 251.431Z" fill="#3BF3FF"/>
<path d="M180.153 252.854L177.983 253.468L171.333 229.971L173.503 229.357L180.153 252.854Z" fill="#3BF3FF"/>
<path d="M175.125 254.277L172.955 254.891L166.306 231.394L168.475 230.78L175.125 254.277Z" fill="#3BF3FF"/>
<path d="M170.096 255.7L167.926 256.314L161.276 232.818L163.446 232.204L170.096 255.7Z" fill="#3BF3FF"/>
<path d="M165.068 257.123L162.899 257.737L156.249 234.241L158.419 233.626L165.068 257.123Z" fill="#3BF3FF"/>
<path d="M139.988 143.993L124.708 148.318L131.402 171.97L127.405 165.931C126.313 164.281 125.221 162.632 124.129 160.982C124.032 160.835 123.934 160.688 123.837 160.541C124.01 161.53 124.184 162.519 124.357 163.508C124.842 166.272 125.326 169.036 125.811 171.8L126.998 178.576L123.71 172.533C122.374 170.079 121.038 167.624 119.702 165.17C119.531 164.856 119.361 164.543 119.19 164.229C119.256 164.568 119.322 164.907 119.388 165.245C119.92 167.977 120.453 170.708 120.985 173.439L122.492 181.161L118.877 174.173C116.866 170.285 114.856 166.396 112.845 162.507C112.9 164.936 112.956 167.365 113.01 169.794L110.756 169.845C110.665 165.792 110.572 161.738 110.48 157.685L110.369 152.808L112.609 157.141C114.161 160.144 115.714 163.147 117.267 166.149C117.236 165.992 117.205 165.834 117.175 165.677C116.642 162.945 116.11 160.214 115.577 157.483L114.176 150.3L117.674 156.728C119.01 159.183 120.346 161.637 121.682 164.092C121.922 164.532 122.162 164.973 122.402 165.414C122.313 164.908 122.225 164.403 122.136 163.897C121.651 161.134 121.167 158.37 120.682 155.605L119.749 150.281L122.733 154.788C123.585 156.076 124.437 157.363 125.289 158.649L121.925 146.762L139.374 141.824L139.988 143.993Z" fill="#3BF3FF"/>
<path d="M150.283 238.676L139.817 241.638L130.354 208.2L140.819 205.238L150.283 238.676ZM133.137 209.756L141.372 238.854L147.499 237.12L139.264 208.022L133.137 209.756Z" fill="#3BF3FF"/>
<path d="M148.954 207.808L144.346 209.112L135.468 177.742L140.076 176.438L148.954 207.808ZM138.252 179.298L145.902 206.329L146.17 206.253L138.52 179.222L138.252 179.298Z" fill="#3BF3FF"/>
<path d="M174.718 226.553L164.903 229.331L157.077 201.68L166.892 198.902L174.718 226.553ZM159.861 203.235L166.459 226.547L171.934 224.998L165.337 201.686L159.861 203.235Z" fill="#3BF3FF"/>
</svg>
