<svg width="209" height="494" viewBox="0 0 209 494" fill="none" xmlns="http://www.w3.org/2000/svg">
<path d="M105.455 252.553L67.3296 117.842L-55.4155 152.581L-17.2906 287.292L105.455 252.553Z" fill="#7C7C7D" fill-opacity="0.4"/>
<path d="M101.325 263.989L99.3375 256.964L95.618 258.017L97.6059 265.041L101.325 263.989Z" fill="#3BF3FF"/>
<path d="M108.041 262.088L106.053 255.064L102.333 256.116L104.321 263.141L108.041 262.088Z" fill="#3BF3FF"/>
<path d="M90.8379 266.957L88.8499 259.932L85.1304 260.985L87.1183 268.009L90.8379 266.957Z" fill="#3BF3FF"/>
<path d="M95.6935 265.582L93.7055 258.558L89.9859 259.611L91.9739 266.635L95.6935 265.582Z" fill="#3BF3FF"/>
<path d="M78.0783 270.568L76.0903 263.544L72.3708 264.596L74.3587 271.62L78.0783 270.568Z" fill="#3BF3FF"/>
<path d="M84.7936 268.667L82.8057 261.643L79.0861 262.696L81.0741 269.72L84.7936 268.667Z" fill="#3BF3FF"/>
<path d="M66.712 273.785L64.724 266.76L61.0044 267.813L62.9924 274.837L66.712 273.785Z" fill="#3BF3FF"/>
<path d="M72.3951 272.176L70.4072 265.152L66.6876 266.205L68.6756 273.229L72.3951 272.176Z" fill="#3BF3FF"/>
<path d="M54.3135 277.294L52.3255 270.269L48.6059 271.322L50.5939 278.346L54.3135 277.294Z" fill="#3BF3FF"/>
<path d="M61.0303 275.393L59.0424 268.368L55.3228 269.421L57.3108 276.445L61.0303 275.393Z" fill="#3BF3FF"/>
<path d="M41.6655 280.873L39.6775 273.849L35.9579 274.901L37.9459 281.926L41.6655 280.873Z" fill="#3BF3FF"/>
<path d="M48.3808 278.973L46.3928 271.948L42.6733 273.001L44.6612 280.025L48.3808 278.973Z" fill="#3BF3FF"/>
<path d="M28.2332 284.675L26.2453 277.65L22.5257 278.703L24.5137 285.727L28.2332 284.675Z" fill="#3BF3FF"/>
<path d="M34.9486 282.774L32.9606 275.75L29.241 276.802L31.229 283.827L34.9486 282.774Z" fill="#3BF3FF"/>
<path d="M16.6174 287.962L14.6294 280.938L10.9099 281.99L12.8978 289.015L16.6174 287.962Z" fill="#3BF3FF"/>
<path d="M22.3006 286.354L20.3126 279.329L16.593 280.382L18.581 287.406L22.3006 286.354Z" fill="#3BF3FF"/>
<path d="M4.21889 291.471L2.23092 284.447L-1.48863 285.499L0.499336 292.524L4.21889 291.471Z" fill="#3BF3FF"/>
<path d="M10.9342 289.57L8.94624 282.546L5.2267 283.599L7.21467 290.623L10.9342 289.57Z" fill="#3BF3FF"/>
<path d="M-8.50506 295.072L-10.493 288.048L-14.2126 289.1L-12.2246 296.125L-8.50506 295.072Z" fill="#3BF3FF"/>
<path d="M-1.78974 293.172L-3.77771 286.147L-7.49725 287.2L-5.50928 294.224L-1.78974 293.172Z" fill="#3BF3FF"/>
<path d="M80.6186 128.921L73.5933 130.91L74.6459 134.629L81.6712 132.64L80.6186 128.921Z" fill="#3BF3FF"/>
<path d="M78.7187 122.206L71.6934 124.194L72.746 127.913L79.7713 125.925L78.7187 122.206Z" fill="#3BF3FF"/>
<path d="M83.5867 139.407L76.5614 141.395L77.614 145.114L84.6392 143.126L83.5867 139.407Z" fill="#3BF3FF"/>
<path d="M82.2131 134.551L75.1878 136.539L76.2403 140.258L83.2656 138.27L82.2131 134.551Z" fill="#3BF3FF"/>
<path d="M87.197 152.165L80.1717 154.153L81.2242 157.873L88.2495 155.884L87.197 152.165Z" fill="#3BF3FF"/>
<path d="M85.2971 145.45L78.2718 147.438L79.3243 151.157L86.3496 149.169L85.2971 145.45Z" fill="#3BF3FF"/>
<path d="M90.4141 163.529L83.3888 165.517L84.4413 169.236L91.4666 167.248L90.4141 163.529Z" fill="#3BF3FF"/>
<path d="M88.8055 157.847L81.7802 159.835L82.8328 163.554L89.8581 161.566L88.8055 157.847Z" fill="#3BF3FF"/>
<path d="M93.9225 175.925L86.8973 177.914L87.9498 181.633L94.9751 179.644L93.9225 175.925Z" fill="#3BF3FF"/>
<path d="M92.0211 169.211L84.9958 171.199L86.0483 174.918L93.0736 172.93L92.0211 169.211Z" fill="#3BF3FF"/>
<path d="M97.5009 188.573L90.4756 190.561L91.5281 194.28L98.5534 192.292L97.5009 188.573Z" fill="#3BF3FF"/>
<path d="M95.601 181.858L88.5757 183.846L89.6282 187.565L96.6536 185.577L95.601 181.858Z" fill="#3BF3FF"/>
<path d="M101.302 202.003L94.2769 203.991L95.3295 207.71L102.355 205.722L101.302 202.003Z" fill="#3BF3FF"/>
<path d="M99.4023 195.288L92.377 197.276L93.4296 200.995L100.455 199.007L99.4023 195.288Z" fill="#3BF3FF"/>
<path d="M104.589 213.617L97.564 215.605L98.6165 219.324L105.642 217.336L104.589 213.617Z" fill="#3BF3FF"/>
<path d="M102.981 207.935L95.9554 209.923L97.008 213.642L104.033 211.654L102.981 207.935Z" fill="#3BF3FF"/>
<path d="M108.098 226.013L101.072 228.002L102.125 231.721L109.15 229.732L108.098 226.013Z" fill="#3BF3FF"/>
<path d="M106.196 219.299L99.171 221.287L100.223 225.006L107.249 223.018L106.196 219.299Z" fill="#3BF3FF"/>
<path d="M111.698 238.736L104.673 240.724L105.725 244.443L112.751 242.455L111.698 238.736Z" fill="#3BF3FF"/>
<path d="M109.798 232.021L102.773 234.009L103.825 237.728L110.851 235.74L109.798 232.021Z" fill="#3BF3FF"/>
<path d="M-54.0223 140.918L-52.0343 147.942L-48.3148 146.889L-50.3028 139.865L-54.0223 140.918Z" fill="#3BF3FF"/>
<path d="M-60.7371 142.818L-58.7492 149.842L-55.0296 148.79L-57.0176 141.765L-60.7371 142.818Z" fill="#3BF3FF"/>
<path d="M-43.5342 137.949L-41.5463 144.974L-37.8267 143.921L-39.8147 136.897L-43.5342 137.949Z" fill="#3BF3FF"/>
<path d="M-48.3908 139.324L-46.4028 146.348L-42.6833 145.295L-44.6712 138.271L-48.3908 139.324Z" fill="#3BF3FF"/>
<path d="M-30.7751 134.338L-28.7871 141.363L-25.0676 140.31L-27.0556 133.286L-30.7751 134.338Z" fill="#3BF3FF"/>
<path d="M-37.49 136.239L-35.502 143.263L-31.7824 142.21L-33.7704 135.186L-37.49 136.239Z" fill="#3BF3FF"/>
<path d="M-19.4093 131.122L-17.4214 138.146L-13.7018 137.093L-15.6898 130.069L-19.4093 131.122Z" fill="#3BF3FF"/>
<path d="M-25.0915 132.73L-23.1035 139.754L-19.3839 138.701L-21.3719 131.677L-25.0915 132.73Z" fill="#3BF3FF"/>
<path d="M-7.01084 127.613L-5.02287 134.637L-1.30331 133.584L-3.29128 126.56L-7.01084 127.613Z" fill="#3BF3FF"/>
<path d="M-13.7272 129.514L-11.7392 136.538L-8.01968 135.485L-10.0076 128.461L-13.7272 129.514Z" fill="#3BF3FF"/>
<path d="M5.63757 124.033L7.62554 131.057L11.3451 130.005L9.35712 122.98L5.63757 124.033Z" fill="#3BF3FF"/>
<path d="M-1.07726 125.933L0.910707 132.958L4.63025 131.905L2.64228 124.881L-1.07726 125.933Z" fill="#3BF3FF"/>
<path d="M19.0703 120.231L21.0583 127.256L24.7778 126.203L22.7898 119.179L19.0703 120.231Z" fill="#3BF3FF"/>
<path d="M12.3539 122.132L14.3419 129.157L18.0614 128.104L16.0735 121.08L12.3539 122.132Z" fill="#3BF3FF"/>
<path d="M30.686 116.944L32.674 123.968L36.3935 122.916L34.4055 115.891L30.686 116.944Z" fill="#3BF3FF"/>
<path d="M25.0023 118.553L26.9903 125.577L30.7098 124.524L28.7219 117.5L25.0023 118.553Z" fill="#3BF3FF"/>
<path d="M43.0845 113.435L45.0725 120.459L48.792 119.407L46.804 112.382L43.0845 113.435Z" fill="#3BF3FF"/>
<path d="M36.3681 115.336L38.3561 122.36L42.0756 121.308L40.0876 114.283L36.3681 115.336Z" fill="#3BF3FF"/>
<path d="M55.8088 109.834L57.7967 116.858L61.5163 115.806L59.5283 108.781L55.8088 109.834Z" fill="#3BF3FF"/>
<path d="M49.0924 111.735L51.0803 118.759L54.7999 117.706L52.8119 110.682L49.0924 111.735Z" fill="#3BF3FF"/>
<path d="M-54.8613 171.497L-61.8866 173.485L-60.834 177.204L-53.8087 175.216L-54.8613 171.497Z" fill="#3BF3FF"/>
<path d="M-56.7627 164.782L-63.788 166.77L-62.7355 170.489L-55.7102 168.501L-56.7627 164.782Z" fill="#3BF3FF"/>
<path d="M-51.8948 181.982L-58.92 183.971L-57.8675 187.69L-50.8422 185.701L-51.8948 181.982Z" fill="#3BF3FF"/>
<path d="M-53.2683 177.127L-60.2937 179.115L-59.2411 182.834L-52.2158 180.846L-53.2683 177.127Z" fill="#3BF3FF"/>
<path d="M-48.2829 194.741L-55.3082 196.729L-54.2557 200.448L-47.2304 198.46L-48.2829 194.741Z" fill="#3BF3FF"/>
<path d="M-50.1844 188.026L-57.2097 190.014L-56.1571 193.733L-49.1319 191.745L-50.1844 188.026Z" fill="#3BF3FF"/>
<path d="M-45.0673 206.104L-52.0927 208.093L-51.0401 211.812L-44.0148 209.823L-45.0673 206.104Z" fill="#3BF3FF"/>
<path d="M-46.6759 200.423L-53.7012 202.411L-52.6487 206.13L-45.6234 204.142L-46.6759 200.423Z" fill="#3BF3FF"/>
<path d="M-41.5589 218.501L-48.5842 220.489L-47.5317 224.208L-40.5064 222.22L-41.5589 218.501Z" fill="#3BF3FF"/>
<path d="M-43.4588 211.786L-50.4841 213.774L-49.4316 217.493L-42.4063 215.505L-43.4588 211.786Z" fill="#3BF3FF"/>
<path d="M-37.9805 231.149L-45.0059 233.137L-43.9533 236.856L-36.928 234.868L-37.9805 231.149Z" fill="#3BF3FF"/>
<path d="M-39.8805 224.434L-46.9057 226.422L-45.8532 230.141L-38.8279 228.153L-39.8805 224.434Z" fill="#3BF3FF"/>
<path d="M-34.1792 244.578L-41.2045 246.567L-40.152 250.286L-33.1267 248.297L-34.1792 244.578Z" fill="#3BF3FF"/>
<path d="M-36.0791 237.863L-43.1044 239.852L-42.0519 243.571L-35.0266 241.582L-36.0791 237.863Z" fill="#3BF3FF"/>
<path d="M-30.8922 256.192L-37.9175 258.181L-36.865 261.9L-29.8396 259.911L-30.8922 256.192Z" fill="#3BF3FF"/>
<path d="M-32.5007 250.511L-39.526 252.499L-38.4735 256.218L-31.4482 254.23L-32.5007 250.511Z" fill="#3BF3FF"/>
<path d="M-27.3837 268.589L-34.409 270.577L-33.3565 274.297L-26.3312 272.308L-27.3837 268.589Z" fill="#3BF3FF"/>
<path d="M-29.2836 261.874L-36.3089 263.862L-35.2564 267.581L-28.2311 265.593L-29.2836 261.874Z" fill="#3BF3FF"/>
<path d="M-25.6832 274.597L-32.7085 276.585L-31.6559 280.304L-24.6306 278.316L-25.6832 274.597Z" fill="#3BF3FF"/>
<path d="M154.404 363.01L152.231 363.612L142.643 328.945C139.488 317.539 136.334 306.132 133.179 294.726C126.965 291.169 120.752 287.612 114.538 284.055C108.19 280.421 101.842 276.787 95.4942 273.154L95.0841 272.919L94.9639 272.462C94.4814 270.627 93.9994 268.792 93.5173 266.957C93.0353 265.122 92.5533 263.287 92.0708 261.453L94.2517 260.879C94.7343 262.714 95.2163 264.549 95.6983 266.384C96.1404 268.066 96.5825 269.749 97.0248 271.431C103.236 274.987 109.447 278.543 115.658 282.098C122.006 285.732 128.354 289.366 134.702 293L135.105 293.23L154.404 363.01Z" fill="#3BF3FF"/>
<path d="M187.218 474.23L185.044 474.83L175.983 442.023C173.007 431.247 170.03 420.471 167.054 409.695C154.992 403.552 147.151 399.519 142.307 396.987C139.856 395.706 138.166 394.806 137.082 394.211C136.543 393.914 136.142 393.687 135.871 393.523C135.737 393.443 135.617 393.367 135.522 393.3C135.477 393.268 135.414 393.222 135.351 393.166C135.32 393.139 135.269 393.091 135.215 393.026C135.182 392.986 135.056 392.834 134.989 392.598L134.988 392.598C134.986 392.59 134.984 392.583 134.984 392.582C134.984 392.58 134.983 392.578 134.983 392.577L134.983 392.577C134.983 392.577 134.982 392.576 134.982 392.576C134.982 392.575 134.982 392.574 134.982 392.573C134.981 392.571 134.981 392.569 134.98 392.568C134.98 392.565 134.978 392.559 134.977 392.555C134.974 392.545 134.97 392.53 134.965 392.51C134.955 392.471 134.941 392.415 134.922 392.344C134.884 392.204 134.831 392.008 134.769 391.787C134.604 391.203 129.287 371.515 121.115 341.234C110.706 335.817 100.296 330.402 89.8852 324.985L89.4512 324.76L89.3197 324.289C86.6152 314.602 83.9111 304.916 81.2071 295.23C78.503 285.544 75.7989 275.857 73.0945 266.171L75.2664 265.565C77.9708 275.251 80.6749 284.937 83.379 294.624C86.0393 304.153 88.6997 313.682 91.3603 323.211C101.772 328.629 112.185 334.045 122.595 339.463L123.034 339.691L123.163 340.169C131.413 370.737 136.777 390.603 136.938 391.173C136.984 391.333 137.024 391.48 137.058 391.605C137.291 391.745 137.653 391.951 138.169 392.235C139.231 392.819 140.904 393.71 143.351 394.989C148.244 397.546 156.208 401.642 168.52 407.912L168.963 408.137L187.218 474.23Z" fill="#3BF3FF"/>
<path d="M141.383 466.45L105.691 344.264L79.1424 330.127L61.7032 268.507L63.8729 267.893L81.0506 328.589L107.589 342.72L143.548 465.818L141.383 466.45Z" fill="#3BF3FF"/>
<path d="M88.7011 332.749L86.5314 333.363L67.6963 266.811L69.866 266.197L88.7011 332.749Z" fill="#3BF3FF"/>
<path d="M105.106 390.715L102.936 391.329L89.6552 344.401L75.915 336.858L57.1852 270.678L59.3549 270.064L77.8277 335.336L91.5679 342.879L105.106 390.715Z" fill="#3BF3FF"/>
<path d="M82.8728 379.453L80.7031 380.067L50.0625 271.802L52.2322 271.188L82.8728 379.453Z" fill="#3BF3FF"/>
<path d="M72.1756 363.735L70.0058 364.349L44.2771 273.439L46.4468 272.825L72.1756 363.735Z" fill="#3BF3FF"/>
<path d="M51.0765 340.707L30.6383 381.007L40.342 415.294L38.1722 415.908L28.2286 380.773L48.6668 340.473L31.1858 278.706L33.3555 278.092L51.0765 340.707Z" fill="#3BF3FF"/>
<path d="M55.5213 437.379L65.9948 474.386L63.8251 475L53.0918 437.075L86.3173 379.72L88.2685 380.85L55.5213 437.379Z" fill="#3BF3FF"/>
<path d="M41.9322 335.74L15.2652 382.415L36.5769 457.718L34.4072 458.332L12.8377 382.119L39.5047 335.444L24.021 280.733L26.1908 280.119L41.9322 335.74Z" fill="#3BF3FF"/>
<path d="M57.6203 473.186L55.4506 473.8L47.3808 445.287L27.4002 432.529L28.6141 430.628L49.3171 443.848L57.6203 473.186Z" fill="#3BF3FF"/>
<path d="M29.0345 332.487L2.96545 376.017L16.2598 422.992L8.91112 427.551C4.22751 434.567 2.20708 437.963 1.36034 439.589C0.91606 440.443 0.851221 440.707 0.851221 440.707C0.853418 440.694 0.866566 440.617 0.854584 440.503C0.842777 440.39 0.798005 440.167 0.61798 439.95C0.419767 439.711 0.156337 439.597 -0.0739352 439.566C-0.179437 439.551 -0.271349 439.554 -0.342514 439.562C-0.378786 439.566 -0.411901 439.572 -0.441417 439.578C-0.456245 439.581 -0.470443 439.584 -0.483877 439.587C-0.49058 439.589 -0.497132 439.591 -0.503529 439.592C-0.506703 439.593 -0.511529 439.594 -0.513108 439.595C-0.516573 439.596 -0.519567 439.599 -0.392061 440.055L-0.0386168 441.31C0.0889823 441.766 0.0858869 441.769 0.0824072 441.77C0.0808279 441.77 0.076046 441.771 0.072837 441.772C0.0663436 441.774 0.0595591 441.775 0.0526801 441.777C0.0389725 441.78 0.0244306 441.784 0.00906561 441.787C-0.0215845 441.793 -0.0563795 441.799 -0.0947189 441.803C-0.169987 441.812 -0.267656 441.815 -0.379903 441.8C-0.623687 441.766 -0.904349 441.646 -1.11781 441.389C-1.31304 441.153 -1.37102 440.9 -1.38804 440.738C-1.4052 440.574 -1.38918 440.428 -1.37039 440.32C-1.30382 439.938 -1.08008 439.394 -0.639759 438.548C0.276526 436.788 2.38759 433.254 7.17153 426.096L7.30718 425.893L13.6276 421.972L0.530523 375.694L26.5996 332.164L12.7567 283.252L14.9264 282.638L29.0345 332.487Z" fill="#3BF3FF"/>
<path d="M7.62001 419.476L-2.78084 422.42L-3.39482 420.251L7.00602 417.307L7.62001 419.476Z" fill="#3BF3FF"/>
<path d="M-13.5025 440.069L-0.895773 484.614L-3.06551 485.228L-15.9529 439.692L-3.34165 420.521L-1.45766 421.76L-13.5025 440.069Z" fill="#3BF3FF"/>
<path d="M12.6303 321.582L-18.1922 373.152L-9.98247 402.161L-12.1522 402.775L-20.6268 372.831L10.1957 321.26L0.426387 286.742L2.59613 286.127L12.6303 321.582Z" fill="#3BF3FF"/>
<path d="M-16.2897 322.697L-35.267 328.068L-44.8228 349.956L-42.9446 356.592L-45.1144 357.206L-47.2122 349.793L-36.9071 326.189L-17.8644 320.8L-7.16115 299.267L-12.3972 289.742L-10.4213 288.656L-4.61687 299.214L-16.2897 322.697Z" fill="#3BF3FF"/>
<path d="M147.263 428.475L145.093 429.089L140.961 414.489L143.131 413.875L147.263 428.475Z" fill="#3BF3FF"/>
<path d="M151.682 450.136L149.513 450.75L145.77 437.527L147.94 436.913L151.682 450.136Z" fill="#3BF3FF"/>
<path d="M132.469 269.605C132.515 269.768 132.587 269.873 132.612 269.908C132.643 269.952 132.668 269.978 132.672 269.982C132.681 269.991 132.667 269.976 132.614 269.934C132.51 269.852 132.34 269.732 132.096 269.573C131.613 269.258 130.919 268.841 130.074 268.352C128.387 267.377 126.153 266.15 123.916 264.944C121.682 263.739 119.454 262.559 117.784 261.681C117.004 261.27 116.347 260.926 115.867 260.675L112.373 265.501L110.546 264.178L115.182 257.776L116.045 258.225L115.525 259.225C116.028 258.258 116.045 258.226 116.045 258.225L116.046 258.225C116.046 258.226 116.047 258.226 116.048 258.227C116.05 258.228 116.054 258.229 116.058 258.232C116.067 258.236 116.08 258.243 116.097 258.252C116.13 258.269 116.181 258.295 116.246 258.329C116.377 258.397 116.568 258.497 116.812 258.625C117.3 258.88 117.997 259.245 118.834 259.685C120.508 260.566 122.743 261.75 124.987 262.96C127.228 264.169 129.486 265.408 131.202 266.4C132.058 266.894 132.793 267.335 133.328 267.684C133.592 267.857 133.829 268.02 134.012 268.164C134.101 268.235 134.201 268.319 134.29 268.411C134.337 268.46 134.547 268.67 134.638 268.991L132.469 269.605Z" fill="#3BF3FF"/>
<path d="M171.232 372.001L169.062 372.615L138.89 266.002L141.059 265.388L171.232 372.001Z" fill="#3BF3FF"/>
<path d="M141.932 261.116L108.707 241.507L109.853 239.566L143.078 259.175L141.932 261.116Z" fill="#3BF3FF"/>
<path d="M127.017 210.449L101.91 217.555L101.297 215.385L126.403 208.28L127.017 210.449Z" fill="#3BF3FF"/>
<path d="M203.411 323.247L201.241 323.861L169.875 213.031L129.025 190.085L96.7232 199.226L96.1092 197.057L129.312 187.66L171.791 211.521L203.411 323.247Z" fill="#3BF3FF"/>
<path d="M158.653 188.953L152.832 190.601L119.209 171.949L92.0447 179.637L91.4307 177.468L119.49 169.527L153.113 188.178L158.039 186.784L158.653 188.953Z" fill="#3BF3FF"/>
<path d="M151.44 178.254L118.575 158.739L87.735 167.467L87.1211 165.298L118.893 156.306L147.731 173.429L139.025 142.669L84.7954 157.142L84.214 154.964L140.59 139.918L151.44 178.254Z" fill="#3BF3FF"/>
<path d="M116.51 137.715L111.001 137.257L111.587 143.2L92.9601 148.471L92.3461 146.302L109.158 141.544L108.492 134.786L116.697 135.468L116.51 137.715Z" fill="#3BF3FF"/>
<path d="M79.5493 138.485L78.9048 136.325L133.755 119.965L134.399 122.125L79.5493 138.485Z" fill="#3BF3FF"/>
<path d="M101.264 83.4053C101.261 83.4105 101.256 83.4182 101.251 83.4284C101.24 83.4489 101.223 83.4795 101.201 83.5198C101.156 83.6004 101.09 83.7199 101.004 83.8759C100.832 84.1879 100.58 84.6456 100.259 85.2283C99.6161 86.3936 98.697 88.0591 97.5917 90.0598C95.381 94.0611 92.4249 99.4034 89.4432 104.767C86.4618 110.13 83.4538 115.517 81.1396 119.606C79.9829 121.65 78.9973 123.374 78.2744 124.61C77.9135 125.227 77.6142 125.729 77.3902 126.09C77.2789 126.269 77.1805 126.423 77.0994 126.543C77.0593 126.602 77.0166 126.662 76.9744 126.717C76.9503 126.749 76.8659 126.86 76.7471 126.959L75.3041 125.227C75.2108 125.305 75.1626 125.375 75.1857 125.344C75.1906 125.338 75.2059 125.317 75.234 125.276C75.2893 125.195 75.3687 125.071 75.4737 124.902C75.6824 124.565 75.9701 124.083 76.3279 123.472C77.0425 122.25 78.0217 120.538 79.177 118.496C81.4868 114.415 84.4917 109.034 87.4724 103.672C90.4528 98.3105 93.4079 92.97 95.618 88.9697C96.7231 86.9696 97.6418 85.3046 98.2843 84.1397C98.6055 83.5572 98.8576 83.0997 99.0295 82.7879C99.1154 82.632 99.1813 82.5125 99.2256 82.432C99.2478 82.3917 99.2646 82.3612 99.2758 82.3408C99.2814 82.3306 99.2857 82.3229 99.2886 82.3177C99.29 82.3152 99.291 82.3132 99.2917 82.3119C99.292 82.3113 99.2924 82.3109 99.2926 82.3105C99.2945 82.3112 99.3352 82.3334 100.28 82.8538C101.242 83.3831 101.267 83.3973 101.268 83.398L101.264 83.4053Z" fill="#3BF3FF"/>
<path d="M76.053 74.1403L57.6959 105.661L59.742 112.497L57.5817 113.144L55.2554 105.371L73.6226 73.8333L63.5784 38.3431L65.7482 37.729L76.053 74.1403Z" fill="#3BF3FF"/>
<path d="M64.612 68.2211L47.5076 98.2797L52.7588 116.834L50.5891 117.449L45.0808 97.9855L62.1852 67.9267L48.865 20.8611L51.0347 20.247L64.612 68.2211Z" fill="#3BF3FF"/>
<path d="M40.5306 119.082L38.36 119.693C33.6631 103.002 28.946 86.2458 24.2494 69.5565L26.4201 68.9458C31.1292 85.6798 35.821 102.346 40.5306 119.082Z" fill="#3BF3FF"/>
<path d="M34.1269 117.866L31.9572 118.48L20.0872 76.539L22.257 75.9249L34.1269 117.866Z" fill="#3BF3FF"/>
<path d="M27.7338 119.694L25.555 120.274L13.4091 74.69L7.49166 76.3647L3.39574 61.8921L-55.2895 29.75L-54.206 27.7726L5.30809 60.3686L9.04742 73.5812L14.9984 71.8969L27.7338 119.694Z" fill="#3BF3FF"/>
<path d="M11.2539 58.7301L9.08418 59.3442L2.07191 34.567L-33.3192 13.2309L-32.1548 11.2999L3.99912 33.0959L11.2539 58.7301Z" fill="#3BF3FF"/>
<path d="M19.0967 33.9723L16.927 34.5863L14.5314 26.1218L-16.4922 6.89645L-15.3043 4.98002L16.4629 24.6661L19.0967 33.9723Z" fill="#3BF3FF"/>
<path d="M9.0804 124.955L6.91066 125.569L-8.162 72.3111L-39.6296 55.4524L-38.5645 53.4651L-6.25295 70.7759L9.0804 124.955Z" fill="#3BF3FF"/>
<path d="M0.691133 129.227L-9.25643 94.0894L-48.0478 76.4067L-47.1124 74.3551L-7.37127 92.4709L2.86083 128.613L0.691133 129.227Z" fill="#3BF3FF"/>
<path d="M-9.78718 132.193L-11.9569 132.807L-20.6742 102.005L-55.2847 82.6305L-54.1831 80.663L-18.7586 100.493L-9.78718 132.193Z" fill="#3BF3FF"/>
<path d="M-15.9677 132.044L-18.1374 132.658L-25.1937 107.725L-68.6935 86.1164L-71.4025 76.5445L-69.2327 75.9304L-66.7957 84.5414L-23.2959 106.15L-15.9677 132.044Z" fill="#3BF3FF"/>
<path d="M-21.1535 135.409L-23.3232 136.023L-28.089 119.184L-25.9193 118.57L-21.1535 135.409Z" fill="#3BF3FF"/>
<path d="M-32.7771 138.699L-34.9468 139.313L-37.1719 131.451L-57.9706 124.005L-61.9149 110.068L-78.8427 104.266L-92.7465 58.7302L-90.5898 58.0718L-77.0222 102.506L-60.0667 108.318L-56.117 122.273L-35.3183 129.72L-32.7771 138.699Z" fill="#3BF3FF"/>
<path d="M-67.5873 36.035L-83.3741 61.4812L-81.9307 66.5813L-84.1004 67.1953L-85.8147 61.1383L-70.028 35.692L-72.9914 25.2211L-70.8216 24.6071L-67.5873 36.035Z" fill="#3BF3FF"/>
<path d="M-50.5796 141.839L-52.7493 142.453L-55.3215 133.365L-86.0479 113.943L-101.133 60.641L-93.4193 44.2922L-91.38 45.2541L-98.7334 60.8393L-84.1133 112.498L-53.3868 131.92L-50.5796 141.839Z" fill="#3BF3FF"/>
<path d="M-56.7866 143.596L-58.9563 144.21L-59.7695 141.337L-89.5556 123.608L-108.644 59.3153L-122.545 53.5313L-112.612 25.757L-105.608 52.3249L-107.788 52.8998L-112.938 33.3652L-119.7 52.2726L-106.787 57.6457L-87.6446 122.121L-57.8443 139.859L-56.7866 143.596Z" fill="#3BF3FF"/>
<path d="M-94.121 127.607L-96.2908 128.221L-115.763 59.419L-113.593 58.8049L-94.121 127.607Z" fill="#3BF3FF"/>
<path d="M-57.7039 181.563L-80.9351 188.137L-95.4124 178.49L-94.1618 176.614L-80.5489 185.685L-58.3179 179.393L-57.7039 181.563Z" fill="#3BF3FF"/>
<path d="M-60.1202 165.732L-62.29 166.346L-67.1976 149.005L-95.8097 137.036L-94.9392 134.956L-65.324 147.345L-60.1202 165.732Z" fill="#3BF3FF"/>
<path d="M-53.7935 192.227L-82.5162 200.356L-83.1302 198.187L-54.4075 190.058L-53.7935 192.227Z" fill="#3BF3FF"/>
<path d="M-50.2851 204.624L-81.4874 213.455L-82.1014 211.285L-50.899 202.455L-50.2851 204.624Z" fill="#3BF3FF"/>
<path d="M-47.0691 215.987L-66.2659 221.42L-76.8686 239.291L-102.224 245.256L-102.74 243.062L-78.3184 237.316L-67.7461 219.496L-47.6831 213.818L-47.0691 215.987Z" fill="#3BF3FF"/>
<path d="M-68.9601 237.031L-69.6688 234.89L-44.977 226.714L-44.2683 228.854L-68.9601 237.031Z" fill="#3BF3FF"/>
<path d="M-31.819 273.025L-52.99 279.016L-56.9627 288.638L-74.2513 293.531L-82.5752 305.558L-84.4295 304.275L-75.6445 291.582L-58.6294 286.767L-54.6568 277.145L-32.433 270.855L-31.819 273.025Z" fill="#3BF3FF"/>
<path d="M-42.4154 235.583L-69.9414 243.373L-76.7201 252.544L-87.7844 255.675L-86.41 260.532L-95.3477 263.061L-95.9617 260.892L-89.1937 258.976L-90.5681 254.12L-78.0752 250.584L-71.2967 241.414L-43.0294 233.414L-42.4154 235.583Z" fill="#3BF3FF"/>
<path d="M-40.5152 242.298L-68.0317 250.085L-76.3498 261.702L-82.7228 263.505L-83.3368 261.336L-77.7235 259.747L-69.4056 248.131L-41.1291 240.128L-40.5152 242.298Z" fill="#3BF3FF"/>
<path d="M-100.327 273.805L-100.969 271.644L-36.7379 252.546L-36.0953 254.707L-100.327 273.805Z" fill="#3BF3FF"/>
<path d="M-31.9638 265.812L-58.3902 273.291L-65.0999 281.257L-83.3823 285.628L-92.0791 300.162L-94.0139 299.005L-84.8298 283.656L-66.3462 279.236L-59.6695 271.31L-32.5778 263.642L-31.9638 265.812Z" fill="#3BF3FF"/>
<path d="M-93.8889 279.217L-104.052 278.069L-108.591 279.354L-109.205 277.184L-104.24 275.779L-94.1131 276.923L-35.9755 258.469L-35.2935 260.618L-93.8889 279.217Z" fill="#3BF3FF"/>
<path d="M137.578 122.111C138.577 121.828 139.157 120.79 138.875 119.791C138.592 118.792 137.553 118.212 136.554 118.494C135.555 118.777 134.975 119.816 135.258 120.815C135.54 121.813 136.579 122.394 137.578 122.111ZM138.192 124.281C135.995 124.902 133.71 123.626 133.088 121.429C132.466 119.232 133.743 116.947 135.94 116.325C138.138 115.703 140.423 116.98 141.044 119.177C141.666 121.374 140.389 123.659 138.192 124.281Z" fill="#3BF3FF"/>
<path d="M121.885 139.042C123.518 138.58 124.466 136.882 124.005 135.25C123.543 133.618 121.845 132.67 120.213 133.131C118.58 133.593 117.632 135.291 118.094 136.923C118.556 138.555 120.253 139.503 121.885 139.042ZM122.499 141.211C119.669 142.012 116.725 140.367 115.924 137.537C115.123 134.707 116.768 131.763 119.599 130.962C122.429 130.161 125.373 131.806 126.174 134.636C126.975 137.466 125.33 140.41 122.499 141.211Z" fill="#3BF3FF"/>
<path d="M162.519 188.708C163.851 188.331 164.625 186.946 164.248 185.614C163.871 184.282 162.486 183.508 161.154 183.885C159.822 184.262 159.048 185.647 159.425 186.979C159.802 188.311 161.187 189.085 162.519 188.708ZM163.133 190.877C160.603 191.593 157.971 190.123 157.255 187.593C156.539 185.063 158.01 182.432 160.54 181.716C163.07 181 165.702 182.47 166.418 185C167.134 187.53 165.663 190.161 163.133 190.877Z" fill="#3BF3FF"/>
<path d="M130.931 211.313C132.539 210.858 133.473 209.187 133.018 207.579C132.563 205.972 130.891 205.038 129.284 205.493C127.677 205.948 126.742 207.62 127.197 209.227C127.652 210.834 129.324 211.768 130.931 211.313ZM131.545 213.483C128.739 214.277 125.821 212.646 125.027 209.841C124.233 207.036 125.864 204.118 128.67 203.324C131.476 202.529 134.394 204.16 135.188 206.965C135.982 209.771 134.351 212.689 131.545 213.483Z" fill="#3BF3FF"/>
<path d="M103.209 82.5137C104.591 82.1225 105.242 80.8681 104.959 79.8675C104.676 78.867 103.464 78.1401 102.082 78.5312C100.7 78.9224 100.048 80.1767 100.331 81.1773C100.615 82.1778 101.827 82.9049 103.209 82.5137ZM103.823 84.6831C101.451 85.3544 98.8401 84.1884 98.1617 81.7913C97.4834 79.3943 99.096 77.0331 101.468 76.3618C103.84 75.6905 106.451 76.8565 107.129 79.2535C107.807 81.6505 106.195 84.0118 103.823 84.6831Z" fill="#3BF3FF"/>
<path d="M204.421 329.711C205.848 329.307 206.678 327.823 206.274 326.396C205.87 324.97 204.386 324.14 202.959 324.544C201.532 324.948 200.703 326.432 201.107 327.859C201.511 329.285 202.995 330.114 204.421 329.711ZM205.035 331.88C202.41 332.623 199.68 331.097 198.937 328.473C198.194 325.848 199.72 323.118 202.345 322.375C204.971 321.632 207.701 323.157 208.444 325.782C209.187 328.407 207.661 331.137 205.035 331.88Z" fill="#3BF3FF"/>
<path d="M171.315 376.831C172.447 376.511 173.104 375.334 172.784 374.202C172.464 373.071 171.287 372.413 170.156 372.734C169.024 373.054 168.366 374.231 168.686 375.362C169.007 376.493 170.184 377.151 171.315 376.831ZM171.929 379C169.599 379.66 167.176 378.306 166.517 375.976C165.857 373.647 167.212 371.224 169.542 370.564C171.871 369.905 174.295 371.259 174.954 373.588C175.613 375.918 174.259 378.341 171.929 379Z" fill="#3BF3FF"/>
<path d="M155.095 369.073C156.398 368.704 157.155 367.349 156.786 366.046C156.418 364.744 155.063 363.987 153.76 364.356C152.457 364.724 151.7 366.079 152.069 367.382C152.437 368.684 153.792 369.441 155.095 369.073ZM155.709 371.242C153.208 371.95 150.607 370.496 149.899 367.996C149.191 365.495 150.645 362.894 153.146 362.186C155.647 361.478 158.248 362.932 158.956 365.432C159.664 367.933 158.21 370.534 155.709 371.242Z" fill="#3BF3FF"/>
<path d="M147.93 263.564C148.46 263.414 148.768 262.863 148.618 262.334C148.468 261.804 147.917 261.496 147.387 261.646C146.857 261.796 146.55 262.347 146.699 262.877C146.849 263.406 147.4 263.714 147.93 263.564ZM148.544 265.734C146.816 266.223 145.019 265.218 144.53 263.491C144.041 261.763 145.045 259.966 146.773 259.476C148.501 258.987 150.299 259.992 150.788 261.72C151.277 263.447 150.272 265.245 148.544 265.734Z" fill="#3BF3FF"/>
<path d="M188.817 482.44C190.734 481.897 191.848 479.903 191.306 477.986C190.763 476.069 188.769 474.955 186.852 475.498C184.935 476.04 183.82 478.034 184.363 479.951C184.905 481.868 186.899 482.982 188.817 482.44ZM189.431 484.609C186.315 485.491 183.075 483.68 182.193 480.565C181.311 477.45 183.122 474.21 186.238 473.328C189.353 472.446 192.594 474.257 193.476 477.372C194.357 480.487 192.546 483.727 189.431 484.609Z" fill="#3BF3FF"/>
<path d="M144.923 472.357C146.393 471.942 147.247 470.413 146.831 468.944C146.415 467.474 144.887 466.62 143.417 467.036C141.947 467.452 141.093 468.98 141.509 470.45C141.925 471.919 143.453 472.773 144.923 472.357ZM145.537 474.527C142.869 475.282 140.094 473.732 139.339 471.064C138.584 468.396 140.135 465.622 142.803 464.867C145.471 464.112 148.246 465.662 149.001 468.33C149.756 470.997 148.205 473.772 145.537 474.527Z" fill="#3BF3FF"/>
<path d="M105.878 397.583C107.391 397.155 108.27 395.582 107.842 394.07C107.414 392.558 105.841 391.679 104.328 392.107C102.816 392.535 101.937 394.108 102.365 395.62C102.793 397.132 104.366 398.011 105.878 397.583ZM106.492 399.752C103.781 400.52 100.962 398.944 100.195 396.234C99.4279 393.524 101.004 390.704 103.714 389.937C106.425 389.17 109.244 390.745 110.011 393.456C110.779 396.166 109.203 398.985 106.492 399.752Z" fill="#3BF3FF"/>
<path d="M72.5379 369.156C73.993 368.744 74.8388 367.231 74.4271 365.776C74.0153 364.321 72.5019 363.476 71.0468 363.887C69.5918 364.299 68.7459 365.812 69.1577 367.267C69.5695 368.722 71.0828 369.568 72.5379 369.156ZM73.1519 371.325C70.4985 372.076 67.7388 370.534 66.988 367.881C66.2371 365.228 67.7794 362.469 70.4329 361.718C73.0863 360.967 75.846 362.509 76.5968 365.162C77.3476 367.815 75.8053 370.574 73.1519 371.325Z" fill="#3BF3FF"/>
<path d="M66.9479 482.261C68.7308 481.756 69.7672 479.902 69.2627 478.119C68.7581 476.337 66.9038 475.301 65.1209 475.805C63.3379 476.31 62.3016 478.164 62.8061 479.947C63.3106 481.729 65.165 482.766 66.9479 482.261ZM67.5619 484.43C64.5807 485.274 61.48 483.542 60.6364 480.561C59.7928 477.58 61.5257 474.48 64.5069 473.636C67.4881 472.792 70.5888 474.525 71.4324 477.505C72.276 480.486 70.5431 483.587 67.5619 484.43Z" fill="#3BF3FF"/>
<path d="M90.1224 380.358C90.921 380.131 91.3852 379.301 91.1592 378.502C90.9333 377.704 90.1027 377.24 89.3041 377.466C88.5055 377.692 88.0413 378.522 88.2673 379.321C88.4933 380.119 89.3239 380.583 90.1224 380.358ZM90.7364 382.527C88.7395 383.092 86.6626 381.932 86.0975 379.935C85.5325 377.938 86.6932 375.862 88.6901 375.296C90.687 374.731 92.7639 375.892 93.329 377.888C93.894 379.885 92.7333 381.962 90.7364 382.527Z" fill="#3BF3FF"/>
<path d="M41.112 421.829C42.5962 421.409 43.4589 419.866 43.0389 418.382C42.6189 416.898 41.0752 416.035 39.5911 416.455C38.1069 416.875 37.2442 418.419 37.6642 419.903C38.0842 421.387 39.6278 422.249 41.112 421.829ZM41.7259 423.999C39.0435 424.758 36.2535 423.199 35.4944 420.517C34.7354 417.835 36.2946 415.045 38.9771 414.286C41.6596 413.527 44.4495 415.086 45.2086 417.768C45.9677 420.45 44.4084 423.239 41.7259 423.999Z" fill="#3BF3FF"/>
<path d="M56.5052 477.462C57.2182 477.26 57.6327 476.519 57.4309 475.806C57.2291 475.093 56.4876 474.679 55.7746 474.88C55.0616 475.082 54.6471 475.824 54.8489 476.537C55.0507 477.249 55.7922 477.664 56.5052 477.462ZM57.1192 479.631C55.2079 480.172 53.22 479.062 52.6792 477.151C52.1383 475.24 53.2493 473.252 55.1606 472.711C57.0719 472.17 59.0598 473.281 59.6006 475.192C60.1415 477.103 59.0305 479.091 57.1192 479.631Z" fill="#3BF3FF"/>
<path d="M36.0837 461.985C36.8395 461.771 37.2788 460.985 37.065 460.23C36.8511 459.474 36.065 459.035 35.3092 459.249C34.5534 459.463 34.1141 460.249 34.328 461.004C34.5418 461.76 35.3279 462.199 36.0837 461.985ZM36.6977 464.155C34.7436 464.708 32.7112 463.572 32.1582 461.618C31.6053 459.665 32.7412 457.632 34.6952 457.079C36.6494 456.526 38.6817 457.662 39.2347 459.616C39.7877 461.57 38.6518 463.602 36.6977 464.155Z" fill="#3BF3FF"/>
<path d="M21.9698 449.922C22.9567 449.643 23.5304 448.617 23.2511 447.63C22.9719 446.643 21.9454 446.07 20.9585 446.349C19.9716 446.628 19.3979 447.655 19.6772 448.641C19.9565 449.628 20.9829 450.202 21.9698 449.922ZM22.5838 452.092C20.3986 452.71 18.1258 451.44 17.5074 449.255C16.8891 447.07 18.1593 444.798 20.3445 444.179C22.5297 443.561 24.8025 444.831 25.4209 447.016C26.0392 449.201 24.769 451.473 22.5838 452.092Z" fill="#3BF3FF"/>
<path d="M0.71458 447.653C1.97964 447.295 2.71499 445.979 2.35704 444.714C1.99906 443.449 0.683252 442.714 -0.581819 443.072C-1.84688 443.43 -2.58228 444.746 -2.22429 446.011C-1.86629 447.276 -0.550484 448.011 0.71458 447.653ZM1.32856 449.822C-1.13482 450.52 -3.69694 449.088 -4.39403 446.625C-5.09111 444.162 -3.65917 441.6 -1.1958 440.903C1.26759 440.206 3.82971 441.637 4.52678 444.1C5.22382 446.563 3.79192 449.125 1.32856 449.822Z" fill="#3BF3FF"/>
<path d="M0.37601 490.782C1.81653 490.374 2.65388 488.876 2.24625 487.435C1.83863 485.995 0.340374 485.158 -1.10018 485.566C-2.54072 485.973 -3.37806 487.471 -2.97044 488.912C-2.56279 490.352 -1.06451 491.189 0.37601 490.782ZM0.989987 492.951C-1.64886 493.698 -4.39343 492.164 -5.14017 489.526C-5.8869 486.887 -4.35298 484.143 -1.71415 483.396C0.924693 482.649 3.66926 484.183 4.41599 486.821C5.1627 489.46 3.62883 492.204 0.989987 492.951Z" fill="#3BF3FF"/>
<path d="M-10.8588 410.834C-9.00403 410.309 -7.92588 408.381 -8.45075 406.526C-8.97561 404.671 -10.9047 403.594 -12.7595 404.118C-14.6144 404.643 -15.6925 406.572 -15.1676 408.427C-14.6427 410.281 -12.7136 411.359 -10.8588 410.834ZM-10.2449 413.004C-13.298 413.868 -16.4734 412.094 -17.3374 409.041C-18.2013 405.988 -16.4266 402.813 -13.3735 401.949C-10.3204 401.085 -7.14497 402.859 -6.28101 405.912C-5.41706 408.965 -7.19173 412.14 -10.2449 413.004Z" fill="#3BF3FF"/>
<path d="M-41.61 365.448C-39.5489 364.865 -38.3509 362.721 -38.9341 360.66C-39.5173 358.6 -41.661 357.402 -43.7221 357.985C-45.7832 358.569 -46.9813 360.712 -46.398 362.773C-45.8148 364.834 -43.6711 366.031 -41.61 365.448ZM-40.996 367.617C-44.2554 368.54 -47.6454 366.646 -48.5677 363.387C-49.4901 360.128 -47.5955 356.738 -44.3361 355.816C-41.0767 354.893 -37.6867 356.787 -36.7644 360.046C-35.842 363.305 -37.7366 366.695 -40.996 367.617Z" fill="#3BF3FF"/>
<path d="M-94.0169 305.045C-92.6876 304.669 -91.9149 303.286 -92.291 301.957C-92.6672 300.628 -94.0497 299.855 -95.379 300.232C-96.7083 300.608 -97.4808 301.99 -97.1047 303.319C-96.7285 304.648 -95.3461 305.421 -94.0169 305.045ZM-93.4029 307.214C-95.9304 307.93 -98.5592 306.461 -99.2744 303.933C-99.9897 301.406 -98.5206 298.778 -95.993 298.062C-93.4654 297.347 -90.8365 298.816 -90.1213 301.343C-89.4061 303.87 -90.8753 306.499 -93.4029 307.214Z" fill="#3BF3FF"/>
<path d="M-111.982 281.987C-110.733 281.634 -110.007 280.335 -110.361 279.087C-110.714 277.838 -112.013 277.112 -113.262 277.466C-114.511 277.819 -115.236 279.118 -114.883 280.366C-114.53 281.615 -113.231 282.341 -111.982 281.987ZM-111.368 284.157C-113.815 284.849 -116.36 283.427 -117.053 280.98C-117.745 278.534 -116.323 275.989 -113.876 275.296C-111.429 274.604 -108.884 276.026 -108.191 278.472C-107.499 280.919 -108.921 283.464 -111.368 284.157Z" fill="#3BF3FF"/>
<path d="M-97.5174 262.818C-96.3953 262.501 -95.7429 261.334 -96.0604 260.212C-96.378 259.09 -97.5451 258.438 -98.6673 258.755C-99.7894 259.073 -100.442 260.24 -100.124 261.362C-99.8065 262.484 -98.6395 263.136 -97.5174 262.818ZM-96.9034 264.988C-99.2238 265.645 -101.637 264.296 -102.294 261.976C-102.95 259.656 -101.602 257.243 -99.2812 256.586C-96.9608 255.929 -94.5473 257.278 -93.8907 259.598C-93.2341 261.918 -94.583 264.331 -96.9034 264.988Z" fill="#3BF3FF"/>
<path d="M-98.5908 180.478C-96.8216 179.977 -95.7932 178.137 -96.2939 176.368C-96.7945 174.599 -98.6346 173.571 -100.404 174.072C-102.173 174.572 -103.201 176.412 -102.701 178.181C-102.2 179.95 -100.36 180.978 -98.5908 180.478ZM-97.9768 182.647C-100.944 183.487 -104.031 181.762 -104.87 178.795C-105.71 175.828 -103.985 172.742 -101.018 171.902C-98.0503 171.062 -94.9639 172.787 -94.1241 175.754C-93.2844 178.721 -95.0093 181.807 -97.9768 182.647Z" fill="#3BF3FF"/>
<path d="M-97.9788 139.019C-96.2387 138.526 -95.2272 136.717 -95.7196 134.977C-96.212 133.237 -98.0219 132.226 -99.762 132.718C-101.502 133.211 -102.514 135.02 -102.021 136.76C-101.529 138.5 -99.7189 139.511 -97.9788 139.019ZM-97.3648 141.188C-100.303 142.02 -103.359 140.312 -104.191 137.374C-105.022 134.436 -103.314 131.38 -100.376 130.549C-97.4375 129.717 -94.3814 131.425 -93.5499 134.363C-92.7184 137.301 -94.4264 140.357 -97.3648 141.188Z" fill="#3BF3FF"/>
<path d="M-84.0639 215.441C-82.822 215.089 -82.1001 213.798 -82.4515 212.556C-82.803 211.314 -84.0947 210.592 -85.3366 210.944C-86.5786 211.295 -87.3006 212.587 -86.9492 213.829C-86.5977 215.071 -85.3059 215.792 -84.0639 215.441ZM-83.4499 217.61C-85.8902 218.301 -88.4284 216.883 -89.1189 214.443C-89.8094 212.003 -88.3909 209.465 -85.9506 208.774C-83.5103 208.084 -80.9724 209.502 -80.2818 211.942C-79.5913 214.382 -81.0097 216.92 -83.4499 217.61Z" fill="#3BF3FF"/>
<path d="M-111.958 25.4804C-110.237 24.9933 -109.236 23.2033 -109.723 21.4822C-110.21 19.7612 -112 18.7609 -113.722 19.248C-115.443 19.7352 -116.443 21.5253 -115.956 23.2463C-115.469 24.9673 -113.679 25.9675 -111.958 25.4804ZM-111.344 27.6499C-114.263 28.4761 -117.3 26.7795 -118.126 23.8604C-118.952 20.9412 -117.255 17.9049 -114.336 17.0786C-111.416 16.2523 -108.379 17.949 -107.553 20.8682C-106.727 23.7873 -108.424 26.8236 -111.344 27.6499Z" fill="#3BF3FF"/>
<path d="M-90.3872 43.1424C-88.6377 42.6473 -87.6207 40.8279 -88.1157 39.0786C-88.6107 37.3293 -90.4305 36.3126 -92.18 36.8077C-93.9295 37.3029 -94.9464 39.1224 -94.4513 40.8716C-93.9562 42.6209 -92.1367 43.6375 -90.3872 43.1424ZM-89.7732 45.3119C-92.721 46.1461 -95.7868 44.4331 -96.621 41.4857C-97.4552 38.5383 -95.7418 35.4726 -92.794 34.6383C-89.8461 33.804 -86.7801 35.5171 -85.9459 38.4645C-85.1118 41.4119 -86.8254 44.4776 -89.7732 45.3119Z" fill="#3BF3FF"/>
<path d="M-114.562 54.217C-113.707 53.9752 -113.211 53.0869 -113.453 52.2328C-113.694 51.3787 -114.583 50.8822 -115.437 51.124C-116.291 51.3658 -116.788 52.2542 -116.546 53.1083C-116.304 53.9623 -115.416 54.4587 -114.562 54.217ZM-113.948 56.3864C-116 56.9672 -118.135 55.7745 -118.716 53.7223C-119.297 51.6701 -118.104 49.5355 -116.051 48.9545C-113.998 48.3736 -111.864 49.5665 -111.283 51.6187C-110.702 53.671 -111.895 55.8055 -113.948 56.3864Z" fill="#3BF3FF"/>
<path d="M-69.7883 25.0762C-68.5044 24.7128 -67.7581 23.3776 -68.1214 22.0938C-68.4847 20.8101 -69.82 20.064 -71.1039 20.4274C-72.3878 20.7907 -73.1341 22.126 -72.7708 23.4097C-72.4075 24.6934 -71.0722 25.4395 -69.7883 25.0762ZM-69.1743 27.2456C-71.6565 27.9481 -74.2381 26.5056 -74.9406 24.0238C-75.643 21.5419 -74.2001 18.9604 -71.7179 18.2579C-69.2357 17.5554 -66.654 18.9979 -65.9516 21.4798C-65.2492 23.9617 -66.6921 26.5431 -69.1743 27.2456Z" fill="#3BF3FF"/>
<path d="M-79.2512 28.7016C-78.6666 28.5362 -78.3268 27.9282 -78.4922 27.3437C-78.6576 26.7592 -79.2657 26.4194 -79.8503 26.5849C-80.4348 26.7503 -80.7747 27.3583 -80.6093 27.9428C-80.4438 28.5274 -79.8358 28.8671 -79.2512 28.7016ZM-78.6372 30.8711C-80.4201 31.3757 -82.2745 30.3396 -82.779 28.5569C-83.2835 26.7742 -82.2472 24.92 -80.4642 24.4154C-78.6813 23.9108 -76.827 24.947 -76.3225 26.7296C-75.8179 28.5123 -76.8543 30.3665 -78.6372 30.8711Z" fill="#3BF3FF"/>
<path d="M-79.9128 70.9192C-78.7667 70.5948 -78.1006 69.4028 -78.4249 68.2569C-78.7493 67.111 -79.9412 66.445 -81.0873 66.7693C-82.2334 67.0937 -82.8996 68.2856 -82.5754 69.4315C-82.251 70.5775 -81.0589 71.2436 -79.9128 70.9192ZM-79.2988 73.0886C-81.6433 73.7521 -84.0817 72.3897 -84.7451 70.0456C-85.4085 67.7015 -84.0456 65.2634 -81.7013 64.5999C-79.3569 63.9365 -76.9186 65.2988 -76.2552 67.6428C-75.5918 69.9869 -76.9545 72.4251 -79.2988 73.0886Z" fill="#3BF3FF"/>
<path d="M-60.0549 74.8761C-58.9139 74.5532 -58.2507 73.3666 -58.5736 72.2258C-58.8964 71.085 -60.0831 70.422 -61.2241 70.7449C-62.365 71.0678 -63.0282 72.2544 -62.7054 73.3952C-62.3825 74.536 -61.1958 75.199 -60.0549 74.8761ZM-59.4409 77.0456C-61.7802 77.7076 -64.2132 76.3482 -64.8751 74.0093C-65.5371 71.6703 -64.1773 69.2375 -61.838 68.5754C-59.4988 67.9134 -57.0658 69.2728 -56.4038 71.6118C-55.7419 73.9507 -57.1016 76.3835 -59.4409 77.0456Z" fill="#3BF3FF"/>
<path d="M-41.1566 55.7279C-39.8539 55.3592 -39.0967 54.0043 -39.4653 52.7018C-39.834 51.3993 -41.1889 50.6423 -42.4916 51.0109C-43.7943 51.3796 -44.5516 52.7344 -44.183 54.037C-43.8144 55.3395 -42.4593 56.0966 -41.1566 55.7279ZM-40.5426 57.8974C-43.0437 58.6052 -45.645 57.1517 -46.3528 54.651C-47.0605 52.1503 -45.6066 49.5493 -43.1056 48.8415C-40.6045 48.1337 -38.0033 49.5871 -37.2956 52.0877C-36.5879 54.5884 -38.0416 57.1895 -40.5426 57.8974Z" fill="#3BF3FF"/>
<path d="M-56.3478 29.7146C-55.378 29.4401 -54.8143 28.4316 -55.0887 27.4619C-55.3632 26.4923 -56.3718 25.9287 -57.3416 26.2032C-58.3114 26.4776 -58.8751 27.4862 -58.6006 28.4558C-58.3262 29.4255 -57.3176 29.989 -56.3478 29.7146ZM-55.7338 31.884C-57.9019 32.4976 -60.1569 31.2377 -60.7704 29.0699C-61.3839 26.9021 -60.1236 24.6473 -57.9556 24.0337C-55.7875 23.4201 -53.5325 24.6801 -52.919 26.8479C-52.3055 29.0156 -53.5657 31.2704 -55.7338 31.884Z" fill="#3BF3FF"/>
<path d="M-44.3962 17.8899C-43.1122 17.5265 -42.366 16.1913 -42.7293 14.9075C-43.0926 13.6238 -44.4279 12.8777 -45.7118 13.2411C-46.9957 13.6044 -47.742 14.9397 -47.3787 16.2234C-47.0154 17.5071 -45.6801 18.2532 -44.3962 17.8899ZM-43.7822 20.0593C-46.2644 20.7618 -48.846 19.3193 -49.5484 16.8375C-50.2508 14.3556 -48.808 11.7741 -46.3258 11.0716C-43.8436 10.3691 -41.2619 11.8116 -40.5595 14.2935C-39.8571 16.7754 -41.3 19.3568 -43.7822 20.0593Z" fill="#3BF3FF"/>
<path d="M-28.9737 11.592C-27.1189 11.067 -26.0408 9.13807 -26.5656 7.28351C-27.0905 5.42896 -29.0196 4.3511 -30.8744 4.87603C-32.7292 5.40096 -33.8073 7.32991 -33.2825 9.18447C-32.7576 11.039 -30.8285 12.1169 -28.9737 11.592ZM-28.3597 13.7614C-31.4128 14.6255 -34.5883 12.8512 -35.4522 9.79853C-36.3162 6.74583 -34.5415 3.57066 -31.4884 2.70659C-28.4353 1.84252 -25.2599 3.61675 -24.3959 6.66944C-23.5319 9.72215 -25.3066 12.8973 -28.3597 13.7614Z" fill="#3BF3FF"/>
<path d="M-15.9791 6.57534C-14.8091 6.2442 -14.1289 5.02737 -14.46 3.85747C-14.7911 2.68758 -16.0081 2.00764 -17.1781 2.33877C-18.3482 2.66992 -19.0283 3.88674 -18.6972 5.05665C-18.3661 6.22655 -17.1492 6.90649 -15.9791 6.57534ZM-15.3651 8.74478C-17.7335 9.41506 -20.1968 8.03876 -20.8669 5.67071C-21.5371 3.30266 -20.1605 0.839617 -17.7921 0.169336C-15.4237 -0.500939 -12.9605 0.875371 -12.2903 3.24341C-11.6201 5.61145 -12.9968 8.07449 -15.3651 8.74478Z" fill="#3BF3FF"/>
<path d="M20.1559 39.8971C21.6657 39.4698 22.5433 37.8995 22.1161 36.3898C21.6888 34.8802 20.1185 34.0028 18.6086 34.4301C17.0988 34.8574 16.2211 36.4276 16.6483 37.9373C17.0755 39.4469 18.646 40.3244 20.1559 39.8971ZM20.7699 42.0665C18.0617 42.833 15.2449 41.2591 14.4785 38.5513C13.7122 35.8435 15.2865 33.0271 17.9947 32.2606C20.7028 31.4942 23.5194 33.068 24.2858 35.7757C25.0521 38.4835 23.478 41.3001 20.7699 42.0665Z" fill="#3BF3FF"/>
<path d="M11.0434 51.35C12.0225 51.0729 12.5918 50.0546 12.3147 49.0756C12.0376 48.0965 11.0191 47.5274 10.0399 47.8046C9.06079 48.0817 8.49169 49.1001 8.76877 50.0791C9.04587 51.0581 10.0642 51.6271 11.0434 51.35ZM11.6573 53.5195C9.47987 54.1357 7.21523 52.8703 6.59903 50.6932C5.98286 48.516 7.2485 46.2514 9.42596 45.6351C11.6035 45.0189 13.8683 46.2843 14.4845 48.4615C15.1006 50.6387 13.8348 52.9032 11.6573 53.5195Z" fill="#3BF3FF"/>
<path d="M23.732 68.1599C25.9857 67.5221 27.2957 65.1783 26.6579 62.9249C26.0202 60.6716 23.6762 59.3619 21.4225 59.9997C19.1689 60.6375 17.8589 62.9813 18.4966 65.2347C19.1343 67.4881 21.4783 68.7977 23.732 68.1599ZM24.346 70.3294C20.894 71.3063 17.3037 69.3003 16.3269 65.8488C15.35 62.3973 17.3566 58.8072 20.8086 57.8303C24.2606 56.8533 27.8509 58.8594 28.8277 62.3109C29.8045 65.7624 27.798 69.3524 24.346 70.3294Z" fill="#3BF3FF"/>
<path d="M49.8692 20.2689C51.2027 19.8915 51.9779 18.5046 51.6005 17.1713C51.2231 15.8379 49.8362 15.063 48.5026 15.4404C47.1691 15.8178 46.3939 17.2047 46.7713 18.538C47.1486 19.8714 48.5356 20.6463 49.8692 20.2689ZM50.4831 22.4384C47.9513 23.1549 45.318 21.6836 44.6015 19.1521C43.8851 16.6206 45.3568 13.9875 47.8886 13.2709C50.4205 12.5544 53.0538 14.0257 53.7702 16.5572C54.4867 19.0887 53.015 21.7218 50.4831 22.4384Z" fill="#3BF3FF"/>
<path d="M131.977 282.656C132.646 282.466 133.034 281.771 132.845 281.103C132.656 280.434 131.961 280.046 131.292 280.235C130.624 280.424 130.235 281.119 130.424 281.788C130.613 282.456 131.309 282.845 131.977 282.656ZM132.591 284.825C130.724 285.353 128.783 284.268 128.254 282.402C127.726 280.535 128.811 278.594 130.678 278.066C132.545 277.537 134.486 278.622 135.015 280.489C135.543 282.355 134.458 284.297 132.591 284.825Z" fill="#3BF3FF"/>
<path d="M28.1289 145.47C29.2792 145.144 29.948 143.948 29.6225 142.797C29.297 141.647 28.1004 140.979 26.95 141.304C25.7997 141.63 25.1311 142.826 25.4566 143.976C25.7822 145.127 26.9785 145.795 28.1289 145.47ZM28.7428 147.639C26.3942 148.304 23.9515 146.939 23.2869 144.591C22.6223 142.242 23.9874 139.8 26.3361 139.135C28.6848 138.47 31.1276 139.835 31.7922 142.183C32.4568 144.532 31.0915 146.974 28.7428 147.639Z" fill="#3BF3FF"/>
<path d="M31.0799 156.163C32.2303 155.837 32.899 154.641 32.5735 153.491C32.248 152.341 31.0515 151.672 29.9011 151.998C28.7507 152.323 28.0821 153.52 28.4076 154.67C28.7332 155.82 29.9296 156.488 31.0799 156.163ZM31.6939 158.332C29.3452 158.997 26.9025 157.632 26.2379 155.284C25.5733 152.936 26.9384 150.493 29.2871 149.828C31.6358 149.163 34.0786 150.528 34.7433 152.877C35.4078 155.225 34.0425 157.668 31.6939 158.332Z" fill="#3BF3FF"/>
<path d="M34.0428 166.632C35.1931 166.306 35.8619 165.11 35.5364 163.96C35.2109 162.81 34.0143 162.141 32.864 162.467C31.7136 162.792 31.045 163.989 31.3705 165.139C31.6961 166.289 32.8925 166.958 34.0428 166.632ZM34.6568 168.801C32.3081 169.466 29.8654 168.101 29.2008 165.753C28.5362 163.405 29.9013 160.962 32.25 160.297C34.5987 159.633 37.0415 160.997 37.7061 163.346C38.3707 165.694 37.0054 168.137 34.6568 168.801Z" fill="#3BF3FF"/>
<path d="M67.6645 250.008L65.4948 250.622L58.845 227.125L61.0147 226.511L67.6645 250.008Z" fill="#3BF3FF"/>
<path d="M62.6369 251.431L60.4672 252.045L53.8174 228.548L55.9871 227.934L62.6369 251.431Z" fill="#3BF3FF"/>
<path d="M57.6078 252.854L55.4381 253.468L48.7882 229.971L50.958 229.357L57.6078 252.854Z" fill="#3BF3FF"/>
<path d="M52.5802 254.277L50.4105 254.891L43.7607 231.394L45.9304 230.78L52.5802 254.277Z" fill="#3BF3FF"/>
<path d="M47.5511 255.7L45.3813 256.314L38.7315 232.818L40.9013 232.204L47.5511 255.7Z" fill="#3BF3FF"/>
<path d="M42.5235 257.123L40.3538 257.737L33.7039 234.241L35.8737 233.626L42.5235 257.123Z" fill="#3BF3FF"/>
<path d="M17.4431 143.993L2.16355 148.318L8.8574 171.97L4.86037 165.931C3.76821 164.281 2.67612 162.632 1.58405 160.982C1.48673 160.835 1.38948 160.688 1.29215 160.541C1.46555 161.53 1.63877 162.519 1.81217 163.508C2.29682 166.272 2.78135 169.036 3.26573 171.8L4.45314 178.576L1.16495 172.533C-0.170853 170.079 -1.5071 167.624 -2.84332 165.17C-3.01394 164.856 -3.18437 164.543 -3.35498 164.229C-3.28898 164.568 -3.22303 164.907 -3.15701 165.245C-2.6246 167.977 -2.0923 170.708 -1.55953 173.439L-0.0532311 181.161L-3.6676 174.173C-5.67875 170.285 -7.68937 166.396 -9.69996 162.507C-9.64463 164.936 -9.58902 167.365 -9.53459 169.794L-11.789 169.845C-11.8799 165.792 -11.9725 161.738 -12.0649 157.685L-12.1762 152.808L-9.93618 157.141C-8.38406 160.144 -6.8309 163.147 -5.27805 166.149C-5.30876 165.992 -5.33958 165.834 -5.37028 165.677C-5.90269 162.945 -6.43515 160.214 -6.96792 157.483L-8.36907 150.3L-4.87098 156.728C-3.53522 159.183 -2.19897 161.637 -0.862764 164.092C-0.622882 164.532 -0.382932 164.973 -0.143057 165.414C-0.231675 164.908 -0.320362 164.403 -0.40898 163.897C-0.893616 161.134 -1.37831 158.37 -1.86269 155.605L-2.79564 150.281L0.188171 154.788C1.04016 156.076 1.89214 157.363 2.74408 158.649L-0.620169 146.762L16.8291 141.824L17.4431 143.993Z" fill="#3BF3FF"/>
<path d="M27.7377 238.676L17.2718 241.638L7.80862 208.2L18.2746 205.238L27.7377 238.676ZM10.5923 209.756L18.8276 238.854L24.954 237.12L16.7188 208.022L10.5923 209.756Z" fill="#3BF3FF"/>
<path d="M26.4091 207.808L21.8015 209.112L12.9233 177.742L17.531 176.438L26.4091 207.808ZM15.707 179.298L23.3572 206.329L23.6254 206.253L15.9752 179.222L15.707 179.298Z" fill="#3BF3FF"/>
<path d="M52.1731 226.553L42.3581 229.331L34.5325 201.68L44.3475 198.902L52.1731 226.553ZM37.3162 203.235L43.9139 226.547L49.3894 224.998L42.7917 201.686L37.3162 203.235Z" fill="#3BF3FF"/>
</svg>


