<svg width="383" height="516" viewBox="0 0 383 516" fill="none" xmlns="http://www.w3.org/2000/svg">
<g clip-path="url(#clip0_1505_22760)">
<g style="mix-blend-mode:luminosity" opacity="0.3">
<path d="M332.11 114.419L276.632 -81.6091L98.0163 -31.0586L153.495 164.969L332.11 114.419Z" fill="#7C7C7D" fill-opacity="0.4"/>
<path d="M326.102 131.059L323.209 120.837L317.796 122.369L320.689 132.591L326.102 131.059Z" fill="#3BF3FF"/>
<path d="M335.874 128.294L332.981 118.072L327.568 119.604L330.461 129.825L335.874 128.294Z" fill="#3BF3FF"/>
<path d="M310.841 135.378L307.948 125.157L302.535 126.688L305.428 136.91L310.841 135.378Z" fill="#3BF3FF"/>
<path d="M317.906 133.379L315.013 123.157L309.601 124.689L312.494 134.91L317.906 133.379Z" fill="#3BF3FF"/>
<path d="M292.273 140.633L289.38 130.411L283.968 131.943L286.86 142.165L292.273 140.633Z" fill="#3BF3FF"/>
<path d="M302.045 137.867L299.152 127.646L293.74 129.178L296.632 139.399L302.045 137.867Z" fill="#3BF3FF"/>
<path d="M275.733 145.314L272.84 135.092L267.428 136.624L270.32 146.846L275.733 145.314Z" fill="#3BF3FF"/>
<path d="M284.003 142.974L281.11 132.752L275.698 134.284L278.59 144.505L284.003 142.974Z" fill="#3BF3FF"/>
<path d="M257.691 150.42L254.798 140.199L249.386 141.73L252.279 151.952L257.691 150.42Z" fill="#3BF3FF"/>
<path d="M267.465 147.654L264.573 137.432L259.16 138.964L262.053 149.186L267.465 147.654Z" fill="#3BF3FF"/>
<path d="M239.286 155.629L236.393 145.407L230.981 146.939L233.873 157.161L239.286 155.629Z" fill="#3BF3FF"/>
<path d="M249.058 152.863L246.165 142.642L240.753 144.174L243.645 154.395L249.058 152.863Z" fill="#3BF3FF"/>
<path d="M219.74 161.161L216.847 150.939L211.434 152.471L214.327 162.693L219.74 161.161Z" fill="#3BF3FF"/>
<path d="M229.512 158.395L226.619 148.174L221.206 149.706L224.099 159.927L229.512 158.395Z" fill="#3BF3FF"/>
<path d="M202.837 165.945L199.944 155.723L194.531 157.255L197.424 167.477L202.837 165.945Z" fill="#3BF3FF"/>
<path d="M211.107 163.604L208.214 153.383L202.801 154.914L205.694 165.136L211.107 163.604Z" fill="#3BF3FF"/>
<path d="M184.795 171.051L181.902 160.829L176.489 162.361L179.382 172.583L184.795 171.051Z" fill="#3BF3FF"/>
<path d="M194.567 168.285L191.674 158.064L186.261 159.595L189.154 169.817L194.567 168.285Z" fill="#3BF3FF"/>
<path d="M166.279 176.291L163.386 166.069L157.974 167.601L160.867 177.823L166.279 176.291Z" fill="#3BF3FF"/>
<path d="M176.051 173.525L173.158 163.304L167.746 164.836L170.639 175.057L176.051 173.525Z" fill="#3BF3FF"/>
<path d="M295.97 -65.4874L285.747 -62.5941L287.278 -57.1823L297.501 -60.0755L295.97 -65.4874Z" fill="#3BF3FF"/>
<path d="M293.205 -75.259L282.982 -72.3657L284.514 -66.9539L294.737 -69.8471L293.205 -75.259Z" fill="#3BF3FF"/>
<path d="M300.289 -50.2292L290.066 -47.336L291.597 -41.9241L301.82 -44.8174L300.289 -50.2292Z" fill="#3BF3FF"/>
<path d="M298.29 -57.2949L288.067 -54.4017L289.599 -48.9898L299.822 -51.8831L298.29 -57.2949Z" fill="#3BF3FF"/>
<path d="M305.542 -31.6634L295.319 -28.7701L296.851 -23.3583L307.074 -26.2515L305.542 -31.6634Z" fill="#3BF3FF"/>
<path d="M302.778 -41.435L292.555 -38.5417L294.086 -33.1299L304.309 -36.0231L302.778 -41.435Z" fill="#3BF3FF"/>
<path d="M310.224 -15.1277L300.001 -12.2344L301.532 -6.82255L311.755 -9.7158L310.224 -15.1277Z" fill="#3BF3FF"/>
<path d="M307.883 -23.3955L297.66 -20.5023L299.192 -15.0904L309.415 -17.9837L307.883 -23.3955Z" fill="#3BF3FF"/>
<path d="M315.329 2.91182L305.106 5.80507L306.638 11.2169L316.861 8.32366L315.329 2.91182Z" fill="#3BF3FF"/>
<path d="M312.562 -6.85911L302.339 -3.96585L303.871 1.44598L314.094 -1.44728L312.562 -6.85911Z" fill="#3BF3FF"/>
<path d="M320.536 21.3161L310.313 24.2093L311.845 29.6212L322.068 26.7279L320.536 21.3161Z" fill="#3BF3FF"/>
<path d="M317.772 11.5445L307.549 14.4378L309.08 19.8496L319.303 16.9564L317.772 11.5445Z" fill="#3BF3FF"/>
<path d="M326.068 40.8586L315.845 43.7519L317.377 49.1637L327.6 46.2705L326.068 40.8586Z" fill="#3BF3FF"/>
<path d="M323.303 31.0871L313.08 33.9803L314.612 39.3922L324.835 36.4989L323.303 31.0871Z" fill="#3BF3FF"/>
<path d="M330.851 57.7592L320.628 60.6525L322.16 66.0643L332.383 63.1711L330.851 57.7592Z" fill="#3BF3FF"/>
<path d="M328.51 49.4914L318.287 52.3846L319.819 57.7965L330.042 54.9032L328.51 49.4914Z" fill="#3BF3FF"/>
<path d="M335.957 75.7987L325.734 78.6919L327.265 84.1038L337.488 81.2105L335.957 75.7987Z" fill="#3BF3FF"/>
<path d="M333.19 66.0278L322.967 68.921L324.498 74.3329L334.721 71.4396L333.19 66.0278Z" fill="#3BF3FF"/>
<path d="M341.196 94.312L330.973 97.2053L332.504 102.617L342.727 99.7238L341.196 94.312Z" fill="#3BF3FF"/>
<path d="M338.431 84.5404L328.208 87.4337L329.74 92.8455L339.963 89.9522L338.431 84.5404Z" fill="#3BF3FF"/>
<path d="M100.044 -48.0307L102.937 -37.8091L108.349 -39.3409L105.456 -49.5625L100.044 -48.0307Z" fill="#3BF3FF"/>
<path d="M90.2724 -45.2653L93.1653 -35.0437L98.5779 -36.5755L95.685 -46.7971L90.2724 -45.2653Z" fill="#3BF3FF"/>
<path d="M115.306 -52.35L118.199 -42.1284L123.611 -43.6603L120.718 -53.8819L115.306 -52.35Z" fill="#3BF3FF"/>
<path d="M108.239 -50.3499L111.131 -40.1283L116.544 -41.6602L113.651 -51.8818L108.239 -50.3499Z" fill="#3BF3FF"/>
<path d="M133.872 -57.6047L136.765 -47.3831L142.178 -48.9149L139.285 -59.1365L133.872 -57.6047Z" fill="#3BF3FF"/>
<path d="M124.101 -54.8393L126.994 -44.6177L132.407 -46.1495L129.514 -56.3711L124.101 -54.8393Z" fill="#3BF3FF"/>
<path d="M150.412 -62.2855L153.304 -52.0638L158.717 -53.5957L155.824 -63.8173L150.412 -62.2855Z" fill="#3BF3FF"/>
<path d="M142.143 -59.9454L145.036 -49.7238L150.449 -51.2556L147.556 -61.4772L142.143 -59.9454Z" fill="#3BF3FF"/>
<path d="M168.454 -67.3916L171.346 -57.17L176.759 -58.7018L173.866 -68.9234L168.454 -67.3916Z" fill="#3BF3FF"/>
<path d="M158.68 -64.6255L161.573 -54.4039L166.986 -55.9358L164.093 -66.1574L158.68 -64.6255Z" fill="#3BF3FF"/>
<path d="M186.859 -72.6006L189.752 -62.3789L195.165 -63.9108L192.272 -74.1324L186.859 -72.6006Z" fill="#3BF3FF"/>
<path d="M177.088 -69.8352L179.981 -59.6136L185.393 -61.1454L182.501 -71.367L177.088 -69.8352Z" fill="#3BF3FF"/>
<path d="M206.406 -78.1326L209.299 -67.911L214.712 -69.4428L211.819 -79.6644L206.406 -78.1326Z" fill="#3BF3FF"/>
<path d="M196.633 -75.3666L199.526 -65.145L204.938 -66.6768L202.045 -76.8984L196.633 -75.3666Z" fill="#3BF3FF"/>
<path d="M223.309 -82.9163L226.202 -72.6947L231.614 -74.2265L228.722 -84.4481L223.309 -82.9163Z" fill="#3BF3FF"/>
<path d="M215.038 -80.5756L217.931 -70.354L223.344 -71.8858L220.451 -82.1074L215.038 -80.5756Z" fill="#3BF3FF"/>
<path d="M241.351 -88.0224L244.244 -77.8008L249.656 -79.3327L246.764 -89.5543L241.351 -88.0224Z" fill="#3BF3FF"/>
<path d="M231.577 -85.2564L234.47 -75.0348L239.883 -76.5666L236.99 -86.7882L231.577 -85.2564Z" fill="#3BF3FF"/>
<path d="M259.867 -93.2627L262.76 -83.0411L268.172 -84.5729L265.28 -94.7945L259.867 -93.2627Z" fill="#3BF3FF"/>
<path d="M250.094 -90.4967L252.986 -80.2751L258.399 -81.8069L255.506 -92.0285L250.094 -90.4967Z" fill="#3BF3FF"/>
<path d="M98.8228 -3.53288L88.5998 -0.639634L90.1314 4.77223L100.354 1.87898L98.8228 -3.53288Z" fill="#3BF3FF"/>
<path d="M96.0559 -13.3038L85.8329 -10.4106L87.3645 -4.99875L97.5875 -7.892L96.0559 -13.3038Z" fill="#3BF3FF"/>
<path d="M103.14 11.7259L92.9166 14.6192L94.4482 20.031L104.671 17.1378L103.14 11.7259Z" fill="#3BF3FF"/>
<path d="M101.141 4.66024L90.9178 7.55349L92.4494 12.9653L102.672 10.0721L101.141 4.66024Z" fill="#3BF3FF"/>
<path d="M108.395 30.2911L98.1724 33.1843L99.7041 38.5962L109.927 35.7029L108.395 30.2911Z" fill="#3BF3FF"/>
<path d="M105.629 20.5201L95.4055 23.4134L96.9371 28.8252L107.16 25.932L105.629 20.5201Z" fill="#3BF3FF"/>
<path d="M113.075 46.8275L102.852 49.7207L104.383 55.1326L114.606 52.2393L113.075 46.8275Z" fill="#3BF3FF"/>
<path d="M110.734 38.5596L100.511 41.4529L102.043 46.8647L112.266 43.9714L110.734 38.5596Z" fill="#3BF3FF"/>
<path d="M118.18 64.867L107.957 67.7602L109.489 73.1721L119.712 70.2788L118.18 64.867Z" fill="#3BF3FF"/>
<path d="M115.415 55.0954L105.192 57.9886L106.724 63.4004L116.947 60.5072L115.415 55.0954Z" fill="#3BF3FF"/>
<path d="M123.387 83.2712L113.164 86.1645L114.696 91.5763L124.919 88.6831L123.387 83.2712Z" fill="#3BF3FF"/>
<path d="M120.623 73.4997L110.4 76.3929L111.931 81.8048L122.154 78.9115L120.623 73.4997Z" fill="#3BF3FF"/>
<path d="M128.919 102.814L118.696 105.707L120.227 111.119L130.45 108.226L128.919 102.814Z" fill="#3BF3FF"/>
<path d="M126.154 93.0422L115.931 95.9355L117.463 101.347L127.686 98.4541L126.154 93.0422Z" fill="#3BF3FF"/>
<path d="M133.702 119.714L123.479 122.608L125.011 128.019L135.234 125.126L133.702 119.714Z" fill="#3BF3FF"/>
<path d="M131.361 111.446L121.138 114.34L122.67 119.752L132.893 116.858L131.361 111.446Z" fill="#3BF3FF"/>
<path d="M138.807 137.754L128.584 140.647L130.116 146.059L140.339 143.166L138.807 137.754Z" fill="#3BF3FF"/>
<path d="M136.043 127.982L125.82 130.876L127.351 136.287L137.574 133.394L136.043 127.982Z" fill="#3BF3FF"/>
<path d="M141.282 146.496L131.059 149.389L132.591 154.801L142.814 151.907L141.282 146.496Z" fill="#3BF3FF"/>
<path d="M403.34 275.153L400.177 276.028L386.226 225.582C381.635 208.984 377.045 192.386 372.454 175.787C363.412 170.611 354.37 165.435 345.328 160.259C336.091 154.971 326.854 149.684 317.616 144.396L317.02 144.054L316.845 143.389C316.142 140.719 315.441 138.049 314.74 135.379C314.038 132.709 313.337 130.039 312.635 127.369L315.808 126.534C316.51 129.205 317.212 131.875 317.913 134.545C318.557 136.993 319.2 139.441 319.844 141.89C328.882 147.064 337.921 152.238 346.959 157.412C356.196 162.7 365.433 167.988 374.671 173.275L375.257 173.611L403.34 275.153Z" fill="#3BF3FF"/>
<path d="M451.09 436.997L447.927 437.87L434.741 390.131C430.41 374.449 426.079 358.768 421.748 343.087C404.196 334.148 392.786 328.279 385.736 324.595C382.17 322.731 379.711 321.422 378.134 320.555C377.349 320.123 376.766 319.792 376.371 319.554C376.177 319.437 376.002 319.327 375.864 319.229C375.798 319.183 375.706 319.116 375.615 319.035C375.57 318.995 375.495 318.925 375.417 318.831C375.368 318.773 375.185 318.552 375.088 318.208L375.087 318.208C375.084 318.196 375.081 318.186 375.081 318.185C375.08 318.182 375.079 318.18 375.079 318.178L375.079 318.178C375.079 318.177 375.079 318.177 375.078 318.176C375.078 318.174 375.078 318.173 375.077 318.172C375.077 318.169 375.076 318.166 375.075 318.164C375.075 318.161 375.072 318.152 375.07 318.146C375.067 318.131 375.061 318.109 375.054 318.08C375.039 318.024 375.018 317.942 374.99 317.839C374.936 317.634 374.859 317.35 374.768 317.028C374.527 316.178 366.791 287.529 354.899 243.465C339.752 235.583 324.604 227.702 309.454 219.82L308.823 219.492L308.631 218.806C304.696 204.711 300.761 190.616 296.826 176.521C292.891 162.426 288.956 148.33 285.021 134.236L288.181 133.353C292.117 147.448 296.052 161.543 299.987 175.638C303.858 189.505 307.729 203.372 311.601 217.238C326.752 225.122 341.904 233.003 357.053 240.887L357.692 241.22L357.88 241.915C369.884 286.397 377.691 315.306 377.925 316.134C377.991 316.367 378.05 316.582 378.099 316.764C378.439 316.968 378.965 317.267 379.715 317.68C381.261 318.529 383.695 319.826 387.257 321.687C394.376 325.408 405.966 331.369 423.882 340.492L424.526 340.82L451.09 436.997Z" fill="#3BF3FF"/>
<path d="M384.393 425.676L332.454 247.874L293.822 227.303L268.444 137.635L271.602 136.741L296.598 225.064L335.216 245.628L387.542 424.756L384.393 425.676Z" fill="#3BF3FF"/>
<path d="M307.731 231.118L304.574 232.012L277.165 135.167L280.323 134.273L307.731 231.118Z" fill="#3BF3FF"/>
<path d="M331.603 315.468L328.446 316.362L309.119 248.073L289.125 237.097L261.87 140.793L265.027 139.9L291.908 234.882L311.903 245.858L331.603 315.468Z" fill="#3BF3FF"/>
<path d="M299.25 299.081L296.093 299.974L251.505 142.429L254.663 141.535L299.25 299.081Z" fill="#3BF3FF"/>
<path d="M283.684 276.208L280.526 277.102L243.086 144.811L246.244 143.918L283.684 276.208Z" fill="#3BF3FF"/>
<path d="M252.981 242.698L223.24 301.341L237.36 351.235L234.203 352.128L219.733 301.001L249.474 242.358L224.036 152.475L227.194 151.582L252.981 242.698Z" fill="#3BF3FF"/>
<path d="M259.449 383.373L274.69 437.225L271.532 438.118L255.913 382.93L304.262 299.468L307.102 301.112L259.449 383.373Z" fill="#3BF3FF"/>
<path d="M239.674 235.47L200.869 303.391L231.881 412.97L228.724 413.863L197.337 302.959L236.142 235.039L213.61 155.426L216.768 154.532L239.674 235.47Z" fill="#3BF3FF"/>
<path d="M262.503 435.478L259.346 436.372L247.603 394.879L218.528 376.314L220.294 373.549L250.421 392.786L262.503 435.478Z" fill="#3BF3FF"/>
<path d="M220.906 230.737L182.971 294.081L202.316 362.437L191.623 369.072C184.807 379.28 181.867 384.222 180.635 386.589C179.989 387.831 179.894 388.215 179.894 388.215C179.897 388.197 179.917 388.084 179.899 387.918C179.882 387.754 179.817 387.429 179.555 387.113C179.266 386.765 178.883 386.6 178.548 386.554C178.394 386.533 178.261 386.538 178.157 386.549C178.104 386.555 178.056 386.563 178.013 386.572C177.992 386.577 177.971 386.581 177.951 386.586C177.942 386.588 177.932 386.591 177.923 386.593C177.918 386.594 177.911 386.596 177.909 386.597C177.904 386.598 177.9 386.602 178.085 387.266L178.599 389.092C178.785 389.756 178.781 389.76 178.775 389.761C178.773 389.762 178.766 389.764 178.762 389.765C178.752 389.768 178.742 389.77 178.732 389.772C178.712 389.777 178.691 389.782 178.669 389.787C178.624 389.796 178.574 389.804 178.518 389.811C178.408 389.823 178.266 389.827 178.103 389.805C177.748 389.756 177.34 389.582 177.029 389.207C176.745 388.865 176.66 388.496 176.636 388.26C176.611 388.022 176.634 387.809 176.661 387.652C176.758 387.096 177.084 386.305 177.725 385.074C179.058 382.513 182.13 377.37 189.091 366.954L189.289 366.659L198.486 360.952L179.428 293.611L217.363 230.267L197.219 159.091L200.376 158.197L220.906 230.737Z" fill="#3BF3FF"/>
<path d="M189.744 357.321L174.609 361.604L173.716 358.448L188.851 354.164L189.744 357.321Z" fill="#3BF3FF"/>
<path d="M159.007 387.287L177.352 452.108L174.195 453.001L155.441 386.738L173.793 358.841L176.534 360.644L159.007 387.287Z" fill="#3BF3FF"/>
<path d="M197.035 214.868L152.183 289.912L164.129 332.124L160.972 333.018L148.64 289.443L193.492 214.4L179.276 164.169L182.433 163.275L197.035 214.868Z" fill="#3BF3FF"/>
<path d="M154.951 216.49L127.336 224.306L113.431 256.156L116.164 265.813L113.006 266.707L109.954 255.92L124.949 221.572L152.66 213.729L168.235 182.395L160.615 168.535L163.491 166.955L171.937 182.319L154.951 216.49Z" fill="#3BF3FF"/>
<path d="M392.949 370.415L389.791 371.309L383.779 350.063L386.936 349.17L392.949 370.415Z" fill="#3BF3FF"/>
<path d="M399.38 401.936L396.223 402.829L390.777 383.588L393.934 382.694L399.38 401.936Z" fill="#3BF3FF"/>
<path d="M371.42 139.233C371.487 139.469 371.593 139.623 371.629 139.673C371.675 139.737 371.711 139.775 371.717 139.781C371.729 139.793 371.709 139.772 371.631 139.71C371.481 139.591 371.233 139.417 370.878 139.185C370.175 138.726 369.166 138.12 367.935 137.409C365.481 135.991 362.23 134.205 358.975 132.45C355.724 130.696 352.482 128.979 350.052 127.701C348.917 127.104 347.96 126.602 347.262 126.237L342.177 133.259L339.519 131.335L346.266 122.019L347.521 122.672L346.765 124.127C347.496 122.72 347.521 122.674 347.522 122.672L347.522 122.673C347.523 122.673 347.524 122.674 347.526 122.674C347.529 122.676 347.534 122.679 347.54 122.682C347.553 122.688 347.572 122.698 347.596 122.711C347.646 122.737 347.719 122.774 347.814 122.824C348.004 122.923 348.283 123.069 348.638 123.254C349.348 123.625 350.362 124.156 351.58 124.797C354.016 126.079 357.269 127.801 360.533 129.562C363.795 131.321 367.081 133.125 369.578 134.568C370.823 135.288 371.892 135.929 372.671 136.437C373.056 136.688 373.4 136.926 373.666 137.136C373.796 137.239 373.941 137.361 374.071 137.495C374.139 137.565 374.445 137.871 374.578 138.339L371.42 139.233Z" fill="#3BF3FF"/>
<path d="M427.828 288.235L424.671 289.129L380.764 133.989L383.921 133.096L427.828 288.235Z" fill="#3BF3FF"/>
<path d="M385.191 126.88L336.843 98.3448L338.511 95.5194L386.859 124.054L385.191 126.88Z" fill="#3BF3FF"/>
<path d="M363.488 53.1501L326.953 63.49L326.06 60.333L362.595 49.9932L363.488 53.1501Z" fill="#3BF3FF"/>
<path d="M474.653 217.29L471.496 218.183L425.853 56.9064L366.409 23.5158L319.405 36.8186L318.511 33.6617L366.828 19.9876L428.641 54.7091L474.653 217.29Z" fill="#3BF3FF"/>
<path d="M409.523 21.8696L401.053 24.2667L352.125 -2.87384L312.597 8.31324L311.703 5.15635L352.534 -6.39923L401.462 20.7412L408.63 18.7127L409.523 21.8696Z" fill="#3BF3FF"/>
<path d="M399.027 6.30053L351.203 -22.0972L306.325 -9.39621L305.432 -12.5531L351.666 -25.638L393.63 -0.720416L380.962 -45.4819L302.048 -24.4212L301.202 -27.591L383.239 -49.4853L399.027 6.30053Z" fill="#3BF3FF"/>
<path d="M348.198 -52.691L340.182 -53.3574L341.033 -44.7095L313.929 -37.0385L313.035 -40.1954L337.499 -47.119L336.53 -56.953L348.47 -55.9608L348.198 -52.691Z" fill="#3BF3FF"/>
<path d="M294.414 -51.57L293.476 -54.7139L373.292 -78.5208L374.23 -75.3769L294.414 -51.57Z" fill="#3BF3FF"/>
<path d="M326.012 -131.721C326.008 -131.713 326.001 -131.702 325.993 -131.687C325.977 -131.658 325.952 -131.613 325.92 -131.554C325.855 -131.437 325.76 -131.263 325.634 -131.036C325.384 -130.582 325.017 -129.916 324.55 -129.068C323.614 -127.373 322.277 -124.949 320.668 -122.038C317.452 -116.215 313.15 -108.441 308.811 -100.636C304.473 -92.8315 300.095 -84.9927 296.728 -79.0421C295.045 -76.0678 293.61 -73.5593 292.558 -71.7611C292.033 -70.8635 291.598 -70.1334 291.272 -69.6076C291.11 -69.3464 290.967 -69.1223 290.849 -68.9485C290.79 -68.8626 290.728 -68.7746 290.667 -68.6946C290.632 -68.649 290.509 -68.4863 290.336 -68.3424L288.236 -70.8635C288.1 -70.7503 288.03 -70.6484 288.064 -70.6922C288.071 -70.7015 288.093 -70.7316 288.134 -70.7918C288.215 -70.9101 288.33 -71.0897 288.483 -71.3362C288.787 -71.8259 289.205 -72.5275 289.726 -73.4176C290.766 -75.1951 292.191 -77.6871 293.872 -80.6577C297.233 -86.5971 301.606 -94.4269 305.943 -102.23C310.28 -110.031 314.58 -117.803 317.796 -123.624C319.404 -126.534 320.741 -128.957 321.676 -130.652C322.144 -131.5 322.511 -132.166 322.761 -132.619C322.886 -132.846 322.982 -133.02 323.046 -133.137C323.078 -133.196 323.103 -133.24 323.119 -133.27C323.127 -133.285 323.134 -133.296 323.138 -133.304C323.14 -133.307 323.141 -133.31 323.142 -133.312C323.143 -133.313 323.143 -133.314 323.144 -133.314C323.146 -133.313 323.206 -133.281 324.581 -132.524C325.98 -131.753 326.017 -131.733 326.018 -131.732L326.012 -131.721Z" fill="#3BF3FF"/>
<path d="M289.326 -145.203L262.613 -99.3354L265.591 -89.3869L262.447 -88.4461L259.062 -99.7571L285.789 -145.65L271.173 -197.294L274.331 -198.188L289.326 -145.203Z" fill="#3BF3FF"/>
<path d="M272.677 -153.817L247.787 -110.076L255.429 -83.0758L252.272 -82.1822L244.256 -110.504L269.146 -154.245L249.763 -222.734L252.92 -223.627L272.677 -153.817Z" fill="#3BF3FF"/>
<path d="M237.635 -79.8056L234.476 -78.9167C227.641 -103.205 220.777 -127.588 213.943 -151.873L217.101 -152.762C223.954 -128.411 230.781 -104.159 237.635 -79.8056Z" fill="#3BF3FF"/>
<path d="M228.316 -81.5742L225.159 -80.6806L207.886 -141.713L211.043 -142.606L228.316 -81.5742Z" fill="#3BF3FF"/>
<path d="M219.013 -78.9152L215.842 -78.0704L198.168 -144.403L189.557 -141.966L183.597 -163.026L98.1998 -209.799L99.7763 -212.676L186.38 -165.243L191.821 -146.017L200.481 -148.468L219.013 -78.9152Z" fill="#3BF3FF"/>
<path d="M195.032 -167.628L191.875 -166.734L181.671 -202.789L130.17 -233.837L131.865 -236.647L184.475 -204.93L195.032 -167.628Z" fill="#3BF3FF"/>
<path d="M206.445 -203.655L203.287 -202.761L199.801 -215.079L154.656 -243.055L156.385 -245.843L202.612 -217.197L206.445 -203.655Z" fill="#3BF3FF"/>
<path d="M191.869 -71.2592L188.712 -70.3656L166.778 -147.865L120.988 -172.397L122.538 -175.289L169.556 -150.099L191.869 -71.2592Z" fill="#3BF3FF"/>
<path d="M179.661 -65.0422L165.186 -116.174L108.738 -141.905L110.099 -144.891L167.929 -118.529L182.819 -65.936L179.661 -65.0422Z" fill="#3BF3FF"/>
<path d="M164.414 -60.727L161.256 -59.8335L148.571 -104.656L98.2066 -132.849L99.8096 -135.712L151.359 -106.855L164.414 -60.727Z" fill="#3BF3FF"/>
<path d="M155.42 -60.9436L152.262 -60.05L141.994 -96.3318L78.6946 -127.776L74.7525 -141.705L77.9099 -142.598L81.4562 -130.068L144.756 -98.6237L155.42 -60.9436Z" fill="#3BF3FF"/>
<path d="M147.874 -56.046L144.716 -55.1525L137.781 -79.6568L140.938 -80.5504L147.874 -56.046Z" fill="#3BF3FF"/>
<path d="M130.959 -51.2591L127.802 -50.3655L124.564 -61.806L94.2983 -72.6417L88.5585 -92.9225L63.9257 -101.365L43.6933 -167.628L46.8316 -168.586L66.5749 -103.926L91.248 -95.4692L96.9955 -75.1611L127.261 -64.3251L130.959 -51.2591Z" fill="#3BF3FF"/>
<path d="M80.3042 -200.653L57.3317 -163.624L59.4321 -156.203L56.2748 -155.309L53.7803 -164.123L76.7527 -201.152L72.4404 -216.389L75.5978 -217.283L80.3042 -200.653Z" fill="#3BF3FF"/>
<path d="M105.053 -46.6892L101.896 -45.7957L98.1532 -59.0207L53.4408 -87.2839L31.4894 -164.847L42.7142 -188.637L45.6818 -187.238L34.9813 -164.559L56.2561 -89.386L100.968 -61.123L105.053 -46.6892Z" fill="#3BF3FF"/>
<path d="M96.0212 -44.133L92.8638 -43.2395L91.6805 -47.4206L48.3365 -73.2195L20.56 -166.776L0.33151 -175.193L14.7861 -215.609L24.9781 -176.948L21.8051 -176.112L14.3112 -204.538L4.47129 -177.025L23.2617 -169.206L51.1174 -75.3829L94.482 -49.5715L96.0212 -44.133Z" fill="#3BF3FF"/>
<path d="M41.693 -67.3998L38.5357 -66.5063L10.2007 -166.625L13.3581 -167.519L41.693 -67.3998Z" fill="#3BF3FF"/>
<path d="M94.6863 11.1151L60.8809 20.6825L39.814 6.6435L41.6337 3.9132L61.4428 17.1137L93.7928 7.95821L94.6863 11.1151Z" fill="#3BF3FF"/>
<path d="M91.1701 -11.9212L88.0128 -11.0276L80.8714 -36.2613L39.2358 -53.6797L40.5025 -56.7064L83.5978 -38.6774L91.1701 -11.9212Z" fill="#3BF3FF"/>
<path d="M100.377 26.6339L58.5801 38.4628L57.6867 35.3059L99.4832 23.477L100.377 26.6339Z" fill="#3BF3FF"/>
<path d="M105.482 44.6734L60.0771 57.5235L59.1837 54.3666L104.589 41.5165L105.482 44.6734Z" fill="#3BF3FF"/>
<path d="M110.162 61.2088L82.2271 69.1147L66.7984 95.12L29.9025 103.8L29.151 100.607L64.6887 92.2457L80.0732 66.3145L109.268 58.0519L110.162 61.2088Z" fill="#3BF3FF"/>
<path d="M78.3066 91.8306L77.2753 88.716L113.206 76.818L114.237 79.9326L78.3066 91.8306Z" fill="#3BF3FF"/>
<path d="M132.353 144.208L101.546 152.927L95.7649 166.928L70.607 174.048L58.4943 191.549L55.796 189.682L68.5796 171.212L93.3395 164.205L99.1205 150.204L131.46 141.051L132.353 144.208Z" fill="#3BF3FF"/>
<path d="M116.934 89.7244L76.8787 101.06L67.0145 114.405L50.9139 118.962L52.914 126.029L39.908 129.71L39.0145 126.553L48.8632 123.766L46.8631 116.699L65.0425 111.554L74.9065 98.2089L116.04 86.5675L116.934 89.7244Z" fill="#3BF3FF"/>
<path d="M119.699 99.495L79.6575 110.827L67.5533 127.731L58.2795 130.356L57.3861 127.199L65.5543 124.887L77.6583 107.983L118.806 96.3381L119.699 99.495Z" fill="#3BF3FF"/>
<path d="M32.6627 145.343L31.7275 142.198L125.195 114.409L126.131 117.553L32.6627 145.343Z" fill="#3BF3FF"/>
<path d="M132.143 133.712L93.6876 144.595L83.9239 156.187L57.3198 162.549L44.6644 183.698L41.8489 182.013L55.2134 159.679L82.1102 153.247L91.826 141.712L131.249 130.555L132.143 133.712Z" fill="#3BF3FF"/>
<path d="M42.0309 153.219L27.2411 151.549L20.6366 153.418L19.7432 150.261L26.9681 148.217L41.7046 149.881L126.305 123.027L127.297 126.154L42.0309 153.219Z" fill="#3BF3FF"/>
<path d="M378.855 -75.3973C380.309 -75.8087 381.154 -77.3203 380.743 -78.7737C380.331 -80.227 378.819 -81.0717 377.366 -80.6603C375.912 -80.2489 375.068 -78.7373 375.479 -77.284C375.89 -75.8306 377.402 -74.9859 378.855 -75.3973ZM379.749 -72.2404C376.552 -71.3355 373.226 -73.1936 372.321 -76.3904C371.417 -79.5872 373.275 -82.9123 376.472 -83.8172C379.67 -84.7221 382.995 -82.8641 383.9 -79.6672C384.805 -76.4704 382.946 -73.1453 379.749 -72.2404Z" fill="#3BF3FF"/>
<path d="M356.02 -50.7606C358.395 -51.4328 359.776 -53.9029 359.104 -56.2778C358.432 -58.6527 355.961 -60.033 353.586 -59.3608C351.211 -58.6886 349.83 -56.2183 350.502 -53.8435C351.175 -51.4686 353.645 -50.0884 356.02 -50.7606ZM356.913 -47.6037C352.794 -46.438 348.511 -48.8315 347.345 -52.9499C346.179 -57.0683 348.574 -61.352 352.693 -62.5177C356.812 -63.6835 361.096 -61.2898 362.261 -57.1713C363.427 -53.0529 361.032 -48.7694 356.913 -47.6037Z" fill="#3BF3FF"/>
<path d="M415.149 21.5123C417.087 20.9638 418.213 18.9483 417.665 17.0106C417.116 15.0728 415.101 13.9465 413.163 14.4949C411.225 15.0434 410.098 17.0591 410.647 18.9969C411.195 20.9346 413.211 22.0608 415.149 21.5123ZM416.042 24.6692C412.36 25.7112 408.531 23.5717 407.489 19.8905C406.447 16.2092 408.588 12.38 412.269 11.338C415.951 10.2961 419.78 12.4358 420.822 16.117C421.864 19.7983 419.724 23.6272 416.042 24.6692Z" fill="#3BF3FF"/>
<path d="M369.183 54.4072C371.522 53.7453 372.882 51.3127 372.22 48.974C371.558 46.6352 369.125 45.2758 366.786 45.9378C364.447 46.5999 363.088 49.0325 363.75 51.3712C364.412 53.71 366.844 55.0692 369.183 54.4072ZM370.077 57.5642C365.994 58.7196 361.748 56.347 360.592 52.2648C359.437 48.1825 361.81 43.9364 365.893 42.7809C369.976 41.6254 374.222 43.9981 375.378 48.0804C376.533 52.1627 374.16 56.4087 370.077 57.5642Z" fill="#3BF3FF"/>
<path d="M328.843 -133.018C330.854 -133.588 331.802 -135.413 331.39 -136.869C330.977 -138.325 329.214 -139.383 327.203 -138.814C325.191 -138.244 324.243 -136.419 324.655 -134.963C325.067 -133.507 326.831 -132.449 328.843 -133.018ZM329.736 -129.862C326.284 -128.885 322.485 -130.582 321.498 -134.07C320.511 -137.558 322.857 -140.994 326.309 -141.971C329.761 -142.947 333.56 -141.251 334.547 -137.763C335.534 -134.275 333.188 -130.838 329.736 -129.862Z" fill="#3BF3FF"/>
<path d="M476.124 226.696C478.201 226.108 479.408 223.949 478.82 221.873C478.233 219.797 476.073 218.591 473.997 219.178C471.92 219.766 470.714 221.925 471.301 224.001C471.889 226.077 474.048 227.284 476.124 226.696ZM477.018 229.853C473.198 230.934 469.225 228.714 468.144 224.895C467.063 221.075 469.283 217.102 473.103 216.021C476.923 214.94 480.896 217.16 481.977 220.98C483.058 224.799 480.838 228.772 477.018 229.853Z" fill="#3BF3FF"/>
<path d="M427.949 295.264C429.596 294.798 430.553 293.086 430.087 291.439C429.621 289.793 427.908 288.836 426.262 289.302C424.615 289.768 423.658 291.481 424.124 293.127C424.59 294.773 426.302 295.73 427.949 295.264ZM428.842 298.421C425.452 299.381 421.926 297.41 420.966 294.02C420.007 290.631 421.978 287.105 425.368 286.145C428.758 285.186 432.285 287.156 433.244 290.546C434.203 293.936 432.233 297.462 428.842 298.421Z" fill="#3BF3FF"/>
<path d="M404.346 283.975C406.242 283.438 407.344 281.467 406.807 279.571C406.271 277.676 404.299 276.574 402.403 277.111C400.508 277.647 399.406 279.619 399.942 281.514C400.479 283.41 402.45 284.511 404.346 283.975ZM405.239 287.132C401.6 288.162 397.815 286.047 396.785 282.408C395.755 278.769 397.871 274.984 401.51 273.954C405.149 272.924 408.935 275.039 409.964 278.678C410.994 282.317 408.879 286.102 405.239 287.132Z" fill="#3BF3FF"/>
<path d="M393.92 130.442C394.691 130.223 395.139 129.422 394.921 128.651C394.703 127.88 393.901 127.432 393.13 127.65C392.359 127.868 391.911 128.67 392.129 129.441C392.347 130.212 393.149 130.66 393.92 130.442ZM394.813 133.599C392.299 134.31 389.683 132.849 388.972 130.335C388.26 127.82 389.722 125.205 392.236 124.493C394.751 123.781 397.367 125.243 398.078 127.757C398.79 130.272 397.328 132.887 394.813 133.599Z" fill="#3BF3FF"/>
<path d="M453.417 448.944C456.207 448.154 457.828 445.253 457.039 442.463C456.249 439.673 453.348 438.052 450.558 438.842C447.768 439.631 446.146 442.533 446.935 445.322C447.725 448.112 450.627 449.733 453.417 448.944ZM454.31 452.101C449.776 453.384 445.061 450.749 443.778 446.216C442.495 441.683 445.13 436.968 449.664 435.685C454.198 434.402 458.913 437.036 460.196 441.569C461.479 446.103 458.844 450.817 454.31 452.101Z" fill="#3BF3FF"/>
<path d="M389.544 434.272C391.682 433.667 392.926 431.443 392.32 429.305C391.715 427.166 389.491 425.923 387.352 426.529C385.214 427.134 383.971 429.358 384.576 431.496C385.181 433.635 387.405 434.877 389.544 434.272ZM390.437 437.429C386.555 438.528 382.517 436.272 381.419 432.39C380.32 428.508 382.577 424.471 386.459 423.372C390.341 422.273 394.379 424.529 395.478 428.411C396.576 432.293 394.32 436.33 390.437 437.429Z" fill="#3BF3FF"/>
<path d="M332.727 325.462C334.928 324.839 336.207 322.551 335.584 320.35C334.961 318.149 332.672 316.87 330.471 317.493C328.271 318.116 326.991 320.405 327.614 322.606C328.237 324.806 330.526 326.085 332.727 325.462ZM333.62 328.619C329.676 329.736 325.573 327.443 324.457 323.499C323.341 319.555 325.633 315.453 329.578 314.336C333.523 313.22 337.625 315.512 338.741 319.456C339.858 323.4 337.565 327.503 333.62 328.619Z" fill="#3BF3FF"/>
<path d="M284.211 284.096C286.328 283.497 287.559 281.295 286.96 279.178C286.361 277.06 284.159 275.83 282.041 276.429C279.924 277.029 278.693 279.231 279.292 281.348C279.891 283.465 282.093 284.695 284.211 284.096ZM285.104 287.253C281.243 288.346 277.227 286.102 276.135 282.241C275.042 278.381 277.286 274.365 281.148 273.272C285.009 272.18 289.025 274.423 290.117 278.284C291.21 282.145 288.965 286.16 285.104 287.253Z" fill="#3BF3FF"/>
<path d="M276.076 448.683C278.671 447.949 280.179 445.251 279.445 442.657C278.711 440.063 276.012 438.555 273.418 439.289C270.823 440.024 269.315 442.722 270.049 445.316C270.784 447.91 273.482 449.418 276.076 448.683ZM276.97 451.84C272.632 453.068 268.12 450.547 266.892 446.209C265.664 441.872 268.186 437.36 272.524 436.132C276.863 434.905 281.375 437.426 282.602 441.763C283.83 446.101 281.308 450.613 276.97 451.84Z" fill="#3BF3FF"/>
<path d="M309.799 300.396C310.961 300.067 311.637 298.859 311.308 297.697C310.979 296.535 309.771 295.86 308.609 296.188C307.446 296.517 306.771 297.726 307.1 298.888C307.429 300.05 308.637 300.725 309.799 300.396ZM310.693 303.553C307.787 304.375 304.765 302.687 303.942 299.781C303.12 296.876 304.809 293.854 307.715 293.032C310.621 292.209 313.643 293.898 314.465 296.803C315.288 299.709 313.599 302.731 310.693 303.553Z" fill="#3BF3FF"/>
<path d="M238.481 360.745C240.64 360.133 241.896 357.887 241.285 355.728C240.673 353.569 238.427 352.313 236.267 352.925C234.108 353.536 232.852 355.782 233.464 357.941C234.075 360.101 236.321 361.356 238.481 360.745ZM239.374 363.902C235.471 365.006 231.411 362.738 230.306 358.835C229.202 354.932 231.471 350.873 235.374 349.768C239.278 348.663 243.337 350.931 244.442 354.834C245.547 358.737 243.278 362.797 239.374 363.902Z" fill="#3BF3FF"/>
<path d="M260.881 441.7C261.918 441.407 262.521 440.328 262.228 439.29C261.934 438.253 260.855 437.65 259.817 437.943C258.78 438.237 258.177 439.316 258.47 440.353C258.764 441.391 259.843 441.994 260.881 441.7ZM261.774 444.857C258.993 445.644 256.1 444.028 255.313 441.247C254.526 438.466 256.143 435.574 258.924 434.787C261.705 433.999 264.598 435.616 265.385 438.397C266.172 441.177 264.555 444.07 261.774 444.857Z" fill="#3BF3FF"/>
<path d="M231.164 419.179C232.263 418.868 232.903 417.724 232.592 416.624C232.28 415.525 231.136 414.886 230.037 415.197C228.937 415.508 228.298 416.652 228.609 417.751C228.92 418.851 230.064 419.49 231.164 419.179ZM232.057 422.336C229.214 423.141 226.256 421.488 225.451 418.645C224.647 415.802 226.3 412.845 229.143 412.04C231.987 411.235 234.944 412.888 235.749 415.731C236.554 418.574 234.901 421.531 232.057 422.336Z" fill="#3BF3FF"/>
<path d="M210.625 401.625C212.062 401.219 212.896 399.725 212.49 398.289C212.084 396.853 210.59 396.019 209.154 396.425C207.718 396.832 206.883 398.325 207.289 399.761C207.696 401.197 209.189 402.032 210.625 401.625ZM211.519 404.782C208.339 405.682 205.032 403.834 204.132 400.655C203.232 397.475 205.081 394.168 208.26 393.268C211.44 392.368 214.748 394.216 215.647 397.396C216.547 400.575 214.699 403.882 211.519 404.782Z" fill="#3BF3FF"/>
<path d="M179.695 398.323C181.536 397.802 182.606 395.887 182.085 394.047C181.565 392.206 179.65 391.136 177.809 391.657C175.968 392.178 174.898 394.093 175.419 395.933C175.94 397.774 177.855 398.844 179.695 398.323ZM180.589 401.48C177.004 402.494 173.276 400.411 172.261 396.827C171.247 393.243 173.331 389.515 176.915 388.5C180.5 387.486 184.228 389.569 185.243 393.153C186.257 396.737 184.173 400.465 180.589 401.48Z" fill="#3BF3FF"/>
<path d="M179.203 461.082C181.299 460.489 182.517 458.309 181.924 456.213C181.331 454.117 179.151 452.899 177.055 453.492C174.958 454.086 173.74 456.266 174.333 458.362C174.926 460.457 177.107 461.676 179.203 461.082ZM180.096 464.239C176.256 465.326 172.262 463.095 171.176 459.255C170.089 455.416 172.321 451.422 176.161 450.335C180.001 449.249 183.995 451.48 185.082 455.32C186.168 459.159 183.936 463.153 180.096 464.239Z" fill="#3BF3FF"/>
<path d="M162.854 344.745C165.553 343.982 167.122 341.175 166.358 338.476C165.594 335.777 162.787 334.209 160.088 334.973C157.389 335.736 155.82 338.543 156.584 341.242C157.348 343.941 160.155 345.509 162.854 344.745ZM163.748 347.902C159.305 349.16 154.684 346.578 153.427 342.136C152.169 337.693 154.752 333.073 159.195 331.816C163.638 330.558 168.258 333.14 169.516 337.582C170.773 342.025 168.19 346.645 163.748 347.902Z" fill="#3BF3FF"/>
<path d="M118.106 278.7C121.105 277.852 122.848 274.732 122 271.733C121.151 268.735 118.032 266.992 115.032 267.841C112.033 268.689 110.29 271.809 111.138 274.807C111.987 277.806 115.106 279.549 118.106 278.7ZM118.999 281.857C114.256 283.2 109.323 280.443 107.981 275.701C106.639 270.959 109.396 266.026 114.139 264.684C118.882 263.341 123.815 266.098 125.157 270.84C126.499 275.582 123.742 280.515 118.999 281.857Z" fill="#3BF3FF"/>
<path d="M41.8447 190.803C43.779 190.256 44.9034 188.244 44.3561 186.31C43.8087 184.376 41.7968 183.252 39.8625 183.799C37.9282 184.347 36.804 186.358 37.3513 188.292C37.8987 190.226 39.9104 191.35 41.8447 190.803ZM42.7381 193.96C39.0601 195.001 35.2348 192.863 34.194 189.186C33.1532 185.508 35.291 181.683 38.969 180.642C42.6471 179.601 46.4726 181.739 47.5134 185.416C48.5541 189.094 46.4162 192.919 42.7381 193.96Z" fill="#3BF3FF"/>
<path d="M15.7021 157.25C17.5193 156.736 18.5756 154.846 18.0614 153.029C17.5471 151.212 15.6571 150.156 13.8399 150.671C12.0227 151.185 10.9664 153.075 11.4806 154.892C11.9949 156.709 13.8848 157.765 15.7021 157.25ZM16.5955 160.407C13.0345 161.415 9.33095 159.346 8.32328 155.785C7.31565 152.225 9.38549 148.521 12.9465 147.514C16.5074 146.506 20.211 148.575 21.2187 152.136C22.2264 155.696 20.1565 159.399 16.5955 160.407Z" fill="#3BF3FF"/>
<path d="M36.7508 129.356C38.3837 128.894 39.3329 127.196 38.8709 125.563C38.4088 123.931 36.7104 122.982 35.0775 123.444C33.4447 123.906 32.4956 125.604 32.9577 127.237C33.4198 128.87 35.1179 129.818 36.7508 129.356ZM37.6442 132.513C34.2676 133.469 30.7559 131.507 29.8003 128.131C28.8448 124.754 30.8074 121.243 34.1841 120.287C37.5607 119.331 41.0727 121.294 42.0282 124.67C42.9837 128.046 41.0209 131.558 37.6442 132.513Z" fill="#3BF3FF"/>
<path d="M35.1887 9.53609C37.7632 8.80745 39.2597 6.13005 38.5312 3.55588C37.8027 0.981733 35.125 -0.514371 32.5505 0.214234C29.976 0.942854 28.4795 3.62029 29.2081 6.19445C29.9366 8.76863 32.6142 10.2647 35.1887 9.53609ZM36.0822 12.693C31.7639 13.9151 27.2727 11.4057 26.0507 7.08802C24.8288 2.77035 27.3388 -1.72054 31.6571 -2.94267C35.9753 -4.16478 40.4666 -1.65535 41.6886 2.6623C42.9105 6.97998 40.4005 11.4709 36.0822 12.693Z" fill="#3BF3FF"/>
<path d="M36.0793 -50.7935C38.6115 -51.5101 40.0833 -54.1435 39.3668 -56.6753C38.6503 -59.2072 36.0167 -60.6787 33.4845 -59.9621C30.9523 -59.2454 29.4804 -56.612 30.1969 -54.0802C30.9135 -51.5484 33.5471 -50.0768 36.0793 -50.7935ZM36.9727 -47.6365C32.6968 -46.4264 28.2496 -48.9113 27.0396 -53.1866C25.8296 -57.4619 28.3151 -61.9088 32.591 -63.119C36.8669 -64.3291 41.3142 -61.8443 42.5242 -57.5689C43.7341 -53.2936 41.2487 -48.8467 36.9727 -47.6365Z" fill="#3BF3FF"/>
<path d="M56.3279 60.4138C58.1352 59.9023 59.1856 58.0226 58.6742 56.2156C58.1628 54.4087 56.2831 53.3584 54.4759 53.8699C52.6687 54.3814 51.618 56.2609 52.1294 58.0679C52.6408 59.8749 54.5207 60.9253 56.3279 60.4138ZM57.2214 63.5707C53.6703 64.5757 49.9769 62.512 48.972 58.9615C47.9672 55.411 50.0315 51.718 53.5825 50.713C57.1335 49.708 60.8267 51.7716 61.8315 55.3221C62.8364 58.8726 60.7724 62.5657 57.2214 63.5707Z" fill="#3BF3FF"/>
<path d="M15.7374 -216.012C18.2422 -216.721 19.6982 -219.326 18.9895 -221.83C18.2807 -224.334 15.6755 -225.79 13.1707 -225.081C10.666 -224.372 9.21018 -221.767 9.91896 -219.263C10.6278 -216.758 13.2327 -215.303 15.7374 -216.012ZM16.6309 -212.855C12.3824 -211.653 7.96386 -214.121 6.76162 -218.369C5.55941 -222.617 8.02878 -227.036 12.2773 -228.238C16.5258 -229.44 20.9446 -226.971 22.1468 -222.723C23.349 -218.476 20.8794 -214.057 16.6309 -212.855Z" fill="#3BF3FF"/>
<path d="M47.1265 -190.311C49.6723 -191.031 51.1522 -193.679 50.4319 -196.224C49.7115 -198.77 47.0635 -200.249 44.5176 -199.529C41.9718 -198.808 40.492 -196.16 41.2125 -193.615C41.9329 -191.069 44.5806 -189.59 47.1265 -190.311ZM48.0199 -187.154C43.7303 -185.94 39.269 -188.432 38.0551 -192.721C36.8413 -197.01 39.3346 -201.472 43.6242 -202.686C47.9138 -203.9 52.3754 -201.407 53.5892 -197.118C54.803 -192.829 52.3095 -188.368 48.0199 -187.154Z" fill="#3BF3FF"/>
<path d="M11.9483 -174.195C13.1913 -174.547 13.914 -175.84 13.5623 -177.082C13.2105 -178.325 11.9176 -179.048 10.6745 -178.696C9.43155 -178.344 8.70909 -177.051 9.06083 -175.809C9.41262 -174.566 10.7053 -173.843 11.9483 -174.195ZM12.8418 -171.038C9.85502 -170.193 6.74869 -171.929 5.90347 -174.915C5.0583 -177.901 6.79434 -181.008 9.78108 -181.853C12.7679 -182.698 15.8745 -180.962 16.7196 -177.976C17.5648 -174.99 15.8285 -171.884 12.8418 -171.038Z" fill="#3BF3FF"/>
<path d="M77.1015 -216.6C78.9698 -217.129 80.0558 -219.072 79.5271 -220.94C78.9984 -222.808 77.0552 -223.894 75.1869 -223.365C73.3186 -222.836 72.2326 -220.893 72.7613 -219.025C73.29 -217.157 75.2332 -216.071 77.1015 -216.6ZM77.9949 -213.443C74.3828 -212.421 70.6261 -214.52 69.604 -218.132C68.5819 -221.743 70.6814 -225.5 74.2935 -226.522C77.9056 -227.544 81.6623 -225.445 82.6844 -221.833C83.7065 -218.222 81.607 -214.465 77.9949 -213.443Z" fill="#3BF3FF"/>
<path d="M63.3313 -211.324C64.182 -211.565 64.6765 -212.45 64.4357 -213.3C64.195 -214.151 63.3102 -214.645 62.4595 -214.405C61.6088 -214.164 61.1143 -213.279 61.355 -212.429C61.5958 -211.578 62.4806 -211.084 63.3313 -211.324ZM64.2247 -208.167C61.6303 -207.433 58.9319 -208.941 58.1977 -211.535C57.4635 -214.129 58.9716 -216.827 61.5661 -217.562C64.1605 -218.296 66.8589 -216.788 67.5931 -214.194C68.3272 -211.6 66.8192 -208.902 64.2247 -208.167Z" fill="#3BF3FF"/>
<path d="M62.3685 -149.89C64.0362 -150.363 65.0055 -152.097 64.5336 -153.765C64.0617 -155.432 62.3272 -156.401 60.6594 -155.929C58.9917 -155.457 58.0221 -153.723 58.494 -152.055C58.9659 -150.388 60.7007 -149.418 62.3685 -149.89ZM63.2619 -146.734C59.8504 -145.768 56.302 -147.751 55.3367 -151.162C54.3713 -154.573 56.3545 -158.121 59.766 -159.086C63.1775 -160.052 66.7256 -158.069 67.691 -154.658C68.6563 -151.247 66.6734 -147.699 63.2619 -146.734Z" fill="#3BF3FF"/>
<path d="M91.2652 -144.132C92.9256 -144.602 93.8906 -146.329 93.4208 -147.989C92.951 -149.649 91.2242 -150.614 89.5639 -150.144C87.9036 -149.674 86.9385 -147.948 87.4083 -146.288C87.8781 -144.627 89.605 -143.663 91.2652 -144.132ZM92.1587 -140.976C88.7546 -140.012 85.2142 -141.99 84.251 -145.394C83.2877 -148.798 85.2664 -152.338 88.6704 -153.301C92.0745 -154.264 95.6149 -152.286 96.5782 -148.883C97.5414 -145.479 95.5627 -141.939 92.1587 -140.976Z" fill="#3BF3FF"/>
<path d="M118.766 -171.996C120.661 -172.533 121.763 -174.505 121.227 -176.4C120.69 -178.295 118.719 -179.397 116.823 -178.861C114.927 -178.324 113.825 -176.353 114.362 -174.457C114.898 -172.562 116.87 -171.46 118.766 -171.996ZM119.659 -168.84C116.02 -167.81 112.234 -169.925 111.204 -173.564C110.174 -177.202 112.29 -180.987 115.929 -182.017C119.569 -183.047 123.354 -180.932 124.384 -177.294C125.414 -173.655 123.298 -169.87 119.659 -168.84Z" fill="#3BF3FF"/>
<path d="M96.6597 -209.85C98.0709 -210.25 98.8911 -211.717 98.4918 -213.128C98.0925 -214.539 96.6248 -215.36 95.2136 -214.96C93.8024 -214.561 92.9821 -213.093 93.3814 -211.682C93.7807 -210.271 95.2485 -209.451 96.6597 -209.85ZM97.5531 -206.693C94.3982 -205.801 91.1168 -207.634 90.2241 -210.789C89.3313 -213.943 91.1652 -217.224 94.3201 -218.117C97.4751 -219.01 100.756 -217.177 101.649 -214.022C102.542 -210.867 100.708 -207.586 97.5531 -206.693Z" fill="#3BF3FF"/>
<path d="M114.051 -227.057C115.92 -227.586 117.006 -229.529 116.477 -231.397C115.948 -233.265 114.005 -234.351 112.137 -233.822C110.269 -233.293 109.183 -231.35 109.711 -229.482C110.24 -227.614 112.183 -226.529 114.051 -227.057ZM114.945 -223.901C111.333 -222.878 107.576 -224.977 106.554 -228.589C105.532 -232.2 107.631 -235.957 111.243 -236.979C114.856 -238.001 118.612 -235.902 119.634 -232.291C120.656 -228.679 118.557 -224.923 114.945 -223.901Z" fill="#3BF3FF"/>
<path d="M136.494 -236.222C139.193 -236.986 140.762 -239.793 139.998 -242.492C139.234 -245.19 136.427 -246.759 133.728 -245.995C131.029 -245.231 129.46 -242.424 130.224 -239.725C130.988 -237.027 133.795 -235.458 136.494 -236.222ZM137.387 -233.065C132.944 -231.808 128.324 -234.39 127.066 -238.832C125.809 -243.274 128.392 -247.894 132.834 -249.152C137.277 -250.409 141.898 -247.827 143.155 -243.385C144.412 -238.943 141.83 -234.322 137.387 -233.065Z" fill="#3BF3FF"/>
<path d="M155.403 -243.522C157.106 -244.004 158.095 -245.775 157.614 -247.477C157.132 -249.179 155.361 -250.169 153.658 -249.687C151.956 -249.205 150.966 -247.434 151.448 -245.732C151.93 -244.03 153.7 -243.04 155.403 -243.522ZM156.297 -240.365C152.85 -239.39 149.266 -241.393 148.291 -244.838C147.315 -248.284 149.319 -251.869 152.765 -252.844C156.211 -253.819 159.796 -251.816 160.771 -248.371C161.746 -244.925 159.743 -241.34 156.297 -240.365Z" fill="#3BF3FF"/>
<path d="M207.986 -195.033C210.183 -195.655 211.46 -197.94 210.838 -200.137C210.217 -202.334 207.931 -203.61 205.734 -202.989C203.537 -202.367 202.26 -200.082 202.882 -197.885C203.503 -195.688 205.789 -194.411 207.986 -195.033ZM208.879 -191.876C204.938 -190.761 200.84 -193.051 199.724 -196.991C198.609 -200.932 200.9 -205.03 204.841 -206.145C208.782 -207.261 212.88 -204.971 213.996 -201.03C215.111 -197.09 212.82 -192.992 208.879 -191.876Z" fill="#3BF3FF"/>
<path d="M194.726 -178.367C196.15 -178.77 196.979 -180.252 196.576 -181.677C196.172 -183.101 194.69 -183.93 193.265 -183.526C191.841 -183.123 191.012 -181.641 191.416 -180.216C191.819 -178.792 193.301 -177.964 194.726 -178.367ZM195.619 -175.21C192.45 -174.313 189.155 -176.155 188.258 -179.323C187.362 -182.491 189.203 -185.786 192.372 -186.683C195.541 -187.58 198.836 -185.739 199.733 -182.57C200.63 -179.402 198.788 -176.107 195.619 -175.21Z" fill="#3BF3FF"/>
<path d="M213.19 -153.906C216.469 -154.834 218.375 -158.244 217.447 -161.524C216.519 -164.803 213.109 -166.708 209.829 -165.78C206.55 -164.852 204.643 -161.441 205.571 -158.162C206.499 -154.883 209.91 -152.978 213.19 -153.906ZM214.083 -150.749C209.06 -149.327 203.835 -152.246 202.414 -157.269C200.993 -162.291 203.912 -167.515 208.936 -168.937C213.959 -170.359 219.183 -167.44 220.605 -162.417C222.026 -157.395 219.106 -152.17 214.083 -150.749Z" fill="#3BF3FF"/>
<path d="M251.224 -223.595C253.164 -224.145 254.292 -226.163 253.743 -228.103C253.194 -230.043 251.176 -231.171 249.235 -230.622C247.295 -230.073 246.167 -228.055 246.716 -226.114C247.265 -224.174 249.283 -223.046 251.224 -223.595ZM252.117 -220.439C248.433 -219.396 244.601 -221.537 243.559 -225.221C242.516 -228.904 244.658 -232.736 248.342 -233.779C252.026 -234.821 255.858 -232.68 256.901 -228.997C257.943 -225.313 255.802 -221.481 252.117 -220.439Z" fill="#3BF3FF"/>
<path d="M370.705 158.223C371.678 157.947 372.243 156.936 371.968 155.963C371.693 154.991 370.681 154.425 369.709 154.701C368.736 154.976 368.17 155.988 368.445 156.96C368.721 157.933 369.733 158.498 370.705 158.223ZM371.599 161.38C368.882 162.149 366.057 160.57 365.288 157.854C364.519 155.138 366.099 152.312 368.815 151.544C371.532 150.775 374.357 152.353 375.126 155.07C375.894 157.786 374.315 160.611 371.599 161.38Z" fill="#3BF3FF"/>
<path d="M219.588 -41.4067C221.262 -41.8805 222.235 -43.6213 221.761 -45.2951C221.288 -46.9688 219.547 -47.9417 217.873 -47.4679C216.199 -46.9941 215.226 -45.2532 215.699 -43.5794C216.173 -41.9057 217.914 -40.933 219.588 -41.4067ZM220.481 -38.2498C217.064 -37.2826 213.509 -39.2687 212.542 -42.6859C211.575 -46.1031 213.561 -49.6575 216.979 -50.6249C220.397 -51.5921 223.952 -49.6059 224.919 -46.1886C225.886 -42.7714 223.899 -39.2171 220.481 -38.2498Z" fill="#3BF3FF"/>
<path d="M223.882 -25.846C225.556 -26.3198 226.529 -28.0606 226.056 -29.7344C225.582 -31.4081 223.841 -32.381 222.167 -31.9072C220.493 -31.4334 219.52 -29.6925 219.994 -28.0187C220.467 -26.345 222.208 -25.3723 223.882 -25.846ZM224.776 -22.6891C221.358 -21.7219 217.803 -23.708 216.836 -27.1252C215.869 -30.5424 217.856 -34.0968 221.273 -35.0641C224.691 -36.0314 228.246 -34.0452 229.213 -30.6279C230.18 -27.2107 228.193 -23.6564 224.776 -22.6891Z" fill="#3BF3FF"/>
<path d="M228.194 -10.6116C229.868 -11.0854 230.841 -12.8263 230.367 -14.5C229.894 -16.1738 228.152 -17.1467 226.478 -16.6729C224.804 -16.1991 223.831 -14.4581 224.305 -12.7844C224.779 -11.1107 226.52 -10.138 228.194 -10.6116ZM229.087 -7.45475C225.669 -6.48756 222.115 -8.47363 221.148 -11.8908C220.181 -15.3081 222.167 -18.8625 225.585 -19.8298C229.003 -20.7971 232.557 -18.8109 233.525 -15.3936C234.492 -11.9763 232.505 -8.42201 229.087 -7.45475Z" fill="#3BF3FF"/>
<path d="M277.119 110.715L273.962 111.608L264.285 77.4166L267.443 76.523L277.119 110.715Z" fill="#3BF3FF"/>
<path d="M269.803 112.785L266.646 113.679L256.969 79.4871L260.127 78.5935L269.803 112.785Z" fill="#3BF3FF"/>
<path d="M262.485 114.856L259.328 115.75L249.651 81.5583L252.808 80.6647L262.485 114.856Z" fill="#3BF3FF"/>
<path d="M255.169 116.927L252.012 117.82L242.335 83.6288L245.492 82.7352L255.169 116.927Z" fill="#3BF3FF"/>
<path d="M247.851 118.998L244.693 119.892L235.017 85.7L238.174 84.8064L247.851 118.998Z" fill="#3BF3FF"/>
<path d="M240.535 121.068L237.377 121.962L227.701 87.7705L230.858 86.8769L240.535 121.068Z" fill="#3BF3FF"/>
<path d="M204.038 -43.5551L181.804 -37.2625L191.545 -2.84457L185.728 -11.6314C184.139 -14.0323 182.55 -16.4327 180.961 -18.8331C180.819 -19.047 180.677 -19.261 180.536 -19.475C180.788 -18.0359 181.04 -16.5969 181.293 -15.1579C181.998 -11.1361 182.703 -7.11411 183.408 -3.09147L185.136 6.76846L180.351 -2.0241C178.407 -5.59601 176.462 -9.16784 174.518 -12.7397C174.27 -13.1958 174.022 -13.652 173.773 -14.1081C173.87 -13.6152 173.965 -13.1224 174.062 -12.6295C174.836 -8.65482 175.611 -4.68005 176.386 -0.705622L178.578 10.5309L173.319 0.362108C170.392 -5.29617 167.466 -10.955 164.54 -16.6137C164.621 -13.0794 164.702 -9.54484 164.781 -6.0108L161.5 -5.93694C161.368 -11.8345 161.233 -17.7337 161.099 -23.6313L160.937 -30.7283L164.197 -24.4222C166.455 -20.0525 168.715 -15.6835 170.975 -11.3141C170.93 -11.5434 170.886 -11.7726 170.841 -12.0018C170.066 -15.9766 169.291 -19.9512 168.516 -23.9257L166.477 -34.3778L171.567 -25.0238C173.511 -21.4519 175.456 -17.8802 177.4 -14.3084C177.749 -13.6672 178.098 -13.026 178.447 -12.3847C178.318 -13.1201 178.189 -13.8555 178.06 -14.5909C177.355 -18.6127 176.65 -22.6346 175.945 -26.6573L174.587 -34.4053L178.929 -27.846C180.169 -25.973 181.409 -24.1004 182.649 -22.2278L177.753 -39.5258L203.145 -46.712L204.038 -43.5551Z" fill="#3BF3FF"/>
<path d="M219.019 94.2244L203.789 98.5346L190.018 49.8776L205.248 45.5673L219.019 94.2244ZM194.069 52.1409L206.053 94.4841L214.968 91.961L202.984 49.6178L194.069 52.1409Z" fill="#3BF3FF"/>
<path d="M217.085 49.3073L210.38 51.2048L197.461 5.55586L204.166 3.65827L217.085 49.3073ZM201.512 7.81921L212.644 47.1543L213.035 47.0439L201.902 7.70876L201.512 7.81921Z" fill="#3BF3FF"/>
<path d="M254.577 76.5842L240.294 80.6263L228.906 40.3891L243.189 36.347L254.577 76.5842ZM232.957 42.6525L242.558 76.5758L250.526 74.3208L240.925 40.3975L232.957 42.6525Z" fill="#3BF3FF"/>
</g>
</g>
<defs>
<clipPath id="clip0_1505_22760">
<rect width="383" height="516" fill="white"/>
</clipPath>
</defs>
</svg>
