<svg width="89" height="109" viewBox="0 0 89 109" fill="none" xmlns="http://www.w3.org/2000/svg">
<g clip-path="url(#clip0_1707_22164)">
<path d="M35.4777 97.4089C35.3469 95.0462 34.2467 91.8894 29.7489 90.282C28.4549 89.8172 27.0493 89.7543 25.8134 89.701L25.3045 89.6768C24.4079 89.6332 23.5112 89.6381 22.6485 89.6477C21.2284 89.6623 19.8908 89.6768 18.6112 89.4638C14.4431 88.7714 13.7548 87.4884 13.9099 84.2057C14.0408 81.4363 13.9972 78.633 13.9535 75.9217C13.9439 75.2342 13.9342 74.5515 13.9245 73.864C13.8808 70.2521 12.2475 68.4704 8.62217 68.0927C8.18597 68.0492 7.74007 67.9668 7.24571 67.8749C7.4105 67.4924 7.57529 67.1196 7.73523 66.7467C8.55432 64.8488 9.32495 63.0526 10.241 61.3774C12.8582 56.5744 14.1086 51.4036 14.065 45.5645C13.9923 35.6101 18.2962 27.7812 26.8652 22.3053C33.1659 18.277 40.4844 16.8245 48.622 17.9817C50.677 18.277 52.3637 17.1005 52.6448 15.188C52.9162 13.3385 51.5688 11.5762 49.6398 11.2615C48.5735 11.0872 47.5024 10.9613 46.4458 10.8935C34.3097 10.0995 24.1704 13.9002 16.309 22.1939C10.052 28.7979 7.01307 36.9077 7.27964 46.3053C7.38627 50.0866 6.58656 53.5726 4.83205 56.9763C3.4362 59.6828 2.07428 62.6749 0.547568 66.3885C-0.378152 68.6398 0.0435106 70.2908 0.557261 71.2785C1.31335 72.731 2.75282 73.7284 4.72543 74.169C5.43789 74.3288 6.16974 74.4498 6.90159 74.5321C7.0373 74.5466 7.12939 74.566 7.18755 74.5805C7.1924 74.6338 7.20209 74.7113 7.19724 74.8178C7.16816 76.9529 7.18755 79.1172 7.20694 81.2136C7.22148 82.7968 7.23602 84.3849 7.23117 85.9681C7.21663 89.6138 8.76273 92.3687 11.695 93.9374C13.8469 95.0898 16.0909 95.845 18.1799 96.1355C20.0798 96.397 21.9894 96.3389 23.8408 96.2856C24.5921 96.2614 25.3821 96.2421 26.1236 96.2421C28.0768 96.2421 28.8717 96.9974 28.9492 98.9389C29.0316 100.929 29.1334 103.04 29.2546 105.393C29.3612 107.426 30.7716 108.84 32.6812 108.84C32.6861 108.84 32.6909 108.84 32.6957 108.84C33.6554 108.835 34.4793 108.506 35.0755 107.881C35.5165 107.417 36.0303 106.569 35.9673 105.18C35.8994 103.703 35.7976 102.212 35.6959 100.769C35.6183 99.6409 35.5408 98.5225 35.4777 97.4089Z" fill="white"/>
<path d="M82.9273 4.10571C78.6622 0.363112 73.1708 -0.876349 67.4614 0.610036C59.7212 2.629 53.9149 10.7436 54.4917 18.7275L54.4868 19.3617C54.482 19.9282 54.4771 20.4947 54.4917 21.0612C54.5498 23.2593 55.8972 24.6827 57.9231 24.6827C57.9231 24.6827 57.9231 24.6827 57.928 24.6827C59.5274 24.6827 61.2577 23.7241 61.3255 21.0418C61.3449 20.3397 61.3255 19.6474 61.3061 18.9744C61.3013 18.713 61.2916 18.4515 61.2867 18.1949C61.248 16.0258 61.7714 14.0359 62.8861 12.1186C65.2804 8.00323 70.0156 5.96006 74.3922 7.1511C78.8997 8.37604 82.0645 12.506 82.0839 17.1975C82.1033 21.9375 79.4958 25.3073 74.7363 26.692C69.3565 28.251 65.9347 33.3541 66.2255 39.3819C66.3176 41.3089 67.5826 42.5339 69.5213 42.5726C69.5504 42.5726 69.5843 42.5726 69.6134 42.5726C71.4648 42.5726 72.7346 41.4106 72.9285 39.5224C72.9527 39.2706 72.9576 39.0382 72.9576 38.83C72.9576 38.709 72.9576 38.5831 72.9673 38.462C73.1902 35.5716 74.4116 33.9012 76.801 33.2088C83.8869 31.1463 87.9581 26.3434 88.8887 18.9357C89.5527 13.6825 87.2118 7.86282 82.9273 4.10571Z" fill="white"/>
<path d="M84.638 46.9832C84.3714 45.0949 84.1 43.1486 83.7462 41.2264C83.5475 40.1371 82.9804 39.2414 82.1516 38.6991C81.3955 38.2053 80.4892 38.0455 79.5974 38.2537C77.8041 38.6701 76.8687 40.384 77.2128 42.616C77.2661 42.9694 77.3243 43.3277 77.3825 43.6812C77.6345 45.2595 77.8768 46.7508 77.935 48.2468C78.2113 55.1413 76.4567 61.6049 72.5745 68.0056C72.2837 68.4849 71.9929 68.9642 71.6973 69.4436C69.9864 72.242 68.2174 75.1373 66.807 78.1779C64.7277 82.6564 64.025 87.7305 64.6647 93.6857C64.9071 95.9613 65.1058 98.2853 65.2948 100.537C65.4353 102.183 65.5759 103.829 65.731 105.475C65.8328 106.54 66.235 107.441 66.8894 108.075C67.5097 108.675 68.3143 109 69.1915 109C69.3079 109 69.4242 108.995 69.5405 108.985C70.4565 108.898 71.2708 108.477 71.8233 107.804C72.4534 107.039 72.7296 106.013 72.6133 104.846C72.5212 103.926 72.434 103.006 72.3467 102.086C72.1044 99.5441 71.8572 96.9151 71.5373 94.3296C70.6989 87.5223 71.9154 81.6978 75.2548 76.5269C75.8121 75.6651 76.3501 74.7936 76.8881 73.9221C77.3243 73.2152 77.7605 72.5083 78.2113 71.8111C82.457 65.1393 84.7398 57.6687 84.9918 49.6025L84.9966 49.4718L84.9773 49.3459C84.8561 48.5567 84.7446 47.7675 84.638 46.9832Z" fill="white"/>
<path d="M59.1589 40.0305C59.1347 39.5851 59.1056 39.0283 58.9893 38.457C58.2041 34.5449 55.9455 31.2526 52.6207 29.1755C49.3055 27.1081 45.3603 26.5223 41.5072 27.5342C35.7202 29.0496 31.9059 32.8746 30.4713 38.5974C29.9381 40.7277 30.8978 42.5675 32.8074 43.0662C34.8042 43.5891 36.4812 42.461 37.0773 40.2C38.2017 35.9587 41.3812 33.7122 45.7965 34.0414C48.8015 34.2641 50.8323 35.7118 51.8258 38.3456C52.8873 41.1538 52.4074 43.5891 50.4009 45.579C49.354 46.62 48.0842 47.5932 46.6302 48.4792C42.7819 50.8177 40.8044 54.4344 40.4215 59.8522C40.3488 60.8593 40.6833 61.8518 41.3376 62.5732C41.9482 63.2462 42.7722 63.6287 43.6591 63.6529C43.7028 63.6529 43.7415 63.6529 43.7851 63.6529C45.7141 63.6529 47.047 62.428 47.2699 60.4332L47.3232 59.9151C47.3814 59.368 47.4347 58.8451 47.522 58.3416C47.9 56.1532 49.3831 54.8266 51.6513 53.3886C56.6338 50.2415 59.1007 46.0584 59.1928 40.6067V40.5292L59.188 40.4517C59.1734 40.3258 59.1686 40.1854 59.1589 40.0305Z" fill="white"/>
<path d="M43.6591 66.0204C42.5541 66.035 41.4781 66.4949 40.7026 67.2889C39.9369 68.0733 39.5249 69.0949 39.5394 70.1697C39.554 71.2736 40.0677 72.392 40.9498 73.2345C41.7786 74.0285 42.84 74.4788 43.8724 74.4788C43.9063 74.4788 43.9402 74.4788 43.9742 74.4788C46.2909 74.411 48.0842 72.5034 48.0551 70.1261C48.0406 68.8722 47.6092 67.8215 46.7998 67.0856C46.0243 66.3739 44.9435 66.0059 43.6591 66.0204Z" fill="white"/>
<path d="M69.9186 52.7348C69.938 52.7348 69.9574 52.7348 69.9768 52.7348C71.0091 52.7203 71.9736 52.2894 72.7006 51.5244C73.4615 50.7256 73.8735 49.6217 73.8347 48.4984C73.7572 46.3293 71.9785 44.5864 69.8168 44.6348C68.7942 44.6541 67.8297 45.085 67.1027 45.8452C66.3369 46.6392 65.9152 47.7334 65.9395 48.847C65.9879 50.9676 67.8006 52.7348 69.9186 52.7348Z" fill="white"/>
</g>
<defs>
<clipPath id="clip0_1707_22164">
<rect width="89" height="109" fill="white"/>
</clipPath>
</defs>
</svg>
