<svg width="106" height="109" viewBox="0 0 106 109" fill="none" xmlns="http://www.w3.org/2000/svg">
<g clip-path="url(#clip0_1707_22162)">
<path d="M105.989 53.6175C105.917 52.8538 105.855 52.0229 105.793 51.1457C105.644 49.0505 105.479 46.6715 105.051 44.3286C102.36 29.4613 95.1625 17.8192 83.6551 9.72752C72.5034 1.88873 59.6349 -1.23854 45.4002 0.438625C34.3156 1.74423 24.8292 6.14097 17.1988 13.4998C5.9647 24.3472 0.174914 37.9658 0.00477806 53.9839C-0.118957 65.2132 2.77851 75.3948 8.60954 84.2348C19.1064 100.15 34.2176 108.479 53.5307 108.979C53.9225 108.99 54.3143 108.995 54.701 108.995C64.0636 108.995 73.184 106.059 81.8197 100.263C97.5134 89.7358 105.422 74.5175 106 53.7362V53.6743L105.989 53.6175ZM38.966 100.439C19.4931 94.6693 2.25779 72.7527 6.76382 45.7013C7.23299 46.0264 7.697 46.3412 8.15585 46.656C10.2129 48.0545 12.1566 49.3808 13.8992 50.9392C15.5851 52.4513 15.1881 54.8096 14.5592 56.5229C14.2704 57.3176 13.9353 58.1175 13.6105 58.8967C13.2909 59.6708 12.9558 60.4758 12.6567 61.286C11.4297 64.6094 11.5173 67.8708 12.9197 70.7194C14.3168 73.568 16.8998 75.7612 20.0087 76.7417C22.1122 77.4023 24.0507 77.0772 25.9273 76.7675C26.5718 76.6591 27.1802 76.5559 27.7988 76.494C31.1294 76.1534 34.4135 76.7211 37.5585 78.1815C39.1619 78.9246 40.425 80.3902 41.0231 82.1964C41.6881 84.2038 41.4819 86.4383 40.4611 88.327C38.4762 91.9962 37.9864 95.882 38.966 100.439ZM45.4879 91.1034C48.2152 85.5868 47.7099 80.3076 44.0133 75.8386C41.6521 72.9797 38.1772 71.3593 33.3927 70.8742C32.243 70.7555 31.0521 70.6988 29.8147 70.6988C28.0205 70.6988 26.1387 70.8226 24.195 71.0652C22.1947 71.318 20.2355 70.5698 18.9621 69.0681C17.7763 67.6644 17.3948 65.8479 17.9206 64.0779C18.2454 62.9838 18.6785 61.8743 19.091 60.8009C19.6014 59.485 20.1272 58.1278 20.4985 56.719C21.7358 51.9817 20.2922 47.9462 16.3224 45.046C14.09 43.4152 11.7132 41.929 9.41383 40.4944L8.97044 40.2157C8.26412 39.7719 8.17131 39.5087 8.44456 38.714C13.9353 22.9952 23.664 13.0457 38.1823 8.33418C31.1191 15.8943 26.711 25.6064 24.4116 38.5334C24.0662 40.4789 23.9063 42.4657 23.7517 44.3854L23.6795 45.2885C23.5557 46.8108 24.0507 47.7036 24.4838 48.1835C25.0096 48.7615 25.7314 49.066 26.577 49.0711C27.6132 49.0763 29.3404 48.648 29.5724 45.6704C30.6087 32.5782 34.362 22.2108 41.054 13.9849C42.6935 11.9723 44.8537 10.2487 46.9417 8.58189C47.3542 8.25162 47.7615 7.92651 48.1688 7.59623C50.5094 5.69717 53.3605 5.98616 56.3817 6.29579L57.0262 6.36287C65.4093 7.17823 73.318 10.192 80.5308 15.3112C81.1649 15.7653 81.1855 15.8737 81.0051 16.4568C79.9791 19.7802 78.9841 23.3203 78.0406 26.9687C77.1487 30.4211 78.1643 33.5845 80.8968 35.8758C82.9951 37.6355 85.2688 39.2146 87.4806 40.7524C89.2541 41.9858 90.3522 43.4359 90.842 45.1904C92.265 50.2942 95.0645 53.8085 99.3952 55.9294C99.488 56.0688 99.6118 56.4249 99.6066 56.6519C99.2045 69.6822 94.3685 80.8288 85.2327 89.7823C78.154 96.7232 69.4358 101.042 59.3308 102.627C55.5362 103.22 51.3756 103.122 46.6221 102.327C46.4829 102.297 46.1375 102.038 46.024 101.806C43.9876 97.7656 43.8226 94.468 45.4879 91.1034ZM97.1835 45.4072C97.1113 45.2317 97.0443 45.0718 97.0133 44.9324C95.9771 40.6647 93.5023 37.3671 89.4345 34.8643C88.0116 33.987 86.6299 32.9601 85.2997 31.9693C83.7221 30.7978 83.2426 29.4148 83.784 27.6138C84.4284 25.4722 85.078 23.3254 85.7534 21.1013L86.1195 19.8937C93.8168 28.1505 98.2146 37.6922 99.5138 48.9576C98.4982 48.199 97.7661 47.3114 97.4206 46.0729C97.3536 45.8252 97.266 45.6033 97.1835 45.4072Z" fill="white"/>
<path d="M48.1072 33.3731L48.0969 30.9374C48.0969 30.5761 48.1175 30.4316 48.133 30.3749C48.1794 30.3491 48.3031 30.3026 48.5815 30.2562C50.9892 29.8846 53.4124 29.3892 55.753 28.9144C56.7842 28.7029 57.8205 28.4913 58.8516 28.29C60.852 27.903 62.8575 27.516 64.8991 27.1289L66.3324 26.8554V42.3988C61.151 41.8467 57.0626 44.0502 55.2684 48.4418C53.7062 52.2657 54.7632 55.8213 58.0267 57.7203C60.7385 59.2995 64.3423 59.1911 67.4306 57.4365C70.4466 55.7232 72.2717 52.8798 72.3078 49.8351C72.3903 43.0284 72.3697 36.1082 72.3439 29.4202C72.3387 27.2682 72.3284 25.1163 72.3284 22.9644C72.3284 21.8084 71.8541 21.1221 71.4571 20.7557C70.8797 20.219 70.0754 19.9713 69.1371 20.0332C68.6215 20.0694 68.1369 20.1674 67.6626 20.2655L60.2281 21.7104C55.32 22.6651 50.4066 23.6198 45.4933 24.559C43.0805 25.0234 42.1834 26.0865 42.1834 28.4964C42.1782 32.8261 42.1782 37.1609 42.1782 41.4906V46.9917C39.3478 46.5427 37.1102 47.3632 35.6667 48.2044C33.2693 49.5926 31.4597 51.9664 30.8204 54.5518C30.0006 57.8648 30.9853 60.7289 33.5271 62.4061C35.0016 63.3814 36.7236 63.882 38.4816 63.882C39.3529 63.882 40.2346 63.7581 41.1007 63.5053C43.694 62.7518 45.8078 60.9198 46.9008 58.4944C47.6278 56.8689 48.0196 54.8563 48.0557 52.5134C48.1691 46.1299 48.1382 39.6431 48.1072 33.3731Z" fill="white"/>
<path d="M67.9249 89.3333C69.3479 91.5678 71.9412 92.8218 74.7459 92.8218C75.8801 92.8218 77.0504 92.6153 78.1898 92.187C82.3917 90.6027 85.0056 86.7014 85.0211 81.995C85.0365 77.6447 85.0314 73.2893 85.0262 68.939C85.0262 66.5445 85.0211 64.15 85.0262 61.7556C85.7274 62.2716 86.3925 62.7619 87.0524 63.2624C88.5578 64.4132 89.0631 65.9304 88.5991 67.9017C87.9959 70.4613 89.3312 71.447 90.5582 71.8289C91.347 72.0714 92.1616 71.9785 92.8525 71.5605C93.6568 71.0703 94.2136 70.2136 94.4146 69.1351C95.1931 64.9551 94.1156 61.5904 91.213 59.1237C88.8001 57.0802 86.3306 55.0985 83.8713 53.2459C83.1547 52.7041 81.6338 52.1674 80.6594 52.7453C79.7468 53.282 79.1952 54.6392 79.1849 55.6404C79.1385 60.6719 79.1539 65.7808 79.1642 70.7245L79.1746 76.3237C75.5811 75.6063 72.5547 76.4372 69.9511 78.8471C66.8268 81.7319 65.9555 86.237 67.9249 89.3333Z" fill="white"/>
</g>
<defs>
<clipPath id="clip0_1707_22162">
<rect width="106" height="109" fill="white"/>
</clipPath>
</defs>
</svg>
