<svg width="140" height="95" viewBox="0 0 140 95" fill="none" xmlns="http://www.w3.org/2000/svg">
<g clip-path="url(#clip0_1707_22163)">
<path d="M139.994 27.794C139.994 25.2008 138.546 23.7635 135.917 23.7396C132.592 23.7096 129.516 23.7096 126.513 23.7396C123.956 23.7635 122.513 25.2188 122.454 27.8299C122.448 28.2012 122.43 28.5725 122.412 28.9498C122.358 30.1356 122.299 31.3573 122.501 32.579C122.931 35.1841 122.066 36.9748 119.313 39.1846C112.262 44.838 104.204 48.9104 94.6803 51.6353C91.2593 52.6115 87.7011 53.396 84.2622 54.1506C83.7199 54.2704 83.1775 54.3901 82.6352 54.5099C83.7497 53.4499 84.8702 52.3959 85.9847 51.3478C89.5249 48.0121 93.1843 44.5685 96.6292 41.0052C103.209 34.19 106.165 26.8178 105.659 18.4814C105.325 12.9538 102.494 7.74952 97.8927 4.19218C93.3512 0.682759 87.6952 -0.712626 82.3848 0.359365C77.5573 1.33554 73.6415 3.79692 70.7331 7.67765C66.2452 1.65294 59.868 -0.89229 52.2154 0.311455C44.1873 1.57509 38.7578 6.58769 36.5109 14.8103C34.3235 22.8233 36.3082 30.6386 42.2444 37.4179C45.4985 41.137 49.0805 44.6404 52.5492 48.03C53.908 49.3596 55.2669 50.6891 56.6079 52.0305C57.4781 52.8989 58.3721 53.7493 59.2661 54.5818C58.7297 54.462 58.1933 54.3422 57.6509 54.2224C54.1464 53.4379 50.5228 52.6294 47.0362 51.6353C37.1247 48.8086 28.2742 44.0535 20.7288 37.5078C19.6262 36.5496 19.1494 35.9207 19.2567 34.7469C19.4117 33.088 19.3759 31.4172 19.3401 29.8002C19.3282 29.2373 19.3163 28.6683 19.3103 28.1054C19.2925 25.1769 17.8621 23.7455 14.9417 23.7336C11.4491 23.7216 7.96254 23.7276 4.46999 23.7336C1.4304 23.7455 0.01192 25.1589 0.00595998 28.1772C0 49.0242 0 69.8711 0 90.7181C0 93.6226 1.33504 94.9761 4.19583 94.9881C7.15198 95 10.1141 95 13.0702 94.9941H14.8463C15.9489 94.9941 17.3376 94.8683 18.2733 93.8921C19.1971 92.9279 19.3163 91.5146 19.3163 90.3947C19.3163 88.4004 19.3163 86.4121 19.3163 84.3041V82.3637C56.2384 76.0695 89.9957 76.327 122.43 83.1423V84.879C122.43 86.8553 122.424 88.7298 122.436 90.6103C122.454 93.5987 123.831 94.9881 126.763 95C128.479 95.006 130.19 95.012 131.906 95.012C133.2 95.012 134.499 95.012 135.792 95.006C138.564 94.9941 139.97 93.6106 139.97 90.8917C139.994 70.1706 140 48.9403 139.994 27.794ZM129.552 87.5141V31.1537H132.973V87.5141H129.552ZM113.758 55.7436C113.633 54.3422 113.508 52.8989 113.967 52.0066C114.396 51.1742 115.6 50.4974 116.762 49.8387C117.406 49.4733 118.073 49.0961 118.675 48.6649C119.915 47.7785 121.137 46.8742 122.406 45.934V75.6563L113.883 74.0094V70.0568C113.883 65.9784 113.883 61.93 113.883 57.8816C113.883 57.1689 113.818 56.4443 113.758 55.7436ZM95.8246 59.7142C95.8186 59.283 95.8723 59.1812 95.8723 59.1752C95.8723 59.1752 95.9498 59.0853 96.3193 58.9656C99.2158 58.0373 102.136 56.9952 104.961 55.9891C105.527 55.7855 106.1 55.5819 106.672 55.3783V72.7817L95.8604 71.5121C95.8544 71.3863 95.8484 71.2665 95.8484 71.1467C95.8425 69.8232 95.8484 68.4997 95.8484 67.1822C95.8544 64.7268 95.8544 62.1995 95.8246 59.7142ZM27.4755 70.7994V73.6381L19.4057 75.0873V45.922L19.7573 46.1556C22.2129 47.7845 24.7518 49.4674 27.2312 51.1442C27.3086 51.1981 27.398 51.2939 27.4398 51.3598C27.4755 57.8217 27.4755 64.4213 27.4755 70.7994ZM34.6573 72.596V55.0728L35.5155 55.3783C38.5313 56.4503 41.6484 57.5582 44.6939 58.6841C44.7058 58.708 44.7237 58.732 44.7297 58.756C44.7654 62.3672 44.7595 65.9185 44.7595 69.6795V71.5061L34.6573 72.596ZM88.6905 60.9658V70.6197H74.321V62.5888L88.6905 60.9658ZM98.3636 25.3206C97.2729 29.0037 95.324 32.2257 92.5705 34.8967C87.3376 39.9632 82.1405 44.868 76.6335 50.0543C74.7203 51.8569 72.7952 53.6775 70.8523 55.51C68.7961 53.5277 66.7458 51.5634 64.7016 49.6111C58.9144 44.0715 53.4551 38.8433 48.0136 33.3575C44.8965 30.2134 43.0072 26.2429 42.5662 21.877C42.006 16.3614 45.5104 9.62999 52.3465 7.92319C53.2703 7.69562 54.2239 7.58183 55.1894 7.58183C57.5258 7.58183 59.9038 8.24659 61.9123 9.49824C64.3321 11.0134 65.9651 13.2352 66.5015 15.7505C66.6684 16.5231 66.9425 17.2777 67.3061 17.9364C67.9915 19.1881 69.2252 19.9427 70.602 19.9546C71.9728 19.9367 73.2243 19.23 73.9276 17.9843C74.315 17.3076 74.5236 16.559 74.6607 15.9841C75.4593 12.6783 77.7122 10.0672 81.0021 8.64185C84.596 7.07878 88.8514 7.26443 92.1056 9.12095C97.7616 12.3489 100.277 18.8587 98.3636 25.3206ZM51.983 70.979V60.5885L66.9962 62.6007V70.3802L51.983 70.979ZM7.15794 87.5021V31.1117H12.1226V87.4961H7.15794V87.5021Z" fill="white"/>
</g>
<defs>
<clipPath id="clip0_1707_22163">
<rect width="140" height="95" fill="white"/>
</clipPath>
</defs>
</svg>
