<svg width="371" height="336" viewBox="0 0 371 336" fill="none" xmlns="http://www.w3.org/2000/svg">
<path d="M371 7.50857L356.418 22H15.5816L1 7.50857L1.51173 7L15.8813 21.2807H356.119L370.488 7L371 7.50857Z" fill="white"/>
<path d="M211 2V3H160V2H211Z" fill="white"/>
<path d="M187.286 2.5C187.286 1.51378 186.486 0.714286 185.5 0.714286C184.514 0.714286 183.714 1.51378 183.714 2.5C183.714 3.48622 184.514 4.28571 185.5 4.28571V5C184.119 5 183 3.88071 183 2.5C183 1.11929 184.119 0 185.5 0C186.881 0 188 1.11929 188 2.5C188 3.88071 186.881 5 185.5 5V4.28571C186.486 4.28571 187.286 3.48622 187.286 2.5Z" fill="white"/>
<path d="M188.143 2.5C188.143 1.51378 187.183 0.714286 186 0.714286C184.817 0.714286 183.857 1.51378 183.857 2.5C183.857 3.48622 184.817 4.28571 186 4.28571V5C184.343 5 183 3.88071 183 2.5C183 1.11929 184.343 0 186 0C187.657 0 189 1.11929 189 2.5C189 3.88071 187.657 5 186 5V4.28571C187.183 4.28571 188.143 3.48622 188.143 2.5Z" fill="white"/>
<path d="M1.3933e-05 328.491L14.621 314L356.379 314L371 328.491L370.487 329L356.079 314.719L14.9215 314.719L0.51313 328.999L1.3933e-05 328.491Z" fill="white"/>
<path d="M160 334.999L160 333.999L211 333.999L211 334.999L160 334.999Z" fill="white"/>
<path d="M183.714 333.499C183.714 334.485 184.514 335.285 185.5 335.285C186.486 335.285 187.286 334.485 187.286 333.499C187.286 332.513 186.486 331.713 185.5 331.713L185.5 330.999C186.881 330.999 188 332.118 188 333.499C188 334.88 186.881 335.999 185.5 335.999C184.119 335.999 183 334.88 183 333.499C183 332.118 184.119 330.999 185.5 330.999L185.5 331.713C184.514 331.713 183.714 332.513 183.714 333.499Z" fill="white"/>
<path d="M183.714 333.499C183.714 334.485 184.514 335.285 185.5 335.285C186.486 335.285 187.286 334.485 187.286 333.499C187.286 332.513 186.486 331.713 185.5 331.713L185.5 330.999C186.881 330.999 188 332.118 188 333.499C188 334.88 186.881 335.999 185.5 335.999C184.119 335.999 183 334.88 183 333.499C183 332.118 184.119 330.999 185.5 330.999L185.5 331.713C184.514 331.713 183.714 332.513 183.714 333.499Z" fill="white"/>
</svg>
