<svg width="615" height="307" viewBox="0 0 615 307" fill="none" xmlns="http://www.w3.org/2000/svg">
<g opacity="0.4">
<path d="M593.236 305.004C590.282 304.992 587.643 302.667 587.235 299.511C464.853 298.804 342.469 298.096 220.088 297.389C218.962 296.807 217.837 296.223 216.711 295.642C210.473 295.656 204.233 295.67 197.995 295.684C199.441 298.18 200.885 300.677 202.331 303.173C242.512 303.338 282.696 303.507 322.878 303.673C322.878 304.726 322.878 305.781 322.878 306.834C272.247 306.862 221.615 306.888 170.984 306.916C169.845 305.669 168.705 304.42 167.566 303.173C152.642 303.257 137.721 303.338 122.798 303.423C121.937 304.616 121.076 305.807 120.212 307C97.6469 307 75.0816 307 52.5192 307C35.5136 289.611 18.508 272.224 1.49966 254.835C1.66567 209.574 1.83448 164.316 2.00049 119.055C9.08802 112.151 16.1727 105.243 23.2603 98.3386C23.0098 78.6215 22.7594 58.9043 22.509 39.1844C15.1739 32.5296 7.83595 25.8721 0.500826 19.2173C0.334822 12.8125 0.166004 6.40485 0 0C8.17077 8.15417 16.3387 16.3055 24.5095 24.4597C26.8448 24.5439 29.1773 24.6253 31.5126 24.7096C31.763 42.3461 32.0135 59.9854 32.2639 77.6218C33.6819 78.1216 35.0972 78.6215 36.5153 79.1185C36.4308 113.148 36.3492 147.174 36.2648 181.203C60.1638 205.275 84.0627 229.347 107.959 253.419C123.133 253.419 138.304 253.419 153.478 253.419C165.872 266.038 178.266 278.657 190.66 291.273C199.081 291.301 207.499 291.329 215.921 291.357C218.2 292.66 220.479 293.963 222.758 295.269C345.044 296.142 467.327 297.015 589.612 297.888C589.168 300.326 590.822 302.44 592.738 302.631C594.829 302.841 596.953 300.736 596.616 299.011C596.329 297.549 594.238 296.229 591.801 296.827C591.782 296.058 591.759 295.288 591.74 294.519C595.662 293.766 598.999 296.4 599.244 299.261C599.488 302.168 596.526 305.018 593.236 305.004ZM3.75057 6.61542C3.45795 10.4847 3.16814 14.354 2.87553 18.2205C9.42002 24.1705 15.9645 30.1176 22.509 36.0676C22.5512 32.364 22.5934 28.6631 22.6328 24.9595C16.3387 18.8467 10.0446 12.731 3.75057 6.61542ZM23.5107 100.526C17.2166 106.765 10.9225 113.004 4.62842 119.246C5.06734 119.684 5.50345 120.12 5.94238 120.558C12.0902 114.546 18.2379 108.537 24.3885 102.525C24.0931 101.857 23.8005 101.191 23.5107 100.526ZM4.87602 252.965C4.33299 253.422 3.79277 253.88 3.24974 254.338C19.7573 271.227 36.262 288.117 52.7696 305.004C53.4364 304.504 54.1032 304.004 54.7701 303.507C38.1415 286.66 21.5074 269.812 4.87602 252.965ZM30.8458 232.371C29.3264 232.371 28.0941 233.601 28.0941 235.118C28.0941 236.634 29.3264 237.864 30.8458 237.864C32.3652 237.864 33.5975 236.634 33.5975 235.118C33.5975 233.601 32.3652 232.371 30.8458 232.371ZM36.3493 238.487C34.8299 238.487 33.5975 239.717 33.5975 241.233C33.5975 242.749 34.8299 243.979 36.3493 243.979C37.8686 243.979 39.101 242.749 39.101 241.233C39.101 239.717 37.8686 238.487 36.3493 238.487ZM43.0597 243.979C41.5404 243.979 40.308 245.209 40.308 246.725C40.308 248.242 41.5404 249.472 43.0597 249.472C44.5791 249.472 45.8115 248.242 45.8115 246.725C45.8087 245.206 44.5791 243.979 43.0597 243.979ZM49.728 250.718C48.2087 250.718 46.9763 251.948 46.9763 253.464C46.9763 254.981 48.2087 256.211 49.728 256.211C51.2474 256.211 52.4798 254.981 52.4798 253.464C52.4798 251.945 51.2474 250.718 49.728 250.718ZM56.6468 258.538C55.1274 258.538 53.895 259.768 53.895 261.284C53.895 262.801 55.1274 264.031 56.6468 264.031C58.1661 264.031 59.3985 262.801 59.3985 261.284C59.3985 259.768 58.1661 258.538 56.6468 258.538ZM62.817 265.027C61.2977 265.027 60.0653 266.257 60.0653 267.773C60.0653 269.29 61.2977 270.52 62.817 270.52C64.3364 270.52 65.5688 269.29 65.5688 267.773C65.5688 266.257 64.3364 265.027 62.817 265.027ZM69.8202 272.266C68.3008 272.266 67.0684 273.496 67.0684 275.012C67.0684 276.529 68.3008 277.758 69.8202 277.758C71.3395 277.758 72.5719 276.529 72.5719 275.012C72.5719 273.493 71.3395 272.266 69.8202 272.266ZM77.5717 277.756C76.0523 277.756 74.82 278.985 74.82 280.502C74.82 282.018 76.0523 283.248 77.5717 283.248C79.0911 283.248 80.3234 282.018 80.3234 280.502C80.3234 278.985 79.0911 277.756 77.5717 277.756Z" fill="#838A8A"/>
<path d="M254.384 262.621C258.385 262.538 262.387 262.454 266.389 262.371C270.39 262.287 274.392 262.204 278.393 262.121L279.098 262.106L279.549 261.566C284.397 255.761 289.245 249.955 294.09 244.15H392.405V241.062H292.641L292.177 241.618C287.327 247.427 282.475 253.238 277.623 259.047C273.857 259.126 270.09 259.204 266.324 259.283C262.544 259.362 258.764 259.441 254.984 259.519C247.638 252.105 240.291 244.691 232.943 237.277C225.44 229.707 217.937 222.136 210.434 214.564L209.985 214.111L209.347 214.106C199.426 214.023 189.505 213.94 179.584 213.856C169.874 213.774 160.163 213.693 150.452 213.612C123.242 186.618 96.0292 159.627 68.8165 132.633C68.3209 91.2473 67.8228 49.8585 67.3245 8.46976L64.2295 8.50677C64.7303 50.1059 65.2312 91.7051 65.7292 133.301L65.7369 133.933L66.1858 134.378C93.6975 161.669 121.209 188.956 148.718 216.246L149.165 216.689L149.796 216.695C159.717 216.777 169.637 216.861 179.558 216.945C189.266 217.026 198.974 217.108 208.683 217.189C216.036 224.61 223.389 232.03 230.743 239.449C238.246 247.02 245.749 254.591 253.252 262.163L253.719 262.634L254.384 262.621Z" fill="#858989"/>
<path d="M230.35 267.613C269.838 267.446 309.326 267.28 348.813 267.114C388.301 266.947 427.789 266.781 467.277 266.614L467.264 263.525C427.776 263.692 388.288 263.858 348.8 264.025C309.54 264.19 270.28 264.356 231.02 264.522C225.533 258.561 220.046 252.6 214.559 246.638C208.918 240.509 203.276 234.38 197.635 228.252L197.18 227.758L196.507 227.752C182.252 227.641 167.996 227.531 153.74 227.42L111.618 227.092L83.8895 198.765C74.643 189.319 65.3963 179.874 56.1492 170.427C56.0669 147.063 55.984 123.699 55.901 100.335C55.8173 76.7629 55.7337 53.1905 55.6507 29.6181L52.5557 29.6288C52.6387 53.2012 52.7223 76.7738 52.8061 100.346C52.8898 123.919 52.9736 147.491 53.0566 171.063L53.0588 171.689L53.4971 172.137C62.8904 181.733 72.2831 191.328 81.6757 200.924C91.0683 210.519 100.461 220.114 109.854 229.711L110.304 230.171L110.949 230.176C125.204 230.286 139.46 230.397 153.716 230.508C167.748 230.617 181.78 230.727 195.811 230.836C201.3 236.799 206.79 242.763 212.28 248.728C217.921 254.856 223.562 260.986 229.204 267.114L229.666 267.616L230.35 267.613Z" fill="#858989"/>
<path d="M51.5498 177.584C50.814 177.57 50.0776 177.556 49.3412 177.541C49.1125 177.537 48.8838 177.533 48.6551 177.529C48.7365 152.245 48.8187 126.96 48.9007 101.675C48.9838 76.0741 49.067 50.4728 49.1494 24.8723L53.3119 20.0512L53.3182 19.4868C53.3716 14.6073 53.4279 9.72476 53.4841 4.8446L50.3894 4.80896C50.3353 9.50113 50.2811 14.1964 50.2295 18.8893C48.9627 20.3558 47.6954 21.8226 46.4306 23.2896L46.058 23.7218L46.0563 24.2918C45.9733 50.0825 45.8895 75.8738 45.8058 101.665C45.722 127.456 45.6384 153.248 45.5554 179.039L45.5505 180.559L47.0733 180.588C47.809 180.602 48.5457 180.616 49.2821 180.63C50.0186 180.644 50.755 180.658 51.4907 180.672L51.5498 177.584Z" fill="#656767"/>
<path d="M577.109 279L402.664 278.625C344.73 278.5 286.796 278.376 228.862 278.251C221.885 271.228 214.908 264.204 207.932 257.18C200.804 250.005 193.676 242.829 186.548 235.653L186.101 235.203L113.811 234.446L113.778 237.535L149.605 237.91C161.336 238.033 173.067 238.156 184.797 238.278C191.776 245.304 198.755 252.329 205.733 259.355C212.861 266.53 219.989 273.706 227.117 280.881L227.57 281.337L577.103 282.088L577.109 279Z" fill="#858989"/>
<path d="M559.102 274.6L559.095 271.511L231.963 272.261L231.97 275.349L559.102 274.6Z" fill="#858989"/>
<path d="M615 288.451L614.994 285.362L222.092 286.111C214.74 278.957 207.387 271.803 200.035 264.649C192.532 257.348 185.028 250.048 177.526 242.747L177.079 242.312L176.455 242.309C166.264 242.247 156.072 242.184 145.881 242.122C135.689 242.059 125.497 241.997 115.306 241.935L115.287 245.024C125.478 245.086 135.67 245.148 145.861 245.211C155.845 245.272 165.829 245.333 175.812 245.394C183.165 252.549 190.52 259.705 197.874 266.861C205.377 274.161 212.881 281.461 220.383 288.762L220.835 289.202L615 288.451Z" fill="#858989"/>
<path d="M474.957 264.028C474.957 265.599 473.681 266.872 472.107 266.872C470.533 266.872 469.257 265.599 469.257 264.028C469.257 262.457 470.533 261.183 472.107 261.183C473.681 261.183 474.957 262.457 474.957 264.028ZM478.052 264.028C478.052 260.751 475.39 258.095 472.107 258.095C468.823 258.095 466.162 260.751 466.162 264.028C466.162 267.305 468.824 269.961 472.107 269.961C475.39 269.961 478.052 267.305 478.052 264.028Z" fill="#858989"/>
</g>
</svg>
