<svg width="615" height="307" viewBox="0 0 615 307" fill="none" xmlns="http://www.w3.org/2000/svg">
<g opacity="0.4">
<path d="M21.7636 1.99642C24.718 2.00766 27.3571 4.3326 27.765 7.4887C150.147 8.19629 272.531 8.90388 394.912 9.61147C396.038 10.1927 397.163 10.7768 398.289 11.358C404.527 11.344 410.767 11.3299 417.005 11.3159C415.559 8.81964 414.115 6.32341 412.669 3.82718C372.488 3.66151 332.304 3.49304 292.122 3.32737C292.122 2.27441 292.122 1.21863 292.122 0.165667C342.753 0.137588 393.385 0.112316 444.016 0.0842373C445.155 1.33095 446.295 2.58047 447.434 3.82718C462.358 3.74294 477.279 3.66151 492.202 3.57728C493.063 2.38392 493.924 1.19336 494.788 0C517.353 0 539.918 0 562.481 0C579.486 17.3894 596.492 34.776 613.5 52.1653C613.334 97.426 613.166 142.684 613 187.945C605.912 194.849 598.827 201.757 591.74 208.661C591.99 228.379 592.241 248.096 592.491 267.816C599.826 274.47 607.164 281.128 614.499 287.783C614.665 294.188 614.834 300.595 615 307C606.829 298.846 598.661 290.694 590.49 282.54C588.155 282.456 585.823 282.375 583.487 282.29C583.237 264.654 582.987 247.015 582.736 229.378C581.318 228.878 579.903 228.379 578.485 227.882C578.569 193.852 578.651 159.826 578.735 125.797C554.836 101.725 530.937 77.6527 507.041 53.5805C491.867 53.5805 476.696 53.5805 461.522 53.5805C449.128 40.9618 436.734 28.343 424.34 15.7271C415.919 15.699 407.501 15.6709 399.079 15.6429C396.8 14.34 394.521 13.0371 392.242 11.7314C269.956 10.8582 147.673 9.98493 25.3875 9.11167C25.8321 6.6744 24.1777 4.56005 22.2617 4.36911C20.1711 4.15851 18.0468 6.26445 18.3845 7.9885C18.6714 9.45142 20.7619 10.7711 23.1985 10.1731C23.2182 10.9424 23.2407 11.7118 23.2604 12.4812C19.3382 13.2337 16.0013 10.5999 15.7565 7.7386C15.5117 4.83241 18.4745 1.98238 21.7636 1.99642ZM611.249 300.385C611.542 296.515 611.832 292.646 612.124 288.779C605.58 282.829 599.035 276.882 592.491 270.932C592.449 274.636 592.407 278.337 592.367 282.04C598.661 288.153 604.955 294.269 611.249 300.385ZM591.489 206.474C597.783 200.235 604.077 193.996 610.372 187.754C609.933 187.316 609.497 186.88 609.058 186.442C602.91 192.454 596.762 198.463 590.611 204.475C590.907 205.143 591.2 205.809 591.489 206.474ZM610.124 54.0354C610.667 53.5777 611.207 53.12 611.75 52.6623C595.243 35.7728 578.738 18.8832 562.23 1.99642C561.564 2.49623 560.897 2.99604 560.23 3.49304C576.858 20.3405 593.493 37.188 610.124 54.0354ZM584.154 74.6286C585.674 74.6286 586.906 73.3988 586.906 71.8825C586.906 70.3662 585.674 69.1364 584.154 69.1364C582.635 69.1364 581.402 70.3662 581.402 71.8825C581.402 73.3988 582.635 74.6286 584.154 74.6286ZM578.651 68.513C580.17 68.513 581.402 67.2831 581.402 65.7669C581.402 64.2506 580.17 63.0207 578.651 63.0207C577.131 63.0207 575.899 64.2506 575.899 65.7669C575.899 67.2831 577.131 68.513 578.651 68.513ZM571.94 63.0207C573.46 63.0207 574.692 61.7909 574.692 60.2746C574.692 58.7583 573.46 57.5285 571.94 57.5285C570.421 57.5285 569.189 58.7583 569.189 60.2746C569.191 61.7937 570.421 63.0207 571.94 63.0207ZM565.272 56.2817C566.791 56.2817 568.024 55.0519 568.024 53.5356C568.024 52.0193 566.791 50.7895 565.272 50.7895C563.753 50.7895 562.52 52.0193 562.52 53.5356C562.52 55.0547 563.753 56.2817 565.272 56.2817ZM558.353 48.4617C559.873 48.4617 561.105 47.2318 561.105 45.7156C561.105 44.1993 559.873 42.9694 558.353 42.9694C556.834 42.9694 555.602 44.1993 555.602 45.7156C555.602 47.2318 556.834 48.4617 558.353 48.4617ZM552.183 41.9726C553.702 41.9726 554.935 40.7428 554.935 39.2265C554.935 37.7102 553.702 36.4804 552.183 36.4804C550.664 36.4804 549.431 37.7102 549.431 39.2265C549.431 40.7428 550.664 41.9726 552.183 41.9726ZM545.18 34.7338C546.699 34.7338 547.932 33.504 547.932 31.9877C547.932 30.4714 546.699 29.2416 545.18 29.2416C543.66 29.2416 542.428 30.4714 542.428 31.9877C542.428 33.5068 543.66 34.7338 545.18 34.7338ZM537.428 29.2444C538.948 29.2444 540.18 28.0145 540.18 26.4982C540.18 24.982 538.948 23.7521 537.428 23.7521C535.909 23.7521 534.677 24.982 534.677 26.4982C534.677 28.0145 535.909 29.2444 537.428 29.2444Z" fill="#838A8A"/>
<path d="M360.616 44.3793C356.615 44.4621 352.613 44.5458 348.611 44.6294C344.61 44.7129 340.608 44.7963 336.607 44.8792L335.902 44.8937L335.451 45.4344C330.603 51.2386 325.755 57.0453 320.91 62.8495H222.595V65.9382H322.359L322.823 65.3824C327.673 59.5733 332.525 53.7617 337.377 47.9525C341.143 47.8745 344.91 47.7959 348.676 47.7172C352.456 47.6383 356.236 47.5595 360.016 47.4812C367.362 54.8954 374.709 62.3091 382.057 69.7226C389.56 77.2934 397.063 84.8642 404.566 92.4357L405.015 92.8887L405.653 92.8942C415.574 92.977 425.495 93.0604 435.416 93.144C445.126 93.2257 454.837 93.3072 464.548 93.3883C491.758 120.382 518.971 147.373 546.184 174.367C546.679 215.753 547.177 257.141 547.676 298.53L550.771 298.493C550.27 256.894 549.769 215.295 549.271 173.699L549.263 173.067L548.814 172.622C521.302 145.331 493.791 118.044 466.282 90.7542L465.835 90.3105L465.204 90.3053C455.283 90.2225 445.363 90.1388 435.442 90.0553C425.734 89.9735 416.026 89.8918 406.317 89.8107C398.964 82.3902 391.611 74.9703 384.257 67.5506C376.754 59.9797 369.251 52.409 361.748 44.8375L361.281 44.3656L360.616 44.3793Z" fill="#858989"/>
<path d="M384.65 39.3866C345.162 39.5536 305.674 39.7201 266.187 39.8864C226.699 40.0528 187.211 40.219 147.723 40.386L147.736 43.4748C187.224 43.3077 226.712 43.1415 266.2 42.9751C305.46 42.8097 344.72 42.6441 383.98 42.478C389.467 48.4388 394.954 54.4002 400.441 60.3617C406.082 66.4907 411.724 72.6197 417.365 78.748L417.82 79.2424L418.493 79.2476C432.748 79.3585 447.004 79.4693 461.26 79.5803L503.382 79.9079L531.111 108.235C540.357 117.681 549.604 127.126 558.851 136.573C558.933 159.937 559.016 183.301 559.099 206.665C559.183 230.237 559.266 253.81 559.349 277.382L562.444 277.371C562.361 253.799 562.278 230.226 562.194 206.654C562.11 183.081 562.026 159.509 561.943 135.937L561.941 135.311L561.503 134.863C552.11 125.267 542.717 115.672 533.324 106.076C523.932 96.481 514.539 86.8855 505.146 77.2895L504.696 76.8294L504.051 76.8244C489.796 76.7135 475.54 76.6027 461.284 76.4918C447.252 76.3827 433.22 76.2733 419.189 76.1641C413.7 70.2007 408.21 64.2367 402.72 58.2725C397.079 52.1435 391.438 46.0145 385.796 39.8862L385.334 39.3838L384.65 39.3866Z" fill="#858989"/>
<path d="M563.45 129.416C564.186 129.43 564.922 129.444 565.659 129.459C565.888 129.463 566.116 129.467 566.345 129.471C566.264 154.755 566.181 180.04 566.099 205.325C566.016 230.926 565.933 256.527 565.851 282.128L561.688 286.949L561.682 287.513C561.628 292.393 561.572 297.275 561.516 302.155L564.611 302.191C564.665 297.499 564.719 292.804 564.77 288.111C566.037 286.644 567.305 285.177 568.569 283.71L568.942 283.278L568.944 282.708C569.027 256.918 569.111 231.126 569.194 205.335C569.278 179.544 569.362 153.752 569.445 127.961L569.45 126.441L567.927 126.412C567.191 126.398 566.454 126.384 565.718 126.37C564.981 126.356 564.245 126.342 563.509 126.328L563.45 129.416Z" fill="#656767"/>
<path d="M37.8909 28.0005L212.336 28.3753C270.27 28.4998 328.204 28.624 386.138 28.7485C393.115 35.7722 400.092 42.7962 407.068 49.8199C414.196 56.9955 421.324 64.1711 428.452 71.3468L428.899 71.797L501.189 72.5536L501.222 69.4649L465.395 69.09C453.664 68.9673 441.933 68.8445 430.203 68.7217C423.224 61.6963 416.245 54.6709 409.267 47.6454C402.139 40.4698 395.011 33.2942 387.883 26.1186L387.43 25.6628L37.8975 24.9118L37.8909 28.0005Z" fill="#858989"/>
<path d="M55.8978 32.4005L55.905 35.4892L383.037 34.7395L383.03 31.6508L55.8978 32.4005Z" fill="#858989"/>
<path d="M0 18.549L0.00604248 21.6377L392.908 20.8891C400.26 28.0431 407.613 35.1973 414.965 42.3513C422.468 49.6518 429.972 56.9522 437.474 64.2527L437.921 64.6876L438.545 64.6914C448.736 64.7532 458.928 64.8157 469.119 64.8782C479.311 64.9407 489.503 65.0031 499.694 65.0649L499.713 61.9762C489.522 61.9144 479.33 61.8519 469.139 61.7895C459.155 61.7283 449.171 61.6668 439.188 61.6063C431.835 54.4507 424.48 47.2951 417.126 40.1395C409.623 32.839 402.119 25.5386 394.617 18.2381L394.165 17.7982L0 18.549Z" fill="#858989"/>
<path d="M140.043 42.9722C140.043 41.4013 141.319 40.1278 142.893 40.1278C144.467 40.1279 145.743 41.4013 145.743 42.9722C145.743 44.5431 144.467 45.8166 142.893 45.8166C141.319 45.8166 140.043 44.5431 140.043 42.9722ZM136.948 42.9722C136.948 46.249 139.61 48.9053 142.893 48.9053C146.177 48.9053 148.838 46.249 148.838 42.9722C148.838 39.6955 146.176 37.0392 142.893 37.0391C139.61 37.0391 136.948 39.6955 136.948 42.9722Z" fill="#858989"/>
</g>
</svg>
