<svg width="1290" height="419" viewBox="0 0 1290 419" fill="none" xmlns="http://www.w3.org/2000/svg">
<g filter="url(#filter0_d_1619_22162)">
<path d="M141.109 344.241L134.509 349.744H94.0165L67.8467 324.938V178.618L71.9721 175.866V95.3937L67.8467 91.5415V86.0172L88.791 60.9568H877.355L882.326 66.4599H929.694L957.789 36.7007H1070.72L1081.74 48.2784H1108.46L1120.58 36.1504H1202.94L1243.41 76.9371L1243.96 157.113L1238.19 161.262L1238.46 207.827L1242.86 212.78L1243.41 322.186L1215.32 352.221L1020.05 351.67L1004.33 336.791L849.81 336.24L811.814 371.524H623.125L616.799 365.724H259.286L239.717 337.341H189.599L184.627 343.416L141.109 344.241Z" fill="#4A3385"/>
<path d="M1258.48 125.641V56.5344L1229.92 28.2356H1197L1179.33 8.36081H1165.18L1160.57 2.0957H1115.68L1109.96 8.91112H955.208L944.609 23.3251H840.417L822.476 4.27579H662.538L631.27 35.0298H387.829L373.422 18.4358H41.0422L8.12368 52.4494V119.122L15.4648 126.191V138.425L29.618 152.585V189.329L1.05762 219.533V358.572L45.6542 404.015H115.024L120.461 409.2" stroke="#4A3385" stroke-miterlimit="10"/>
<path d="M19.0402 272.765H11.001V347.819L50.7528 388.457H111.914L143.162 417.942H300.329L331.576 385.346H828.04L853.956 360.772H967.796L990.56 383.547H1075.84L1084.32 393.389H1142.82L1162.9 373.726H1199.52" stroke="#4A3385" stroke-miterlimit="10"/>
<path d="M972.26 354.974L992.802 377.748H1079.86L1085.21 382.214H1137L1155.32 363.906" stroke="#4A3385" stroke-miterlimit="10"/>
<path d="M1258.46 248.213V338.443L1231.21 365.684H1164.69" stroke="#4A3385" stroke-miterlimit="10"/>
<path d="M1262.92 254.457L1271.85 245.081V143.23" stroke="#4A3385" stroke-miterlimit="10"/>
<path d="M37.4246 259.897V256.235L44.4907 251.367V182.895L39.6037 176.313V118.805L31.5645 110.021V54.2278L55.1956 30.8184H122.175L125.835 34.9669H344.819L349.918 40.8087" stroke="#4A3385" stroke-miterlimit="10"/>
<path d="M934.413 46.184H765.06L758.65 40.9772H451.995L442.581 48.9779H200.579L194.571 41.5698H116.908L112.698 39.1781H62.6641L40.0485 62.2066V96.8551L48.4474 103.459V171.952L52.2554 176.968V256.658L37.6367 272.088V334.971L66.4722 362.614V366.614H133.515L151.328 386.447H294.85L314.482 365.006H616.736L623.146 371.419H812.703L848.943 336.368H1004.27L1019.69 351.798H1215.26L1243.48 321.552V213.416L1238.27 208.399V161.348L1244.47 156.331V77.4249L1202.65 35.1777H1120.97L1107.95 47.5809H1081.34L1070.32 36.5747H957.43L930.012 65.8048H881.565L877.567 61.0001H86.8876V65.0005L68.2704 84.8329V91.6483L72.0573 95.8392V175.952L68.0588 179.169V324.558L93.8902 349.999H134.319L141.724 341.787" stroke="#4A3385" stroke-miterlimit="10"/>
<path d="M133.515 366.614L157.738 394.045H175.551V386.045" stroke="#4A3385" stroke-miterlimit="10"/>
<path d="M246.825 356.2H144.536L139.522 352.793L141.934 349.787H181.961L186.171 351.798" stroke="#4A3385" stroke-miterlimit="10"/>
<path d="M144.537 356.201L137.915 366.001L146.124 374.827H155.94L165.947 360.604H254.23L260.027 366.213H311.478" stroke="#4A3385" stroke-miterlimit="10"/>
<path d="M200.177 368.815H216.594L221.185 375.419" stroke="#4A3385" stroke-miterlimit="10"/>
<path d="M185.008 394.236H289.116" stroke="#4A3385" stroke-miterlimit="10"/>
<path d="M188.646 401.602H191.82" stroke="#4A3385" stroke-miterlimit="10"/>
<path d="M198.484 401.602H275.153" stroke="#4A3385" stroke-miterlimit="10" stroke-dasharray="3.15 3.15"/>
<path d="M278.495 401.602H281.668" stroke="#4A3385" stroke-miterlimit="10"/>
<path d="M318.988 407.528L324.446 402.702H814.691L825.587 391.802" stroke="#4A3385" stroke-miterlimit="10"/>
<path d="M980.616 351.037L983.218 343.607H1000.31L1015.95 358.106" stroke="#4A3385" stroke-miterlimit="10"/>
<path d="M15.9095 285.465C17.0079 285.465 17.8982 284.574 17.8982 283.475C17.8982 282.376 17.0079 281.485 15.9095 281.485C14.8112 281.485 13.9209 282.376 13.9209 283.475C13.9209 284.574 14.8112 285.465 15.9095 285.465Z" stroke="#4A3385" stroke-width="0.75" stroke-miterlimit="10"/>
<path d="M15.9095 293.634C17.0079 293.634 17.8982 292.744 17.8982 291.645C17.8982 290.546 17.0079 289.655 15.9095 289.655C14.8112 289.655 13.9209 290.546 13.9209 291.645C13.9209 292.744 14.8112 293.634 15.9095 293.634Z" stroke="#4A3385" stroke-width="0.75" stroke-miterlimit="10"/>
<path d="M15.9095 301.783C17.0079 301.783 17.8982 300.892 17.8982 299.793C17.8982 298.694 17.0079 297.804 15.9095 297.804C14.8112 297.804 13.9209 298.694 13.9209 299.793C13.9209 300.892 14.8112 301.783 15.9095 301.783Z" stroke="#4A3385" stroke-width="0.75" stroke-miterlimit="10"/>
<path d="M7.29832 39.5807C10.5465 39.5807 13.1797 36.9463 13.1797 33.6966C13.1797 30.4469 10.5465 27.8125 7.29832 27.8125C4.05015 27.8125 1.41699 30.4469 1.41699 33.6966C1.41699 36.9463 4.05015 39.5807 7.29832 39.5807Z" fill="#4A3385"/>
<path d="M1252.83 166.279V208.04" stroke="#4A3385" stroke-miterlimit="10" stroke-dasharray="1 1"/>
<path d="M1257.33 166.279V208.04" stroke="#4A3385" stroke-miterlimit="10" stroke-dasharray="1 1"/>
<path d="M1272.74 271.071V342.739" stroke="#4A3385" stroke-miterlimit="10" stroke-dasharray="1 1"/>
<path d="M1276.97 271.071V342.739" stroke="#4A3385" stroke-miterlimit="10" stroke-dasharray="1 1"/>
<path d="M1268.55 376.944C1271.48 376.944 1273.86 374.565 1273.86 371.631C1273.86 368.697 1271.48 366.318 1268.55 366.318C1265.62 366.318 1263.24 368.697 1263.24 371.631C1263.24 374.565 1265.62 376.944 1268.55 376.944Z" fill="#4A3385"/>
<path d="M1199.6 377.579C1201.44 377.579 1202.92 376.091 1202.92 374.256C1202.92 372.42 1201.44 370.933 1199.6 370.933C1197.77 370.933 1196.28 372.42 1196.28 374.256C1196.28 376.091 1197.77 377.579 1199.6 377.579Z" fill="#4A3385"/>
<path d="M1155.32 366.742C1156.89 366.742 1158.16 365.472 1158.16 363.906C1158.16 362.339 1156.89 361.069 1155.32 361.069C1153.76 361.069 1152.49 362.339 1152.49 363.906C1152.49 365.472 1153.76 366.742 1155.32 366.742Z" fill="#4A3385"/>
<path d="M972.747 359.164C974.394 359.164 975.73 357.828 975.73 356.18C975.73 354.531 974.394 353.195 972.747 353.195C971.099 353.195 969.764 354.531 969.764 356.18C969.764 357.828 971.099 359.164 972.747 359.164Z" fill="#4A3385"/>
<path d="M1276.04 135.589C1278.82 135.589 1281.07 133.333 1281.07 130.551C1281.07 127.769 1278.82 125.514 1276.04 125.514C1273.26 125.514 1271 127.769 1271 130.551C1271 133.333 1273.26 135.589 1276.04 135.589Z" stroke="#4A3385" stroke-miterlimit="10"/>
<path d="M1119.1 10.2012H1158.96" stroke="#4A3385" stroke-miterlimit="10" stroke-dasharray="1 1"/>
<path d="M464.498 412.206H605.565" stroke="#4A3385" stroke-miterlimit="10" stroke-dasharray="1 1"/>
<path d="M605.523 23.7489C608.374 23.7489 610.685 21.4367 610.685 18.5844C610.685 15.7321 608.374 13.4199 605.523 13.4199C602.672 13.4199 600.361 15.7321 600.361 18.5844C600.361 21.4367 602.672 23.7489 605.523 23.7489Z" stroke="#4A3385" stroke-miterlimit="10"/>
<path d="M890.853 16.0017C894.977 16.0017 898.321 12.6566 898.321 8.53015C898.321 4.40373 894.977 1.05859 890.853 1.05859C886.728 1.05859 883.385 4.40373 883.385 8.53015C883.385 12.6566 886.728 16.0017 890.853 16.0017Z" stroke="#4A3385" stroke-miterlimit="10"/>
<path d="M771.025 41.8657C772.451 41.8657 773.606 40.7095 773.606 39.2834C773.606 37.8573 772.451 36.7012 771.025 36.7012C769.6 36.7012 768.444 37.8573 768.444 39.2834C768.444 40.7095 769.6 41.8657 771.025 41.8657Z" stroke="#4A3385" stroke-miterlimit="10"/>
<path d="M789.854 41.8657C791.28 41.8657 792.435 40.7095 792.435 39.2834C792.435 37.8573 791.28 36.7012 789.854 36.7012C788.429 36.7012 787.273 37.8573 787.273 39.2834C787.273 40.7095 788.429 41.8657 789.854 41.8657Z" stroke="#4A3385" stroke-miterlimit="10"/>
<path d="M758.649 40.9773V32.6802H802.357V29.082" stroke="#4A3385" stroke-miterlimit="10"/>
<path d="M802.78 45.8248L808.048 40.1523H858.124L863.54 45.973" stroke="#4A3385" stroke-miterlimit="10"/>
<path d="M931.239 46.2477L937.438 39.4746L947.445 39.5381L936.973 50.6502L931.239 46.2477Z" fill="#4A3385"/>
<path d="M1087.16 39.5371H1103.62" stroke="#4A3385" stroke-miterlimit="10" stroke-dasharray="1 1"/>
<path d="M63.3613 164.205V113.979" stroke="#4A3385" stroke-miterlimit="10" stroke-dasharray="1 1"/>
<path d="M210.416 41.9727H222.961" stroke="#4A3385" stroke-miterlimit="10" stroke-dasharray="1 1"/>
<path d="M229.753 42.3945H269.082" stroke="#4A3385" stroke-miterlimit="10"/>
<path d="M274.392 42.3945H295.209" stroke="#4A3385" stroke-miterlimit="10"/>
<path d="M435.536 30.119H409.62V24.2983L413.005 20.8906H422.927L426.354 24.3195V28.341" stroke="#4A3385" stroke-miterlimit="10"/>
<path d="M398.238 26.9023H393.922V31.2202H398.238V26.9023Z" fill="#4A3385"/>
<path d="M404.881 26.9023H400.565V31.2202H404.881V26.9023Z" fill="#4A3385"/>
<path d="M442.961 26.9023H438.646V31.2202H442.961V26.9023Z" fill="#4A3385"/>
<path d="M1198.27 412.354L1214.54 393.749H1266.86L1288.94 370.488V40.1939L1256.4 4.14844" stroke="#4A3385" stroke-miterlimit="10"/>
</g>
<defs>
<filter id="filter0_d_1619_22162" x="-69.4424" y="-69.4414" width="1428.88" height="557.883" filterUnits="userSpaceOnUse" color-interpolation-filters="sRGB">
<feFlood flood-opacity="0" result="BackgroundImageFix"/>
<feColorMatrix in="SourceAlpha" type="matrix" values="0 0 0 0 0 0 0 0 0 0 0 0 0 0 0 0 0 0 127 0" result="hardAlpha"/>
<feOffset/>
<feGaussianBlur stdDeviation="35"/>
<feComposite in2="hardAlpha" operator="out"/>
<feColorMatrix type="matrix" values="0 0 0 0 0 0 0 0 0 0 0 0 0 0 0 0 0 0 1 0"/>
<feBlend mode="normal" in2="BackgroundImageFix" result="effect1_dropShadow_1619_22162"/>
<feBlend mode="normal" in="SourceGraphic" in2="effect1_dropShadow_1619_22162" result="shape"/>
</filter>
</defs>
</svg>
