<svg width="22" height="20" viewBox="0 0 22 20" fill="none" xmlns="http://www.w3.org/2000/svg">
<path d="M19.6261 16.4385C19.5352 16.416 19.4249 16.4285 19.2981 16.471C17.6004 17.1768 15.9496 17.6799 14.3456 17.9777C10.8813 18.6184 7.50519 18.2831 4.22003 16.9741C3.30779 16.6087 2.04002 15.993 0.416734 15.122C0.374907 15.092 0.32388 15.0745 0.270666 15.072C0.215545 15.0695 0.168693 15.0745 0.124597 15.0945C0.0805011 15.1145 0.0474289 15.1395 0.0226248 15.1721C-0.00217923 15.2046 -0.00769108 15.2497 0.011601 15.3072C0.028137 15.3623 0.0694771 15.4249 0.138377 15.4924C0.425002 15.7978 0.780527 16.1231 1.2022 16.4685C1.62387 16.8139 2.18334 17.2044 2.88061 17.6398C3.57788 18.0753 4.30822 18.4633 5.06612 18.8012C5.82678 19.139 6.7087 19.4244 7.71464 19.6546C8.72059 19.8849 9.72653 20 10.7297 20C11.7274 20 12.6975 19.9074 13.6373 19.7272C14.5799 19.5445 15.3736 19.3292 16.0213 19.079C16.6662 18.8312 17.2615 18.5534 17.8071 18.253C18.3528 17.9527 18.7552 17.6974 19.017 17.4947C19.2789 17.2894 19.4663 17.1293 19.5737 17.0091C19.7005 16.8665 19.7639 16.7438 19.7639 16.6362C19.7667 16.5236 19.7171 16.4585 19.6261 16.4385ZM11.4242 5.90664C11.0053 5.93918 10.501 6.00926 9.90843 6.11438C9.31588 6.21699 8.76744 6.34714 8.26033 6.49981C7.75323 6.65248 7.2351 6.86522 6.7087 7.13553C6.17955 7.40583 5.73032 7.71618 5.35826 8.06157C4.9862 8.40696 4.68303 8.83994 4.44602 9.36303C4.209 9.88362 4.09049 10.4568 4.09049 11.0825C4.09049 11.7607 4.22003 12.3639 4.4846 12.897C4.74642 13.4301 5.09644 13.8481 5.5374 14.1584C5.9756 14.4688 6.47444 14.7116 7.02564 14.8893C7.57684 15.067 8.16112 15.147 8.76744 15.1245C9.37376 15.102 9.9663 15.0169 10.5423 14.8667C11.1156 14.7191 11.6557 14.4813 12.1573 14.1584C12.6589 13.8356 13.0696 13.4526 13.392 13.0146C13.5105 13.1798 13.6153 13.3025 13.709 13.3826L13.9487 13.6053C14.1086 13.753 14.3539 13.9707 14.6846 14.2585C15.0126 14.5464 15.3488 14.8267 15.685 15.102L18.5623 12.6017L18.3969 12.479C18.2784 12.3964 18.1379 12.2788 17.978 12.1211C17.8182 11.966 17.6583 11.7933 17.504 11.6081C17.3469 11.4229 17.2118 11.2051 17.0989 10.9598C16.9859 10.7146 16.928 10.4768 16.928 10.2465V3.66913C16.928 3.41634 16.8756 3.14354 16.7709 2.8482C16.6634 2.55537 16.476 2.23501 16.2004 1.88963C15.9248 1.54424 15.583 1.23389 15.1752 0.963584C14.7645 0.69328 14.2188 0.463021 13.5326 0.277812C12.8491 0.0926041 12.0829 0 11.2396 0C10.3769 0 9.57495 0.0926042 8.82532 0.272807C8.07844 0.455512 7.43904 0.698285 6.90438 1.00363C6.37247 1.30897 5.91497 1.66187 5.53464 2.06482C5.15431 2.46778 4.87044 2.88825 4.68579 3.32624C4.50114 3.76423 4.40743 4.20723 4.40743 4.65524L8.13356 4.95307C8.28514 4.54261 8.48908 4.18721 8.73988 3.88187C8.99343 3.57652 9.2332 3.35628 9.45093 3.21862C9.67141 3.08097 9.90843 2.97084 10.1592 2.88825C10.4128 2.80566 10.5836 2.76311 10.6718 2.7531C10.76 2.74559 10.8289 2.74309 10.8813 2.74309C11.6172 2.74309 12.127 2.94081 12.4136 3.33375C12.5928 3.57152 12.681 3.93192 12.681 4.41747V5.83406C12.2621 5.84908 11.8431 5.87411 11.4242 5.90664ZM12.6837 9.70842C12.6837 10.1239 12.6231 10.5018 12.5046 10.8347C12.251 11.563 11.7687 12.021 11.0604 12.2062C10.4431 12.3714 9.85606 12.2888 9.29935 11.961C8.70681 11.6106 8.41191 11.115 8.41191 10.4768C8.41191 9.97873 8.54972 9.55325 8.82532 9.19785C9.10092 8.84495 9.46746 8.57965 9.92772 8.40445C10.388 8.22926 10.8372 8.10412 11.2782 8.03154C11.7164 7.95645 12.1876 7.9114 12.6837 7.89638V9.70842ZM21.9219 15.1871C21.8034 15.0519 21.4837 14.9643 20.96 14.9193C20.4364 14.8742 19.9816 14.8767 19.5903 14.9293C19.1686 14.9743 18.7332 15.0845 18.2867 15.2647C17.8375 15.4424 17.6418 15.5925 17.6914 15.7102L17.7107 15.7427L17.7355 15.7602L17.7741 15.7652H17.9009C17.9229 15.7652 17.9505 15.7627 17.989 15.7602C18.0276 15.7577 18.0635 15.7527 18.0965 15.7502C18.1296 15.7477 18.1764 15.7427 18.2371 15.7402C18.295 15.7377 18.3501 15.7302 18.4024 15.7227C18.4107 15.7227 18.5044 15.7152 18.6863 15.7002C18.8682 15.6851 19.0005 15.6751 19.0804 15.6676C19.1603 15.6601 19.2954 15.6526 19.48 15.6451C19.6647 15.6376 19.8135 15.6376 19.9238 15.6451C20.034 15.6526 20.158 15.6626 20.2986 15.6726C20.4391 15.6826 20.5521 15.7052 20.6403 15.7402C20.7285 15.7727 20.7947 15.8153 20.836 15.8679C20.9793 16.033 20.9518 16.3984 20.7533 16.9666C20.5549 17.5347 20.3675 17.9877 20.1911 18.3231C20.1139 18.4658 20.1139 18.5534 20.1911 18.5909C20.2683 18.6285 20.3757 18.5934 20.5191 18.4908C20.949 18.1855 21.3073 17.7249 21.5967 17.1067C21.7648 16.7413 21.886 16.3609 21.9577 15.963C22.0238 15.565 22.0128 15.3072 21.9219 15.1871Z" fill="black" fill-opacity="0.8"/>
</svg>
